<?xml version="1.0" encoding="utf-8"?>
<!-- Generator: Adobe Illustrator 22.0.1, SVG Export Plug-In . SVG Version: 6.00 Build 0)  -->
<svg version="1.1" id="Ebene_1" xmlns="http://www.w3.org/2000/svg" xmlns:xlink="http://www.w3.org/1999/xlink" x="0px" y="0px"
	 width="580px" height="94px" viewBox="0 0 580 94" style="enable-background:new 0 0 580 94;" xml:space="preserve">
<style type="text/css">
	.st0{fill:#B74191;}
</style>
<g>
	<path class="st0" d="M580,37.138V22.865c0-3.891-1.947-5.918-5.107-5.918h-14.515V9.729h17.999V0h-22.461c-3.405,0-6,2.027-6,5.92
		v13.864c0,4.056,2.677,6.244,6.082,6.244h13.705v8.433h-18.977v9.569h22.137C576.757,44.03,580,41.029,580,37.138 M543.106,44.03
		v-9.973h-19.463V0.08h-10.053V44.03H543.106z M494.94,20.27h-10.865V9.811h10.865V20.27z M505.238,23.434V6.972
		c0-3.891-3.243-6.892-7.137-6.892h-24.244V38.11c0,3.894,2.595,5.92,6,5.92h23.596v-9.487h-19.136v-5.19h15.814
		C503.291,29.354,505.238,27.327,505.238,23.434 M465.263,10.297V0.08h-27.247V44.03h10.3V26.838h13.378V17.11h-13.378v-6.812
		H465.263z M429.017,44.03V6.972c0-3.891-3.246-6.892-7.137-6.892h-22.947V44.03h10.217V9.893h9.567V44.03H429.017z M379.877,20.27
		h-10.866V9.811h10.866V20.27z M390.176,23.434V6.972c0-3.891-3.245-6.892-7.137-6.892h-24.246V38.11c0,3.894,2.595,5.92,6.002,5.92
		h23.595v-9.487h-19.136v-5.19h15.811C388.23,29.354,390.176,27.327,390.176,23.434 M350.199,10.297V0.08h-27.245V44.03h10.297
		V26.838h13.381V17.11h-13.381v-6.812H350.199z M313.953,10.297V0.08h-27.245V44.03h10.297V26.838h13.381V17.11h-13.381v-6.812
		H313.953z M268.22,34.299h-10.866V24.002h10.866V34.299z M278.438,44.03V5.92c0-3.894-2.595-5.92-6-5.92H248.76v9.729h19.218v5.19
		h-15.814c-3.163,0-5.107,2.029-5.107,5.92v16.3c0,3.891,3.243,6.892,7.134,6.892H278.438z"/>
	<path class="st0" d="M518.095,77.71c0.195-3.261,3.065-5.254,6.131-5.254c3.21,0,5.642,1.993,5.691,5.254H518.095z M534.93,81.894
		v-1.51c0-7.103-2.968-12.113-10.606-12.113c-7.689,0-11.241,5.545-11.241,12.794c0,7.592,4.135,12.455,11.871,12.455
		c3.796,0,8.808-1.263,9.05-5.887h-4.961c-0.535,1.558-2.384,1.702-3.845,1.702c-4.475,0-7.347-3.017-7.103-7.443H534.93z
		 M488.778,68.709h-5.547l8.854,24.375h7.152l8.857-24.375h-5.547l-6.861,20.239h-0.095L488.778,68.709z M466.869,72.016
		c5.012,0,6.812,4.282,6.812,8.808c0,4.524-1.558,8.952-6.812,8.952c-5.254,0-6.81-4.429-6.81-8.952
		C460.059,76.298,461.859,72.016,466.869,72.016 M466.869,68.272c-7.394,0-11.822,5.107-11.822,12.504
		c0,7.201,4.331,12.745,11.822,12.745c7.494,0,11.822-5.545,11.822-12.745C478.691,73.379,474.216,68.272,466.869,68.272
		 M439.205,57.666h-5.01v24.763c0,6.861,1.947,10.655,9.243,10.655h4.526v-4.184h-3.261c-3.989,0-5.498-1.168-5.498-5.205V57.666z
		 M386.176,57.666h-5.012v35.418h5.012V80.045c0-4.086,0.633-7.201,5.594-7.201c3.552,0,4.184,2.093,4.184,5.156v15.083h5.012
		V78.391c0-5.596-2.189-10.12-8.466-10.12c-2.286,0-4.768,0.826-6.324,2.433V57.666z M363.435,61.41l-5.01,1.314v5.547h-5.012v4.184
		h5.012V84.18c0,5.449,2.286,9.34,8.173,9.34c1.849,0,3.991-0.535,5.547-1.458v-4.621c-1.363,1.021-3.747,1.895-5.449,1.895
		c-2.87,0-3.261-2.384-3.261-4.67V72.456h8.71v-4.184h-8.71V61.41z M335.735,63.843h6.908v-6.18h-6.908V63.843z M329.799,68.709
		v4.573h7.831v19.802h5.012V68.709H329.799z M303.112,68.709h-5.107l3.112,24.375h5.887l2.873-9.973h0.095l2.873,9.973h6.033
		l2.968-24.375h-5.11l-1.751,18.051h-0.098l-2.528-8.613h-4.915l-2.482,8.078h-0.098L303.112,68.709z"/>
	<path class="st0" d="M120.391,32.745c2.271,0.337,2.271-2.104,2.271-2.104s0-2.441-2.271-2.019h-11.274
		c-2.271-0.337-2.271,2.104-2.271,2.104s0,2.523,2.271,2.019H120.391z M137.552,24.585V38.13c0.085,3.868-3.534,5.972-7.823,5.972
		c0,0-0.085,0-28.183-0.085c-7.152,0-10.433-2.942-10.433-7.571V25.678c0-4.207,3.282-6.982,10.853-6.982l27.764-0.085
		C133.681,18.611,137.552,21.808,137.552,24.585 M37.27,38.55l-0.589-11.272c0.17-4.544,4.459-6.733,13.208-6.733
		c14.386-2.353,21.201-2.353,21.201-2.353c5.552,0,9.927,2.353,9.842,5.635c-0.082,2.945-5.383,5.048-9.842,5.048l-11.863,2.441
		c-1.767-0.252-1.767,0.841-1.767,0.841v6.393c0,2.608-4.711,5.552-9.757,5.552C42.655,44.102,37.44,41.075,37.27,38.55
		 M68.735,37.709c0,3.282,3.112,5.889,6.897,5.889c3.788,0,6.9-2.608,6.9-5.889c0-3.282-3.112-5.974-6.9-5.974
		C71.847,31.734,68.735,34.427,68.735,37.709"/>
	<path class="st0" d="M15.565,16.515c-0.085-1.6,4.374-3.112,9.086-4.374c4.29-1.178,6.311-2.693,5.637-5.215
		C29.7,4.822,21.37,3.307,13.883,4.907C10.35,5.663,7.824,6.588,5.217,7.933c-2.523,1.348-5.048,3.87-5.131,8.749
		c0,0,0,2.189-0.085,21.96c-0.085,2.608,3.955,5.467,8.245,5.467c4.207,0,7.993-1.852,7.993-4.374l-0.085-12.283h9.253
		c4.544,0,7.067-2.777,7.067-5.552c0-2.525-2.523-4.629-6.897-4.459C15.733,17.778,15.565,16.515,15.565,16.515"/>
	<path class="st0" d="M211.699,30.017c3.112,4.711,7.571,9.845,4.963,12.452c-6.982,7.067-13.712,0.419-18.509-5.807
		c-1.852-2.438-2.945-4.457-3.534-5.804l-1.093-1.263c-0.589-0.252-1.263-0.419-1.767-0.419c-0.926,0-8.07-0.898-8.129,2.361
		l4.907,9.557c-0.085,1.178,0.53,0.198-1.237,1.291c-1.767,1.093-2.693,1.682-5.133,1.682c-2.438,0-3.729-1.309-5.411-2.569
		c-1.6-1.178-2.24-2.248-2.155-3.593c0.085-1.515-1.772-5.447-1.35-13.018c0.085-1.767,1.008-3.282,2.775-4.629
		c1.767-1.26,3.955-1.934,6.478-1.934c14.808-0.085,15.479-0.085,15.479-0.085c3.199-0.082,7.067,1.011,7.741,2.525l0.17,0.082
		C207.743,22.613,208.584,25.306,211.699,30.017 M213.969,23.287c0,3.197,2.356,5.804,5.131,5.804c2.862,0,5.218-2.608,5.218-5.804
		c0-3.112-2.356-5.722-5.218-5.722C216.325,17.565,213.969,20.175,213.969,23.287"/>
	<path class="st0" d="M184.522,30.017c3.112,4.711,7.571,9.842,4.963,12.452c-6.982,7.065-13.712,0.419-18.509-5.807
		c-1.852-2.438-2.945-4.457-3.534-5.804l-1.093-1.263c-0.589-0.252-1.263-0.419-1.767-0.419c-0.926,0-2.608,0.337-2.693,0.926
		l0.926,8.834c-0.085,1.178-0.926,2.356-2.693,3.449c-1.767,1.093-2.693,1.682-5.131,1.682c-2.441,0-4.544-0.589-6.226-1.852
		c-1.6-1.178-2.356-2.356-2.271-3.701c0.082-1.515-0.844-6.056-0.422-13.63c0.085-1.764,1.011-3.279,2.777-4.627
		c1.767-1.26,3.953-1.934,6.478-1.934c14.805-0.085,15.479-0.085,15.479-0.085c3.197-0.085,7.067,1.011,7.738,2.525l0.17,0.082
		C180.566,22.613,181.41,25.306,184.522,30.017"/>
</g>
</svg>
