<?xml version="1.0" encoding="utf-8"?>
<!-- Generator: Adobe Illustrator 22.0.1, SVG Export Plug-In . SVG Version: 6.00 Build 0)  -->
<svg version="1.1" id="Ebene_1" xmlns="http://www.w3.org/2000/svg" xmlns:xlink="http://www.w3.org/1999/xlink" x="0px" y="0px"
	 width="294px" height="174px" viewBox="0 0 294 174" style="enable-background:new 0 0 294 174;" xml:space="preserve">
<style type="text/css">
	.st0{fill:#E7E000;}
	.st1{fill:#E479AE;}
	.st2{fill:#D01135;}
	.st3{fill:#273585;}
	.st4{fill:#68C4EF;}
	.st5{fill:#EC7B26;}
	.st6{fill:#5B3D12;}
	.st7{fill:#70BB71;}
	.st8{fill:none;stroke:#5B3D12;stroke-width:0.7719;stroke-miterlimit:10;}
</style>
<g>
	<g>
		<g>
			<path class="st0" d="M73.12,0.18c17.93,2.9,25.18,25.29,31.71,42.22c4.75,12.31,9.51,24.63,14.26,36.94
				c0.68,1.76,1.36,3.73,0.67,5.49c-1.49,3.78-7.08,2.87-10.76,1.12c-12.17-5.79-23.52-13.3-33.61-22.22
				c11.07,14.24,20.43,29.82,27.79,46.28c2.35,5.26,4.65,10.82,9.05,14.55c4.4,3.73,11.66,4.83,15.71,0.73
				c4.05-4.1,0.66-13.1-5-11.99c-1.84,0.65-3.68,1.29-5.51,1.94c-1.77-7.1,6.35-13.8,13.58-12.65s12.54,7.76,14.76,14.73
				c2.37,7.45,1.52,16.66-4.57,21.58c-6.17,4.99-15.65,3.75-22.2-0.73s-10.86-11.47-14.97-18.26c-11.42-18.85-40.03-54.75-44.5-76.3
				C58.14,36.86,53.24-3.03,73.12,0.18z"/>
			<path class="st1" d="M64.28,45.55c-2.01-6.99-2.74-14.34-2.13-21.58c0.35-4.11,1.19-8.35,3.64-11.66
				c2.45-3.32,6.87-5.47,10.81-4.23c1.43,0.45,2.69,1.3,3.87,2.22C88.41,16.49,92.99,25.92,97.3,35c1.62,3.41,3.18,7.67,0.95,10.72
				c-1.87,2.55-5.55,2.91-8.67,2.39c-1.94-0.33-4.03-1.04-5.02-2.74c-0.98-1.68-0.62-3.85-1.4-5.64c-0.79-1.83-2.84-3.03-4.82-2.82
				c-1.98,0.2-3.75,1.79-4.15,3.75c-0.38,1.85,0.36,3.83-0.17,5.64c-0.75,2.55-4.28,3.76-6.44,2.21c-0.71-0.51-1.24-1.23-1.71-1.97
				c-2.65-4.19-3.57-9.43-2.52-14.27"/>
			<path class="st2" d="M69.53,40.76c-1.29-6.51-1.12-13.3,0.47-19.74c0.45-1.82,1.07-3.7,2.44-4.99s3.7-1.73,5.11-0.5
				c1.45,1.26,1.31,3.63,0.37,5.31c-0.94,1.68-2.47,2.93-3.67,4.43c-1.95,2.44-3,5.58-2.9,8.69c0.02,0.69,0.23,1.55,0.91,1.7
				c1.07-1.67,2.14-3.33,3.22-5c1.03-1.6,2.12-3.26,3.78-4.2c1.63-0.92,3.62-1.02,5.44-0.59c3.63,0.84,6.7,3.75,7.72,7.33
				c0.44,1.54,0.34,3.52-1.05,4.31c-1.68,0.95-3.69-0.61-4.7-2.26s-1.86-3.67-3.69-4.27c-1.09-0.36-2.29-0.1-3.37,0.28
				c-5.01,1.78-8.85,6.51-9.56,11.78c-1.54-3.9-2.42-8.06-2.6-12.24"/>
			<path class="st3" d="M109.21,68.15c-1.5-3.84-3.03-7.74-5.59-10.97c-2.56-3.23-6.35-5.74-10.48-5.76c-0.49,0-0.98,0.03-1.42,0.24
				c-1.52,0.72-1.46,2.9-1,4.52c0.46,1.62,1.01,3.57-0.12,4.82c-0.6,0.66-1.53,0.91-2.42,1c-3.27,0.3-6.64-1.4-8.34-4.21
				c-0.99-1.65-1.46-3.63-2.81-5.01s-4.16-1.56-4.83,0.24c-0.44,1.18,0.3,2.45,1.05,3.46C81.69,67.85,95.32,74.26,109,77.92
				c1.09,0.29,2.33,0.55,3.28-0.06C113.92,76.82,109.8,69.65,109.21,68.15z"/>
			<path class="st4" d="M85.1,54.28c-0.06-4.81-2.46-9.53-6.31-12.43c-1.07,0.9-1.47,2.4-1.32,3.79c0.14,1.38,0.76,2.67,1.43,3.9
				c1.02,1.86,2.21,3.64,3.53,5.3c0.35,0.44,0.73,0.88,1.26,1.07c0.53,0.19,1.23,0,1.41-0.53c0.11-0.34,0-0.7-0.12-1.04
				c-0.26-0.76-0.53-1.51-0.79-2.27"/>
			<path class="st0" d="M101.63,65.94c0.79-1.44,0.27-3.45-1.11-4.33c-1.38-0.89-3.42-0.52-4.41,0.79c-1.28,1.7-0.59,4.24,0.83,5.82
				c1.62,1.8,4.86,2.6,6.33,0.67c0.98-1.28,0.66-3.19-0.29-4.49c-0.96-1.3-2.41-2.11-3.82-2.89"/>
		</g>
		<path class="st5" d="M129.95,109.06c-0.36-0.06-0.76-0.1-1.05,0.12c-0.22,0.16-0.33,0.43-0.39,0.7c-0.38,1.64,0.63,3.31,1.9,4.43
			c1.26,1.12,2.8,1.9,4.01,3.07c2.68,2.6,3.28,7.02,1.56,10.33c-2.23,4.28-12.5,4.48-12.83,6.78c-0.42,3,5.41,4.45,7.3,4.43
			c2.88-0.03,6.5-1.45,8.79-3.15C149.91,127.85,141.19,110.92,129.95,109.06z"/>
	</g>
	<path class="st6" d="M83.89,114.56c0.79,1.08,1.94,2.08,3.27,2.1c1.61,0.02,2.86-1.6,3.03-3.21c0.18-1.61-0.43-3.2-1.04-4.71
		c-5.22-12.9-11.13-25.52-17.67-37.79c-1.74-3.25-8.41-12.98-12.92-7.89c-2.56,2.88,4,12.85,5.12,15.45
		C69.39,91.84,79.19,108.1,83.89,114.56z"/>
	<path class="st7" d="M53.32,46.78c9.83-5.07,18.21,16.3,7.04,18.41C50.15,67.12,45.11,51.01,53.32,46.78z"/>
	<g>
		<g>
			<path class="st0" d="M2.49,36.89c-8.2,16.19,5.66,35.22,15.52,50.46c7.17,11.09,14.34,22.17,21.51,33.26
				c1.03,1.59,2.22,3.29,4.04,3.77c3.94,1.02,6.49-4.04,7.24-8.03c2.47-13.24,3.08-26.82,1.79-40.23
				c5.01,17.32,12.11,34.04,21.11,49.68c2.87,5,6.02,10.13,6.45,15.88c0.43,5.75-2.95,12.26-8.65,13.12s-10.99-7.17-6.76-11.09
				c1.61-1.1,3.21-2.21,4.82-3.31c-4.71-5.61-14.91-2.99-18.22,3.53c-3.32,6.52-1.1,14.69,3.24,20.59
				c4.63,6.3,12.59,11.03,20.15,9.01c7.67-2.05,12.24-10.43,12.47-18.36s-2.9-15.52-5.97-22.84c-8.54-20.31-20.77-64.55-35.57-80.84
				C40.99,46.37,11.59,18.94,2.49,36.89z"/>
			<path class="st1" d="M44.41,56.44c-4.47-5.74-9.99-10.65-16.22-14.42c-3.53-2.14-7.45-3.95-11.58-3.92
				c-4.13,0.03-8.47,2.33-9.78,6.25c-0.47,1.42-0.53,2.94-0.48,4.44c0.34,10.05,5.28,19.3,10.1,28.13c1.81,3.32,4.34,7.08,8.12,7.07
				c3.16-0.01,5.62-2.78,7.03-5.6c0.88-1.76,1.53-3.86,0.74-5.67c-0.78-1.79-2.75-2.77-3.74-4.45c-1.01-1.72-0.78-4.08,0.55-5.56
				c1.33-1.48,3.66-1.97,5.47-1.15c1.72,0.78,2.89,2.54,4.67,3.18c2.5,0.9,5.56-1.25,5.58-3.9c0-0.88-0.27-1.73-0.59-2.54
				c-1.83-4.6-5.53-8.44-10.07-10.44"/>
			<path class="st2" d="M37.44,57.87c-4.51-4.87-10.1-8.73-16.25-11.23c-1.74-0.71-3.62-1.31-5.47-0.96
				c-1.85,0.35-3.57,1.97-3.41,3.84c0.17,1.91,2.17,3.19,4.08,3.42s3.82-0.28,5.74-0.36c3.12-0.14,6.28,0.86,8.74,2.77
				c0.55,0.43,1.11,1.1,0.84,1.74c-1.98-0.11-3.96-0.23-5.94-0.34c-1.9-0.11-3.89-0.2-5.63,0.58c-1.7,0.77-2.95,2.33-3.68,4.05
				c-1.45,3.42-0.9,7.62,1.39,10.55c0.99,1.26,2.65,2.35,4.11,1.69c1.76-0.79,1.68-3.34,0.94-5.12c-0.74-1.78-1.88-3.66-1.29-5.49
				c0.35-1.09,1.26-1.91,2.2-2.56c4.39-3,10.48-3.32,15.16-0.79c-2.25-3.54-5.1-6.7-8.38-9.31"/>
			<path class="st3" d="M36.26,106.04c-2.23-3.47-4.49-7-5.6-10.97c-1.11-3.97-0.91-8.51,1.5-11.85c0.28-0.39,0.6-0.78,1.03-1.01
				c1.48-0.81,3.2,0.53,4.24,1.85c1.04,1.32,2.29,2.92,3.97,2.74c0.89-0.1,1.64-0.7,2.23-1.37c2.17-2.46,2.78-6.19,1.5-9.21
				c-0.75-1.77-2.08-3.32-2.4-5.21s1.19-4.28,3.04-3.76c1.21,0.34,1.81,1.68,2.18,2.88c4.24,13.51,1.41,28.29-3.68,41.5
				c-0.4,1.05-0.92,2.2-1.97,2.61C40.52,114.94,37.13,107.4,36.26,106.04z"/>
			<path class="st4" d="M39.22,78.4c-3.86-2.88-6.27-7.6-6.35-12.41c1.35-0.33,2.81,0.23,3.84,1.16c1.04,0.93,1.72,2.18,2.31,3.44
				c0.9,1.92,1.64,3.92,2.21,5.97c0.15,0.54,0.28,1.11,0.13,1.65c-0.16,0.54-0.72,0.99-1.26,0.83c-0.34-0.1-0.57-0.41-0.77-0.71
				c-0.46-0.66-0.91-1.31-1.37-1.97"/>
			<path class="st0" d="M38.94,98.61c-1.63-0.21-2.95-1.81-2.85-3.44s1.59-3.07,3.23-3.09c2.12-0.03,3.78,2.01,4.22,4.09
				c0.5,2.37-0.76,5.45-3.18,5.51c-1.61,0.04-2.97-1.35-3.46-2.88s-0.29-3.19-0.09-4.79"/>
		</g>
		<path class="st5" d="M57.17,146.86c0.16-0.32,0.37-0.67,0.71-0.78c0.26-0.08,0.54-0.01,0.79,0.1c1.55,0.66,2.31,2.46,2.47,4.13
			c0.16,1.68-0.11,3.38,0.13,5.05c0.53,3.7,3.75,6.78,7.45,7.34c4.77,0.72,10.98-7.46,13.03-6.38c2.68,1.42,0.41,6.99-0.71,8.51
			c-1.71,2.31-5,4.4-7.72,5.25C60.64,174.04,52.07,157.04,57.17,146.86z"/>
	</g>
	<path class="st6" d="M47.18,46.51c1,2.2,4.09,2.95,6.89,1.68s4.26-4.09,3.26-6.29c-1-2.2-4.09-2.95-6.89-1.68
		C47.64,41.5,46.18,44.31,47.18,46.51z"/>
	<path class="st8" d="M48.44,45.65C46.98,43.34,28,33.29,24.06,33.71s-7.86,2.4-9.9,5.8"/>
	<path class="st8" d="M54.59,44.22c-1.17-2.46,0.49-23.86,2.95-26.96s6.24-5.35,10.2-5.26"/>
</g>
<g>
	<g>
		<g>
			<path class="st0" d="M284.82,29.39c9.75,15.31-2.18,35.6-10.49,51.74c-6.05,11.73-12.1,23.47-18.14,35.2
				c-0.86,1.68-1.88,3.5-3.66,4.15c-3.82,1.4-6.85-3.38-7.99-7.29c-3.76-12.93-5.69-26.39-5.73-39.86
				c-3.29,17.73-8.72,35.07-16.13,51.51c-2.37,5.25-5,10.67-4.86,16.43c0.14,5.76,4.14,11.91,9.9,12.21s10.24-8.21,5.64-11.7
				c-1.71-0.94-3.41-1.88-5.12-2.83c4.13-6.04,14.54-4.43,18.48,1.73c3.94,6.17,2.53,14.51-1.2,20.81
				c-3.99,6.72-11.45,12.21-19.17,10.94c-7.83-1.29-13.21-9.19-14.21-17.05c-1.01-7.87,1.36-15.73,3.7-23.31
				c6.5-21.05,14.34-66.28,27.47-83.93C247.43,42.58,274,12.41,284.82,29.39z"/>
			<path class="st1" d="M245.02,52.94c3.88-6.15,8.9-11.58,14.73-15.93c3.31-2.47,7.03-4.66,11.14-5.03
				c4.11-0.38,8.66,1.49,10.34,5.26c0.61,1.37,0.82,2.88,0.91,4.37c0.64,10.04-3.36,19.72-7.29,28.99
				c-1.48,3.48-3.62,7.47-7.38,7.83c-3.15,0.3-5.87-2.21-7.55-4.88c-1.05-1.67-1.9-3.69-1.29-5.57c0.6-1.85,2.47-3.03,3.29-4.79
				c0.84-1.81,0.38-4.13-1.1-5.48s-3.83-1.6-5.56-0.61c-1.64,0.95-2.62,2.81-4.33,3.62c-2.4,1.14-5.66-0.7-5.93-3.33
				c-0.09-0.87,0.1-1.74,0.34-2.59c1.37-4.76,4.68-8.94,9-11.37"/>
			<path class="st2" d="M252.09,53.68c4.01-5.29,9.2-9.68,15.07-12.76c1.66-0.87,3.48-1.66,5.35-1.49s3.75,1.61,3.77,3.49
				c0.02,1.92-1.85,3.39-3.72,3.8c-1.88,0.41-3.83,0.1-5.75,0.2c-3.12,0.16-6.16,1.47-8.43,3.62c-0.5,0.48-1,1.2-0.66,1.81
				c1.96-0.31,3.92-0.61,5.88-0.92c1.88-0.29,3.85-0.58,5.66,0.03c1.77,0.6,3.17,2.03,4.06,3.67c1.78,3.26,1.64,7.49-0.35,10.63
				c-0.86,1.35-2.41,2.6-3.92,2.08c-1.83-0.62-2-3.16-1.44-5.01c0.56-1.84,1.51-3.82,0.74-5.59c-0.45-1.05-1.44-1.78-2.45-2.33
				c-4.67-2.56-10.75-2.28-15.17,0.69c1.89-3.74,4.41-7.16,7.43-10.08"/>
			<path class="st3" d="M257.99,101.51c1.88-3.67,3.78-7.41,4.49-11.46c0.71-4.06,0.07-8.56-2.65-11.65
				c-0.32-0.36-0.68-0.71-1.12-0.9c-1.55-0.66-3.14,0.84-4.04,2.25c-0.9,1.42-2,3.13-3.68,3.11c-0.89-0.01-1.7-0.54-2.36-1.15
				c-2.4-2.24-3.37-5.89-2.4-9.02c0.57-1.83,1.75-3.51,1.88-5.42s-1.6-4.14-3.39-3.44c-1.17,0.46-1.63,1.85-1.89,3.08
				c-2.9,13.86,1.37,28.29,7.73,40.94c0.5,1.01,1.14,2.1,2.22,2.41C254.63,110.78,257.25,102.94,257.99,101.51z"/>
			<path class="st4" d="M252.33,74.28c3.56-3.24,5.49-8.17,5.1-12.97c-1.38-0.2-2.77,0.5-3.71,1.53c-0.94,1.03-1.5,2.34-1.96,3.65
				c-0.71,2-1.25,4.06-1.61,6.16c-0.1,0.55-0.17,1.14,0.04,1.65c0.21,0.52,0.82,0.92,1.33,0.7c0.33-0.14,0.52-0.47,0.7-0.78
				c0.39-0.7,0.78-1.4,1.17-2.1"/>
			<path class="st0" d="M254.6,94.38c1.6-0.37,2.76-2.09,2.5-3.71s-1.88-2.9-3.52-2.76c-2.12,0.18-3.56,2.38-3.8,4.49
				c-0.27,2.41,1.29,5.35,3.71,5.17c1.61-0.12,2.83-1.63,3.16-3.2c0.33-1.57-0.02-3.2-0.38-4.77"/>
		</g>
		<path class="st5" d="M241.18,144.17c-0.19-0.31-0.43-0.63-0.79-0.71c-0.27-0.06-0.54,0.04-0.78,0.17
			c-1.48,0.81-2.05,2.67-2.05,4.36c0,1.69,0.44,3.35,0.37,5.04c-0.16,3.73-3.07,7.12-6.69,8.03c-4.68,1.18-11.66-6.35-13.59-5.07
			c-2.53,1.68,0.27,7,1.54,8.4c1.93,2.13,5.41,3.89,8.2,4.47C240.39,171.57,247.26,153.81,241.18,144.17z"/>
	</g>
	<path class="st6" d="M206.46,113.45c-0.28,1.31-0.26,2.83,0.61,3.83c1.05,1.21,3.09,1.07,4.42,0.13s2.11-2.45,2.82-3.91
		c6.17-12.48,11.69-25.27,16.51-38.31c1.28-3.46,4.11-14.9-2.69-14.89c-3.86,0.01-6.95,11.53-8.15,14.09
		C213.8,87.53,208.15,105.65,206.46,113.45z"/>
	<path class="st7" d="M236.81,45.58c10.32,3.97-0.09,24.43-9.09,17.5C219.49,56.73,228.19,42.26,236.81,45.58z"/>
	<g>
		<g>
			<path class="st0" d="M210.42,1.06C192.86,5.7,187.85,28.7,183,46.19c-3.52,12.72-7.05,25.44-10.57,38.16
				c-0.5,1.82-0.99,3.84-0.13,5.53c1.85,3.62,7.33,2.16,10.82,0.06c11.54-6.96,22.1-15.53,31.27-25.4
				c-9.62,15.25-17.4,31.67-23.12,48.78c-1.83,5.47-3.57,11.23-7.58,15.37c-4.01,4.14-11.13,5.95-15.56,2.26
				c-4.43-3.69-1.95-12.97,3.8-12.42c1.89,0.46,3.79,0.93,5.68,1.39c1.06-7.24-7.67-13.11-14.75-11.25s-11.72,8.95-13.24,16.1
				c-1.63,7.65,0.12,16.73,6.66,21.03c6.63,4.36,15.94,2.2,22.02-2.9c6.08-5.1,9.68-12.48,13.11-19.64
				c9.51-19.87,34.47-58.41,36.8-80.29C228.93,36.1,229.89-4.08,210.42,1.06z"/>
			<path class="st1" d="M223.67,45.34c1.32-7.15,1.32-14.54,0-21.69c-0.75-4.06-2-8.19-4.77-11.25c-2.77-3.06-7.37-4.77-11.17-3.15
				c-1.38,0.59-2.55,1.56-3.64,2.59c-7.29,6.94-10.92,16.77-14.32,26.24c-1.28,3.56-2.42,7.94,0.11,10.76
				c2.11,2.35,5.81,2.35,8.86,1.53c1.9-0.51,3.91-1.43,4.73-3.22c0.82-1.77,0.24-3.9,0.84-5.75c0.61-1.9,2.53-3.29,4.52-3.28
				s3.9,1.42,4.5,3.32c0.56,1.81,0.02,3.85,0.72,5.6c0.99,2.46,4.63,3.32,6.62,1.57c0.66-0.58,1.12-1.35,1.51-2.13
				c2.22-4.43,2.63-9.74,1.11-14.45"/>
			<path class="st2" d="M217.97,41.1c0.64-6.6-0.18-13.34-2.41-19.59c-0.63-1.77-1.43-3.58-2.92-4.72c-1.49-1.14-3.85-1.36-5.14,0
				c-1.32,1.4-0.94,3.74,0.15,5.32c1.1,1.58,2.75,2.67,4.09,4.05c2.18,2.23,3.53,5.26,3.74,8.37c0.05,0.69-0.08,1.56-0.74,1.78
				c-1.23-1.55-2.46-3.11-3.69-4.66c-1.18-1.49-2.43-3.04-4.18-3.81c-1.71-0.76-3.71-0.66-5.48-0.06c-3.53,1.19-6.29,4.39-6.96,8.05
				c-0.29,1.57,0.01,3.54,1.47,4.19c1.76,0.78,3.62-0.97,4.45-2.7c0.84-1.73,1.49-3.83,3.25-4.61c1.05-0.46,2.26-0.33,3.38-0.05
				c5.17,1.28,9.45,5.61,10.67,10.79c1.15-4.03,1.62-8.25,1.39-12.44"/>
			<path class="st3" d="M181.16,72.24c1.11-3.97,2.25-8,4.48-11.47c2.23-3.47,5.76-6.34,9.86-6.76c0.48-0.05,0.98-0.06,1.44,0.1
				c1.59,0.57,1.74,2.74,1.44,4.4c-0.3,1.66-0.66,3.65,0.59,4.78c0.66,0.6,1.62,0.76,2.51,0.75c3.28-0.02,6.48-2.04,7.89-5
				c0.83-1.73,1.1-3.76,2.31-5.26s3.99-1.96,4.83-0.23c0.55,1.13-0.06,2.47-0.7,3.55c-7.28,12.15-20.22,19.85-33.48,24.84
				c-1.05,0.4-2.26,0.77-3.27,0.26C177.33,81.33,180.73,73.79,181.16,72.24z"/>
			<path class="st4" d="M203.8,56.07c-0.41-4.79,1.51-9.73,5.06-12.98c1.15,0.79,1.7,2.25,1.69,3.64s-0.49,2.74-1.04,4.02
				c-0.84,1.95-1.84,3.83-2.99,5.62c-0.3,0.47-0.64,0.95-1.15,1.19c-0.51,0.24-1.22,0.12-1.46-0.39c-0.15-0.32-0.07-0.7,0.02-1.04
				c0.19-0.78,0.38-1.56,0.56-2.33"/>
			<path class="st0" d="M188.5,69.3c-0.92-1.36-0.61-3.4,0.68-4.42c1.29-1.02,3.35-0.85,4.46,0.36c1.44,1.57,1,4.16-0.26,5.87
				c-1.44,1.95-4.58,3.06-6.23,1.29c-1.1-1.18-0.97-3.11-0.15-4.5c0.83-1.38,2.19-2.34,3.52-3.25"/>
		</g>
		<path class="st5" d="M164.54,114.98c0.35-0.09,0.75-0.17,1.06,0.01c0.23,0.14,0.37,0.4,0.46,0.66c0.54,1.6-0.3,3.35-1.45,4.59
			c-1.15,1.24-2.6,2.17-3.69,3.45c-2.41,2.85-2.58,7.31-0.54,10.44c2.64,4.04,12.88,3.24,13.43,5.49c0.72,2.95-4.95,4.95-6.83,5.12
			c-2.87,0.26-6.62-0.81-9.06-2.27C146.52,135.63,153.53,117.93,164.54,114.98z"/>
	</g>
	<path class="st6" d="M232.94,40.82c-0.98,2.21,0.51,5.01,3.32,6.26s5.89,0.46,6.87-1.75c0.98-2.21-0.51-5.01-3.32-6.26
		C236.99,37.83,233.92,38.61,232.94,40.82z"/>
	<path class="st8" d="M234.41,41.18c0.76-2.62-4.34-23.47-7.28-26.13s-7.02-4.28-10.92-3.54"/>
	<path class="st8" d="M239.57,44.83c1.06-2.51,18.17-15.5,22.12-15.72s8.15,1.09,10.71,4.12"/>
</g>
</svg>
