<?xml version="1.0" encoding="utf-8"?>
<!-- Generator: Adobe Illustrator 22.0.1, SVG Export Plug-In . SVG Version: 6.00 Build 0)  -->
<svg version="1.1" id="Ebene_1" xmlns="http://www.w3.org/2000/svg" xmlns:xlink="http://www.w3.org/1999/xlink" x="0px" y="0px"
	 width="400px" height="265px" viewBox="0 0 400 265" style="enable-background:new 0 0 400 265;" xml:space="preserve">
<style type="text/css">
	.st0{fill:#F8C29D;}
	.st1{fill:#E872A5;}
	.st2{fill:#F4AA92;}
	.st3{fill:#E9AC94;}
	.st4{fill:#F3A690;}
	.st5{fill:#C38D79;}
	.st6{fill:#FBDABC;}
	.st7{fill:#846153;}
	.st8{fill:#C9AF2A;}
	.st9{fill:#896B28;}
	.st10{fill:#F4AE94;}
	.st11{fill:none;stroke:#3D2D10;stroke-width:0.7375;stroke-miterlimit:10;}
	.st12{fill:#9A881F;}
	.st13{fill:#BD5E88;}
	.st14{fill:#FDE6C4;}
	.st15{fill:#FFFFFF;}
</style>
<g>
	<path class="st0" d="M52.064,161.986c-1.219,11.062-1.564,20.531-7.851,27.617c-7.898,8.9-17.034,9.412-21.781,23.061
		c-2.938,8.443-10.879,47.256-10.879,47.256c13.206-0.1,170.696,0.44,176.977,0c0,0-5.546-28.871-7.315-37.709
		c-2.616-13.066-11.843-18.412-19.474-21.367c-7.847-3.037-13.631-9.234-16.075-22.217c-2.329-12.371-0.101-23.959-0.503-36.527
		c-13.491,12.953-24.638,30.064-41.488,31.01c-12.521,0.703-26.376,1.389-38.52-4.146c-2.731-1.246-7.601-3.268-9.718-6.436
		c-1.305-1.955-1.481-5.107-2.498-5.4"/>
	<path class="st1" d="M5.668,265c0,0,87.809-83,188.809,0H5.668z"/>
	<g>
		<path class="st2" d="M34.148,248.053c0.533-2.955-2.289-11.111,4.056-7.062c2.542,1.621,5.225,4.941,5.707,8.062
			c1.381,8.934-10.746,0.74-10.513-4.75"/>
		<path class="st2" d="M41.898,245.553c-0.937-2.883-3.568-10.977,2.506-9.199c3.025,0.885,5.484,4.863,6.244,7.705
			c0.662,2.473,0.666,5.939-2.556,6c-1.775,0.033-3.345-1.301-4.45-2.562c-1.331-1.52-1.671-5-3.744-5.443"/>
		<path class="st2" d="M49.385,241.58c-1.966-3.238-1.388-7.436,1.612-7.836c2.815-0.377,5.085,4.006,5.735,6.141
			c0.616,2.023,0.752,5.945-1.834,6.674c-2.262,0.635-6.27-3.357-5-5.756"/>
		<path class="st2" d="M32.797,245.631C19.716,255.49,45.197,253.018,32.797,245.631"/>
		<path class="st0" d="M52.275,244.461c0.981-0.701,2.479-1.287,3.58-1.709c-0.135-1.395-2.603-2.504-3.781-1.59
			c-1.099,0.854-0.766,3.008,0.503,3.197"/>
		<path class="st0" d="M46.061,247.566c0.981-0.699,2.479-1.287,3.58-1.709c-0.135-1.395-2.603-2.504-3.781-1.59
			c-1.099,0.854-0.766,3.01,0.503,3.199"/>
		<path class="st0" d="M39.071,250.414c0.981-0.699,2.479-1.287,3.58-1.709c-0.135-1.395-2.603-2.504-3.781-1.59
			c-1.099,0.854-0.766,3.01,0.503,3.199"/>
		<path class="st0" d="M30.971,250.629c0.743-0.596,1.877-1.094,2.711-1.453c-0.102-1.184-1.971-2.127-2.863-1.35
			c-0.832,0.725-0.58,2.557,0.381,2.717"/>
	</g>
	<g>
		<path class="st2" d="M172.115,248.342c-0.533-2.955,2.289-11.111-4.056-7.062c-2.542,1.621-5.225,4.941-5.707,8.062
			c-1.381,8.934,10.746,0.74,10.513-4.75"/>
		<path class="st2" d="M164.365,245.842c0.937-2.883,3.568-10.977-2.506-9.199c-3.025,0.885-5.484,4.863-6.244,7.705
			c-0.662,2.473-0.665,5.939,2.556,6c1.775,0.033,3.345-1.301,4.45-2.562c1.331-1.52,1.671-5,3.744-5.443"/>
		<path class="st2" d="M156.877,241.869c1.966-3.238,1.388-7.436-1.612-7.836c-2.815-0.377-5.085,4.006-5.735,6.141
			c-0.616,2.023-0.752,5.945,1.834,6.674c2.262,0.635,6.27-3.357,5-5.756"/>
		<path class="st2" d="M173.466,245.92C186.547,255.779,161.066,253.307,173.466,245.92"/>
		<path class="st0" d="M153.988,244.75c-0.981-0.701-2.48-1.287-3.58-1.709c0.135-1.395,2.603-2.504,3.781-1.59
			c1.099,0.854,0.766,3.008-0.503,3.197"/>
		<path class="st0" d="M160.202,247.855c-0.981-0.699-2.479-1.287-3.58-1.709c0.135-1.395,2.603-2.504,3.781-1.59
			c1.099,0.854,0.766,3.01-0.503,3.199"/>
		<path class="st0" d="M167.192,250.703c-0.981-0.699-2.48-1.287-3.58-1.709c0.135-1.395,2.603-2.504,3.781-1.59
			c1.099,0.854,0.766,3.01-0.503,3.199"/>
		<path class="st0" d="M175.292,250.918c-0.743-0.596-1.877-1.094-2.711-1.453c0.102-1.184,1.971-2.127,2.863-1.35
			c0.832,0.725,0.58,2.557-0.381,2.717"/>
	</g>
	<g>
		<path class="st3" d="M79.603,196.306c15.302,6.417,34.177,3.214,46.506-7.892c3.45-3.108,6.392-6.748,8.974-10.608
			c5.273-7.883,9.082-16.742,11.176-25.992c-6.324,11.805-20.499,16.796-33.625,19.45c-10.849,2.193-22.031,3.49-32.984,1.896
			c-9.284-1.351-21.571-15.497-29.341-20.5C46.514,165.619,68.879,191.809,79.603,196.306z"/>
		<g>
			<g>
				<path class="st4" d="M37.219,108.588c-1.001-4.343-4.211-8.115-8.338-9.798c-0.967-0.394-2.118-0.665-3.016-0.133
					c-0.934,0.554-1.229,1.752-1.367,2.829c-0.979,7.675,1.676,15.298,4.289,22.581c3.779,10.531,7.75,21.382,15.408,29.54
					c0.745,0.794,1.63,1.608,2.718,1.652c1.497,0.061,2.61-1.323,3.395-2.599c2.633-4.284,4.574-8.992,5.726-13.887"/>
				<path class="st4" d="M158.005,111.672c1.001-4.343,4.212-8.115,8.339-9.798c0.967-0.394,2.118-0.665,3.016-0.133
					c0.934,0.554,1.229,1.752,1.367,2.829c0.979,7.675-1.676,15.298-4.289,22.581c-3.779,10.531-7.75,21.382-15.408,29.54
					c-0.745,0.794-1.63,1.608-2.718,1.652c-1.497,0.061-2.61-1.323-3.395-2.599c-2.633-4.284-4.574-8.992-5.726-13.887"/>
				<ellipse class="st0" cx="98.004" cy="91.577" rx="65.795" ry="66.942"/>
				<polygon class="st0" points="33.739,107.909 60.647,176.008 137.565,175.351 163.125,106.483 				"/>
				<ellipse class="st0" cx="101.054" cy="173.531" rx="27.763" ry="10.989"/>
				<path class="st5" d="M115.214,158.685c-1.091,0.987-1.127,2.791-0.378,4.057s2.102,2.062,3.49,2.55
					c-12.323-0.444-24.674-0.119-36.956,0.972c2.673-0.238,3.541-4.213,5.57-5.125c2.314-1.04,5.678,0.375,8.195,0.565
					C101.935,162.216,108.867,161.191,115.214,158.685z"/>
				<g>
					<path class="st6" d="M85.403,130.978c-1.819-0.302-7.341,5.01-7.23,6.85c0.191,3.166,8.805,3.937,11.615,5.408
						c3.018,1.581,0.503,4.702,3.314,6.627c2.811,1.925,15.359,1.882,16.387-1.366c0.507-1.604-0.148-3.414,0.41-5.001
						c0.914-2.598,4.261-3.093,6.935-3.752c2.674-0.659,5.697-3.244,4.318-5.628c-0.745-1.289-4.878-4.87-6.248-5.452
						c-4.842-2.057-13.991-28.812-15.273-35.657c-1.386-7.407,3.479-14.412,3.776-13.775c0.149,0.319,0.052-0.67-0.298-0.637
						L85.496,80.4c0,0,5.348,9.041,5.348,12.607C90.844,105.925,86.946,126.736,85.403,130.978z"/>
					<path class="st5" d="M83.257,140.204c0,0.902,1.149,1.633,2.566,1.633s2.566-0.731,2.566-1.633s-1.149-1.633-2.566-1.633
						S83.257,139.302,83.257,140.204z"/>
					<path class="st5" d="M110.795,138.69c0,0.902,1.149,1.633,2.566,1.633s2.566-0.731,2.566-1.633s-1.149-1.633-2.566-1.633
						S110.795,137.788,110.795,138.69z"/>
					<path class="st5" d="M90.164,147.749c-2.38,1.014-6.032-3.659-7.181-5.976c-0.43-0.867-0.546-2.053,0.183-2.689
						c0.874-0.763,4.359,0.346,5.222,1.12C89.823,141.489,89.914,145.839,90.164,147.749"/>
					<path class="st5" d="M110.476,144.555c-0.035-1.357-0.13-2.732,0.161-4.058s1.039-2.628,2.261-3.219
						c1.222-0.59,2.934-0.221,3.529,0.999c0.536,1.099,0.051,2.424-0.617,3.448c-1.223,1.874-3.313,4.92-5.42,5.675
						c-0.33,0.207-0.283-2.188,0.105-2.155"/>
					<g>
						<path class="st5" d="M79.183,69.515c3.871,2.868,5.505,9.995,8.249,13.405L50.12,86.825
							C52.939,81.543,76.484,67.515,79.183,69.515z"/>
						<path class="st0" d="M67.732,86.041c1.269-3.311,4.567-5.745,8.104-5.981c3.538-0.236,7.13,1.737,8.828,4.85
							c-6.004-0.845-12.181-0.44-18.024,1.181"/>
						<path d="M85.937,85.009c-6.799-0.337-13.342,1.049-20.061,1.427c2.623-1.194,5.832-1.581,8.665-1.967
							C78.614,83.915,81.99,84.814,85.937,85.009z"/>
						<path class="st7" d="M80.292,70.584c-0.293-0.449-0.604-0.911-1.062-1.189c-0.962-0.583-2.195-0.174-3.239,0.246
							c-3.802,1.529-7.724,3.138-10.575,6.082c7.015-2.432,13.792,0.547,18.509,5.745c2.135,2.352,4.186,3.315,2.585-0.624
							C85.069,77.295,82.38,73.783,80.292,70.584z"/>
					</g>
					<g>
						<path class="st5" d="M109.267,68.105c-3.871,2.868-5.505,9.995-8.249,13.405l37.312,3.905
							C135.511,80.132,111.966,66.104,109.267,68.105z"/>
						<path class="st0" d="M120.718,84.63c-1.269-3.311-4.567-5.745-8.104-5.981c-3.538-0.236-7.13,1.737-8.828,4.85
							c6.004-0.845,12.181-0.44,18.024,1.181"/>
						<path d="M102.513,83.599c6.799-0.337,13.342,1.049,20.061,1.427c-2.623-1.194-5.832-1.581-8.665-1.967
							C109.836,82.505,106.46,83.403,102.513,83.599z"/>
						<path class="st7" d="M108.158,69.174c0.293-0.449,0.604-0.911,1.063-1.189c0.962-0.583,2.195-0.174,3.239,0.245
							c3.802,1.529,7.724,3.138,10.575,6.082c-7.015-2.432-13.792,0.547-18.509,5.745c-2.135,2.352-4.186,3.315-2.585-0.624
							C103.381,75.884,106.07,72.372,108.158,69.174z"/>
					</g>
				</g>
				<path class="st8" d="M47.337,72.582c-5.675,9.505-10.067,17.796-14.311,28.02c-2.317-12.832,0.89-29.751,8.911-43.485
					C55.433,34.006,55.212,59.394,47.337,72.582z"/>
				<path class="st8" d="M91.854,25.344c18.112-1.76,36.862,4.686,50.065,17.208c1.87,1.773,3.76,4.003,3.534,6.57
					c-8.395-0.423-15.094-6.735-22.161-11.288c-7.473-4.815-16.059-7.89-24.89-8.915c-3.547-0.411-7.189-0.49-10.64,0.427
					c-6.146,1.633-11.001,6.183-16.24,9.787c-4.147,2.852-21.311,15.668-26.199,12.102C49.798,38.838,80.163,26.48,91.854,25.344z"
					/>
				<path class="st8" d="M148.67,49.025c-1.936,5.374-0.82,11.407,1.344,16.693s5.321,10.109,7.659,15.321
					c4.378,9.76,5.761,20.839,3.919,31.375c1.512-3.194,1.758-6.819,1.971-10.346c0.571-9.474,1.057-19.138-1.376-28.311
					c-3.187-12.015-11.524-22.57-22.474-28.454"/>
				<path class="st9" d="M55.491,43.718c-3.273,1.478-6.751,3.134-8.564,6.234c-0.291,0.497-0.536,1.095-0.334,1.634
					c0.464,1.24,2.154,0.333,3.42-0.054c12.063-3.683,23.121-13.622,30.954-19.01C75.331,35.85,61.472,41.053,55.491,43.718z"/>
				<path class="st8" d="M33.505,97.231c-0.776,6.237,0.354,12.698,3.201,18.3c-0.44-8.417-0.608-16.848-0.503-25.275
					c-0.341,0.184-0.594,0.522-0.674,0.901"/>
				<path class="st10" d="M63.922,175.186c-1.113-0.44-2.43-0.328-3.452,0.295c-0.655,0.399-19.069-42.62-20.533-46.652
					c-1.495-4.119-7.866-14.572-1.772-16.06c2.23-0.544,5.408,1.168,7.448,1.838c4.291,1.409,7.619,1.881,12.102,1.199
					C61.89,134.807,61.939,155.785,63.922,175.186z"/>
				<path class="st10" d="M133.412,175.422c0,0,3.416-0.139,4.044,0.279c0.638,0.425,18.297-44.158,19.76-48.19
					c1.495-4.119,7.867-14.572,1.772-16.06c-2.23-0.545-5.408,1.168-7.448,1.838c-4.291,1.409-7.619,1.881-12.102,1.199
					C135.264,133.487,135.395,156.02,133.412,175.422z"/>
				<path class="st5" d="M70.859,158.992c1.259-1.494,4.379-2.889,5.887-4.038c0.457-0.348,0.976-0.693,1.518-0.604
					c0.921,0.151,3.726,3.736,3.641,3.922c-0.12,0.262-8.666,1.332-11.047,2.392c0.022,0.194,0.032-1.185,0.054-0.991"/>
				<path class="st5" d="M127.871,159.745c0.586-0.083-5.914-2.601-8.888-3.018c-0.034-0.708,2.382-4.336,3.044-4.085
					c0,0,1.563-1.169,4.162,2.199C128.79,158.21,127.871,159.745,127.871,159.745z"/>
				<ellipse class="st0" cx="56.227" cy="114.476" rx="22.295" ry="15.307"/>
				<ellipse class="st0" cx="139.752" cy="110.482" rx="22.295" ry="15.307"/>
				<path class="st11" d="M73.55,160.683c17.431-5.81,40.383-6.392,53.166-2.034"/>
			</g>
			<path class="st12" d="M128.379,40.719c3.119,2.452,6.57,4.48,10.23,6.011c-4.202-3.377-8.404-6.755-12.606-10.132
				c5.667,2.918,11.108,6.277,16.256,10.036c-4.507-4.6-9.45-8.773-14.74-12.445c5.691,0.897,10.839,4.056,14.987,8.055
				c4.147,3.999,7.397,8.822,10.494,13.68c-3.602-5.473-7.02-3.99-12.527-5.815c-2.55-0.845-4.956-2.14-7.065-3.805
				C131.434,44.746,130.238,42.181,128.379,40.719z"/>
		</g>
		<ellipse class="st6" cx="101.615" cy="178.656" rx="19.164" ry="5.366"/>
	</g>
</g>
<g>
	<path class="st0" d="M252.158,165.477c-1.219,11.062-1.563,20.531-7.851,27.617c-7.898,8.9-17.034,9.412-21.781,23.061
		c-2.938,8.443-10.879,47.256-10.879,47.256c13.206-0.1,170.696,0.439,176.976,0c0,0-5.545-28.871-7.314-37.709
		c-2.617-13.066-11.844-18.412-19.475-21.367c-7.846-3.037-13.631-9.234-16.074-22.217c-2.328-12.371-0.102-23.959-0.504-36.527
		c-13.49,12.953-24.637,30.064-41.487,31.01c-12.521,0.703-26.376,1.389-38.52-4.146c-2.73-1.246-7.601-3.268-9.718-6.436
		c-1.305-1.955-1.481-5.107-2.498-5.4"/>
	<g>
		<path class="st1" d="M206.613,265c0,0,26.008-9.354,41.206-20.076c18.056-12.74,7.505-27.717,53.199-26.4
			c47.779,1.375,38.434,14.229,64.955,33.047c6.686,4.744,22.596,7.797,29.449,13.43H206.613V265z"/>
		<path class="st13" d="M275.884,228.838c10.126-3.17,20.5-4.668,31.289-4.07c6.727,0.371,12.141,1.729,17.883,4.689
			c1.291,0.666,2.713,1.121,4.023,1.451c-11.211-2.68-22.013-3.445-33.62-3.445c-4.946,0-9.599,0.609-14.426,1.049
			c-1.895,0.174-7.326-0.82-7.9,0.67"/>
		<path class="st13" d="M253.533,245.344c0.057,2.352,0.038,4.617-0.664,6.893c-0.586,1.9-2.36,3.623-2.378,5.459
			c4.187-3.275,6.239-7.785,3.387-12.352"/>
		<path class="st13" d="M356.69,252.564c0.217,3.256,2.422,4.9,4.1,7.17c-1.947,0.293-5.32-0.576-6.188-2.625
			c-0.938-2.213,1.283-4.289,2.096-6.314c-0.291-0.068,0.205,0.205,0.336,0.395"/>
		<path class="st13" d="M265.224,240.873c-2.032,5.705,14.983,10.793,19.496,11.346c-7.511,0.174-13.642-13.898-20.818-11.98
			c-0.041,1.295,0.718,2.221,2.01,2.699"/>
		<path class="st13" d="M340.184,241.561c-2.674,2.059-3.867,6.002-6.893,8.201c-1.717,1.246-4.057,2.631-5.803,3.338
			c3.779-0.717,8.686-1.887,11.338-5.004c2.088-2.453,2.678-6.592,4.074-9.508c-1.668,1.531-3.854,3.23-5.123,5.037"/>
	</g>
	<g>
		<path class="st2" d="M249.86,241.379c-0.562-2.949-6.121-9.551,1.253-8.047c2.955,0.604,6.65,2.74,8.219,5.479
			c4.493,7.846-9.766,4.545-11.517-0.662"/>
		<path class="st2" d="M256.198,236.266c-1.908-2.354-7.267-8.967-0.96-9.486c3.142-0.258,6.864,2.574,8.592,4.953
			c1.505,2.072,2.751,5.307-0.234,6.518c-1.645,0.668-3.588-0.014-5.073-0.795c-1.787-0.941-3.353-4.068-5.447-3.738"/>
		<path class="st2" d="M261.763,229.873c-2.997-2.318-3.962-6.443-1.306-7.893c2.492-1.361,6.184,1.914,7.555,3.674
			c1.301,1.67,2.835,5.281,0.681,6.889c-1.883,1.404-7.057-0.885-6.731-3.58"/>
		<path class="st2" d="M247.731,239.604C239.056,253.498,261.955,242.051,247.731,239.604"/>
		<path class="st14" d="M265.493,231.525c0.664-1.006,1.853-2.09,2.729-2.879c-0.626-1.254-3.328-1.404-4.1-0.129
			c-0.719,1.191,0.364,3.084,1.617,2.805"/>
		<path class="st14" d="M260.807,236.654c0.665-1.006,1.853-2.092,2.729-2.881c-0.626-1.252-3.328-1.402-4.1-0.127
			c-0.719,1.189,0.364,3.084,1.617,2.805"/>
		<path class="st14" d="M255.303,241.818c0.665-1.006,1.853-2.09,2.729-2.879c-0.626-1.254-3.328-1.404-4.1-0.129
			c-0.719,1.191,0.364,3.084,1.617,2.807"/>
		<path class="st14" d="M247.819,244.924c0.48-0.822,1.36-1.695,2.01-2.328c-0.521-1.07-2.603-1.279-3.157-0.234
			c-0.517,0.975,0.375,2.594,1.33,2.4"/>
	</g>
	<g>
		<path class="st2" d="M359.444,246.148c0.879-2.871,7.127-8.824-0.367-8.137c-3.002,0.275-6.91,1.996-8.768,4.549
			c-5.324,7.307,9.211,5.584,11.52,0.598"/>
		<path class="st2" d="M353.701,240.373c2.154-2.133,8.203-8.119,1.99-9.324c-3.094-0.6-7.104,1.809-9.082,3.984
			c-1.723,1.895-3.314,4.973-0.479,6.504c1.561,0.844,3.568,0.379,5.129-0.236c1.879-0.74,3.777-3.678,5.824-3.121"/>
		<path class="st2" d="M348.867,233.41c3.232-1.977,4.643-5.971,2.16-7.703c-2.328-1.625-6.355,1.229-7.91,2.828
			c-1.477,1.516-3.395,4.939-1.43,6.771c1.719,1.602,7.109-0.109,7.082-2.822"/>
		<path class="st2" d="M361.754,244.615C368.858,259.375,347.348,245.494,361.754,244.615"/>
		<path class="st14" d="M344.981,234.645c-0.553-1.072-1.615-2.281-2.398-3.16c0.758-1.178,3.461-1.031,4.088,0.32
			c0.586,1.264-0.697,3.025-1.914,2.611"/>
		<path class="st14" d="M349.076,240.254c-0.549-1.072-1.611-2.279-2.398-3.16c0.762-1.176,3.463-1.031,4.09,0.32
			c0.586,1.264-0.699,3.025-1.912,2.613"/>
		<path class="st14" d="M353.985,245.99c-0.551-1.072-1.613-2.281-2.398-3.16c0.76-1.178,3.461-1.031,4.088,0.32
			c0.586,1.262-0.697,3.025-1.912,2.611"/>
		<path class="st14" d="M361.084,249.893c-0.387-0.867-1.166-1.832-1.744-2.533c0.635-1.004,2.729-0.986,3.164,0.113
			c0.408,1.025-0.656,2.537-1.584,2.24"/>
	</g>
	<g>
		<path class="st3" d="M279.14,193.643c15.302,6.417,34.177,3.214,46.506-7.892c3.45-3.108,6.393-6.748,8.974-10.608
			c5.273-7.883,9.082-16.742,11.176-25.992c-6.324,11.805-20.499,16.796-33.625,19.45c-10.849,2.193-22.031,3.49-32.984,1.896
			c-9.284-1.351-21.571-15.497-29.341-20.5C246.051,162.956,268.416,189.146,279.14,193.643z"/>
		<g>
			<path class="st4" d="M234.029,98.834c-1.001-4.343-4.212-8.115-8.338-9.798c-0.967-0.394-2.118-0.665-3.016-0.133
				c-0.934,0.554-1.229,1.752-1.367,2.829c-0.979,7.675,1.676,15.298,4.289,22.581c3.779,10.531,7.75,21.382,15.408,29.539
				c0.745,0.794,1.63,1.608,2.718,1.652c1.497,0.061,2.61-1.323,3.395-2.599c2.633-4.284,4.574-8.992,5.726-13.887"/>
			<path class="st4" d="M354.815,101.918c1.001-4.343,4.212-8.115,8.339-9.798c0.967-0.394,2.118-0.665,3.016-0.133
				c0.934,0.554,1.229,1.752,1.366,2.829c0.979,7.675-1.675,15.298-4.289,22.581c-3.779,10.531-7.75,21.382-15.408,29.54
				c-0.745,0.794-1.63,1.608-2.718,1.652c-1.497,0.061-2.61-1.323-3.395-2.599c-2.633-4.284-4.574-8.992-5.726-13.887"/>
			<ellipse class="st0" cx="294.814" cy="81.823" rx="65.795" ry="66.942"/>
			<polygon class="st0" points="230.549,98.155 257.457,166.255 334.375,165.597 359.935,96.729 			"/>
			<ellipse class="st0" cx="297.864" cy="163.777" rx="27.763" ry="10.989"/>
			<path class="st5" d="M307.046,152.313c-1.091,0.987-0.338,5.229,0.411,6.495c0.749,1.266,1.045,0.323,2.433,0.811
				c-12.323-0.444-11.637-0.28-23.92,0.811c2.673-0.237,0.917-6.251,2.945-7.163c2.314-1.04,1.699,2.146,3.3,4.098
				C296.143,162.152,300.048,164.082,307.046,152.313z"/>
			<path class="st6" d="M282.213,121.224c-1.819-0.301-7.341,5.01-7.23,6.85c0.191,3.166,8.805,3.937,11.615,5.408
				c3.018,1.581,0.503,4.702,3.314,6.627s15.359,1.882,16.387-1.366c0.507-1.604-0.149-3.414,0.41-5.001
				c0.914-2.598,4.261-3.093,6.935-3.752s5.697-3.244,4.318-5.628c-0.745-1.289-4.878-4.87-6.248-5.452
				c-4.842-2.057-13.991-28.812-15.273-35.657c-1.386-7.407,3.479-14.411,3.776-13.774c0.149,0.318,0.052-0.67-0.298-0.637
				l-17.613,1.805c0,0,5.348,9.041,5.348,12.607C287.654,96.171,283.756,116.982,282.213,121.224z"/>
			<path class="st5" d="M280.067,130.45c0,0.902,1.149,1.633,2.566,1.633s2.566-0.731,2.566-1.633s-1.149-1.633-2.566-1.633
				S280.067,129.548,280.067,130.45z"/>
			<path class="st5" d="M307.605,128.936c0,0.902,1.149,1.633,2.566,1.633c1.417,0,2.566-0.731,2.566-1.633
				s-1.149-1.633-2.566-1.633S307.605,128.034,307.605,128.936z"/>
			<path class="st5" d="M286.974,137.996c-2.38,1.014-6.032-3.659-7.181-5.976c-0.43-0.867-0.546-2.053,0.183-2.689
				c0.874-0.763,4.359,0.346,5.223,1.12C286.633,131.735,286.724,136.086,286.974,137.996"/>
			<path class="st5" d="M307.286,134.802c-0.035-1.357-0.13-2.732,0.161-4.058c0.291-1.326,1.039-2.628,2.261-3.219
				s2.934-0.221,3.529,0.999c0.536,1.099,0.051,2.424-0.617,3.448c-1.223,1.874-3.314,4.92-5.42,5.675
				c-0.33,0.207-0.283-2.188,0.105-2.155"/>
			<path class="st8" d="M244.147,62.828c-5.675,9.505-10.066,17.796-14.311,28.02c-2.317-12.832,0.89-29.751,8.911-43.485
				C252.243,24.252,252.022,49.64,244.147,62.828z"/>
			<path class="st8" d="M288.664,15.59c18.112-1.76,36.862,4.686,50.065,17.208c1.87,1.773,3.76,4.003,3.534,6.57
				c-8.395-0.423-15.095-6.735-22.161-11.288c-7.473-4.815-16.059-7.89-24.89-8.915c-3.547-0.411-7.189-0.49-10.64,0.427
				c-6.146,1.633-11.001,6.183-16.24,9.787c-4.147,2.852-21.311,15.669-26.199,12.102C246.608,29.084,276.973,16.726,288.664,15.59z
				"/>
			<path class="st8" d="M345.48,39.271c-1.936,5.374-0.82,11.407,1.344,16.693s5.321,10.11,7.659,15.321
				c4.378,9.76,5.761,20.839,3.919,31.375c1.512-3.194,1.759-6.819,1.971-10.346c0.571-9.474,1.058-19.138-1.376-28.311
				c-3.187-12.015-11.524-22.57-22.474-28.454"/>
			<path class="st9" d="M252.301,33.964c-3.273,1.478-6.751,3.134-8.565,6.234c-0.29,0.497-0.536,1.095-0.334,1.634
				c0.464,1.24,2.154,0.333,3.42-0.054c12.063-3.683,23.121-13.622,30.954-19.01C272.141,26.096,258.282,31.299,252.301,33.964z"/>
			<path class="st8" d="M230.315,87.478c-0.777,6.237,0.354,12.698,3.201,18.3c-0.44-8.417-0.608-16.848-0.503-25.276
				c-0.341,0.184-0.594,0.522-0.674,0.901"/>
			<path class="st10" d="M260.732,165.432c-1.113-0.44-2.43-0.328-3.452,0.295c-0.654,0.399-19.069-42.62-20.533-46.652
				c-1.495-4.119-7.866-14.572-1.772-16.06c2.23-0.545,5.408,1.168,7.448,1.838c4.291,1.409,7.619,1.881,12.102,1.199
				C258.7,125.053,258.749,146.031,260.732,165.432z"/>
			<path class="st10" d="M330.222,165.668c0,0,3.416-0.139,4.044,0.279c0.638,0.425,14.879-9.238,19.76-48.19
				c0.545-4.348,7.866-14.572,1.772-16.06c-2.23-0.544-5.408,1.168-7.448,1.838c-4.291,1.409-7.619,1.881-12.102,1.199
				C332.074,123.733,332.205,146.266,330.222,165.668z"/>
			<ellipse class="st0" cx="253.037" cy="104.722" rx="22.295" ry="15.307"/>
			<ellipse class="st0" cx="336.562" cy="100.729" rx="22.295" ry="15.307"/>
			<path class="st12" d="M325.189,30.965c3.119,2.452,6.57,4.48,10.23,6.011c-4.202-3.378-8.404-6.755-12.606-10.132
				c5.667,2.918,11.108,6.277,16.256,10.037c-4.507-4.6-9.45-8.773-14.74-12.445c5.691,0.897,10.84,4.056,14.987,8.055
				s7.397,8.822,10.494,13.68c-3.602-5.473-7.02-3.99-12.527-5.815c-2.55-0.845-4.956-2.14-7.065-3.805
				C328.244,34.992,327.048,32.427,325.189,30.965z"/>
			<g>
				<g>
					<path class="st5" d="M273.065,52.583c3.871,2.868,8.433,17.173,11.177,20.583l-37.312,3.905
						C249.749,71.789,270.366,50.583,273.065,52.583z"/>
					<path class="st7" d="M277.482,54.792c-0.293-0.449-3.958-1.93-4.417-2.208c-0.962-0.584-2.048,1.346-3.092,1.766
						c-3.802,1.529-5.468,3.433-8.319,6.377c7.015-2.432,14.364,5.788,19.081,10.987c2.135,2.352,4.186,3.315,2.585-0.624
						C281.879,67.541,279.57,57.99,277.482,54.792z"/>
				</g>
				<circle class="st15" cx="270.857" cy="73.342" r="5.742"/>
				<path class="st0" d="M270.75,69.591c4.629-0.024,4.425,2.374,6.016,4.37c0.781-2.987-1.066-6.42-3.988-7.414
					c-2.743-0.933-10.193-0.47-8.798,8.835C265.536,74.244,266.067,69.615,270.75,69.591z"/>
				<path d="M268.477,73.342c0-1.314,1.065-2.38,2.38-2.38c1.314,0,2.38,1.065,2.38,2.38c0,1.314-1.065,2.379-2.38,2.379
					C269.543,75.721,268.477,74.656,268.477,73.342z"/>
			</g>
			<g>
				<g>
					<path class="st5" d="M308.683,50.993c-3.871,2.868-8.433,17.173-11.177,20.583l37.312,3.906
						C332,70.198,311.383,48.993,308.683,50.993z"/>
					<path class="st7" d="M304.267,53.201c0.293-0.449,3.958-1.93,4.417-2.208c0.962-0.583,2.048,1.347,3.092,1.767
						c3.802,1.529,5.468,3.433,8.319,6.377c-7.015-2.432-14.364,5.788-19.081,10.987c-2.135,2.352-4.186,3.315-2.585-0.624
						C299.87,65.95,302.178,56.4,304.267,53.201z"/>
				</g>
				<circle class="st15" cx="310.892" cy="71.752" r="5.742"/>
				<path class="st0" d="M310.998,68c-4.629-0.024-4.425,2.374-6.016,4.37c-0.781-2.987,1.066-6.419,3.989-7.414
					c2.743-0.933,10.193-0.47,8.798,8.835C316.213,72.654,315.681,68.025,310.998,68z"/>
				<path d="M313.271,71.752c0-1.314-1.065-2.38-2.38-2.38c-1.314,0-2.379,1.065-2.379,2.38c0,1.314,1.065,2.38,2.379,2.38
					C312.206,74.131,313.271,73.066,313.271,71.752z"/>
			</g>
			<path d="M294.683,152.788c0-1.757,1.424-3.181,3.181-3.181s3.181,1.424,3.181,3.181s-1.424,3.181-3.181,3.181
				C296.107,155.969,294.683,154.544,294.683,152.788z"/>
		</g>
	</g>
</g>
</svg>
