<?xml version="1.0" encoding="utf-8"?>
<!-- Generator: Adobe Illustrator 22.0.1, SVG Export Plug-In . SVG Version: 6.00 Build 0)  -->
<svg version="1.1" id="Ebene_1" xmlns="http://www.w3.org/2000/svg" xmlns:xlink="http://www.w3.org/1999/xlink" x="0px" y="0px"
	 width="600px" height="265px" viewBox="0 0 600 265" style="enable-background:new 0 0 600 265;" xml:space="preserve">
<style type="text/css">
	.st0{fill:#F8C29D;}
	.st1{fill:#E872A5;}
	.st2{fill:#F4AA92;}
	.st3{fill:#F5B095;}
	.st4{fill:#FDF7C1;}
	.st5{fill:#E9DA5B;}
	.st6{fill:#DEBC6F;}
	.st7{fill:#B6972F;}
	.st8{fill:#E2AA94;}
	.st9{fill:#C38D79;}
	.st10{fill:#FBDABC;}
	.st11{fill:#E9AC94;}
	.st12{fill:#3D2D10;}
	.st13{fill:#D89C85;}
	.st14{fill:none;stroke:#3D2D10;stroke-width:0.7803;stroke-miterlimit:10;}
	.st15{fill:#EAB5A4;}
	.st16{fill:#DFB837;}
	.st17{fill:#927B25;}
	.st18{fill:#BD5E88;}
	.st19{fill:#FDE6C4;}
	.st20{fill:#FFFFFF;}
	.st21{fill:#2156A3;}
	.st22{fill:#E7DD8A;}
	.st23{fill:#EE7295;}
	.st24{fill:#E83279;}
	.st25{fill:none;stroke:#3D2D10;stroke-miterlimit:10;}
</style>
<g>
	<path class="st0" d="M56.727,159.046c-1.22,11.062-1.564,20.531-7.852,27.616c-7.898,8.901-17.033,9.412-21.781,23.061
		c-2.938,8.443-12.044,53.475-12.044,53.475c13.207-0.101,172.984,0.826,179.264,0.387c0,0-6.667-35.476-8.436-44.314
		c-2.617-13.068-11.844-18.413-19.475-21.367c-7.847-3.037-13.631-9.235-16.074-22.217c-2.329-12.372-0.102-23.959-0.504-36.527
		c-13.49,12.953-24.638,30.063-41.488,31.01c-12.521,0.703-26.376,1.388-38.52-4.148c-2.73-1.245-7.602-3.267-9.719-6.436
		c-1.305-1.954-1.481-5.106-2.497-5.399"/>
	<g>
		<path class="st1" d="M10.549,265c0,0,87.81-83,188.81,0H10.549z"/>
		<g>
			<path class="st2" d="M30.028,247.052c0.533-2.954-2.288-11.11,4.056-7.062c2.542,1.622,5.225,4.942,5.707,8.062
				c1.381,8.935-10.746,0.74-10.513-4.75"/>
			<path class="st2" d="M37.778,244.552c-0.937-2.882-3.567-10.977,2.506-9.199c3.024,0.886,5.483,4.864,6.244,7.705
				c0.662,2.474,0.665,5.939-2.556,6c-1.775,0.033-3.345-1.3-4.45-2.562c-1.331-1.52-1.671-4.999-3.744-5.443"/>
			<path class="st2" d="M45.266,240.579c-1.966-3.237-1.388-7.435,1.612-7.836c2.815-0.377,5.085,4.006,5.735,6.141
				c0.615,2.025,0.752,5.946-1.835,6.674c-2.262,0.636-6.27-3.357-5-5.756"/>
			<path class="st2" d="M28.678,244.63C15.597,254.49,41.078,252.017,28.678,244.63"/>
			<path class="st0" d="M48.156,243.46c0.98-0.7,2.479-1.287,3.58-1.709c-0.136-1.395-2.604-2.504-3.781-1.59
				c-1.099,0.854-0.766,3.009,0.503,3.198"/>
			<path class="st0" d="M41.942,246.566c0.981-0.7,2.48-1.287,3.58-1.709c-0.135-1.395-2.603-2.504-3.78-1.59
				c-1.099,0.854-0.767,3.009,0.503,3.198"/>
			<path class="st0" d="M34.951,249.414c0.982-0.7,2.481-1.287,3.58-1.709c-0.135-1.395-2.602-2.504-3.78-1.59
				c-1.099,0.854-0.767,3.009,0.503,3.198"/>
			<path class="st0" d="M26.852,249.628c0.743-0.595,1.878-1.094,2.711-1.452c-0.102-1.185-1.971-2.128-2.862-1.351
				c-0.832,0.725-0.58,2.557,0.381,2.717"/>
		</g>
		<g>
			<path class="st2" d="M167.996,247.341c-0.533-2.954,2.289-11.11-4.056-7.062c-2.542,1.622-5.226,4.942-5.707,8.062
				c-1.381,8.934,10.746,0.74,10.513-4.75"/>
			<path class="st2" d="M160.246,244.841c0.937-2.882,3.568-10.977-2.506-9.199c-3.025,0.886-5.484,4.864-6.244,7.705
				c-0.662,2.474-0.666,5.939,2.556,6c1.774,0.033,3.345-1.3,4.45-2.562c1.33-1.52,1.671-4.999,3.744-5.443"/>
			<path class="st2" d="M152.758,240.868c1.967-3.237,1.389-7.435-1.611-7.836c-2.814-0.377-5.086,4.006-5.734,6.141
				c-0.616,2.024-0.752,5.946,1.834,6.674c2.262,0.636,6.27-3.357,5-5.756"/>
			<path class="st2" d="M169.347,244.919C182.428,254.779,156.947,252.306,169.347,244.919"/>
			<path class="st0" d="M149.869,243.749c-0.981-0.7-2.48-1.287-3.58-1.709c0.135-1.395,2.603-2.504,3.78-1.59
				c1.099,0.854,0.767,3.009-0.503,3.198"/>
			<path class="st0" d="M156.082,246.855c-0.98-0.7-2.479-1.287-3.58-1.709c0.136-1.394,2.604-2.504,3.781-1.59
				c1.099,0.854,0.766,3.009-0.503,3.198"/>
			<path class="st0" d="M163.072,249.703c-0.98-0.7-2.479-1.287-3.58-1.709c0.136-1.395,2.604-2.504,3.781-1.59
				c1.099,0.854,0.766,3.009-0.503,3.198"/>
			<path class="st0" d="M171.172,249.917c-0.742-0.595-1.877-1.094-2.711-1.452c0.104-1.185,1.972-2.128,2.863-1.351
				c0.832,0.725,0.58,2.557-0.381,2.717"/>
		</g>
	</g>
	<g>
		<path class="st3" d="M163.942,87.672c2.995,8.054,4.192,55.06-4.289,58.642c-8.192,3.46-5.782-18.886-6.036-24.115
			c-0.527-10.854-1.947-22.323,0.97-32.676C159.338,89.182,162.542,82.019,163.942,87.672c-0.368,1.599,1.707,6.237,0.862,6.897"/>
		<path class="st3" d="M38.852,91.768c-2.996,8.054-4.193,55.06,4.289,58.642c8.191,3.461,5.781-18.886,6.035-24.115
			c0.527-10.854,1.947-22.323-0.969-32.676c-4.752-0.342-8.477-5.64-9.875,0.013c0.368,1.599-1.188,4.372-0.342,5.032"/>
		<path class="st4" d="M144.6,30.012c-2.568-12.947-33.764-13.918-43.985-13.793c-15.718,0.193-31.122,5.048-43.081,15.52
			c-21.271,18.628-22.635,56.323-9.441,79.909c-0.258-19.371,11.301-29.191,26.616-40.212
			c15.883-11.429,34.646-19.196,51.806-28.493c5.335-2.891,16.318-6.526,16.209-13.494c-1.082,0.967-2.156,0.945-3.295,1.425"/>
		<path class="st0" d="M60.393,176.296c0,29.995,10.247,5.44,40.242,5.44l0,0c45.16,0,42.716,14.633,43.965-11.168
			c0.208-4.292,10.346-30.639,10.346-43.143V118.1V75.702c0-29.995-24.316-54.311-54.311-54.311l0,0
			c-29.995,0-54.311,24.315-54.311,54.311l0.694,44.227L60.393,176.296z"/>
		<path class="st5" d="M151.496,37.771c3.029,5.401,11.479,7.694,14.48,14.655c2.406,5.578,1.291,14.907,0.172,20.686
			c-2.27,11.73-6.496,30.837-12.973,41.077c0.213-15.46-2.561-30.229-4.266-45.405c-1.041-9.262-3.895-21.006-2.459-30.019
			c3.35,0.088,8.474,1.7,8.494,4.177"/>
		<path class="st5" d="M43.738,103.288c-10.29-20.684-18.101-44.203-2.392-65.305c13.007-17.472,67.797-35.155,84.461-19.701
			C103.383,21.25,66.884,39.675,53.894,58.46c-5.794,8.379-6.523,14.247-7.55,24.327c-0.58,5.701,0.472,20.238-1.744,23.087"/>
		<path class="st6" d="M126.333,44.853c-13.73-0.149-25.659,2.604-38.675,6.481C72.18,55.945,57.044,63.866,41.235,66.581
			c-4.566,0.784-9.884,0.763-14.597,0.509c-0.475-0.025-0.969-0.044-1.466-0.072c12.779,4.45,28.23,0.425,40.465-3.846
			c10.097-3.525,19.577-8.111,30.079-10.726c13.219-3.29,27.522-4.587,41.087-3.211c4.839,0.491,7.942,2.623,12.222,4.225
			C148.822,45.983,131.369,44.907,126.333,44.853z"/>
		<path class="st7" d="M41.557,68.921c-0.118,5.47-0.212,9.368,1.767,14.707c1.065,2.875,2.039,6.117,3.218,8.745
			c-0.107-8.037,0.436-17.089,2.301-24.735c-2.49,1.304-6.867,0.557-8.594,1.544"/>
		<path class="st7" d="M145.942,52.963c1.723,0.21,4.236,0.844,5.715,1.772c1.659,1.041,1.077,0.316,1.611,2.205
			c1.02,3.608,0.033,8.324-0.264,11.989c-0.351,4.316-0.392,11.345-2.367,15.074c1.049-10.255-5.453-21.021-3.854-31.28
			c0.389,0.06,0.052,0.261,0.204,0.502"/>
		<path class="st8" d="M74.772,184.66c3.759-0.173,2.877-13.846,2.877-13.846c5.003,0.354,5.876,5.21,10.598,6.925
			c10.04,3.645,30.502,2.328,34.671-9.814c3.907,3.438-3.802,14.913,1.037,13.933c6.568-1.33,26.133-34.461,30.328-39.551
			c0,0-10.761,36.43-23.895,48.285c-8.528,7.698-14.289,11.842-25.686,13.339c-13.332,1.752-27.732-9.269-38.371-17.427
			c-3.955-3.033,3.193,3.753,0,0c-2.98-3.502-23.062-43.872-17.49-54.99"/>
		<path class="st9" d="M77.221,174.726c0,6.039,13.122,19.128,20.733,19.128l6.662,1.797c7.611,0,22.303-14.887,22.303-20.926l0,0
			c0-6.039-4.889-4.31-12.5-4.31H92.15C84.539,170.416,77.221,168.687,77.221,174.726L77.221,174.726z"/>
		<path class="st10" d="M76.905,172.726c0,6.039,6.17,10.934,13.78,10.934h22.136c7.611,0,13.781-4.895,13.781-10.934l0,0
			c0-6.039-1.859-4.718-9.471-4.718H92.15C84.539,168.008,76.905,166.687,76.905,172.726L76.905,172.726z"/>
		<path class="st11" d="M48.842,109.128c0,0,28.017,11.392-0.483,34.19L48.842,109.128z"/>
		<path class="st11" d="M153.799,108.117c0,0-28.016,11.392,0.484,34.19L153.799,108.117z"/>
		<path class="st5" d="M37.105,77.54c-1.463,2.303-2.073,6.228-4.592,8.157c-4.401,3.373-10.666,0.828-10.406-5.015
			c-0.761,5.71,5.853,16.35,11.823,10.936c-2.786,2.932-7.604,4.511-10.873,1.1c1.846,8.322,18.594,9.408,23.107,3.323
			c-4.244-6.277-7.688-12.427-9.56-19"/>
		<path class="st5" d="M164.408,74.397c1.463,2.303,2.072,6.228,4.592,8.157c4.4,3.373,10.666,0.828,10.406-5.015
			c0.76,5.71-5.854,16.35-11.823,10.936c2.786,2.932,7.603,4.511,10.872,1.1c-1.846,8.322-18.594,9.408-23.107,3.323
			c4.244-6.277,7.688-12.427,9.561-19"/>
		<path class="st9" d="M55.234,113.735l14.471,14.985C69.705,128.72,41.328,144.897,55.234,113.735z"/>
		<path class="st9" d="M151.147,108.117l-16.377,17.845C134.77,125.962,156.969,146.915,151.147,108.117z"/>
		<path class="st4" d="M54.59,92.865c7.637-10.8,14.056-5.777,22.438-0.216c7.241,4.803,16.906,10.558,17.083-2.243
			c-9.517-0.587-14.623-9.151-22.95-10.684c-9.593-1.766-10.927,8.969-16.571,14.005"/>
		<path class="st10" d="M92.981,134.588c0,3.607,2.926,6.532,6.533,6.532l0,0c3.607,0,6.531-2.925,6.531-6.532v-34.92
			c0-3.607-2.924-6.532-6.531-6.532l0,0c-3.607,0-6.533,2.925-6.533,6.532V134.588z"/>
		<path class="st4" d="M89.428,94.668c-14.269-2.528-14.855-11.635-19.723-22.93c6.629,4.606,15.254,8.427,23.04,10.125
			C93.485,86.552,93.052,92,89.428,94.668"/>
		<path class="st10" d="M88.124,132.122c0,1.3,1.054,2.355,2.354,2.355l0,0c1.301,0,2.354-1.054,2.354-2.355v-3.924
			c0-1.3-1.054-2.354-2.354-2.354l0,0c-1.301,0-2.354,1.054-2.354,2.354C88.124,128.198,88.124,132.122,88.124,132.122z"/>
		<path class="st10" d="M106.045,132.122c0,1.3,1.055,2.355,2.355,2.355l0,0c1.3,0,2.354-1.054,2.354-2.355v-3.924
			c0-1.3-1.054-2.354-2.354-2.354l0,0c-1.301,0-2.355,1.054-2.355,2.354C106.045,128.198,106.045,132.122,106.045,132.122z"/>
		<path class="st10" d="M60.393,99.278c0,2.547,6.437,4.611,14.379,4.611c7.94,0,14.378-2.064,14.378-4.611
			c0-2.546-6.438-4.611-14.378-4.611C66.83,94.668,60.393,96.732,60.393,99.278z"/>
		<path class="st10" d="M109.576,98.504c0,2.547,6.438,4.611,14.379,4.611s14.379-2.064,14.379-4.611
			c0-2.546-6.438-4.611-14.379-4.611S109.576,95.957,109.576,98.504z"/>
		<path class="st12" d="M66.149,99.907l23.001-2.469C89.15,97.438,83.463,95.391,66.149,99.907z"/>
		<path class="st12" d="M135.713,99.275l-24.295-1.837C111.418,97.438,118.399,94.759,135.713,99.275z"/>
		<path class="st0" d="M101.754,179.628c-11.628,0.814-21.105-4.144-21.105-9.256s9.449-9.256,21.105-9.256
			c11.655,0,21.104,4.144,21.104,9.256C122.859,170.372,124.989,178,101.754,179.628z"/>
		<path class="st4" d="M146.567,89.877c-7.637-10.8-14.056-5.777-22.438-0.216c-7.241,4.803-16.906,10.558-17.083-2.243
			c9.517-0.587,14.623-9.151,22.95-10.684c9.592-1.766,10.928,8.969,16.571,14.005"/>
		<path class="st4" d="M110.668,96.95c14.268-2.528,14.854-11.635,19.721-22.929c-6.627,4.606-15.254,8.427-23.039,10.125
			C106.609,88.835,107.043,94.283,110.668,96.95"/>
		<polygon class="st11" points="93.049,85.872 107.35,84.147 109.576,98.504 92.084,96.542 		"/>
		<path class="st13" d="M53.19,96.079c1.604-2.365,5.405-4.727,7.775-6.299c1.585-1.052,3.167-1.764,5.102-1.472
			c3.376,0.51,6.508,2.77,9.577,4.141c3.173,1.417,6.346,2.495,9.574,3.63c1.929,0.678,5.219,2.369,7.356,1.394
			c-0.018-1.089,0.402-2.119,0.194-3.211c-3.166,1.428-8.057-2.458-10.987-3.441c-4.133-1.387-8.325-2.781-12.447-4.182
			c-3.079-1.046-6.323-1.044-9.2,0.807c-1.949,1.254-3.513,3.514-4.901,5.375c-0.578,0.775-2.85,3.905-2.247,3.871"/>
		<path class="st13" d="M109.353,97.1c4.05-0.81,9.262-4.201,13.279-6.336c4.031-2.143,8.454-4.428,12.871-5.713
			c6.472-1.884,10.438,4.62,14.833,8.506c-3.07-1.742-6.168-3.405-9.124-5.295c-3.506-2.242-7.601,0.05-11.294,1.486
			c-4.669,1.815-8.883,4.525-13.632,6.183c-2.839,0.991-5.998,1.605-8.7,2.824c0.692-0.773,0.457-1.872,0.908-2.659
			c0.059,0.196-0.018,0.415,0.041,0.596"/>
		<path class="st5" d="M47.228,109.023c-0.197,4.393-7.271,10.848-11.404,11.341c-8.133,0.971-11.277-12.582-10.727-18.844
			c0.056,2.121,0.999,3.819,3.104,4.044c5.183,0.552,4.794-6.687,6.302-9.577c2.499,1.561,6.938,0.471,9.906,0.64
			c1.132,2.338,6.445,11.12,3.856,12.742"/>
		<path class="st5" d="M153.044,90.695c-1.95,6.342,0.542,19.274,5.879,23.945c8.632,7.555,15.527-3.961,18.273-11.123
			c-1.617,2.009-4.24,6.04-6.793,3.012c-2.766-3.28-1.469-11.345-2.914-15.461c-1.408,1.696-4.579,2.789-6.923,2.026
			c-4.985-1.622-3.854-7.511-6.081-10.349c-0.057,1.728-0.067,3.465-0.404,5.183"/>
		<path class="st4" d="M136.654,19.456c-19.135-16.851-58.773-2.34-66.949,0.42C45.372,28.089,28.274,48.39,2.573,50.558
			c5.268,1.925,19.798,3.352,25.378,1.043c-6.636,8.239-16.903,10.04-26.505,12.436c7.838,2.567,18.986-0.185,27.664-1.42
			c-9.154,4.83-20.407,7.575-28.784,12.152c21.645-2.908,42.641-4.175,64.264-10.696c23.635-7.128,42.427-9.271,67.39-9.271
			c6.022,0,22.201,2.819,26.397-1.41c5.357-5.397-0.698-16.418-4.462-21.058c-7.604-9.373-33.833-24.932-44.69-14.611"/>
		<g>
			<path class="st10" d="M97.148,148.291c0.772,0.228,1.49,1.201,2.276,1.07c0.521-0.087,1.258-1.206,1.896-1.326
				c4.886-0.919,9.948,11.796,11.733,14.664c-2.26-3.696-8.927-11.312-11.874-11.122c-0.021,3.537-3.493,2.401-3.36,0.159
				c-3.675-0.285-7.039,6.145-11.891,9.055C86.354,160.684,92.605,146.949,97.148,148.291z"/>
			<path class="st9" d="M91.922,160.116c0,0,6.56-11,15.51,0H91.922z"/>
			<path class="st10" d="M92.611,154.293c2.492,0.92,4.248,3.169,7.104,2.906c2.695-0.249,5.691-0.955,7.717-3.004
				c-1.473-0.287-5.009-3.073-6.573-2.771c0.13,3.811-3.133,2.74-3.121-0.254c-1.257,1.205-5.047,1.158-5.289,3.85"/>
			<path class="st14" d="M88.684,157.606c0.957-0.454,1.783-2.02,2.72-2.714c0.854-0.632,1.695-1.312,2.573-1.847
				c0.692-0.421,1.525-0.871,2.282-0.785c0.767,0.087,1.219,0.805,1.896,1.127c1.546,0.734,2.542-1.111,4.126-0.993
				c1.679,0.124,3.467,0.715,4.927,2.021c0.965,0.863,1.845,2.042,2.557,3.19"/>
		</g>
		<path class="st4" d="M150.798,46.937c-18.146-0.898-40.742,16.424-58.177,22.19c-22.604,7.477-41.491,4.109-61.958-3.962
			c9.464-0.057,19.256,4.789,29.432,4.303c10.239-0.49,22.569-2.891,32.272-6.492c8.4-3.117,15.788-7.96,24.673-10.138
			c7.501-1.839,16.051-2.152,23.7-2.555c2.035-0.107,13.44,0.009,8.935,0.026"/>
		<path class="st8" d="M151.647,146.354c0.204,6.619-1.886,13.939-2.349,20.628c-0.331,4.788-1.598,10.09-3.314,14.549
			c-1.1,2.855-2.797,5.965-5.909,7.027c-4.377,1.494-6.415-2.675-9.952-3.365c6.911-13.34,18.295-25.166,23.554-39.178"/>
		<path class="st8" d="M50.196,146.691c-0.059-0.2-0.65-0.757-0.082-0.392c0.337,4.122-0.003,8.185,1.09,12.243
			c1.105,4.105,5.083,21.024,7.023,24.754c1.444,2.777,2.671,4.65,5.834,4.972c3.992,0.406,5.526-2.348,9.096-3.439
			c-5.256-6.141-9.698-14.251-13.923-21.238c-2.482-4.105-5.229-8.03-7.422-12.251c-0.928-1.786-2.178-5.361-2.968-6.34"/>
		<path class="st0" d="M65.414,161.571c0.605,6.185-3.391,20.355,5.055,22.337c4.856,1.139,5.081-1.746,3.247-5.498
			c-2.6-5.32-5.735-10.497-8.302-15.824"/>
		<path class="st0" d="M137.977,159.257c-0.605,6.184,3.391,20.355-5.055,22.337c-4.856,1.139-5.081-1.746-3.247-5.498
			c2.6-5.32,5.735-10.497,8.302-15.824"/>
		<path class="st9" d="M67.984,184.648c3.559,3.22,9.438-3.114,10.461-6.156c0.962,2.999,1.171,7.099-1.81,9.078
			c-4.08,2.709-6.055-1.361-8.95-2.922"/>
		<path class="st9" d="M127.763,179.567c-0.726,2.512,2.907,5.863,5.589,5.672c-2.328,1.112-9.222,0.996-10.027-2.384
			c-0.585-2.456,4.395-4.766,3.542-6.576"/>
		<path class="st15" d="M69.493,129.717c2.582,5.835,1.809,13.641-1.209,19.86c-2.852,5.879-7.179,14.173-6.524,20.847
			c0.954-2.355-1.901-7.26-2.775-9.509c-2.071-5.324-3.452-10.683-6.058-15.817c-1.641-3.232-3.419-5.592-3.233-9.082
			c0.144-2.684,0.915-2.915,2.175-5.054c4.714,4.721,13.306,1.014,18.266-1.726C69.927,129.402,69.711,129.565,69.493,129.717"/>
		<path class="st15" d="M135.19,126.417c-2.979,0.789-4.951,9.185-5.573,11.78c-1.333,5.564,0.518,10.914,2.34,16.118
			c1.305,3.728,3.438,6.64,4.417,10.499c0.621,2.447,2.537,5.774,2.101,8.293c4.209-8.962,9.414-17.798,13.223-27.199
			c1.529-3.775,1.158-10.768-2.708-13.432c-1.643-1.132-4.12-1.288-6.065-2.461c-2.146-1.294-5.567-3.091-7.733-2.7"/>
		<path class="st11" d="M90.731,173.674c0,3.236,4.219,5.858,9.423,5.858s9.423-2.623,9.423-5.858s-4.219-5.858-9.423-5.858
			S90.731,170.439,90.731,173.674z"/>
		<path class="st10" d="M140.849,106.96c0,0-12.965-5.725-12.234-4.954C129.346,102.777,137.603,101.51,140.849,106.96z"/>
		<path class="st10" d="M135.713,100.604l12.174,1.402C147.886,102.006,143.583,96.677,135.713,100.604z"/>
		<path class="st10" d="M66.148,102.006L54.59,107.24C54.59,107.24,59.859,102.191,66.148,102.006z"/>
		<path class="st10" d="M64.987,99.16l-13.588,3.955C51.399,103.115,57.044,97.484,64.987,99.16z"/>
		<path class="st16" d="M159.29,53.244c-8.492,5.154-19.11,1.188-29.185,1.852c-6.22,0.41-13.889,5.971-20.151,8.98
			c-8.904,4.279-18.974,7.305-28.68,8.482c-8.229,0.999-18.48,0.733-24.746,0.019c22.25,0,49.411-6.006,66.263-21.234
			c9.895,6.026,28.007,2.938,37.703-0.456C160.342,49.903,160.494,52.072,159.29,53.244"/>
		<path class="st16" d="M116.89,39.865c-21.693-2.35-45.935,9.564-66.547,16.929c5.058-1.321,10.696-1.812,15.583-2.868
			c10.04-2.168,19.2-4.836,28.861-8.031c6.243-2.064,14.142-4.686,20.953-5.667C116.11,40.063,116.495,39.939,116.89,39.865z"/>
		<path class="st16" d="M50.342,56.793c-1.698,0.444-3.332,0.981-4.849,1.665C47.084,57.94,48.703,57.379,50.342,56.793z"/>
		<path class="st16" d="M109.956,29.91c-16.907-0.169-36.984,7.955-51.097,13.418c8.052-5.141,17.143-9.548,26.431-11.436
			C92.944,30.337,101.712,29.368,109.956,29.91"/>
		<path class="st16" d="M25.39,105.165c-2.433,7.367,4.464,16.354,12.142,15.057c6.945-1.174,11.963-7.881,12.035-14.477
			c-1.39,5.189-7.864,10.732-12.779,12.519c-9.361,3.404-10.104-8.758-11.65-14.609"/>
		<path class="st16" d="M24.131,94.842c1.178,3.567,6.811,5.276,10.273,5.286c4.341,0.013,7.468-2.595,10.078-5.506
			c-1.729,3.171-1.79,7.223-6.25,8.019c-6.8,1.213-10.144-4.541-14.855-7.548"/>
		<path class="st16" d="M151.784,104.913c0-0.232,0-0.465,0-0.698c-0.282,5.947,8.131,9.774,12.904,10.014
			c6.384,0.32,9.354-4.445,12.809-8.975c-4.033,4.663-7.119,15.295-15.194,12.317c-2.394-0.882-15.602-11.724-9.511-13.665"/>
		<path class="st16" d="M151.532,89.051c0.693,10.914,16.557,10.351,22.622,5.074c-3.626,3.928-7.119,6.487-12.537,5.054
			c-5.1-1.349-9.98-4.977-9.581-10.883"/>
		<path class="st17" d="M92.556,91.325c0,0-2.626,6.428-7.338,4.753c-4.711-1.674-9.514-10.144-9.514-10.144L92.556,91.325z"/>
		<path class="st17" d="M108.269,93.135c0,0-1.036,6.922,8.017,2.795s10.521-11.215,10.521-11.215l-18.574,7.38"/>
	</g>
</g>
<g>
	<path class="st0" d="M56.727,159.046c-1.22,11.062-1.564,20.531-7.852,27.616c-7.898,8.901-17.033,9.412-21.781,23.061
		c-2.938,8.443-12.044,53.475-12.044,53.475c13.207-0.101,172.984,0.826,179.264,0.387c0,0-6.667-35.476-8.436-44.314
		c-2.617-13.068-11.844-18.413-19.475-21.367c-7.847-3.037-13.631-9.235-16.074-22.217c-2.329-12.372-0.102-23.959-0.504-36.527
		c-13.49,12.953-24.638,30.063-41.488,31.01c-12.521,0.703-26.376,1.388-38.52-4.148c-2.73-1.245-7.602-3.267-9.719-6.436
		c-1.305-1.954-1.481-5.106-2.497-5.399"/>
	<g>
		<path class="st1" d="M10.549,265c0,0,87.81-83,188.81,0H10.549z"/>
		<g>
			<path class="st2" d="M30.028,247.052c0.533-2.954-2.288-11.11,4.056-7.062c2.542,1.622,5.225,4.942,5.707,8.062
				c1.381,8.935-10.746,0.74-10.513-4.75"/>
			<path class="st2" d="M37.778,244.552c-0.937-2.882-3.567-10.977,2.506-9.199c3.024,0.886,5.483,4.864,6.244,7.705
				c0.662,2.474,0.665,5.939-2.556,6c-1.775,0.033-3.345-1.3-4.45-2.562c-1.331-1.52-1.671-4.999-3.744-5.443"/>
			<path class="st2" d="M45.266,240.579c-1.966-3.237-1.388-7.435,1.612-7.836c2.815-0.377,5.085,4.006,5.735,6.141
				c0.615,2.025,0.752,5.946-1.835,6.674c-2.262,0.636-6.27-3.357-5-5.756"/>
			<path class="st2" d="M28.678,244.63C15.597,254.49,41.078,252.017,28.678,244.63"/>
			<path class="st0" d="M48.156,243.46c0.98-0.7,2.479-1.287,3.58-1.709c-0.136-1.395-2.604-2.504-3.781-1.59
				c-1.099,0.854-0.766,3.009,0.503,3.198"/>
			<path class="st0" d="M41.942,246.566c0.981-0.7,2.48-1.287,3.58-1.709c-0.135-1.395-2.603-2.504-3.78-1.59
				c-1.099,0.854-0.767,3.009,0.503,3.198"/>
			<path class="st0" d="M34.951,249.414c0.982-0.7,2.481-1.287,3.58-1.709c-0.135-1.395-2.602-2.504-3.78-1.59
				c-1.099,0.854-0.767,3.009,0.503,3.198"/>
			<path class="st0" d="M26.852,249.628c0.743-0.595,1.878-1.094,2.711-1.452c-0.102-1.185-1.971-2.128-2.862-1.351
				c-0.832,0.725-0.58,2.557,0.381,2.717"/>
		</g>
		<g>
			<path class="st2" d="M167.996,247.341c-0.533-2.954,2.289-11.11-4.056-7.062c-2.542,1.622-5.226,4.942-5.707,8.062
				c-1.381,8.934,10.746,0.74,10.513-4.75"/>
			<path class="st2" d="M160.246,244.841c0.937-2.882,3.568-10.977-2.506-9.199c-3.025,0.886-5.484,4.864-6.244,7.705
				c-0.662,2.474-0.666,5.939,2.556,6c1.774,0.033,3.345-1.3,4.45-2.562c1.33-1.52,1.671-4.999,3.744-5.443"/>
			<path class="st2" d="M152.758,240.868c1.967-3.237,1.389-7.435-1.611-7.836c-2.814-0.377-5.086,4.006-5.734,6.141
				c-0.616,2.024-0.752,5.946,1.834,6.674c2.262,0.636,6.27-3.357,5-5.756"/>
			<path class="st2" d="M169.347,244.919C182.428,254.779,156.947,252.306,169.347,244.919"/>
			<path class="st0" d="M149.869,243.749c-0.981-0.7-2.48-1.287-3.58-1.709c0.135-1.395,2.603-2.504,3.78-1.59
				c1.099,0.854,0.767,3.009-0.503,3.198"/>
			<path class="st0" d="M156.082,246.855c-0.98-0.7-2.479-1.287-3.58-1.709c0.136-1.394,2.604-2.504,3.781-1.59
				c1.099,0.854,0.766,3.009-0.503,3.198"/>
			<path class="st0" d="M163.072,249.703c-0.98-0.7-2.479-1.287-3.58-1.709c0.136-1.395,2.604-2.504,3.781-1.59
				c1.099,0.854,0.766,3.009-0.503,3.198"/>
			<path class="st0" d="M171.172,249.917c-0.742-0.595-1.877-1.094-2.711-1.452c0.104-1.185,1.972-2.128,2.863-1.351
				c0.832,0.725,0.58,2.557-0.381,2.717"/>
		</g>
	</g>
	<g>
		<path class="st3" d="M163.942,87.672c2.995,8.054,4.192,55.06-4.289,58.642c-8.192,3.46-5.782-18.886-6.036-24.115
			c-0.527-10.854-1.947-22.323,0.97-32.676C159.338,89.182,162.542,82.019,163.942,87.672c-0.368,1.599,1.707,6.237,0.862,6.897"/>
		<path class="st3" d="M38.852,91.768c-2.996,8.054-4.193,55.06,4.289,58.642c8.191,3.461,5.781-18.886,6.035-24.115
			c0.527-10.854,1.947-22.323-0.969-32.676c-4.752-0.342-8.477-5.64-9.875,0.013c0.368,1.599-1.188,4.372-0.342,5.032"/>
		<path class="st4" d="M144.6,30.012c-2.568-12.947-33.764-13.918-43.985-13.793c-15.718,0.193-31.122,5.048-43.081,15.52
			c-21.271,18.628-22.635,56.323-9.441,79.909c-0.258-19.371,11.301-29.191,26.616-40.212
			c15.883-11.429,34.646-19.196,51.806-28.493c5.335-2.891,16.318-6.526,16.209-13.494c-1.082,0.967-2.156,0.945-3.295,1.425"/>
		<path class="st0" d="M60.393,176.296c0,29.995,10.247,5.44,40.242,5.44l0,0c45.16,0,42.716,14.633,43.965-11.168
			c0.208-4.292,10.346-30.639,10.346-43.143V118.1V75.702c0-29.995-24.316-54.311-54.311-54.311l0,0
			c-29.995,0-54.311,24.315-54.311,54.311l0.694,44.227L60.393,176.296z"/>
		<path class="st5" d="M151.496,37.771c3.029,5.401,11.479,7.694,14.48,14.655c2.406,5.578,1.291,14.907,0.172,20.686
			c-2.27,11.73-6.496,30.837-12.973,41.077c0.213-15.46-2.561-30.229-4.266-45.405c-1.041-9.262-3.895-21.006-2.459-30.019
			c3.35,0.088,8.474,1.7,8.494,4.177"/>
		<path class="st5" d="M43.738,103.288c-10.29-20.684-18.101-44.203-2.392-65.305c13.007-17.472,67.797-35.155,84.461-19.701
			C103.383,21.25,66.884,39.675,53.894,58.46c-5.794,8.379-6.523,14.247-7.55,24.327c-0.58,5.701,0.472,20.238-1.744,23.087"/>
		<path class="st6" d="M126.333,44.853c-13.73-0.149-25.659,2.604-38.675,6.481C72.18,55.945,57.044,63.866,41.235,66.581
			c-4.566,0.784-9.884,0.763-14.597,0.509c-0.475-0.025-0.969-0.044-1.466-0.072c12.779,4.45,28.23,0.425,40.465-3.846
			c10.097-3.525,19.577-8.111,30.079-10.726c13.219-3.29,27.522-4.587,41.087-3.211c4.839,0.491,7.942,2.623,12.222,4.225
			C148.822,45.983,131.369,44.907,126.333,44.853z"/>
		<path class="st7" d="M41.557,68.921c-0.118,5.47-0.212,9.368,1.767,14.707c1.065,2.875,2.039,6.117,3.218,8.745
			c-0.107-8.037,0.436-17.089,2.301-24.735c-2.49,1.304-6.867,0.557-8.594,1.544"/>
		<path class="st7" d="M145.942,52.963c1.723,0.21,4.236,0.844,5.715,1.772c1.659,1.041,1.077,0.316,1.611,2.205
			c1.02,3.608,0.033,8.324-0.264,11.989c-0.351,4.316-0.392,11.345-2.367,15.074c1.049-10.255-5.453-21.021-3.854-31.28
			c0.389,0.06,0.052,0.261,0.204,0.502"/>
		<path class="st8" d="M74.772,184.66c3.759-0.173,2.877-13.846,2.877-13.846c5.003,0.354,5.876,5.21,10.598,6.925
			c10.04,3.645,30.502,2.328,34.671-9.814c3.907,3.438-3.802,14.913,1.037,13.933c6.568-1.33,26.133-34.461,30.328-39.551
			c0,0-10.761,36.43-23.895,48.285c-8.528,7.698-14.289,11.842-25.686,13.339c-13.332,1.752-27.732-9.269-38.371-17.427
			c-3.955-3.033,3.193,3.753,0,0c-2.98-3.502-23.062-43.872-17.49-54.99"/>
		<path class="st9" d="M77.221,174.726c0,6.039,13.122,19.128,20.733,19.128l6.662,1.797c7.611,0,22.303-14.887,22.303-20.926l0,0
			c0-6.039-4.889-4.31-12.5-4.31H92.15C84.539,170.416,77.221,168.687,77.221,174.726L77.221,174.726z"/>
		<path class="st10" d="M76.905,172.726c0,6.039,6.17,10.934,13.78,10.934h22.136c7.611,0,13.781-4.895,13.781-10.934l0,0
			c0-6.039-1.859-4.718-9.471-4.718H92.15C84.539,168.008,76.905,166.687,76.905,172.726L76.905,172.726z"/>
		<path class="st11" d="M48.842,109.128c0,0,28.017,11.392-0.483,34.19L48.842,109.128z"/>
		<path class="st11" d="M153.799,108.117c0,0-28.016,11.392,0.484,34.19L153.799,108.117z"/>
		<path class="st5" d="M37.105,77.54c-1.463,2.303-2.073,6.228-4.592,8.157c-4.401,3.373-10.666,0.828-10.406-5.015
			c-0.761,5.71,5.853,16.35,11.823,10.936c-2.786,2.932-7.604,4.511-10.873,1.1c1.846,8.322,18.594,9.408,23.107,3.323
			c-4.244-6.277-7.688-12.427-9.56-19"/>
		<path class="st5" d="M164.408,74.397c1.463,2.303,2.072,6.228,4.592,8.157c4.4,3.373,10.666,0.828,10.406-5.015
			c0.76,5.71-5.854,16.35-11.823,10.936c2.786,2.932,7.603,4.511,10.872,1.1c-1.846,8.322-18.594,9.408-23.107,3.323
			c4.244-6.277,7.688-12.427,9.561-19"/>
		<path class="st9" d="M55.234,113.735l14.471,14.985C69.705,128.72,41.328,144.897,55.234,113.735z"/>
		<path class="st9" d="M151.147,108.117l-16.377,17.845C134.77,125.962,156.969,146.915,151.147,108.117z"/>
		<path class="st4" d="M54.59,92.865c7.637-10.8,14.056-5.777,22.438-0.216c7.241,4.803,16.906,10.558,17.083-2.243
			c-9.517-0.587-14.623-9.151-22.95-10.684c-9.593-1.766-10.927,8.969-16.571,14.005"/>
		<path class="st10" d="M92.981,134.588c0,3.607,2.926,6.532,6.533,6.532l0,0c3.607,0,6.531-2.925,6.531-6.532v-34.92
			c0-3.607-2.924-6.532-6.531-6.532l0,0c-3.607,0-6.533,2.925-6.533,6.532V134.588z"/>
		<path class="st4" d="M89.428,94.668c-14.269-2.528-14.855-11.635-19.723-22.93c6.629,4.606,15.254,8.427,23.04,10.125
			C93.485,86.552,93.052,92,89.428,94.668"/>
		<path class="st10" d="M88.124,132.122c0,1.3,1.054,2.355,2.354,2.355l0,0c1.301,0,2.354-1.054,2.354-2.355v-3.924
			c0-1.3-1.054-2.354-2.354-2.354l0,0c-1.301,0-2.354,1.054-2.354,2.354C88.124,128.198,88.124,132.122,88.124,132.122z"/>
		<path class="st10" d="M106.045,132.122c0,1.3,1.055,2.355,2.355,2.355l0,0c1.3,0,2.354-1.054,2.354-2.355v-3.924
			c0-1.3-1.054-2.354-2.354-2.354l0,0c-1.301,0-2.355,1.054-2.355,2.354C106.045,128.198,106.045,132.122,106.045,132.122z"/>
		<path class="st10" d="M60.393,99.278c0,2.547,6.437,4.611,14.379,4.611c7.94,0,14.378-2.064,14.378-4.611
			c0-2.546-6.438-4.611-14.378-4.611C66.83,94.668,60.393,96.732,60.393,99.278z"/>
		<path class="st10" d="M109.576,98.504c0,2.547,6.438,4.611,14.379,4.611s14.379-2.064,14.379-4.611
			c0-2.546-6.438-4.611-14.379-4.611S109.576,95.957,109.576,98.504z"/>
		<path class="st12" d="M66.149,99.907l23.001-2.469C89.15,97.438,83.463,95.391,66.149,99.907z"/>
		<path class="st12" d="M135.713,99.275l-24.295-1.837C111.418,97.438,118.399,94.759,135.713,99.275z"/>
		<path class="st0" d="M101.754,179.628c-11.628,0.814-21.105-4.144-21.105-9.256s9.449-9.256,21.105-9.256
			c11.655,0,21.104,4.144,21.104,9.256C122.859,170.372,124.989,178,101.754,179.628z"/>
		<path class="st4" d="M146.567,89.877c-7.637-10.8-14.056-5.777-22.438-0.216c-7.241,4.803-16.906,10.558-17.083-2.243
			c9.517-0.587,14.623-9.151,22.95-10.684c9.592-1.766,10.928,8.969,16.571,14.005"/>
		<path class="st4" d="M110.668,96.95c14.268-2.528,14.854-11.635,19.721-22.929c-6.627,4.606-15.254,8.427-23.039,10.125
			C106.609,88.835,107.043,94.283,110.668,96.95"/>
		<polygon class="st11" points="93.049,85.872 107.35,84.147 109.576,98.504 92.084,96.542 		"/>
		<path class="st13" d="M53.19,96.079c1.604-2.365,5.405-4.727,7.775-6.299c1.585-1.052,3.167-1.764,5.102-1.472
			c3.376,0.51,6.508,2.77,9.577,4.141c3.173,1.417,6.346,2.495,9.574,3.63c1.929,0.678,5.219,2.369,7.356,1.394
			c-0.018-1.089,0.402-2.119,0.194-3.211c-3.166,1.428-8.057-2.458-10.987-3.441c-4.133-1.387-8.325-2.781-12.447-4.182
			c-3.079-1.046-6.323-1.044-9.2,0.807c-1.949,1.254-3.513,3.514-4.901,5.375c-0.578,0.775-2.85,3.905-2.247,3.871"/>
		<path class="st13" d="M109.353,97.1c4.05-0.81,9.262-4.201,13.279-6.336c4.031-2.143,8.454-4.428,12.871-5.713
			c6.472-1.884,10.438,4.62,14.833,8.506c-3.07-1.742-6.168-3.405-9.124-5.295c-3.506-2.242-7.601,0.05-11.294,1.486
			c-4.669,1.815-8.883,4.525-13.632,6.183c-2.839,0.991-5.998,1.605-8.7,2.824c0.692-0.773,0.457-1.872,0.908-2.659
			c0.059,0.196-0.018,0.415,0.041,0.596"/>
		<path class="st5" d="M47.228,109.023c-0.197,4.393-7.271,10.848-11.404,11.341c-8.133,0.971-11.277-12.582-10.727-18.844
			c0.056,2.121,0.999,3.819,3.104,4.044c5.183,0.552,4.794-6.687,6.302-9.577c2.499,1.561,6.938,0.471,9.906,0.64
			c1.132,2.338,6.445,11.12,3.856,12.742"/>
		<path class="st5" d="M153.044,90.695c-1.95,6.342,0.542,19.274,5.879,23.945c8.632,7.555,15.527-3.961,18.273-11.123
			c-1.617,2.009-4.24,6.04-6.793,3.012c-2.766-3.28-1.469-11.345-2.914-15.461c-1.408,1.696-4.579,2.789-6.923,2.026
			c-4.985-1.622-3.854-7.511-6.081-10.349c-0.057,1.728-0.067,3.465-0.404,5.183"/>
		<path class="st4" d="M136.654,19.456c-19.135-16.851-58.773-2.34-66.949,0.42C45.372,28.089,28.274,48.39,2.573,50.558
			c5.268,1.925,19.798,3.352,25.378,1.043c-6.636,8.239-16.903,10.04-26.505,12.436c7.838,2.567,18.986-0.185,27.664-1.42
			c-9.154,4.83-20.407,7.575-28.784,12.152c21.645-2.908,42.641-4.175,64.264-10.696c23.635-7.128,42.427-9.271,67.39-9.271
			c6.022,0,22.201,2.819,26.397-1.41c5.357-5.397-0.698-16.418-4.462-21.058c-7.604-9.373-33.833-24.932-44.69-14.611"/>
		<g>
			<path class="st10" d="M97.148,148.291c0.772,0.228,1.49,1.201,2.276,1.07c0.521-0.087,1.258-1.206,1.896-1.326
				c4.886-0.919,9.948,11.796,11.733,14.664c-2.26-3.696-8.927-11.312-11.874-11.122c-0.021,3.537-3.493,2.401-3.36,0.159
				c-3.675-0.285-7.039,6.145-11.891,9.055C86.354,160.684,92.605,146.949,97.148,148.291z"/>
			<path class="st9" d="M91.922,160.116c0,0,6.56-11,15.51,0H91.922z"/>
			<path class="st10" d="M92.611,154.293c2.492,0.92,4.248,3.169,7.104,2.906c2.695-0.249,5.691-0.955,7.717-3.004
				c-1.473-0.287-5.009-3.073-6.573-2.771c0.13,3.811-3.133,2.74-3.121-0.254c-1.257,1.205-5.047,1.158-5.289,3.85"/>
			<path class="st14" d="M88.684,157.606c0.957-0.454,1.783-2.02,2.72-2.714c0.854-0.632,1.695-1.312,2.573-1.847
				c0.692-0.421,1.525-0.871,2.282-0.785c0.767,0.087,1.219,0.805,1.896,1.127c1.546,0.734,2.542-1.111,4.126-0.993
				c1.679,0.124,3.467,0.715,4.927,2.021c0.965,0.863,1.845,2.042,2.557,3.19"/>
		</g>
		<path class="st4" d="M150.798,46.937c-18.146-0.898-40.742,16.424-58.177,22.19c-22.604,7.477-41.491,4.109-61.958-3.962
			c9.464-0.057,19.256,4.789,29.432,4.303c10.239-0.49,22.569-2.891,32.272-6.492c8.4-3.117,15.788-7.96,24.673-10.138
			c7.501-1.839,16.051-2.152,23.7-2.555c2.035-0.107,13.44,0.009,8.935,0.026"/>
		<path class="st8" d="M151.647,146.354c0.204,6.619-1.886,13.939-2.349,20.628c-0.331,4.788-1.598,10.09-3.314,14.549
			c-1.1,2.855-2.797,5.965-5.909,7.027c-4.377,1.494-6.415-2.675-9.952-3.365c6.911-13.34,18.295-25.166,23.554-39.178"/>
		<path class="st8" d="M50.196,146.691c-0.059-0.2-0.65-0.757-0.082-0.392c0.337,4.122-0.003,8.185,1.09,12.243
			c1.105,4.105,5.083,21.024,7.023,24.754c1.444,2.777,2.671,4.65,5.834,4.972c3.992,0.406,5.526-2.348,9.096-3.439
			c-5.256-6.141-9.698-14.251-13.923-21.238c-2.482-4.105-5.229-8.03-7.422-12.251c-0.928-1.786-2.178-5.361-2.968-6.34"/>
		<path class="st0" d="M65.414,161.571c0.605,6.185-3.391,20.355,5.055,22.337c4.856,1.139,5.081-1.746,3.247-5.498
			c-2.6-5.32-5.735-10.497-8.302-15.824"/>
		<path class="st0" d="M137.977,159.257c-0.605,6.184,3.391,20.355-5.055,22.337c-4.856,1.139-5.081-1.746-3.247-5.498
			c2.6-5.32,5.735-10.497,8.302-15.824"/>
		<path class="st9" d="M67.984,184.648c3.559,3.22,9.438-3.114,10.461-6.156c0.962,2.999,1.171,7.099-1.81,9.078
			c-4.08,2.709-6.055-1.361-8.95-2.922"/>
		<path class="st9" d="M127.763,179.567c-0.726,2.512,2.907,5.863,5.589,5.672c-2.328,1.112-9.222,0.996-10.027-2.384
			c-0.585-2.456,4.395-4.766,3.542-6.576"/>
		<path class="st15" d="M69.493,129.717c2.582,5.835,1.809,13.641-1.209,19.86c-2.852,5.879-7.179,14.173-6.524,20.847
			c0.954-2.355-1.901-7.26-2.775-9.509c-2.071-5.324-3.452-10.683-6.058-15.817c-1.641-3.232-3.419-5.592-3.233-9.082
			c0.144-2.684,0.915-2.915,2.175-5.054c4.714,4.721,13.306,1.014,18.266-1.726C69.927,129.402,69.711,129.565,69.493,129.717"/>
		<path class="st15" d="M135.19,126.417c-2.979,0.789-4.951,9.185-5.573,11.78c-1.333,5.564,0.518,10.914,2.34,16.118
			c1.305,3.728,3.438,6.64,4.417,10.499c0.621,2.447,2.537,5.774,2.101,8.293c4.209-8.962,9.414-17.798,13.223-27.199
			c1.529-3.775,1.158-10.768-2.708-13.432c-1.643-1.132-4.12-1.288-6.065-2.461c-2.146-1.294-5.567-3.091-7.733-2.7"/>
		<path class="st11" d="M90.731,173.674c0,3.236,4.219,5.858,9.423,5.858s9.423-2.623,9.423-5.858s-4.219-5.858-9.423-5.858
			S90.731,170.439,90.731,173.674z"/>
		<path class="st10" d="M140.849,106.96c0,0-12.965-5.725-12.234-4.954C129.346,102.777,137.603,101.51,140.849,106.96z"/>
		<path class="st10" d="M135.713,100.604l12.174,1.402C147.886,102.006,143.583,96.677,135.713,100.604z"/>
		<path class="st10" d="M66.148,102.006L54.59,107.24C54.59,107.24,59.859,102.191,66.148,102.006z"/>
		<path class="st10" d="M64.987,99.16l-13.588,3.955C51.399,103.115,57.044,97.484,64.987,99.16z"/>
		<path class="st16" d="M159.29,53.244c-8.492,5.154-19.11,1.188-29.185,1.852c-6.22,0.41-13.889,5.971-20.151,8.98
			c-8.904,4.279-18.974,7.305-28.68,8.482c-8.229,0.999-18.48,0.733-24.746,0.019c22.25,0,49.411-6.006,66.263-21.234
			c9.895,6.026,28.007,2.938,37.703-0.456C160.342,49.903,160.494,52.072,159.29,53.244"/>
		<path class="st16" d="M116.89,39.865c-21.693-2.35-45.935,9.564-66.547,16.929c5.058-1.321,10.696-1.812,15.583-2.868
			c10.04-2.168,19.2-4.836,28.861-8.031c6.243-2.064,14.142-4.686,20.953-5.667C116.11,40.063,116.495,39.939,116.89,39.865z"/>
		<path class="st16" d="M50.342,56.793c-1.698,0.444-3.332,0.981-4.849,1.665C47.084,57.94,48.703,57.379,50.342,56.793z"/>
		<path class="st16" d="M109.956,29.91c-16.907-0.169-36.984,7.955-51.097,13.418c8.052-5.141,17.143-9.548,26.431-11.436
			C92.944,30.337,101.712,29.368,109.956,29.91"/>
		<path class="st16" d="M25.39,105.165c-2.433,7.367,4.464,16.354,12.142,15.057c6.945-1.174,11.963-7.881,12.035-14.477
			c-1.39,5.189-7.864,10.732-12.779,12.519c-9.361,3.404-10.104-8.758-11.65-14.609"/>
		<path class="st16" d="M24.131,94.842c1.178,3.567,6.811,5.276,10.273,5.286c4.341,0.013,7.468-2.595,10.078-5.506
			c-1.729,3.171-1.79,7.223-6.25,8.019c-6.8,1.213-10.144-4.541-14.855-7.548"/>
		<path class="st16" d="M151.784,104.913c0-0.232,0-0.465,0-0.698c-0.282,5.947,8.131,9.774,12.904,10.014
			c6.384,0.32,9.354-4.445,12.809-8.975c-4.033,4.663-7.119,15.295-15.194,12.317c-2.394-0.882-15.602-11.724-9.511-13.665"/>
		<path class="st16" d="M151.532,89.051c0.693,10.914,16.557,10.351,22.622,5.074c-3.626,3.928-7.119,6.487-12.537,5.054
			c-5.1-1.349-9.98-4.977-9.581-10.883"/>
		<path class="st17" d="M92.556,91.325c0,0-2.626,6.428-7.338,4.753c-4.711-1.674-9.514-10.144-9.514-10.144L92.556,91.325z"/>
		<path class="st17" d="M108.269,93.135c0,0-1.036,6.922,8.017,2.795s10.521-11.215,10.521-11.215l-18.574,7.38"/>
	</g>
</g>
<g>
	<path class="st0" d="M256.665,165.477c-1.219,11.062-1.563,20.531-7.851,27.617c-7.898,8.9-17.034,9.412-21.781,23.061
		c-2.938,8.443-10.879,47.256-10.879,47.256c13.206-0.1,170.696,0.439,176.976,0c0,0-5.545-28.871-7.314-37.709
		c-2.617-13.066-11.844-18.412-19.475-21.367c-7.846-3.037-13.631-9.234-16.074-22.217c-2.328-12.371-0.102-23.959-0.504-36.527
		c-13.49,12.953-24.637,30.064-41.487,31.01c-12.521,0.703-26.376,1.389-38.52-4.146c-2.73-1.246-7.601-3.268-9.718-6.436
		c-1.305-1.955-1.481-5.107-2.498-5.4"/>
	<g>
		<path class="st1" d="M211.12,265c0,0,26.008-9.354,41.206-20.076c18.056-12.74,7.505-27.717,53.199-26.4
			c47.779,1.375,38.434,14.229,64.955,33.047c6.686,4.744,22.596,7.797,29.449,13.43H211.12V265z"/>
		<path class="st18" d="M280.39,228.838c10.126-3.17,20.5-4.668,31.289-4.07c6.727,0.371,12.141,1.729,17.883,4.689
			c1.291,0.666,2.713,1.121,4.023,1.451c-11.211-2.68-22.013-3.445-33.62-3.445c-4.946,0-9.599,0.609-14.426,1.049
			c-1.895,0.174-7.326-0.82-7.9,0.67"/>
		<path class="st18" d="M258.04,245.344c0.057,2.352,0.038,4.617-0.664,6.893c-0.586,1.9-2.36,3.623-2.378,5.459
			c4.187-3.275,6.239-7.785,3.387-12.352"/>
		<path class="st18" d="M361.196,252.564c0.217,3.256,2.422,4.9,4.1,7.17c-1.947,0.293-5.32-0.576-6.188-2.625
			c-0.938-2.213,1.283-4.289,2.096-6.314c-0.291-0.068,0.205,0.205,0.336,0.395"/>
		<path class="st18" d="M269.731,240.873c-2.032,5.705,14.983,10.793,19.496,11.346c-7.511,0.174-13.642-13.898-20.818-11.98
			c-0.041,1.295,0.718,2.221,2.01,2.699"/>
		<path class="st18" d="M344.691,241.561c-2.674,2.059-3.867,6.002-6.893,8.201c-1.717,1.246-4.057,2.631-5.803,3.338
			c3.779-0.717,8.686-1.887,11.338-5.004c2.088-2.453,2.678-6.592,4.074-9.508c-1.668,1.531-3.853,3.23-5.123,5.037"/>
	</g>
	<g>
		<path class="st2" d="M254.366,241.379c-0.562-2.949-6.121-9.551,1.253-8.047c2.955,0.604,6.65,2.74,8.219,5.479
			c4.493,7.846-9.766,4.545-11.517-0.662"/>
		<path class="st2" d="M260.704,236.266c-1.908-2.354-7.267-8.967-0.96-9.486c3.142-0.258,6.864,2.574,8.592,4.953
			c1.505,2.072,2.751,5.307-0.234,6.518c-1.645,0.668-3.588-0.014-5.073-0.795c-1.787-0.941-3.353-4.068-5.447-3.738"/>
		<path class="st2" d="M266.27,229.873c-2.997-2.318-3.962-6.443-1.306-7.893c2.492-1.361,6.184,1.914,7.555,3.674
			c1.301,1.67,2.835,5.281,0.681,6.889c-1.883,1.404-7.057-0.885-6.731-3.58"/>
		<path class="st2" d="M252.238,239.604C243.563,253.498,266.462,242.051,252.238,239.604"/>
		<path class="st19" d="M270,231.525c0.664-1.006,1.853-2.09,2.729-2.879c-0.626-1.254-3.328-1.404-4.1-0.129
			c-0.719,1.191,0.364,3.084,1.617,2.805"/>
		<path class="st19" d="M265.314,236.654c0.665-1.006,1.853-2.092,2.729-2.881c-0.626-1.252-3.328-1.402-4.1-0.127
			c-0.719,1.189,0.364,3.084,1.617,2.805"/>
		<path class="st19" d="M259.81,241.818c0.665-1.006,1.853-2.09,2.729-2.879c-0.626-1.254-3.328-1.404-4.1-0.129
			c-0.719,1.191,0.364,3.084,1.617,2.807"/>
		<path class="st19" d="M252.325,244.924c0.48-0.822,1.36-1.695,2.01-2.328c-0.521-1.07-2.603-1.279-3.157-0.234
			c-0.517,0.975,0.375,2.594,1.33,2.4"/>
	</g>
	<g>
		<path class="st2" d="M363.95,246.148c0.879-2.871,7.127-8.824-0.367-8.137c-3.002,0.275-6.91,1.996-8.768,4.549
			c-5.324,7.307,9.211,5.584,11.52,0.598"/>
		<path class="st2" d="M358.208,240.373c2.154-2.133,8.203-8.119,1.99-9.324c-3.094-0.6-7.104,1.809-9.082,3.984
			c-1.723,1.895-3.314,4.973-0.479,6.504c1.561,0.844,3.568,0.379,5.129-0.236c1.879-0.74,3.777-3.678,5.824-3.121"/>
		<path class="st2" d="M353.374,233.41c3.232-1.977,4.643-5.971,2.16-7.703c-2.328-1.625-6.355,1.229-7.91,2.828
			c-1.477,1.516-3.395,4.939-1.43,6.771c1.719,1.602,7.109-0.109,7.082-2.822"/>
		<path class="st2" d="M366.261,244.615C373.364,259.375,351.855,245.494,366.261,244.615"/>
		<path class="st19" d="M349.488,234.645c-0.553-1.072-1.615-2.281-2.398-3.16c0.758-1.178,3.461-1.031,4.088,0.32
			c0.586,1.264-0.697,3.025-1.914,2.611"/>
		<path class="st19" d="M353.583,240.254c-0.549-1.072-1.611-2.279-2.398-3.16c0.762-1.176,3.463-1.031,4.09,0.32
			c0.586,1.264-0.699,3.025-1.912,2.613"/>
		<path class="st19" d="M358.491,245.99c-0.551-1.072-1.613-2.281-2.398-3.16c0.76-1.178,3.461-1.031,4.088,0.32
			c0.586,1.262-0.697,3.025-1.912,2.611"/>
		<path class="st19" d="M365.591,249.893c-0.387-0.867-1.166-1.832-1.744-2.533c0.635-1.004,2.729-0.986,3.164,0.113
			c0.408,1.025-0.656,2.537-1.584,2.24"/>
	</g>
	<g>
		<path class="st3" d="M364.956,78.892c2.995,8.054,4.192,55.06-4.289,58.642c-8.192,3.46-5.782-18.886-6.036-24.115
			c-0.527-10.854-1.947-22.323,0.97-32.676C360.353,80.402,363.557,73.239,364.956,78.892c-0.368,1.599,1.707,6.237,0.862,6.896"/>
		<path class="st3" d="M239.866,82.988c-2.996,8.054-4.193,55.06,4.289,58.642c8.191,3.461,5.781-18.886,6.035-24.115
			c0.527-10.854,1.947-22.323-0.969-32.676c-4.752-0.342-8.477-5.64-9.875,0.013c0.368,1.599-1.188,4.373-0.342,5.032"/>
		<path class="st4" d="M345.614,21.233C343.046,8.285,311.851,7.314,301.629,7.44c-15.718,0.193-31.122,5.048-43.081,15.52
			c-21.271,18.628-22.635,56.323-9.442,79.909c-0.258-19.371,11.301-29.191,26.616-40.212
			c15.883-11.429,34.646-19.196,51.806-28.493c5.335-2.891,16.318-6.526,16.209-13.494c-1.082,0.967-2.156,0.945-3.295,1.425"/>
		<path class="st0" d="M261.407,167.517c0,29.995,10.247,5.44,40.242,5.44l0,0c45.16,0,42.716,14.633,43.965-11.168
			c0.208-4.292,10.346-30.639,10.346-43.143v-9.326V66.923c0-29.995-24.316-54.311-54.311-54.311l0,0
			c-29.995,0-54.311,24.315-54.311,54.311l0.694,44.227L261.407,167.517z"/>
		<path class="st5" d="M352.511,28.991c3.029,5.401,11.479,7.694,14.48,14.655c2.406,5.578,1.291,14.907,0.172,20.687
			c-2.271,11.73-6.496,30.837-12.973,41.077c0.213-15.46-2.561-30.229-4.266-45.405c-1.041-9.262-3.896-21.006-2.459-30.019
			c3.35,0.088,8.474,1.7,8.494,4.177"/>
		<path class="st5" d="M244.753,94.508c-10.29-20.684-18.101-44.203-2.392-65.305c13.007-17.472,67.797-35.155,84.461-19.701
			c-22.424,2.968-58.923,21.394-71.913,40.178c-5.794,8.379-6.523,14.247-7.55,24.327c-0.58,5.701,0.472,20.238-1.744,23.087"/>
		<path class="st6" d="M327.348,36.073c-13.73-0.149-25.659,2.604-38.675,6.481c-15.478,4.611-30.614,12.532-46.423,15.247
			c-4.566,0.784-9.884,0.763-14.597,0.509c-0.475-0.025-0.969-0.044-1.466-0.072c12.779,4.45,28.23,0.425,40.465-3.846
			c10.097-3.525,19.577-8.111,30.079-10.726c13.219-3.29,27.522-4.587,41.087-3.211c4.839,0.491,7.942,2.623,12.222,4.225
			C349.837,37.203,332.384,36.128,327.348,36.073z"/>
		<path class="st7" d="M242.571,60.142c-0.118,5.47-0.212,9.368,1.767,14.707c1.065,2.875,2.039,6.117,3.218,8.745
			c-0.108-8.037,0.435-17.089,2.301-24.735c-2.49,1.304-6.867,0.557-8.594,1.544"/>
		<path class="st7" d="M346.956,44.183c1.723,0.21,4.236,0.844,5.715,1.772c1.659,1.041,1.077,0.316,1.611,2.205
			c1.02,3.608,0.033,8.324-0.264,11.989c-0.351,4.316-0.392,11.345-2.367,15.074c1.049-10.255-5.453-21.021-3.854-31.28
			c0.389,0.06,0.052,0.261,0.204,0.502"/>
		<path class="st8" d="M275.786,175.88c3.759-0.173,2.877-13.846,2.877-13.846c5.003,0.354,5.876,5.21,10.598,6.925
			c10.04,3.645,30.502,2.328,34.671-9.814c3.907,3.437-3.802,14.913,1.037,13.933c6.568-1.331,26.133-34.461,30.328-39.551
			c0,0-10.761,36.43-23.895,48.285c-8.528,7.698-14.289,11.842-25.686,13.339c-13.332,1.752-27.732-9.269-38.371-17.427
			c-3.955-3.033,3.193,3.753,0,0c-2.98-3.502-23.062-43.872-17.49-54.99"/>
		<path class="st9" d="M278.235,165.946c0,6.039,13.122,19.128,20.733,19.128l6.662,1.797c7.611,0,22.303-14.887,22.303-20.926l0,0
			c0-6.039-4.889-4.31-12.5-4.31h-22.269C285.554,161.636,278.235,159.907,278.235,165.946L278.235,165.946z"/>
		<path class="st10" d="M277.92,163.946c0,6.039,6.17,10.934,13.78,10.934h22.136c7.611,0,13.781-4.895,13.781-10.934l0,0
			c0-6.039-1.859-4.718-9.471-4.718h-24.982C285.554,159.228,277.92,157.907,277.92,163.946L277.92,163.946z"/>
		<path class="st11" d="M249.856,100.348c0,0,28.017,11.392-0.483,34.19L249.856,100.348z"/>
		<path class="st11" d="M354.814,99.337c0,0-28.016,11.392,0.484,34.19L354.814,99.337z"/>
		<path class="st5" d="M238.119,68.76c-1.463,2.303-2.073,6.228-4.592,8.157c-4.401,3.373-10.666,0.828-10.406-5.015
			c-0.761,5.71,5.852,16.35,11.823,10.935c-2.786,2.932-7.604,4.511-10.873,1.1c1.846,8.322,18.594,9.408,23.107,3.323
			c-4.244-6.277-7.688-12.427-9.56-19"/>
		<path class="st5" d="M365.423,65.617c1.463,2.303,2.072,6.228,4.592,8.157c4.4,3.373,10.666,0.828,10.406-5.015
			c0.76,5.71-5.854,16.35-11.823,10.936c2.786,2.932,7.602,4.511,10.872,1.1c-1.846,8.322-18.594,9.408-23.107,3.323
			c4.244-6.277,7.688-12.427,9.561-19"/>
		<path class="st9" d="M256.249,104.956l14.471,14.985C270.72,119.941,242.343,136.117,256.249,104.956z"/>
		<path class="st9" d="M352.161,99.337l-16.377,17.845C335.784,117.182,357.983,138.135,352.161,99.337z"/>
		<path class="st10" d="M293.995,125.808c0,3.607,2.926,6.532,6.533,6.532l0,0c3.607,0,6.531-2.925,6.531-6.532v-34.92
			c0-3.607-2.924-6.532-6.531-6.532l0,0c-3.607,0-6.533,2.925-6.533,6.532V125.808z"/>
		<path class="st10" d="M289.139,123.342c0,1.3,1.054,2.354,2.354,2.354l0,0c1.301,0,2.354-1.054,2.354-2.354v-3.924
			c0-1.3-1.054-2.354-2.354-2.354l0,0c-1.301,0-2.354,1.054-2.354,2.354C289.139,119.418,289.139,123.342,289.139,123.342z"/>
		<ellipse class="st8" cx="280.618" cy="90.223" rx="13.149" ry="7.756"/>
		<path class="st10" d="M307.06,123.342c0,1.3,1.055,2.354,2.355,2.354l0,0c1.3,0,2.354-1.054,2.354-2.354v-3.924
			c0-1.3-1.054-2.354-2.354-2.354l0,0c-1.301,0-2.355,1.054-2.355,2.354C307.06,119.418,307.06,123.342,307.06,123.342z"/>
		<path class="st10" d="M272.174,90.315c0,4.233,4.027,7.664,8.995,7.664s8.995-3.431,8.995-7.664c0-4.232-4.027-7.663-8.995-7.663
			S272.174,86.083,272.174,90.315z"/>
		<path class="st8" d="M309.516,89.052c0,3.699,5.41,6.698,12.084,6.698c6.674,0,12.084-2.999,12.084-6.698
			s-5.41-6.697-12.084-6.697C314.926,82.355,309.516,85.354,309.516,89.052z"/>
		<path class="st10" d="M313.301,89.052c0,3.699,3.715,6.698,8.299,6.698c4.583,0,8.299-2.999,8.299-6.698s-3.716-6.697-8.299-6.697
			C317.017,82.355,313.301,85.354,313.301,89.052z"/>
		<path class="st0" d="M302.769,170.848c-11.628,0.814-21.105-4.144-21.105-9.256s9.449-9.256,21.105-9.256
			c11.655,0,21.105,4.144,21.105,9.256C323.873,161.592,326.004,169.22,302.769,170.848z"/>
		<polygon class="st11" points="293.19,77.092 307.491,75.367 309.717,89.724 292.225,87.762 		"/>
		<path class="st5" d="M248.242,100.243c-0.197,4.393-7.271,10.848-11.404,11.341c-8.133,0.971-11.277-12.582-10.728-18.844
			c0.056,2.121,0.999,3.819,3.104,4.044c5.183,0.552,4.794-6.687,6.302-9.577c2.499,1.561,6.938,0.471,9.906,0.64
			c1.132,2.338,6.445,11.12,3.856,12.742"/>
		<path class="st5" d="M354.059,81.916c-1.95,6.342,0.542,19.274,5.879,23.945c8.632,7.555,15.527-3.961,18.273-11.123
			c-1.617,2.009-4.24,6.04-6.793,3.012c-2.766-3.28-1.469-11.345-2.914-15.461c-1.408,1.696-4.579,2.789-6.923,2.026
			c-4.985-1.622-3.854-7.511-6.081-10.349c-0.057,1.728-0.067,3.465-0.404,5.183"/>
		<path class="st4" d="M332.712,10.067c-9.929-17.532-54.987-3.379-63.163-0.618c-24.333,8.213-40.261,30.162-65.961,32.329
			c5.268,1.925,19.798,3.352,25.378,1.043c-6.636,8.239-16.903,10.041-26.505,12.436c7.838,2.567,18.986-0.185,27.664-1.42
			c-9.154,4.83-20.407,7.575-28.784,12.152c21.645-2.908,42.641-4.175,64.264-10.696c23.635-7.128,42.427-9.271,67.39-9.271
			c6.022,0,22.201,2.819,26.397-1.41c5.357-5.397-0.698-16.418-4.462-21.058c-7.605-9.373-33.833-24.932-44.69-14.611"/>
		<path class="st4" d="M351.813,38.157c-18.146-0.898-40.742,16.424-58.177,22.19c-22.604,7.477-41.491,4.109-61.958-3.962
			c9.464-0.057,19.256,4.789,29.432,4.303c10.239-0.49,22.569-2.891,32.272-6.492c8.4-3.117,15.788-7.96,24.673-10.138
			c7.501-1.839,16.051-2.152,23.7-2.555c2.035-0.107,13.44,0.009,8.935,0.026"/>
		<path class="st8" d="M352.662,137.574c0.204,6.619-1.886,13.939-2.349,20.628c-0.331,4.788-1.598,10.09-3.314,14.549
			c-1.1,2.855-2.797,5.965-5.909,7.027c-4.377,1.494-6.415-2.675-9.952-3.365c6.911-13.34,18.295-25.166,23.554-39.178"/>
		<path class="st8" d="M251.211,137.912c-0.059-0.2-0.65-0.757-0.082-0.392c0.337,4.122-0.003,8.185,1.09,12.243
			c1.105,4.105,5.083,21.024,7.023,24.754c1.444,2.777,2.671,4.65,5.833,4.972c3.992,0.406,5.526-2.348,9.096-3.439
			c-5.256-6.141-9.698-14.251-13.923-21.238c-2.482-4.105-5.229-8.03-7.422-12.251c-0.928-1.786-2.178-5.361-2.968-6.34"/>
		<path class="st0" d="M266.429,152.791c0.605,6.184-3.391,20.355,5.055,22.337c4.856,1.139,5.081-1.746,3.247-5.498
			c-2.6-5.32-5.735-10.497-8.302-15.824"/>
		<path class="st0" d="M338.992,150.478c-0.605,6.184,3.391,20.355-5.055,22.337c-4.856,1.139-5.081-1.746-3.247-5.498
			c2.6-5.32,5.735-10.497,8.302-15.824"/>
		<path class="st9" d="M268.998,175.868c3.559,3.22,9.437-3.114,10.461-6.156c0.962,2.999,1.171,7.099-1.81,9.078
			c-4.08,2.709-6.055-1.361-8.95-2.922"/>
		<path class="st9" d="M328.778,170.787c-0.727,2.512,2.907,5.863,5.589,5.672c-2.328,1.112-9.222,0.996-10.027-2.384
			c-0.585-2.456,4.395-4.766,3.542-6.576"/>
		<path class="st15" d="M270.507,120.937c2.583,5.835,1.809,13.641-1.208,19.86c-2.853,5.879-7.179,14.173-6.524,20.847
			c0.954-2.355-1.901-7.26-2.775-9.509c-2.071-5.324-3.452-10.683-6.058-15.817c-1.641-3.232-3.419-5.592-3.233-9.082
			c0.144-2.684,0.915-2.915,2.175-5.054c4.714,4.721,13.306,1.014,18.266-1.726C270.941,120.622,270.726,120.785,270.507,120.937"/>
		<path class="st15" d="M336.204,117.637c-2.979,0.789-4.951,9.185-5.573,11.78c-1.333,5.564,0.518,10.914,2.34,16.118
			c1.305,3.728,3.438,6.64,4.416,10.499c0.621,2.447,2.537,5.774,2.101,8.293c4.21-8.962,9.414-17.798,13.223-27.199
			c1.529-3.775,1.158-10.768-2.709-13.432c-1.642-1.132-4.12-1.288-6.065-2.461c-2.146-1.294-5.567-3.091-7.733-2.7"/>
		<path class="st11" d="M291.745,164.894c0,3.236,4.219,5.858,9.423,5.858s9.423-2.623,9.423-5.858s-4.219-5.858-9.423-5.858
			S291.745,161.659,291.745,164.894z"/>
		<path class="st10" d="M341.863,98.18c0,0-12.965-5.725-12.234-4.954C330.36,93.997,338.618,92.731,341.863,98.18z"/>
		<path class="st10" d="M336.727,91.824l12.174,1.402C348.901,93.226,344.597,87.898,336.727,91.824z"/>
		<path class="st10" d="M267.163,93.226l-11.558,5.234C255.605,98.46,260.874,93.411,267.163,93.226z"/>
		<path class="st10" d="M266.002,90.381l-13.588,3.955C252.413,94.335,258.059,88.705,266.002,90.381z"/>
		<path class="st16" d="M360.599,42.974c-11.05,2.077-26.9,5.615-36.794-0.411c-16.852,15.229-44.013,21.234-66.263,21.234
			c5.711,0.714,16.518,0.98,24.746-0.019c9.706-1.178,19.776-4.204,28.68-8.482c6.262-3.009,13.931-8.57,20.151-8.98
			c10.075-0.664,22.061,3.175,28.76-1.831C360.261,43.907,360.468,43.415,360.599,42.974z"/>
		<path class="st16" d="M317.869,31.082c-21.054-2.266-44.507,8.892-64.709,16.28c-0.13,0.047-0.072,0.235,0.063,0.205
			c4.55-1.002,9.423-1.493,13.717-2.42c10.04-2.168,19.2-4.836,28.861-8.031c6.38-2.109,14.485-4.796,21.394-5.724
			C317.415,31.273,317.636,31.167,317.869,31.082z"/>
		<path class="st16" d="M310.971,21.131c-16.46-0.311-36.984,7.955-51.097,13.418c8.052-5.141,17.143-9.548,26.431-11.436
			C293.959,21.557,302.442,20.183,310.971,21.131"/>
		<path class="st16" d="M226.405,96.385c-2.433,7.367,4.464,16.354,12.142,15.057c6.945-1.174,11.963-7.881,12.035-14.477
			c-1.39,5.189-7.864,10.732-12.779,12.519c-9.361,3.404-10.103-8.758-11.65-14.609"/>
		<path class="st16" d="M225.146,86.063c1.178,3.567,6.811,5.276,10.273,5.286c4.341,0.013,7.468-2.595,10.078-5.506
			c-1.73,3.171-1.79,7.223-6.251,8.019c-6.8,1.213-10.144-4.541-14.855-7.548"/>
		<path class="st16" d="M352.799,96.133c0-0.232,0-0.465,0-0.698c-0.282,5.947,8.131,9.774,12.904,10.014
			c6.384,0.32,9.354-4.445,12.809-8.975c-4.033,4.663-7.119,15.295-15.194,12.317c-2.394-0.882-15.602-11.724-9.511-13.665"/>
		<path class="st16" d="M352.547,80.272c0.693,10.914,16.557,10.351,22.622,5.074c-3.626,3.928-7.119,6.487-12.537,5.054
			c-5.1-1.349-9.979-4.977-9.581-10.883"/>
		<g>
			<path class="st4" d="M255.598,85.152c5.448-12.053,10.962-7.278,21.014-6.874c5.43,0.218,17.471,1.165,17.323-3.042
				c-9.455,1.23-16.094-6.209-24.561-6.134c-9.754,0.087-9.026,10.88-13.612,16.896"/>
			<path class="st4" d="M290.145,76.309c-14.489,0.227-16.793-8.604-23.716-18.769c7.383,3.264,16.576,5.378,24.543,5.568
				C292.588,67.571,293.196,73.002,290.145,76.309"/>
			<path class="st13" d="M254.833,88.573c1.125-2.627,4.41-5.667,6.438-7.661c1.357-1.334,2.775-2.333,4.729-2.414
				c3.411-0.14,26.168,2.307,28.082,0.944c-0.224-1.066,0.263-3.174-0.149-4.207c-2.837,2.003-8.963,3.157-12.027,2.747
				c-4.321-0.577-8.702-1.15-13.015-1.743c-3.222-0.442-6.406,0.175-8.88,2.539c-1.676,1.601-2.782,4.117-3.792,6.208
				c-0.421,0.87-2.057,4.375-1.472,4.227"/>
			<path class="st17" d="M292.581,72.434c0,0-1.358,6.809-6.302,6.06c-4.944-0.75-11.266-8.154-11.266-8.154L292.581,72.434z"/>
		</g>
		<g>
			<path class="st4" d="M346.917,82.804c-4.623-12.393-12.113-9.177-21.638-5.943c-8.228,2.793-19.043,5.888-15.943-6.533
				c9.351,1.864,16.476-5.11,24.918-4.465c9.725,0.744,8.273,11.463,12.442,17.774"/>
			<path class="st4" d="M310.111,78.722c14.44,1.202,17.438-12.316,25.03-21.992c-7.584,2.76-17.006,9.112-24.966,8.765
				C308.26,69.839,307.287,75.217,310.111,78.722"/>
			<path class="st13" d="M308.8,78.531c4.123,0.251,10.028-1.695,14.458-2.732c4.445-1.041,9.305-2.12,13.904-2.235
				c6.738-0.167,8.911,7.134,12.167,12.014c-2.523-2.469-5.093-4.868-7.468-7.451c-2.817-3.063-7.361-1.894-11.299-1.449
				c-4.978,0.562-9.744,2.105-14.759,2.494c-2.998,0.232-6.209,0.02-9.133,0.507c0.867-0.57,0.92-1.693,1.558-2.339
				c0.007,0.205-0.123,0.397-0.113,0.587"/>
			<path class="st17" d="M308.766,74.421c0,0-2.77,6.427,7.037,4.751c9.807-1.676,13.223-13.706,13.223-13.706l-20.029,7.941"/>
		</g>
		<circle class="st20" cx="281.3" cy="90.315" r="5.021"/>
		<path class="st10" d="M303.225,147.882c0.839,1.202,1.692,2.431,2.11,3.837s1.267,3.672,0.355,4.82
			c-1.116,1.404-4.936,1.795-6.729,1.812c-8.29,0.077-5.176-5.306-3.494-10.612c0.391-1.234-2.465-3.957-1.593-7.159
			C296.467,131.058,311.771,135.703,303.225,147.882z"/>
		<circle class="st21" cx="281.169" cy="90.315" r="2.783"/>
		<circle class="st20" cx="321.731" cy="89.052" r="5.021"/>
		<circle class="st21" cx="321.6" cy="89.052" r="2.783"/>
		<path class="st12" d="M296.32,146.372c0,2.507,1.505,4.539,3.362,4.539s3.362-2.032,3.362-4.539s-1.505-4.539-3.362-4.539
			S296.32,143.865,296.32,146.372z"/>
	</g>
</g>
<g>
	<path class="st0" d="M456.68,163.828c-1.219,11.062-1.564,20.531-7.852,27.617c-7.898,8.9-17.033,9.412-21.781,23.061
		c-2.938,8.443-11.028,47.973-11.028,47.973c13.206-0.1,171.062,0.779,177.341,0.339c0,0-5.76-29.927-7.53-38.765
		c-2.617-13.066-11.844-18.412-19.475-21.367c-7.846-3.037-13.631-9.234-16.074-22.217c-2.328-12.371-0.102-23.959-0.504-36.527
		c-13.49,12.953-24.637,30.064-41.488,31.01c-12.52,0.703-26.375,1.389-38.52-4.146c-2.73-1.246-7.602-3.268-9.719-6.436
		c-1.305-1.955-1.48-5.107-2.496-5.4"/>
	<g>
		<path class="st1" d="M491.432,235.059c-0.273,0.012-0.73-0.023-0.611-0.076c9.449,2.268,20.998,0.729,30.682,0.34
			c4.283-0.17,6.646-0.91,10.676,0.248c3.066,0.883,7.768,0.633,10.268,2.105c0.504,0.297,1.5,2.043,2.561,2.695
			c5.281,3.252,10.842,6.504,16.402,9.467c12.023,6.402,25.279,10.072,38.088,15.162c-4.949,0-188.71,0-192.076,0
			c9.436-2.756,57.647-17.926,63.354-22.32c2.396-1.846,8.803-6.014,8.508-8.912c-0.459,0.332-0.477,0.467-0.816,0.99
			c1.018,0.178,1.715-0.137,1.854-0.225"/>
		<path class="st18" d="M460.274,256.053c3.166-0.375,6.283-3.617,8.584-5.719c3.262-2.979,6.76-5.625,9.982-8.637
			c1.891-1.768,3.914-3.16,5.537-4.943c8.17,5.312,20.195,3.475,29.189,5.668c-0.42,0.166-0.799,0.262-1.215,0.377
			c8.74-0.939,17.645-4.824,25.668-8.457c-0.146,0.133-0.365,0.211-0.629,0.27c-1.029,4.309,4.385,9.062,7.064,11.744
			c3.486,3.488,9.674,8.744,13.355,10.787c-7.387-3.059-12.838-8.531-17.898-14.316c0.117,6.357,4.816,13.623,4.229,20.645
			c-0.047-3.426-3.543-5.617-4.953-8.549c-1.652-3.434-0.537-8.602-2.662-11.361c-1.648,1.703-4.199,1.438-6.346,2.527
			c-6.996,3.551-13.205,9.207-20.146,13.062c4.65-7.09,13.527-11.109,18.309-17.748c-3.945,1.416-8.479,2.447-12.863,3.092
			c-7.639,1.125-14.855-1.293-22.309-0.629c3.76-0.098,13.131,3.137,16.551,5.84c-3.969,0.977-16.82-2.906-20.014-6.17
			c0.549,3.332,3.144,6.818,5.412,9.309c2.557,2.809,4.199,5.525,6.334,8.457c-4.557-4.361-9.564-7.098-13.545-12.381
			c-1.824-2.418-4.049-5.08-5.729-7.158c0.912,4.098-6.834,8.572-9.73,10.635c-6.191,4.414-14.197,8.897-21.752,9.695
			c3.783-3.09,9.389-5.117,12.801-8.549"/>
		<g>
			<path class="st2" d="M472.2,240.766c-5.146-0.822-8.195-11.094-8.354-15.832c-0.221-6.664,2.098-8.266,6.689-10.996
				c2.088-1.242,5.655-3.286,8.635-3.389c4.505-0.155,6.844,2.138,9.377,3.598c5.467,3.152,3.289,4.752-2.721,6.66
				c9.615-2.514,6.584,5.256,1.664,8.338c3.402,0.402,5.033,2.99,4.582,6.477c-5.957,2.475-18.889,7.975-23.207,5.145"/>
			<path class="st13" d="M479.17,210.549c2.006-0.168,6.219,0.154,8.049,0.814c1.924,0.697,2.77,0.466,4.51,1.62
				c3.453,2.295,2.29,3.338,0.092,5.441c3.074,1.984,4.014,5.981,0.34,7.197c2.617,0.35,4.295,3.957,1.896,5.674
				c5.166,2.047-7.809,6.617-9.119,7.383c1.561-1.217,2.52-2.115,2.607-4.146c0.074-1.734-0.953-4.611-3.162-3.508
				c4.68,0.451,2.215-7.635-1.338-8.092c1.977-2.125,2.32-4.992,1.047-7.52"/>
			<path class="st1" d="M469.983,214.871c0.275-3.721-10.578-2.393-11.855-7.039c2.203-2.154,22.385-11.518,20.502-3.77
				c-0.43,1.764-2.584,2.666-3.182,4.324c-0.951,2.639,1.643,1.031,3.723,2.162c-3.277-0.014-7.602,2.699-10.307,4.402
				c-0.389,0.396,0.199,0.023,0.309,0.191"/>
		</g>
		<g>
			<path class="st2" d="M543.961,240.435c5.146-0.822,7.103-10.763,7.26-15.503c0.221-6.662-2.096-8.264-6.688-10.994
				c-4.377-2.604-10.342-4.763-16.684-2.986c-6.077,1.702-4.619,7.947,1.391,9.855c-9.613-2.514-6.582,5.256-1.664,8.338
				c-3.4,0.402-5.033,2.99-4.582,6.477c5.959,2.475,17.695,7.58,22.012,4.75"/>
			<path class="st13" d="M535.899,210.549c-2.006-0.168-6.219-0.258-8.049,0.402c-1.924,0.697-3.09,0.877-4.828,2.031
				c-3.455,2.295-1.577,4.68,0.555,5.289c-4.417,1.523-4.344,6.131-0.67,7.35c-2.617,0.35-4.297,3.957-1.898,5.674
				c-5.166,2.047,7.811,6.617,9.121,7.383c-1.561-1.217-2.52-2.115-2.607-4.146c-0.076-1.734,0.951-4.611,3.16-3.508
				c-4.68,0.451-2.215-7.637,1.338-8.092c-1.975-2.125-2.32-4.992-1.045-7.52C531.893,213.592,533.254,211.164,535.899,210.549"/>
			<path class="st1" d="M536.44,204.062c0.428,1.764,2.584,2.666,3.182,4.324c0.951,2.639-0.463,1.098-2.543,2.229
				c2.861-0.012,5.62,2.002,8.075,3.647c0.911-2.975,10.587-2.059,11.789-6.431C554.739,205.678,534.555,196.314,536.44,204.062z"/>
		</g>
		<path class="st18" d="M473.176,212.684c-3.77,0.438-6.576-2.035-9.576-3.965c3.957,0.945,7.701,1.766,10.406,3.92
			c-1.082-1.617-2.283-4.746-0.908-6.02c1.162,1.68,2.074,3.768,1.154,5.707"/>
		<path class="st18" d="M542.567,210.435c-0.18,0.393-0.449,0.494-0.365,0.984c-0.172-3.074,0.459-6.324,3.904-7.041
			c0.232,2.367-1.936,3.979-2.766,6.02c2.518-1.773,6.836-4.029,9.949-3.832c-2.377,2.984-8.125,4.545-11.768,5.242
			c0.062-0.523,0.336-0.137,0.688-0.299"/>
	</g>
	<g>
		<path class="st3" d="M563.686,87.215c2.995,8.054,4.192,55.06-4.289,58.642c-8.192,3.46-5.782-18.886-6.036-24.115
			c-0.527-10.854-1.947-22.323,0.97-32.676C559.083,88.725,562.287,81.562,563.686,87.215c-0.368,1.599,1.707,6.237,0.862,6.896"/>
		<path class="st3" d="M438.596,91.311c-2.996,8.054-4.193,55.06,4.289,58.642c8.191,3.46,5.781-18.886,6.035-24.115
			c0.527-10.854,1.947-22.323-0.969-32.676c-4.752-0.342-8.477-5.64-9.875,0.013c0.368,1.599-1.187,4.372-0.342,5.032"/>
		<path class="st4" d="M544.345,29.556c-2.568-12.947-33.764-13.918-43.985-13.793c-15.718,0.193-31.122,5.048-43.081,15.52
			c-21.271,18.628-22.635,56.323-9.442,79.909c-0.258-19.371,11.3-29.191,26.616-40.212c15.883-11.429,34.646-19.196,51.806-28.493
			c5.335-2.891,16.318-6.526,16.209-13.494c-1.082,0.967-2.156,0.945-3.295,1.425"/>
		<path class="st0" d="M460.137,175.84c0,29.995,10.247,5.44,40.242,5.44l0,0c45.16,0,42.716,14.633,43.965-11.168
			c0.208-4.292,10.346-30.639,10.346-43.143v-9.326V75.246c0-29.995-24.316-54.311-54.311-54.311l0,0
			c-29.995,0-54.311,24.315-54.311,54.311l0.694,44.226L460.137,175.84z"/>
		<path class="st5" d="M551.241,37.315c3.029,5.401,11.479,7.694,14.481,14.655c2.406,5.578,1.291,14.907,0.172,20.687
			c-2.271,11.73-6.496,30.837-12.973,41.077c0.213-15.46-2.561-30.229-4.266-45.405c-1.041-9.262-3.895-21.006-2.459-30.019
			c3.35,0.088,8.474,1.7,8.494,4.177"/>
		<path class="st22" d="M443.483,102.832c-10.29-20.684-18.102-44.203-2.393-65.305c13.007-17.472,67.797-35.155,84.461-19.701
			c-22.424,2.968-58.923,21.393-71.913,40.178c-5.794,8.379-6.523,14.247-7.55,24.327c-0.58,5.701,0.472,20.238-1.744,23.087"/>
		<path class="st6" d="M526.078,44.396c-13.73-0.149-25.659,2.604-38.675,6.481c-15.477,4.611-30.614,12.532-46.423,15.247
			c-4.566,0.784-9.884,0.763-14.597,0.509c-0.475-0.025-0.969-0.044-1.466-0.072c12.779,4.45,28.231,0.425,40.465-3.846
			c10.097-3.525,19.577-8.111,30.079-10.726c13.219-3.291,27.522-4.587,41.087-3.211c4.839,0.491,7.942,2.622,12.222,4.225
			C548.567,45.526,531.114,44.451,526.078,44.396z"/>
		<path class="st7" d="M441.302,68.465c-0.118,5.47-0.212,9.368,1.767,14.708c1.065,2.875,2.039,6.117,3.218,8.745
			c-0.107-8.037,0.436-17.089,2.301-24.735c-2.49,1.304-6.867,0.557-8.594,1.544"/>
		<path class="st7" d="M545.686,52.506c1.723,0.21,4.236,0.844,5.715,1.772c1.659,1.041,1.077,0.316,1.611,2.205
			c1.02,3.608,0.033,8.324-0.264,11.989c-0.351,4.316-0.392,11.345-2.367,15.074c1.049-10.255-5.453-21.021-3.854-31.28
			c0.389,0.06,0.052,0.261,0.204,0.502"/>
		<path class="st8" d="M474.516,184.203c3.759-0.173,2.878-13.846,2.878-13.846c5.003,0.354,5.876,5.21,10.598,6.925
			c10.04,3.645,30.502,2.328,34.671-9.814c3.907,3.437-3.802,14.913,1.037,13.933c6.568-1.331,25.136-37.151,29.332-42.241
			c0,0-9.764,39.12-22.898,50.975c-8.528,7.698-14.289,11.842-25.685,13.339c-13.332,1.752-27.732-9.269-38.371-17.427
			c-3.955-3.033,3.193,3.753,0,0c-2.98-3.502-23.062-43.872-17.49-54.99"/>
		<path class="st5" d="M436.849,77.083c-1.463,2.303-2.073,6.228-4.592,8.157c-4.401,3.373-10.666,0.828-10.406-5.015
			c-0.761,5.71,5.853,16.35,11.823,10.936c-2.786,2.932-7.604,4.511-10.873,1.1c1.846,8.322,18.594,9.408,23.107,3.323
			c-4.244-6.277-7.687-12.427-9.56-19"/>
		<path class="st5" d="M564.153,73.941c1.463,2.303,2.072,6.227,4.592,8.157c4.4,3.373,10.666,0.828,10.406-5.015
			c0.76,5.71-5.854,16.35-11.823,10.936c2.786,2.932,7.603,4.511,10.872,1.1c-1.846,8.322-18.594,9.408-23.107,3.323
			c4.244-6.277,7.688-12.427,9.561-19"/>
		<path class="st10" d="M492.725,119.566c0,3.029,2.926,5.486,6.533,5.486l0,0c3.607,0,6.531-2.456,6.531-5.486V90.241
			c0-3.029-2.924-5.485-6.531-5.485l0,0c-3.607,0-6.533,2.456-6.533,5.485V119.566z"/>
		<path class="st10" d="M488.977,118.334c0,1.3,1.054,2.354,2.354,2.354l0,0c1.301,0,2.354-1.054,2.354-2.354v-3.924
			c0-1.3-1.054-2.355-2.354-2.355l0,0c-1.301,0-2.354,1.054-2.354,2.355C488.977,114.41,488.977,118.334,488.977,118.334z"/>
		<path class="st10" d="M506.336,117.737c0,1.3,1.055,2.354,2.355,2.354l0,0c1.3,0,2.354-1.054,2.354-2.354v-3.924
			c0-1.3-1.054-2.354-2.354-2.354l0,0c-1.301,0-2.355,1.054-2.355,2.354C506.336,113.813,506.336,117.737,506.336,117.737z"/>
		<path class="st10" d="M464.983,98.265c0.542,2.617,6.278,3.642,12.812,2.288c6.533-1.354,11.39-4.573,10.848-7.19
			c-0.542-2.617-6.278-3.641-12.811-2.288C469.298,92.429,464.441,95.648,464.983,98.265z"/>
		<path class="st10" d="M510.452,92.824c-0.801,2.805,3.466,6.483,9.53,8.215c6.065,1.732,18.389,0.474,19.19-2.331
			s-12.519-10.516-18.583-12.248C514.524,84.728,511.253,90.019,510.452,92.824z"/>
		<polygon class="st11" points="491.58,72.32 505.881,70.594 505.565,85.603 492.655,86.962 		"/>
		<path class="st5" d="M446.972,108.566c-0.197,4.393-7.272,10.848-11.404,11.341c-8.133,0.971-11.277-12.582-10.728-18.844
			c0.056,2.121,0.999,3.819,3.104,4.044c5.183,0.552,4.794-6.687,6.302-9.577c2.499,1.56,6.938,0.471,9.906,0.64
			c1.132,2.338,6.445,11.12,3.856,12.742"/>
		<path class="st5" d="M552.789,90.239c-1.95,6.342,0.542,19.274,5.879,23.945c8.632,7.555,15.527-3.961,18.273-11.123
			c-1.617,2.009-4.24,6.04-6.793,3.012c-2.766-3.28-1.469-11.345-2.914-15.461c-1.408,1.696-4.579,2.789-6.923,2.026
			c-4.985-1.622-3.854-7.511-6.081-10.349c-0.057,1.728-0.067,3.465-0.404,5.183"/>
		<path class="st4" d="M531.442,18.39c-9.929-17.532-54.749-2.251-62.925,0.509c-24.333,8.214-40.499,29.035-66.199,31.202
			c5.268,1.925,19.798,3.351,25.378,1.043c-6.636,8.239-16.903,10.041-26.505,12.436c7.838,2.567,18.986-0.185,27.664-1.42
			c-9.154,4.83-20.407,7.575-28.784,12.152c21.645-2.908,42.641-4.175,64.264-10.696c23.635-7.128,42.427-9.271,67.39-9.271
			c6.023,0,22.201,2.819,26.398-1.41c5.357-5.397-0.698-16.418-4.462-21.058c-7.604-9.374-33.833-24.932-44.69-14.611"/>
		<path class="st4" d="M550.543,46.48c-18.146-0.898-40.742,16.424-58.177,22.19c-22.604,7.477-41.491,4.109-61.958-3.962
			c9.464-0.057,19.256,4.789,29.432,4.303c10.239-0.49,22.569-2.891,32.272-6.492c8.4-3.117,15.788-7.96,24.673-10.138
			c7.501-1.839,16.051-2.152,23.7-2.555c2.035-0.107,13.44,0.009,8.935,0.026"/>
		<path class="st8" d="M552.069,142.796c0.204,6.619-1.145,15.522-2.032,22.887c-0.574,4.765-2.592,10.931-4.309,15.39
			c-1.1,2.855-2.797,5.965-5.909,7.027c-4.377,1.494-6.415-2.675-9.952-3.365C536.778,171.396,546.81,156.808,552.069,142.796"/>
		<path class="st8" d="M449.941,146.235c-0.059-0.2-0.65-0.757-0.082-0.392c0.337,4.122-0.003,8.185,1.09,12.243
			c1.105,4.105,5.083,21.024,7.023,24.754c1.444,2.777,2.671,4.65,5.834,4.972c3.992,0.406,5.526-2.348,9.096-3.439
			c-5.256-6.141-9.698-14.251-13.923-21.238c-2.482-4.105-5.229-8.03-7.422-12.251c-0.928-1.786-2.178-5.361-2.968-6.34"/>
		<path class="st0" d="M465.159,161.114c0.605,6.185-3.391,20.355,5.055,22.337c4.856,1.139,5.081-1.746,3.247-5.498
			c-2.6-5.32-5.735-10.497-8.302-15.824"/>
		<path class="st0" d="M537.722,158.801c-0.605,6.184,3.391,20.355-5.055,22.337c-4.856,1.139-5.08-1.746-3.247-5.498
			c2.6-5.32,5.735-10.497,8.302-15.824"/>
		<path class="st9" d="M467.728,184.191c3.559,3.22,9.438-3.114,10.461-6.156c0.962,2.999,1.171,7.099-1.81,9.078
			c-4.08,2.709-6.055-1.361-8.95-2.922"/>
		<path class="st9" d="M527.508,179.11c-0.727,2.512,2.907,5.863,5.589,5.672c-2.328,1.112-9.222,0.996-10.027-2.384
			c-0.585-2.456,4.395-4.766,3.542-6.576"/>
		<g>
			<path class="st9" d="M476.966,182.27c0,6.039,13.122,19.128,20.733,19.128l6.662,1.797c7.611,0,22.303-14.887,22.303-20.926l0,0
				c0-6.039-4.889-4.31-12.5-4.31h-22.27C484.284,177.959,476.966,176.23,476.966,182.27L476.966,182.27z"/>
			<path class="st10" d="M476.65,180.27c0,6.039,6.17,10.934,13.78,10.934h22.136c7.611,0,13.781-4.896,13.781-10.934l0,0
				c0-6.039-1.859-4.718-9.471-4.718h-24.982C484.284,175.552,476.65,174.23,476.65,180.27L476.65,180.27z"/>
			<path class="st0" d="M501.499,187.171c-11.628,0.814-21.105-4.144-21.105-9.256s9.449-9.256,21.105-9.256
				c11.655,0,21.104,4.144,21.104,9.256C522.603,177.916,524.734,185.544,501.499,187.171z"/>
			<path class="st11" d="M490.475,181.218c0,3.236,4.219,5.858,9.423,5.858c5.204,0,9.423-2.622,9.423-5.858
				c0-3.235-4.219-5.858-9.423-5.858C494.694,175.36,490.475,177.982,490.475,181.218z"/>
		</g>
		<path class="st10" d="M540.594,106.504c0,0-12.965-5.725-12.234-4.954C529.091,102.32,537.348,101.054,540.594,106.504z"/>
		<path class="st10" d="M535.457,100.147l12.174,1.402C547.631,101.549,543.327,96.221,535.457,100.147z"/>
		<path class="st10" d="M465.893,101.549l-11.558,5.234C454.335,106.783,459.604,101.734,465.893,101.549z"/>
		<path class="st10" d="M464.732,98.704l-13.588,3.955C451.143,102.658,456.789,97.028,464.732,98.704z"/>
		<path class="st16" d="M557.402,53.52c-9.775,4.616-17.478,0.455-27.553,1.119c-6.22,0.41-13.889,5.971-20.151,8.98
			c-8.904,4.279-18.974,7.305-28.68,8.483c-8.228,0.998-18.934,1.339-24.745,0.018c22.25,0,49.411-6.006,66.263-21.234
			c9.894,6.026,25.617,2.717,36.667,0.64c-0.269,0.543,0,0.74-0.823,1.559"/>
		<path class="st16" d="M517.044,39.448c-21.796-2.546-46.215,9.479-66.957,16.889c5.058-1.321,10.918-3.016,15.806-4.071
			c10.04-2.168,18.978-3.633,28.639-6.828c6.38-2.11,14.486-4.797,21.397-5.725C516.271,39.587,516.642,39.496,517.044,39.448z"/>
		<path class="st16" d="M509.701,29.454c-15.838-0.171-36.984,7.955-51.097,13.418c8.052-5.141,17.143-9.548,26.431-11.436
			C492.689,29.88,502.594,28.86,509.701,29.454"/>
		<path class="st16" d="M425.135,104.709c-2.433,7.367,4.464,16.354,12.142,15.057c6.945-1.174,11.963-7.881,12.035-14.477
			c-1.39,5.189-7.864,10.732-12.779,12.519c-9.361,3.404-10.103-8.758-11.65-14.609"/>
		<path class="st16" d="M423.876,94.386c1.178,3.567,6.811,5.276,10.273,5.286c4.341,0.013,7.468-2.595,10.078-5.506
			c-1.729,3.171-1.79,7.223-6.25,8.019c-6.8,1.213-10.145-4.541-14.855-7.548"/>
		<path class="st16" d="M551.529,104.457c0-0.232,0-0.465,0-0.698c-0.282,5.947,8.131,9.774,12.904,10.014
			c6.384,0.32,9.354-4.445,12.809-8.975c-4.033,4.663-7.119,15.295-15.194,12.317c-2.394-0.882-15.602-11.724-9.511-13.665"/>
		<path class="st16" d="M551.277,88.595c0.693,10.914,16.557,10.351,22.622,5.074c-3.626,3.928-7.119,6.487-12.537,5.054
			c-5.1-1.349-9.979-4.977-9.581-10.883"/>
		<g>
			<path class="st4" d="M459.334,103.158c1.226-13.171,7.995-10.451,17.631-13.341c5.205-1.562,16.899-4.587,15.388-8.517
				c-8.539,4.242-17.239-0.63-25.22,2.198c-9.194,3.258-4.991,13.226-7.369,20.407"/>
			<path class="st4" d="M490.619,88.548c-13.626,4.932-18.679-2.667-28.535-10.024c8.043,0.683,21.278,0.166,28.873-2.248
				C493.938,79.969,492.428,84.428,490.619,88.548"/>
			<path class="st13" d="M459.725,106.642c0.209-2.85,2.324-6.794,3.593-9.34c0.848-1.702-0.157,1.675,1.665,0.963
				c3.18-1.243,27.514-11.124,28.88-13.036c-0.559-0.935-0.785-3.087-1.51-3.929c-2.031,2.818-7.447,5.903-10.477,6.514
				c-4.273,0.861-8.052,4.266-12.323,5.11c-3.19,0.631-6.551-0.268-8.12,2.771c-1.063,2.06-1.29,4.798-1.564,7.104
				c-0.114,0.96-0.52,4.806-0.015,4.476"/>
			<path class="st17" d="M491.661,84.091c0,0,3.259,5.907-1.66,6.807c-4.918,0.901-15.633-3.067-15.633-3.067L491.661,84.091z"/>
		</g>
		<g>
			<path class="st4" d="M545.647,91.127c-4.623-12.393-12.113-9.177-21.638-5.943c-8.228,2.793-19.043,5.887-15.943-6.534
				c9.351,1.864,16.476-5.11,24.918-4.465c9.725,0.744,8.273,11.463,12.443,17.774"/>
			<path class="st4" d="M508.841,87.045c14.44,1.202,17.438-12.316,25.03-21.992c-7.584,2.76-17.006,9.112-24.966,8.765
				C506.991,78.162,506.018,83.54,508.841,87.045"/>
			<path class="st13" d="M507.531,86.854c4.122,0.251,10.028-1.695,14.457-2.732c4.445-1.041,9.305-2.12,13.904-2.235
				c6.738-0.168,8.911,7.134,12.167,12.014c-2.523-2.469-5.093-4.868-7.468-7.451c-2.817-3.063-7.361-1.894-11.299-1.45
				c-4.978,0.562-9.744,2.105-14.759,2.494c-2.998,0.232-6.209,0.02-9.133,0.507c0.867-0.57,0.92-1.693,1.558-2.339
				c0.006,0.205-0.123,0.397-0.113,0.587"/>
			<path class="st17" d="M507.496,82.744c0,0-2.77,6.428,7.037,4.751c9.807-1.676,13.223-13.706,13.223-13.706l-20.029,7.941"/>
		</g>
		<path d="M506.837,132.074c15.799-0.523,23.24,0.653,23.24,0.653c-5.246-0.68-9.485,34.431-27.534,35.385
			c-6.522,0.345-3.7,0.213-13.261-3.855c-1.675-0.713-11.445-23.273-15.897-27.229C486.909,136.623,492.867,132.536,506.837,132.074
			z"/>
		<path class="st9" d="M452.905,137.09l9.853,30.917C462.758,168.007,450.527,147.282,452.905,137.09z"/>
		<path class="st10" d="M482.244,132.785c4.231-1.086,6.801-5.189,11.152-5.576c4.005-0.357,9.578-1.289,13.592-1.046
			c10.37,0.63,12.719,5.933,23.089,6.563c-13.616,3.674-22.417,0.176-36.471,1.346c-8.882,0.739-11.272,3.532-20.22,2.955
			C473.385,137.027,478.956,133.629,482.244,132.785z"/>
		<path class="st10" d="M510.05,169.641c3.095-2.51,5.453-5.796,7.732-9.065c0,0-5.421,0.976-13.687,6.071
			c-1.886,1.163-17.137-3.813-17.895-3.057c-2.053,2.049,8.031,8.216,9.394,8.858C500.461,174.743,506.099,172.845,510.05,169.641z"
			/>
		<path class="st23" d="M478.325,147.298c-2.113,2.723-3.077,6.186-3.393,9.617c-0.048,0.519-0.08,1.054,0.083,1.549
			c0.316,0.963,1.299,1.555,2.276,1.828c4.241,1.186,8.611-2.086,12.979-1.525c3.03,0.389,5.719,2.595,8.77,2.438
			c2.265-0.117,4.232-1.519,6.056-2.867c3.542-2.618-8.141-10.869-9.933-11.973C489.488,142.868,483.012,141.258,478.325,147.298z"
			/>
		<path class="st24" d="M483.699,152.819c1.393-1.437,3.242-2.307,5.216-2.695c1.361-0.268,2.781-0.306,4.151-0.144
			c3.415,0.405,6.326,2.433,9.517,3.102c-1.772-2.24-5.097-3.82-7.799-4.695C488.497,146.353,487.523,148.874,483.699,152.819z"/>
		<path class="st20" d="M521.573,134.516c-10.571-0.068-23.621-2.735-41.268,2.078c4.706,1.983,17.501,5.298,22.674,4.813
			C514.778,140.3,519.405,134.501,521.573,134.516z"/>
		<path class="st9" d="M475.118,126.237l-15.071,8.961C460.047,135.198,461.269,126.237,475.118,126.237z"/>
		<path class="st9" d="M529.698,125.83l12.219,8.146C541.917,133.976,541.103,124.2,529.698,125.83z"/>
		<path class="st25" d="M461.893,98.35c0.605-0.202,19.736-10.872,28.109-7.451"/>
		<path class="st25" d="M509.155,89.586c0,0,9.444-9.158,32.911,6.868"/>
	</g>
</g>
</svg>
