<?xml version="1.0" encoding="utf-8"?>
<!-- Generator: Adobe Illustrator 22.0.1, SVG Export Plug-In . SVG Version: 6.00 Build 0)  -->
<svg version="1.1" id="Ebene_1" xmlns="http://www.w3.org/2000/svg" xmlns:xlink="http://www.w3.org/1999/xlink" x="0px" y="0px"
	 width="483px" height="85px" viewBox="0 0 483 85" style="enable-background:new 0 0 483 85;" xml:space="preserve">
<style type="text/css">
	.st0{fill:#B25881;}
	.st1{fill:#F29E7D;}
	.st2{fill:#F8C29D;}
	.st3{fill:#F5AD8D;}
</style>
<g>
	<path class="st0" d="M9.922,77.312c13.409,1.199,26.562-5.091,39.125-8.672c11.704-3.336,22.95-4.381,35.227-4.381
		c11.152,0,23.434,1.768,33.58,6.525c6.139,2.878,30.719,8.455,37.979,6.06c-10.116-0.011-37.766,0.95-47.886,0.97
		c-9.25,0.018-18.262-1.87-27.49-1.127c-7.292,0.586-14.652,1.127-21.925,1.518c-9.731,0.522-19.429,0.614-29.208,0.614
		c-6.912,0-15.244-2.125-21.858-0.892c0.11,0.735,0.489,0.116,0.957,0.39"/>
	<g>
		<path class="st1" d="M27.702,32.806c0.634-3.143,0.743-6.643,1.598-9.924c0.702-2.698,1.653-6.124,2.953-8.304
			c1.415-2.372,4.886-4.528,7.037-5.134c3.777-1.063,7.691-1.758,11.48-0.564c3.198,1.008,7.717,5.392,8.346,10.392
			c0.591,4.711-1.758,13.016-4.004,16.292c1.096-1.871,1.13-8.009,0.456-9.965c-0.985-2.857-2.262-5.149-4.465-6.179
			c-2.695-1.26-5.779-1.388-8.59-0.872c-4.459,0.819-8.553,5.365-11.351,10.017c-0.731,1.217-2.672,2.82-2.701,4.392"/>
		<path class="st2" d="M49.436,57.672c-0.766-7.246-0.466-11.152,2.755-17.061c3.052-5.599,6.283-8.691,4.783-17.231
			c-2.615-14.896-17.57-16.086-24.395-6.55c-7.648,10.687-5.096,30.882-3.201,43.993c1.555,10.756,4.629,20.89,13.603,22.214
			c3.373,0.497,6.668-2.246,8.289-5.884v0.001c0.002-0.004,0.003-0.009,0.006-0.013c0.128-0.291,0.244-0.589,0.351-0.89
			C54.004,69.79,50.096,63.913,49.436,57.672z"/>
		<path class="st3" d="M43.276,25.586c-0.485,3.299-1.354,6.512-2.253,9.627c-0.952,3.301-1.866,6.535-3.279,9.52
			c-0.487,1.031-1.262,2.188-1.579,3.238c1.956-0.898,4.461,0.142,6.473-0.921c-0.713-0.73-0.672-3.118-0.725-4.319
			c-0.122-2.808-0.043-5.816,0.328-8.567c0.369-2.726,1.747-12.806,1.489-12.785L43.276,25.586z"/>
		<path class="st3" d="M34.309,58.218c0.271-0.862,1.641-1.941,2.414-2.509c2.726-2,6.285-5.002,9.468-5.008
			c-4.252,0.026-11.675,1.627-13.28,7.938c0.53,0.089,1.074-0.318,1.516-0.769c0.206-0.12-0.025,0.081-0.01,0.198"/>
		<path class="st2" d="M58.264,19.489c-0.115,0.021-0.177-0.125-0.215,0.074c3.231-1.573,8.054-6.45,7.316-12.094
			c-0.709-5.411-5.07-9.843-8.539-6.053c-1.224,1.336-1.895,3.051-2.041,5.233c-0.184,2.744,0.644,4.471,1.368,6.847
			c-1.989,2.162,0.926,5.72,2.575,5.795"/>
		<path class="st3" d="M57.595,12.807c-0.156,1.742,3.594-0.218,4.185-0.729c-0.874,0.916-1.216,2.436-2.447,2.688
			c-1.218,0.248-2.113-0.846-2.48-2.236c0.228,0.276,0.523,0.333,0.85,0.428"/>
		<path class="st2" d="M50.338,9.65c-0.093,0.11-0.197,0.156-0.312,0.139c-1.296-3.28-1.04-7.311,2.046-8.229
			c1.53-0.455,2.794,1.695,3.06,3.696c0.313,2.337-1.041,4.858-2.514,5.784c-0.647,0.406-1.284,0.805-1.961,0.31
			c-0.629-0.461-0.658-1.706-0.969-2.151"/>
		<path class="st2" d="M44.296,8.152c-0.093,0.11-0.197,0.157-0.312,0.139c-1.296-3.28-1.04-7.311,2.046-8.228
			c1.53-0.455,2.794,1.694,3.06,3.695c0.313,2.337-1.041,4.859-2.514,5.784c-0.647,0.406-1.284,0.805-1.961,0.31
			c-0.628-0.461-0.658-1.706-0.968-2.151"/>
		<path class="st2" d="M39.468,9.95c-0.269,0.792-1.329,0.343-1.82-0.256c-0.996-1.215-1.103-3.229-0.753-4.853
			c0.606-2.812,3.329-5.146,5.174-2.571c3.258,4.548-1.145,8.405-4.226,8.131"/>
		<path class="st2" d="M31.927,14.762c-0.529-2.843,0.275-5.591,1.545-7.822c0.896-1.573,2.943-3.977,4.086-1.505
			c0.714,1.544,0.369,3.803-0.407,5.116c-0.743,1.256-2.73,2.553-3.887,1.831c0.619,0.959-0.748,1.786-1.23,2.079"/>
	</g>
	<g>
		<path class="st1" d="M129.076,33.159c-0.634-3.143-0.743-6.643-1.598-9.924c-0.703-2.698-1.653-6.124-2.953-8.304
			c-1.415-2.372-4.886-4.528-7.037-5.134c-3.777-1.063-7.691-1.758-11.48-0.564c-3.198,1.008-7.717,5.392-8.346,10.392
			c-0.591,4.711,1.758,13.016,4.004,16.292c-1.096-1.871-1.13-8.009-0.456-9.965c0.985-2.857,2.262-5.149,4.465-6.179
			c2.695-1.26,5.779-1.388,8.591-0.872c4.459,0.819,8.553,5.365,11.351,10.017c0.731,1.217,2.672,2.82,2.701,4.392"/>
		<path class="st2" d="M107.343,58.025c0.766-7.246,0.466-11.152-2.755-17.061c-3.052-5.599-6.283-8.691-4.783-17.231
			c2.615-14.896,17.57-16.086,24.395-6.55c7.648,10.687,5.096,30.882,3.201,43.993c-1.555,10.756-4.629,20.89-13.603,22.214
			c-3.373,0.497-6.668-2.246-8.289-5.884v0.001c-0.002-0.004-0.003-0.009-0.006-0.013c-0.128-0.291-0.244-0.589-0.351-0.89
			C102.775,70.143,106.682,64.266,107.343,58.025z"/>
		<path class="st3" d="M113.502,25.939c0.485,3.299,1.354,6.512,2.253,9.627c0.953,3.301,1.866,6.535,3.279,9.52
			c0.487,1.031,1.262,2.188,1.579,3.238c-1.956-0.898-4.461,0.142-6.473-0.921c0.713-0.73,0.672-3.118,0.725-4.319
			c0.122-2.808,0.043-5.816-0.328-8.567c-0.369-2.726-1.747-12.806-1.489-12.785L113.502,25.939z"/>
		<path class="st3" d="M122.47,58.571c-0.271-0.862-1.641-1.941-2.414-2.509c-2.726-2-6.285-5.002-9.468-5.008
			c4.252,0.026,11.675,1.627,13.28,7.938c-0.53,0.089-1.074-0.318-1.516-0.769c-0.206-0.12,0.025,0.081,0.01,0.198"/>
		<path class="st2" d="M98.514,19.842c0.115,0.021,0.177-0.125,0.215,0.074c-3.231-1.573-8.055-6.45-7.316-12.094
			c0.709-5.411,5.07-9.843,8.539-6.053c1.224,1.336,1.895,3.051,2.041,5.233c0.184,2.744-0.644,4.471-1.368,6.847
			c1.989,2.162-0.926,5.72-2.575,5.795"/>
		<path class="st3" d="M99.183,13.16c0.156,1.742-3.594-0.218-4.185-0.729c0.874,0.916,1.216,2.436,2.447,2.688
			c1.218,0.248,2.113-0.846,2.48-2.236c-0.228,0.276-0.523,0.333-0.85,0.428"/>
		<path class="st2" d="M106.44,10.003c0.093,0.11,0.197,0.156,0.312,0.139c1.296-3.28,1.04-7.311-2.046-8.229
			c-1.53-0.455-2.794,1.695-3.06,3.696c-0.313,2.337,1.041,4.858,2.514,5.784c0.647,0.406,1.284,0.805,1.961,0.31
			c0.629-0.461,0.658-1.706,0.969-2.151"/>
		<path class="st2" d="M112.482,8.505c0.093,0.11,0.197,0.157,0.312,0.139c1.296-3.28,1.04-7.311-2.046-8.228
			c-1.53-0.455-2.794,1.694-3.06,3.695c-0.313,2.337,1.041,4.859,2.514,5.784c0.647,0.406,1.284,0.805,1.961,0.31
			c0.629-0.461,0.658-1.706,0.969-2.151"/>
		<path class="st2" d="M117.311,10.303c0.269,0.792,1.329,0.343,1.82-0.256c0.996-1.215,1.103-3.229,0.753-4.853
			c-0.606-2.812-3.329-5.146-5.174-2.571c-3.258,4.548,1.145,8.405,4.226,8.131"/>
		<path class="st2" d="M124.852,15.115c0.529-2.843-0.275-5.591-1.545-7.822c-0.896-1.573-2.943-3.977-4.086-1.505
			c-0.714,1.544-0.369,3.803,0.407,5.116c0.743,1.256,2.73,2.553,3.887,1.831c-0.619,0.959,0.748,1.786,1.23,2.079"/>
	</g>
</g>
<g>
	<path class="st0" d="M170.922,77.311c13.409,1.199,26.562-5.091,39.125-8.672c11.704-3.336,22.95-4.381,35.227-4.381
		c11.152,0,23.434,1.768,33.58,6.525c6.139,2.878,30.719,8.455,37.979,6.06c-10.116-0.011-37.766,0.95-47.886,0.97
		c-9.25,0.018-18.262-1.87-27.49-1.127c-7.292,0.586-14.652,1.127-21.925,1.518c-9.731,0.522-19.429,0.614-29.208,0.614
		c-6.912,0-15.244-2.125-21.858-0.892c0.11,0.735,0.489,0.116,0.957,0.39"/>
	<g>
		<path class="st1" d="M170.075,46.853c-1.158-2.988-2.95-5.992-3.995-9.217c-0.861-2.652-1.905-6.05-1.983-8.59
			c-0.086-2.764,1.674-6.463,3.158-8.141c2.606-2.946,5.524-5.656,9.355-6.71c3.233-0.889,9.394,0.345,12.613,4.21
			c3.032,3.643,5.524,11.905,5.398,15.881c-0.084-2.169-3.359-7.351-4.979-8.631c-2.366-1.869-4.673-3.104-7.081-2.773
			c-2.945,0.404-5.609,1.972-7.696,3.932c-3.311,3.111-4.309,9.159-4.16,14.592c0.04,1.421-0.731,3.823,0.09,5.162"/>
		<path class="st2" d="M201.738,55.968c-4.543-5.68-6.393-9.128-6.862-15.85c-0.445-6.368,0.609-10.724-5.248-17.094
			c-10.215-11.111-23.437-3.99-24.047,7.739c-0.683,13.145,12.329,28.749,20.978,38.75c7.096,8.205,15.134,15.06,23.397,11.3
			c3.105-1.414,4.401-5.511,3.807-9.452l0,0c-0.001-0.005-0.002-0.009-0.002-0.014c-0.049-0.315-0.111-0.628-0.184-0.939
			C212.101,63.682,205.652,60.86,201.738,55.968z"/>
		<path class="st3" d="M179.292,32.32c1.367,3.039,2.365,6.214,3.284,9.322c0.975,3.295,1.947,6.511,2.364,9.79
			c0.145,1.132,0.116,2.527,0.414,3.582c1.162-1.818,3.83-2.304,4.95-4.291c-0.993-0.226-2.243-2.258-2.934-3.24
			c-1.613-2.296-3.166-4.87-4.333-7.385c-1.156-2.494-5.42-11.722-5.626-11.565L179.292,32.32z"/>
		<path class="st3" d="M189.306,64.644c-0.236-0.873,0.336-2.525,0.681-3.422c1.217-3.163,2.596-7.621,5.271-9.356
			c-3.563,2.331-8.946,7.71-6.901,13.891c0.494-0.213,0.732-0.851,0.861-1.471c0.109-0.212,0.022,0.082,0.098,0.172"/>
		<path class="st2" d="M188.621,19.051c-0.085,0.08-0.217-0.009-0.141,0.179c1.872-3.078,3.306-9.801-0.353-14.148
			c-3.508-4.167-9.561-5.527-10.441-0.454c-0.311,1.789,0.047,3.596,1.099,5.511c1.321,2.408,2.947,3.412,4.835,5.018
			c-0.51,2.9,3.857,4.309,5.284,3.476"/>
		<path class="st3" d="M184.463,13.793c0.806,1.55,2.907-2.135,3.129-2.886c-0.242,1.245,0.287,2.709-0.612,3.59
			c-0.891,0.871-2.233,0.436-3.29-0.534c0.34,0.108,0.619-0.004,0.945-0.101"/>
		<path class="st2" d="M176.659,15.078c-0.019,0.143-0.082,0.238-0.187,0.286c-2.856-2.056-4.808-5.586-2.706-8.034
			c1.042-1.213,3.262-0.092,4.563,1.447c1.52,1.796,1.739,4.652,0.997,6.232c-0.326,0.693-0.647,1.375-1.483,1.325
			c-0.777-0.046-1.472-1.078-1.973-1.283"/>
		<path class="st2" d="M170.77,17.099c-0.019,0.143-0.081,0.239-0.187,0.286c-2.856-2.055-4.809-5.585-2.707-8.033
			c1.042-1.214,3.262-0.092,4.563,1.447c1.52,1.796,1.739,4.653,0.997,6.232c-0.326,0.693-0.647,1.375-1.483,1.325
			c-0.777-0.046-1.472-1.078-1.972-1.283"/>
		<path class="st2" d="M167.675,21.235c0.2,0.812-0.933,1.01-1.669,0.773c-1.491-0.482-2.666-2.117-3.244-3.674
			c-1.003-2.694,0.031-6.137,2.969-4.973c5.188,2.056,3.559,7.693,0.82,9.136"/>
		<path class="st2" d="M163.92,29.379c-1.975-2.104-2.776-4.853-2.908-7.419c-0.093-1.81,0.335-4.944,2.628-3.485
			c1.432,0.911,2.357,2.999,2.411,4.525c0.051,1.46-0.923,3.63-2.285,3.651c1.037,0.471,0.332,1.908,0.084,2.417"/>
	</g>
	<g>
		<path class="st1" d="M310.682,47.976c1.417-2.873,3.468-5.705,4.795-8.824c1.092-2.564,2.432-5.856,2.735-8.379
			c0.33-2.745-1.096-6.587-2.426-8.391c-2.335-3.167-5.002-6.127-8.724-7.518c-3.141-1.174-9.387-0.495-12.935,3.067
			c-3.342,3.357-6.555,11.364-6.781,15.336c0.276-2.153,3.996-7.022,5.722-8.153c2.522-1.65,4.929-2.674,7.298-2.13
			c2.897,0.665,5.412,2.464,7.318,4.604c3.023,3.394,3.482,9.507,2.853,14.905c-0.166,1.412,0.39,3.873-0.547,5.133"/>
		<path class="st2" d="M278.338,54.228c5.028-5.252,7.175-8.522,8.237-15.175c1.006-6.303,0.342-10.736,6.738-16.558
			c11.157-10.156,23.697-1.882,23.267,9.855c-0.481,13.154-14.823,27.534-24.321,36.723c-7.793,7.539-16.406,13.65-24.303,9.166
			c-2.968-1.685-3.896-5.882-2.956-9.755l0,0c0.001-0.005,0.003-0.009,0.004-0.014c0.076-0.309,0.167-0.615,0.266-0.919
			C267.334,60.987,274.008,58.752,278.338,54.228z"/>
		<path class="st3" d="M302.787,32.678c-1.631,2.905-2.905,5.978-4.096,8.992c-1.263,3.195-2.515,6.312-3.22,9.54
			c-0.244,1.114-0.339,2.506-0.73,3.531c-0.997-1.915-3.611-2.637-4.551-4.715c1.009-0.137,2.434-2.049,3.209-2.965
			c1.81-2.143,3.584-4.568,4.969-6.969c1.372-2.381,6.436-11.192,6.627-11.017L302.787,32.678z"/>
		<path class="st3" d="M289.954,63.98c0.312-0.848-0.112-2.545-0.376-3.47c-0.932-3.26-1.912-7.823-4.423-9.789
			c3.343,2.64,8.229,8.478,5.645,14.452c-0.473-0.257-0.654-0.913-0.728-1.542c-0.09-0.221-0.03,0.08-0.113,0.162"/>
		<path class="st2" d="M294.668,18.628c0.078,0.087,0.216,0.011,0.124,0.191c-1.592-3.233-2.426-10.057,1.602-14.06
			c3.863-3.837,10.012-4.652,10.44,0.48c0.151,1.809-0.365,3.577-1.582,5.392c-1.529,2.281-3.237,3.135-5.26,4.566
			c0.251,2.934-4.222,3.948-5.571,2.991"/>
		<path class="st3" d="M299.275,13.762c-0.94,1.472-2.706-2.386-2.861-3.154c0.131,1.262-0.526,2.673,0.292,3.63
			c0.81,0.947,2.185,0.633,3.324-0.239c-0.349,0.077-0.616-0.06-0.932-0.185"/>
		<path class="st2" d="M306.935,15.739c0.006,0.144,0.06,0.245,0.161,0.302c3.026-1.793,5.283-5.135,3.406-7.761
			c-0.931-1.302-3.241-0.382-4.673,1.034c-1.673,1.653-2.143,4.479-1.544,6.118c0.263,0.719,0.522,1.427,1.36,1.453
			c0.778,0.023,1.561-0.942,2.078-1.102"/>
		<path class="st2" d="M312.621,18.278c0.006,0.144,0.06,0.245,0.161,0.302c3.026-1.792,5.283-5.134,3.406-7.76
			c-0.93-1.302-3.241-0.383-4.673,1.034c-1.673,1.653-2.144,4.479-1.544,6.118c0.263,0.719,0.522,1.427,1.36,1.453
			c0.778,0.023,1.561-0.942,2.078-1.102"/>
		<path class="st2" d="M315.338,22.673c-0.271,0.791,0.84,1.09,1.594,0.918c1.528-0.347,2.842-1.871,3.556-3.369
			c1.238-2.594,0.512-6.116-2.518-5.218c-5.349,1.585-4.225,7.345-1.624,9.027"/>
		<path class="st2" d="M318.358,31.12c2.153-1.919,3.195-4.586,3.553-7.13c0.252-1.794,0.103-4.955-2.309-3.706
			c-1.506,0.779-2.613,2.777-2.801,4.292c-0.18,1.45,0.598,3.698,1.953,3.841c-1.075,0.376-0.499,1.871-0.298,2.4"/>
	</g>
</g>
<g>
	<path class="st0" d="M331.922,77.312c13.409,1.199,26.562-5.091,39.125-8.672c11.704-3.336,22.95-4.381,35.227-4.381
		c11.152,0,23.434,1.768,33.58,6.525c6.139,2.878,30.719,8.455,37.979,6.06c-10.116-0.011-37.766,0.95-47.886,0.97
		c-9.25,0.018-18.262-1.87-27.49-1.127c-7.292,0.586-14.652,1.127-21.925,1.518c-9.731,0.522-19.429,0.614-29.208,0.614
		c-6.912,0-15.244-2.125-21.858-0.892c0.11,0.735,0.489,0.116,0.957,0.39"/>
	<g>
		<path class="st1" d="M367.888,30.293c1.944-2.544,3.572-5.64,5.775-8.21c1.811-2.114,4.163-4.772,6.283-6.156
			c2.308-1.506,6.369-1.912,8.567-1.506c3.858,0.712,7.678,1.815,10.56,4.56c2.433,2.317,4.575,8.25,2.954,13.019
			c-1.529,4.493-7.27,10.917-10.72,12.869c1.803-1.196,4.516-6.696,4.766-8.751c0.364-3.001,0.22-5.624-1.31-7.522
			c-1.87-2.321-4.585-3.797-7.336-4.575c-4.364-1.233-10.029,1.045-14.576,3.989c-1.189,0.771-3.633,1.354-4.347,2.753"/>
		<path class="st2" d="M376.541,62.223c2.48-6.848,4.457-10.224,9.935-14.111c5.19-3.683,9.444-5.035,11.83-13.369
			c4.163-14.536-8.751-22.205-19.051-16.65c-11.543,6.225-18.08,25.494-22.11,38.108c-3.306,10.349-4.975,20.81,2.509,25.959
			c2.812,1.935,6.972,0.925,10.019-1.628l0,0c0.004-0.003,0.006-0.007,0.011-0.009c0.243-0.205,0.477-0.421,0.704-0.645
			C375.347,75.125,374.406,68.121,376.541,62.223z"/>
		<path class="st3" d="M385.036,30.68c-1.878,2.75-4.064,5.252-6.233,7.654c-2.299,2.546-4.533,5.048-7.108,7.105
			c-0.888,0.711-2.091,1.409-2.834,2.213c2.15,0.056,3.946,2.096,6.218,2.029c-0.322-0.97,0.759-3.098,1.237-4.2
			c1.118-2.576,2.504-5.244,4.04-7.551c1.524-2.285,7.168-10.733,6.928-10.828L385.036,30.68z"/>
		<path class="st3" d="M362.713,56.037c0.621-0.655,2.323-1.02,3.266-1.189c3.323-0.594,7.833-1.719,10.696-0.32
			c-3.831-1.853-11.2-3.691-15.401,1.27c0.437,0.314,1.104,0.188,1.698-0.022c0.237-0.017-0.058,0.062-0.095,0.173"/>
		<path class="st2" d="M401.166,31.818c-0.112-0.032-0.105-0.191-0.225-0.028c3.59,0.013,10.056-2.239,11.86-7.636
			c1.729-5.174-0.251-11.08-5.025-9.206c-1.684,0.66-3.036,1.904-4.122,3.801c-1.365,2.383-1.376,4.301-1.765,6.755
			c-2.732,1.065-1.669,5.547-0.22,6.342"/>
		<path class="st3" d="M403.486,25.519c-0.902,1.496,3.324,1.391,4.078,1.192c-1.186,0.437-2.157,1.651-3.373,1.335
			c-1.203-0.314-1.528-1.693-1.25-3.104c0.085,0.348,0.325,0.53,0.576,0.76"/>
		<path class="st2" d="M398.348,19.48c-0.132,0.058-0.245,0.053-0.341-0.013c0.27-3.519,2.263-7.027,5.436-6.489
			c1.573,0.266,1.769,2.755,1.133,4.671c-0.741,2.237-3.059,3.905-4.788,4.087c-0.758,0.079-1.505,0.157-1.897-0.587
			c-0.363-0.692,0.154-1.823,0.07-2.36"/>
		<path class="st2" d="M393.575,15.468c-0.132,0.058-0.245,0.054-0.341-0.013c0.27-3.519,2.262-7.026,5.436-6.489
			c1.573,0.266,1.769,2.755,1.133,4.67c-0.741,2.237-3.059,3.906-4.788,4.087c-0.759,0.079-1.505,0.157-1.897-0.587
			c-0.363-0.692,0.154-1.823,0.07-2.36"/>
		<path class="st2" d="M388.451,14.953c-0.588,0.593-1.344-0.278-1.523-1.033c-0.363-1.531,0.421-3.388,1.446-4.691
			c1.773-2.259,5.24-3.154,5.772-0.026c0.939,5.523-4.704,7.045-7.352,5.44"/>
		<path class="st2" d="M379.572,15.947c0.768-2.787,2.692-4.901,4.808-6.345c1.492-1.018,4.382-2.274,4.329,0.451
			c-0.033,1.702-1.331,3.58-2.602,4.416c-1.217,0.801-3.568,1.088-4.292-0.071c0.137,1.135-1.452,1.274-2.014,1.325"/>
	</g>
	<g>
		<path class="st1" d="M430.872,32.557c-2.112-2.405-3.946-5.383-6.318-7.796c-1.95-1.985-4.477-4.476-6.686-5.712
			c-2.405-1.345-6.484-1.471-8.649-0.916c-3.801,0.975-7.537,2.337-10.226,5.272c-2.27,2.478-4.005,8.544-2.064,13.191
			c1.83,4.378,7.993,10.394,11.568,12.105c-1.88-1.07-4.96-6.371-5.349-8.405c-0.567-2.969-0.601-5.596,0.797-7.594
			c1.708-2.443,4.317-4.102,7.009-5.067c4.27-1.529,10.077,0.356,14.813,2.982c1.238,0.688,3.717,1.102,4.524,2.449"/>
		<path class="st2" d="M424.404,65.005c-2.938-6.662-5.14-9.895-10.869-13.398c-5.428-3.319-9.764-4.377-12.709-12.528
			c-5.14-14.217,7.224-22.753,17.878-17.916c11.938,5.421,19.767,24.197,24.643,36.506c4,10.099,6.375,20.421-0.742,26.071
			c-2.675,2.123-6.893,1.4-10.106-0.938l0,0c-0.004-0.003-0.007-0.006-0.012-0.009c-0.256-0.188-0.504-0.387-0.746-0.595
			C426.471,77.796,426.935,70.743,424.404,65.005z"/>
		<path class="st3" d="M413.79,34.117c2.06,2.615,4.41,4.962,6.737,7.209c2.466,2.382,4.865,4.726,7.573,6.602
			c0.934,0.649,2.181,1.263,2.978,2.013c-2.141,0.203-3.795,2.362-6.066,2.45c0.255-0.99-0.968-3.038-1.519-4.106
			c-1.29-2.493-2.854-5.06-4.543-7.257c-1.675-2.176-7.88-10.217-7.646-10.329L413.79,34.117z"/>
		<path class="st3" d="M437.781,57.887c-0.664-0.611-2.387-0.858-3.339-0.962c-3.356-0.365-7.931-1.179-10.692,0.413
			c3.696-2.111,10.924-4.449,15.451,0.213c-0.415,0.343-1.089,0.263-1.696,0.094c-0.238,0,0.062,0.058,0.107,0.167"/>
		<path class="st2" d="M397.774,36.356c0.11-0.04,0.092-0.197,0.223-0.043c-3.581,0.259-10.184-1.546-12.35-6.806
			c-2.075-5.044-0.501-11.071,4.389-9.529c1.724,0.543,3.158,1.692,4.37,3.51c1.524,2.284,1.665,4.196,2.219,6.619
			c2.798,0.875,2.041,5.42,0.65,6.312"/>
		<path class="st3" d="M395.032,30.232c1.001,1.431-3.222,1.615-3.988,1.468c1.213,0.355,2.264,1.5,3.456,1.101
			c1.179-0.396,1.41-1.793,1.037-3.182c-0.061,0.353-0.288,0.551-0.523,0.797"/>
		<path class="st2" d="M399.75,23.855c0.135,0.049,0.248,0.036,0.339-0.036c-0.508-3.492-2.734-6.856-5.863-6.102
			c-1.551,0.373-1.578,2.87-0.814,4.737c0.891,2.181,3.317,3.687,5.054,3.749c0.762,0.027,1.512,0.053,1.853-0.716
			c0.316-0.715-0.278-1.808-0.23-2.35"/>
		<path class="st2" d="M404.239,19.525c0.135,0.049,0.248,0.037,0.339-0.036c-0.508-3.492-2.734-6.855-5.863-6.102
			c-1.551,0.373-1.578,2.87-0.814,4.737c0.891,2.181,3.317,3.687,5.054,3.749c0.762,0.027,1.512,0.054,1.853-0.716
			c0.316-0.715-0.278-1.808-0.23-2.349"/>
		<path class="st2" d="M409.317,18.66c0.626,0.551,1.322-0.37,1.449-1.135c0.258-1.552-0.649-3.351-1.76-4.582
			c-1.922-2.132-5.442-2.788-5.76,0.369c-0.562,5.575,5.171,6.707,7.704,4.924"/>
		<path class="st2" d="M418.242,19.045c-0.955-2.728-3.018-4.705-5.227-6.001c-1.558-0.913-4.526-1.969-4.288,0.747
			c0.149,1.696,1.571,3.48,2.896,4.228c1.268,0.716,3.634,0.842,4.278-0.365c-0.06,1.142,1.536,1.172,2.099,1.184"/>
	</g>
</g>
</svg>
