<?xml version="1.0" encoding="utf-8"?>
<!-- Generator: Adobe Illustrator 22.0.1, SVG Export Plug-In . SVG Version: 6.00 Build 0)  -->
<svg version="1.1" id="Ebene_1" xmlns="http://www.w3.org/2000/svg" xmlns:xlink="http://www.w3.org/1999/xlink" x="0px" y="0px"
	 width="1758px" height="152px" viewBox="0 0 1758 152" style="enable-background:new 0 0 1758 152;" xml:space="preserve">
<style type="text/css">
	.st0{fill:#848484;}
	.st1{fill:#AF1280;}
</style>
<path class="st0" d="M1665.888,141.15c-9.904,1.596-19.919,3.279-29.823,4.875c-8.327,0.981-16.666,2.061-25.091,3.029
	c-21.847,1.096-43.441,4.163-64.509,3.828c-28.161-0.421-56.374,0.376-82.804-2.68c-6.562-0.325-13.014-0.738-19.576-1.062
	c-60.111-7.341-117.343-18.497-170.753-37.019c-30.107-10.459-58.678-24.394-81.885-46.826
	c-8.649-8.443-19.842-23.737-15.323-39.073c4.036-13.867,19.786-24.612,40.068-25.193c25.91-0.783,48.24,2.261,69.959,8.593
	c16.021,4.69,31.573,9.932,46.593,16.228c5.547,2.847,11.192,5.707,16.751,8.454c20.837,9.382,40.042,21.412,61.608,29.764
	c22.624,8.691,48.02,12.024,75.627,12.068c11.205-0.002,22.319-2.464,34.475-3.671c5.249-1.168,10.51-2.437,15.758-3.605
	c5.804-1.607,11.693-3.102,17.497-4.709c7.899-2.361,15.896-4.709,23.808-7.17c7.467-2.11,15.046-4.307,22.513-6.417
	c3.918-0.929,7.738-1.871,11.643-2.7c9.116-1.696,18.233-3.392,27.336-4.988c7.809-0.842,15.63-1.785,23.439-2.628
	c24.63-0.946,47.729-0.048,67.004,8.218c5.13,2.182,10.614,5.532,14.729,9.421c11.819,11.09,12.607,26.387,5.473,38.635
	c-12.118,20.896-41.207,32.697-72.346,41.689C1674.143,139.14,1670.015,140.145,1665.888,141.15z"/>
<path class="st0" d="M1091.014,105.147c-9.502,3.27-19.098,6.645-28.6,9.914c-8.05,2.394-16.095,4.89-24.244,7.289
	c-21.373,4.833-42.159,11.557-63.006,14.852c-27.861,4.43-55.567,10.064-82.17,11.609c-6.531,0.81-12.968,1.514-19.5,2.324
	c-60.57,3.132-118.95,2.024-174.813-6.972c-31.493-5.089-62.063-13.854-88.788-31.881c-9.974-6.8-23.627-19.888-21.781-35.718
	c1.619-14.306,15.33-27.561,35.246-31.62c25.435-5.225,47.99-6.077,70.502-3.596c16.61,1.848,32.85,4.319,48.746,7.916
	c5.959,1.841,12.017,3.677,17.971,5.418c22.162,5.626,43.164,14.131,65.87,18.621c23.807,4.64,49.436,3.544,76.688-1.16
	c11.057-1.929,21.604-6.257,33.395-9.533c4.98-2.049,9.956-4.199,14.936-6.248c5.453-2.576,11.011-5.056,16.464-7.632
	c7.392-3.676,14.884-7.356,22.272-11.133c7.009-3.355,14.113-6.815,21.122-10.171c3.708-1.586,7.317-3.168,11.029-4.653
	c8.707-3.233,17.414-6.465,26.126-9.597c7.562-2.17,15.12-4.44,22.683-6.61c24.144-5.165,47.091-8.255,67.522-3.457
	c5.434,1.26,11.417,3.604,16.141,6.714c13.554,8.853,16.939,23.733,11.986,36.983c-8.396,22.595-35.091,39.182-64.286,53.363
	C1098.817,101.755,1094.915,103.451,1091.014,105.147z"/>
<g>
	<path d="M501.697,123.677c-9.801,2.424-19.707,4.944-29.508,7.367c-8.271,1.679-16.546,3.459-24.917,5.134
		c-21.827,2.94-43.232,7.814-64.399,9.268c-28.29,1.969-56.53,5.151-83.309,4.357c-6.612,0.234-13.12,0.371-19.732,0.604
		c-60.936-2.193-119.309-8.418-174.473-22.281c-31.097-7.832-60.95-19.245-86.142-39.548C9.821,80.929-2.711,66.694,0.519,51.086
		c2.869-14.109,17.758-26.111,38.059-28.407c25.93-2.974,48.594-1.844,70.924,2.602c16.474,3.298,32.524,7.184,48.13,12.162
		c5.807,2.357,11.715,4.717,17.526,6.973c21.705,7.548,41.998,17.864,64.346,24.328c23.439,6.711,49.203,7.867,76.906,5.572
		c11.243-0.952,22.183-4.338,34.278-6.567c5.167-1.604,10.337-3.31,15.504-4.914c5.686-2.088,11.468-4.071,17.155-6.158
		c7.724-3.013,15.549-6.022,23.277-9.136c7.313-2.727,14.729-5.551,22.042-8.279c3.852-1.255,7.604-2.514,11.452-3.668
		c9.003-2.456,18.005-4.913,27.003-7.268c7.763-1.498,15.531-3.097,23.294-4.595c24.632-3.027,47.884-4.092,67.927,2.48
		c5.332,1.732,11.12,4.592,15.58,8.104c12.802,10.009,14.895,25.128,8.778,37.893c-10.381,21.772-38.563,35.954-69.04,47.519
		C509.809,120.983,505.753,122.33,501.697,123.677z"/>
	<path class="st1" d="M251.898,111.226c-2.73-4.249-4.568-10.781,2.115-15.25c5.036-3.325,9.818-2.827,12.525-0.496
		s5.069,8.279,4.967,10.798c1.265-4.085,1.921-5.471,3.608-7.621c2.639-3.423,11.606-7.495,16.66-1.335
		c1.333,1.669,2.351,3.729,2.565,5.856c0.633,4.163-1.099,7.421-2.703,9.979c-2.887,4.624-18.033,18.028-21.571,21.414
		C269.815,133.35,257.734,120.344,251.898,111.226z"/>
</g>
<g>
	<path d="M1087.697,123.677c-9.801,2.424-19.707,4.944-29.508,7.367c-8.271,1.679-16.546,3.459-24.917,5.134
		c-21.827,2.94-43.232,7.814-64.399,9.268c-28.291,1.969-56.53,5.151-83.309,4.357c-6.612,0.234-13.12,0.371-19.732,0.604
		c-60.936-2.193-119.309-8.418-174.473-22.281c-31.097-7.832-60.95-19.245-86.142-39.548c-9.396-7.649-21.928-21.885-18.698-37.492
		c2.869-14.109,17.758-26.111,38.059-28.407c25.93-2.974,48.594-1.844,70.924,2.602c16.474,3.298,32.524,7.184,48.13,12.162
		c5.807,2.357,11.715,4.717,17.526,6.973c21.705,7.548,41.998,17.864,64.346,24.328c23.439,6.711,49.203,7.867,76.906,5.572
		c11.243-0.952,22.184-4.338,34.278-6.567c5.167-1.604,10.337-3.31,15.504-4.914c5.686-2.088,11.469-4.071,17.155-6.158
		c7.724-3.013,15.549-6.022,23.277-9.136c7.313-2.727,14.729-5.551,22.042-8.279c3.852-1.255,7.604-2.514,11.452-3.668
		c9.003-2.456,18.005-4.913,27.003-7.268c7.763-1.498,15.531-3.097,23.294-4.595c24.632-3.027,47.884-4.092,67.927,2.48
		c5.332,1.732,11.12,4.592,15.58,8.104c12.802,10.009,14.895,25.128,8.778,37.893c-10.381,21.772-38.563,35.954-69.04,47.519
		C1095.809,120.983,1091.753,122.33,1087.697,123.677z"/>
	<path class="st1" d="M837.898,111.226c-2.73-4.249-4.568-10.781,2.115-15.25c5.036-3.325,9.818-2.827,12.525-0.496
		c2.707,2.331,5.069,8.279,4.967,10.798c1.265-4.085,1.921-5.471,3.608-7.621c2.639-3.423,11.606-7.495,16.66-1.335
		c1.333,1.669,2.351,3.729,2.565,5.856c0.633,4.163-1.099,7.421-2.703,9.979c-2.887,4.624-18.033,18.028-21.571,21.414
		C855.815,133.35,843.734,120.344,837.898,111.226z"/>
</g>
<g>
	<path d="M1673.697,123.849c-9.801,2.433-19.707,4.962-29.508,7.395c-8.271,1.685-16.546,3.472-24.917,5.153
		c-21.827,2.951-43.232,7.843-64.399,9.302c-28.291,1.976-56.53,5.17-83.309,4.373c-6.612,0.234-13.12,0.372-19.732,0.607
		c-60.936-2.201-119.309-8.449-174.473-22.363c-31.097-7.861-60.95-19.316-86.142-39.694c-9.396-7.677-21.928-21.965-18.698-37.63
		c2.869-14.161,17.758-26.207,38.059-28.512c25.93-2.985,48.594-1.85,70.924,2.612c16.474,3.31,32.524,7.211,48.13,12.207
		c5.807,2.365,11.715,4.735,17.526,6.999c21.705,7.576,41.998,17.929,64.347,24.418c23.439,6.736,49.203,7.896,76.906,5.592
		c11.243-0.956,22.183-4.354,34.278-6.591c5.167-1.61,10.337-3.322,15.504-4.932c5.686-2.095,11.469-4.086,17.155-6.181
		c7.724-3.024,15.549-6.044,23.277-9.17c7.313-2.737,14.729-5.572,22.042-8.309c3.852-1.259,7.604-2.523,11.452-3.681
		c9.003-2.465,18.005-4.931,27.003-7.295c7.763-1.504,15.531-3.108,23.294-4.612c24.632-3.038,47.884-4.107,67.927,2.489
		c5.332,1.738,11.12,4.609,15.58,8.134c12.802,10.045,14.895,25.22,8.778,38.032c-10.381,21.852-38.563,36.086-69.04,47.694
		C1681.809,121.145,1677.753,122.497,1673.697,123.849z"/>
	<path class="st1" d="M1423.898,111.352c-2.73-4.264-4.568-10.821,2.115-15.306c5.036-3.337,9.818-2.837,12.525-0.498
		c2.707,2.339,5.069,8.31,4.967,10.837c1.265-4.1,1.921-5.491,3.608-7.649c2.639-3.436,11.606-7.523,16.66-1.34
		c1.333,1.675,2.351,3.742,2.565,5.878c0.633,4.178-1.099,7.449-2.703,10.016c-2.887,4.641-18.033,18.094-21.571,21.493
		C1441.815,133.557,1429.734,120.503,1423.898,111.352z"/>
</g>
</svg>
