<?xml version="1.0" encoding="utf-8"?>
<!-- Generator: Adobe Illustrator 22.0.1, SVG Export Plug-In . SVG Version: 6.00 Build 0)  -->
<svg version="1.1" id="Ebene_1" xmlns="http://www.w3.org/2000/svg" xmlns:xlink="http://www.w3.org/1999/xlink" x="0px" y="0px"
	 width="400px" height="265px" viewBox="0 0 400 265" style="enable-background:new 0 0 400 265;" xml:space="preserve">
<style type="text/css">
	.st0{fill:#F8C29D;}
	.st1{fill:#E872A5;}
	.st2{fill:#F4AA92;}
	.st3{fill:#F3A690;}
	.st4{fill:#D89C85;}
	.st5{fill:#C38D79;}
	.st6{fill:#FBDABC;}
	.st7{fill:#C4B09A;}
	.st8{fill:#BA9383;}
	.st9{fill:#F4AE94;}
	.st10{fill:#5D2313;}
	.st11{fill:#BD5E88;}
	.st12{fill:#FDE6C4;}
	.st13{fill:#FFFFFF;}
</style>
<g>
	<path class="st0" d="M53.37,162.987c-1.219,11.062-1.563,20.531-7.851,27.617c-7.898,8.9-17.034,9.412-21.781,23.061
		c-2.938,8.443-10.879,47.256-10.879,47.256c13.206-0.1,170.696,0.44,176.977,0c0,0-5.546-28.871-7.316-37.709
		c-2.616-13.066-11.843-18.412-19.474-21.367c-7.847-3.037-13.631-9.234-16.075-22.217c-2.329-12.371-0.101-23.958-0.503-36.527
		c-13.491,12.953-24.638,30.064-41.488,31.009c-12.521,0.703-26.376,1.389-38.52-4.146c-2.73-1.246-7.601-3.267-9.718-6.436
		c-1.305-1.954-1.481-5.107-2.497-5.399"/>
	<path class="st1" d="M7.974,265c0,0,87.81-83,188.809,0H7.974z"/>
	<g>
		<path class="st2" d="M35.453,249.053c0.533-2.955-2.288-11.111,4.056-7.062c2.542,1.621,5.225,4.941,5.707,8.062
			c1.381,8.934-10.746,0.74-10.513-4.75"/>
		<path class="st2" d="M43.203,246.553c-0.936-2.883-3.568-10.977,2.506-9.199c3.025,0.885,5.484,4.863,6.244,7.705
			c0.662,2.473,0.666,5.939-2.556,6c-1.775,0.033-3.345-1.301-4.45-2.562c-1.331-1.52-1.671-5-3.744-5.443"/>
		<path class="st2" d="M50.691,242.58c-1.966-3.238-1.388-7.436,1.612-7.836c2.815-0.377,5.085,4.006,5.735,6.141
			c0.616,2.023,0.752,5.945-1.835,6.674c-2.262,0.635-6.269-3.357-5-5.756"/>
		<path class="st2" d="M34.103,246.631C21.022,256.49,46.503,254.018,34.103,246.631"/>
		<path class="st0" d="M53.581,245.461c0.981-0.701,2.479-1.287,3.58-1.709c-0.135-1.395-2.603-2.504-3.781-1.59
			c-1.099,0.854-0.766,3.008,0.503,3.197"/>
		<path class="st0" d="M47.367,248.566c0.981-0.699,2.479-1.287,3.58-1.709c-0.135-1.395-2.603-2.504-3.781-1.59
			c-1.099,0.854-0.766,3.01,0.503,3.199"/>
		<path class="st0" d="M40.377,251.414c0.981-0.699,2.479-1.287,3.58-1.709c-0.135-1.395-2.603-2.504-3.781-1.59
			c-1.099,0.854-0.766,3.01,0.503,3.199"/>
		<path class="st0" d="M32.277,251.629c0.743-0.596,1.877-1.094,2.711-1.453c-0.103-1.184-1.971-2.127-2.863-1.35
			c-0.832,0.725-0.58,2.557,0.381,2.717"/>
	</g>
	<g>
		<path class="st2" d="M173.421,249.342c-0.533-2.955,2.289-11.111-4.056-7.062c-2.542,1.621-5.225,4.941-5.707,8.062
			c-1.381,8.934,10.746,0.74,10.513-4.75"/>
		<path class="st2" d="M165.671,246.842c0.937-2.883,3.568-10.977-2.506-9.199c-3.025,0.885-5.484,4.863-6.244,7.705
			c-0.662,2.473-0.665,5.939,2.556,6c1.775,0.033,3.345-1.301,4.45-2.562c1.331-1.52,1.671-5,3.744-5.443"/>
		<path class="st2" d="M158.183,242.869c1.966-3.238,1.388-7.436-1.612-7.836c-2.815-0.377-5.085,4.006-5.735,6.141
			c-0.616,2.023-0.752,5.945,1.834,6.674c2.262,0.635,6.27-3.357,5-5.756"/>
		<path class="st2" d="M174.772,246.92C187.853,256.779,162.372,254.307,174.772,246.92"/>
		<path class="st0" d="M155.294,245.75c-0.981-0.701-2.479-1.287-3.58-1.709c0.135-1.395,2.603-2.504,3.781-1.59
			c1.099,0.854,0.766,3.008-0.503,3.197"/>
		<path class="st0" d="M161.508,248.855c-0.981-0.699-2.479-1.287-3.58-1.709c0.135-1.395,2.603-2.504,3.781-1.59
			c1.099,0.854,0.766,3.01-0.503,3.199"/>
		<path class="st0" d="M168.498,251.703c-0.981-0.699-2.48-1.287-3.58-1.709c0.135-1.395,2.603-2.504,3.781-1.59
			c1.099,0.854,0.766,3.01-0.503,3.199"/>
		<path class="st0" d="M176.597,251.918c-0.743-0.596-1.877-1.094-2.711-1.453c0.103-1.184,1.971-2.127,2.863-1.35
			c0.832,0.725,0.58,2.557-0.381,2.717"/>
	</g>
	<g>
		<path class="st3" d="M161.242,117.611c3.34-2.692,9.823-10.078,14.591-6.949c3.729,2.447,2.486,10.488,1.304,13.655
			c-3.259,8.734-14.045,14.089-22.097,17.076c-1.003-0.381,0.571-0.336,0.84-0.802"/>
		<path class="st0" d="M30.491,141.47c0,36.223,29.364,65.587,65.585,65.587l0,0c36.222,0,65.586-29.363,65.586-65.587v-19.662
			c0-36.223-29.126-68.884-65.348-68.884l-1.415,1.06c-36.222,0-64.409,31.602-64.409,67.824v19.662H30.491z"/>
		<path d="M38.455,96.525c1.85-2.11,2.703-1.713,3.157-4.469c1.185-7.19,1.697-11.456,7.294-16.873
			c10.812-10.465,35.473-16.137,50.08-16.586c1.629-26.076-52.097-40.209-65.936-19.917c-13.985,20.506-3.695,37.005,1.686,59.881"
			/>
		<path d="M154.71,96.687c-1.85-2.11-2.034-1.813-2.488-4.569c-1.185-7.19-2.773-11.518-8.371-16.935
			c-10.812-10.465-35.473-16.137-50.08-16.586c-1.629-26.076,52.097-40.209,65.936-19.917c13.985,20.506,5.099,41.366-0.282,64.242"
			/>
		<path d="M94.945,56.223c10.487-0.279,31.257,6.084,35.876,16.666c3.593,8.232-2.701,11.942-8.269,16.521
			c3.731-1.445,11.461-4.875,13.015-9.002c2.449-6.509-3.337-8.8-8.164-12.311c-9.392-6.829-22.274-11.974-34.001-11.165
			c-2.664-6.373,2.517-14.599,7.34-19.047c10.355-9.549,19.603-7.346,30.785-2.626C121.454,16.075,90.01,25.976,93.28,46.34
			c0-6.729,2.27-15.317-4.167-17.615c-6.794-2.426-14.236,4.838-18.874,7.58c5.271-2.395,10.549-2.89,16.251-2.46
			c0.931,5.414,7.784,13.315,9.29,16.543"/>
		<path class="st3" d="M31.612,118.723c-7.695-6.491-15.955-12.519-16.663,1.666c-0.415,8.309,6.75,20.67,16.538,19.041
			c0.579-7.023-2.268-15.49,0.126-21.541"/>
		<path class="st4" d="M80.48,156.756c5.203-0.551,9.073-9.355,14.374-9.143c3.296,0.133,9.873,6.222,12.934,8.376
			c-3.513,1.759-10.678,6.97-14.235,6.681c-4.244-0.345-9.624-6.242-13.872-5.924c1.728,0.394,5.893-2.194,6.954-2.581"/>
		<path class="st5" d="M84.856,164.376h20.088C104.944,164.376,92.593,170.258,84.856,164.376z"/>
		<path class="st5" d="M78.162,179.557c0,4.373,7.494,7.916,16.738,7.916s16.738-3.543,16.738-7.916s-7.494-7.917-16.738-7.917
			C85.656,171.64,78.162,175.184,78.162,179.557z"/>
		<path class="st6" d="M78.162,175.889c0,4.373,7.494,7.916,16.738,7.916s16.738-3.543,16.738-7.916s-7.494-7.917-16.738-7.917
			C85.656,167.972,78.162,171.516,78.162,175.889z"/>
		<path class="st7" d="M62.72,114.313c0,2.435,4.439,4.41,9.915,4.41s9.914-1.975,9.914-4.41c0-2.436-4.438-4.41-9.914-4.41
			C67.159,109.903,62.72,111.878,62.72,114.313z"/>
		<path class="st7" d="M105.037,114.313c0,2.435,4.439,4.41,9.915,4.41s9.914-1.975,9.914-4.41c0-2.436-4.438-4.41-9.914-4.41
			S105.037,111.878,105.037,114.313z"/>
		<path d="M55.222,100.76c0,0,13.957-5.833,24.591,0C79.813,100.76,65.831,91.594,55.222,100.76z"/>
		<path d="M133.537,100.598c0,0-13.957-5.833-24.591,0C108.947,100.598,122.928,91.432,133.537,100.598z"/>
		<path d="M58.222,115.11c0,0,11.195-3.119,16.793-0.632L58.222,115.11z"/>
		<path d="M128.1,113.902c0,0-11.195-3.119-16.793-0.632L128.1,113.902z"/>
		<path class="st8" d="M84.494,155.378c3.281-2.021,7.736-3.098,11.587-2.916c1.74,0.082,9.211,1.358,10.136,2.342
			c-2.822-3.268-7.622-7.685-11.363-7.19c-2.354,0.311-4.573,1.439-6.743,2.884c-1.104,0.735-2.462,2.832-3.45,3.806
			c-0.656,0.647-1.202,1.691-1.977,2.008"/>
		<path class="st9" d="M37.402,165.684c21.789,38.968,89.197,35.109,116.56,4.162c-5.302,20.455-30.423,36.749-50.684,37.23
			c-23.183,0.549-45.501-9.102-60.833-25.854C42.445,181.223,35.622,173.154,37.402,165.684z"/>
		<path class="st6" d="M88.746,139.92c-1.526-0.033-3.189,0.635-4.698,0.098c-2.104-0.748-2.063-2.722-1.307-4.413
			c0.731-1.635,2.594-3.262,4.576-3.099c1.377,0.113,2.176,1.489,3.324,1.642c0.294-1.706,3.409-2.784,4.905-2.637
			c1.597,0.158,2.573,1.395,2.781,2.867c1.308-2.383,5.115-2.409,6.941-0.881c1.949,1.632,2.875,4.684-0.16,5.684
			c-1.252,0.412-2.745,0.341-4.088,0.355c-2.123,0.022-4.253,0.221-6.395,0.135c-2.014-0.082-6.077-0.716-7.925,0.121"/>
		<path class="st10" d="M85.462,137.251c0,1.688,0.826,3.055,1.845,3.055c1.019,0,1.845-1.367,1.845-3.055s-0.826-3.055-1.845-3.055
			C86.287,134.196,85.462,135.563,85.462,137.251z"/>
		<ellipse class="st10" cx="103.192" cy="137.251" rx="1.845" ry="3.055"/>
	</g>
</g>
<g>
	<path class="st0" d="M253.519,165.477c-1.219,11.062-1.563,20.531-7.851,27.617c-7.898,8.9-17.034,9.412-21.781,23.061
		c-2.938,8.443-10.879,47.256-10.879,47.256c13.206-0.1,170.697,0.44,176.976,0c0,0-5.546-28.871-7.314-37.709
		c-2.617-13.066-11.844-18.412-19.475-21.367c-7.847-3.037-13.631-9.234-16.074-22.217c-2.329-12.371-0.102-23.958-0.504-36.527
		c-13.49,12.953-24.638,30.064-41.488,31.009c-12.521,0.703-26.376,1.389-38.52-4.146c-2.73-1.246-7.601-3.268-9.718-6.436
		c-1.305-1.954-1.481-5.107-2.498-5.399"/>
	<g>
		<path class="st1" d="M207.974,265c0,0,26.008-9.354,41.206-20.076c18.056-12.74,7.505-27.717,53.199-26.4
			c47.779,1.375,38.433,14.229,64.956,33.047c6.686,4.744,22.596,7.797,29.449,13.43h-188.81V265z"/>
		<path class="st11" d="M277.244,228.838c10.126-3.17,20.501-4.668,31.289-4.07c6.727,0.371,12.141,1.729,17.883,4.689
			c1.291,0.666,2.712,1.121,4.023,1.451c-11.211-2.68-22.013-3.445-33.62-3.445c-4.946,0-9.599,0.609-14.426,1.049
			c-1.895,0.174-7.326-0.82-7.9,0.67"/>
		<path class="st11" d="M254.894,245.344c0.057,2.352,0.038,4.617-0.664,6.893c-0.586,1.9-2.36,3.623-2.378,5.459
			c4.187-3.275,6.239-7.785,3.387-12.352"/>
		<path class="st11" d="M358.051,252.564c0.217,3.256,2.422,4.9,4.099,7.17c-1.947,0.293-5.319-0.576-6.186-2.625
			c-0.938-2.213,1.282-4.289,2.096-6.314c-0.291-0.068,0.204,0.205,0.336,0.395"/>
		<path class="st11" d="M266.585,240.873c-2.032,5.705,14.983,10.793,19.496,11.346c-7.511,0.174-13.642-13.898-20.818-11.98
			c-0.04,1.295,0.718,2.221,2.01,2.699"/>
		<path class="st11" d="M341.545,241.561c-2.674,2.059-3.867,6.002-6.894,8.201c-1.716,1.246-4.056,2.631-5.802,3.338
			c3.778-0.717,8.686-1.887,11.338-5.004c2.087-2.453,2.678-6.592,4.074-9.508c-1.669,1.531-3.854,3.23-5.123,5.037"/>
	</g>
	<g>
		<path class="st2" d="M251.22,241.379c-0.561-2.949-6.121-9.551,1.253-8.047c2.955,0.604,6.65,2.74,8.219,5.479
			c4.493,7.846-9.766,4.545-11.517-0.662"/>
		<path class="st2" d="M257.558,236.266c-1.908-2.354-7.267-8.967-0.96-9.486c3.142-0.258,6.864,2.574,8.592,4.953
			c1.505,2.072,2.752,5.307-0.234,6.518c-1.645,0.668-3.588-0.014-5.073-0.795c-1.787-0.941-3.353-4.068-5.447-3.738"/>
		<path class="st2" d="M263.124,229.873c-2.997-2.318-3.962-6.443-1.306-7.893c2.492-1.361,6.184,1.914,7.555,3.674
			c1.301,1.67,2.835,5.281,0.681,6.889c-1.883,1.404-7.057-0.885-6.732-3.58"/>
		<path class="st2" d="M249.092,239.604C240.417,253.498,263.316,242.051,249.092,239.604"/>
		<path class="st12" d="M266.854,231.525c0.664-1.006,1.853-2.09,2.729-2.879c-0.627-1.254-3.328-1.404-4.1-0.129
			c-0.719,1.191,0.364,3.084,1.617,2.805"/>
		<path class="st12" d="M262.168,236.654c0.665-1.006,1.853-2.092,2.729-2.881c-0.627-1.252-3.328-1.402-4.1-0.127
			c-0.719,1.189,0.364,3.084,1.617,2.805"/>
		<path class="st12" d="M256.664,241.818c0.665-1.006,1.853-2.09,2.729-2.879c-0.626-1.254-3.328-1.404-4.1-0.129
			c-0.719,1.191,0.364,3.084,1.617,2.807"/>
		<path class="st12" d="M249.179,244.924c0.48-0.822,1.36-1.695,2.01-2.328c-0.521-1.07-2.603-1.279-3.157-0.234
			c-0.517,0.975,0.375,2.594,1.33,2.4"/>
	</g>
	<g>
		<path class="st2" d="M360.804,246.148c0.88-2.871,7.128-8.824-0.367-8.137c-3.002,0.275-6.909,1.996-8.768,4.549
			c-5.324,7.307,9.211,5.584,11.52,0.598"/>
		<path class="st2" d="M355.062,240.373c2.154-2.133,8.204-8.119,1.991-9.324c-3.095-0.6-7.104,1.809-9.082,3.984
			c-1.723,1.895-3.315,4.973-0.479,6.504c1.561,0.844,3.568,0.379,5.13-0.236c1.879-0.74,3.776-3.678,5.823-3.121"/>
		<path class="st2" d="M350.229,233.41c3.231-1.977,4.643-5.971,2.16-7.703c-2.328-1.625-6.356,1.229-7.911,2.828
			c-1.476,1.516-3.395,4.939-1.43,6.771c1.719,1.602,7.11-0.109,7.082-2.822"/>
		<path class="st2" d="M363.114,244.615C370.219,259.375,348.708,245.494,363.114,244.615"/>
		<path class="st12" d="M346.341,234.645c-0.552-1.072-1.615-2.281-2.398-3.16c0.759-1.178,3.461-1.031,4.088,0.32
			c0.586,1.264-0.697,3.025-1.913,2.611"/>
		<path class="st12" d="M350.438,240.254c-0.55-1.072-1.612-2.279-2.398-3.16c0.761-1.176,3.462-1.031,4.09,0.32
			c0.585,1.264-0.699,3.025-1.913,2.613"/>
		<path class="st12" d="M355.345,245.99c-0.551-1.072-1.613-2.281-2.398-3.16c0.76-1.178,3.462-1.031,4.089,0.32
			c0.585,1.262-0.698,3.025-1.913,2.611"/>
		<path class="st12" d="M362.445,249.893c-0.387-0.867-1.166-1.832-1.743-2.533c0.635-1.004,2.728-0.986,3.164,0.113
			c0.407,1.025-0.657,2.537-1.584,2.24"/>
	</g>
	<g>
		<path class="st3" d="M361.391,107.101c3.34-2.692,9.824-10.078,14.592-6.949c3.73,2.447,2.486,10.488,1.305,13.655
			c-3.26,8.734-14.046,14.089-22.098,17.076c-1.003-0.381,0.57-0.336,0.84-0.802"/>
		<path class="st0" d="M230.641,130.96c0,36.223,29.364,65.587,65.585,65.587l0,0c36.222,0,65.586-29.363,65.586-65.587v-19.662
			c0-36.223-29.127-68.884-65.349-68.884l-1.415,1.06c-36.222,0-64.409,31.602-64.409,67.824v19.662L230.641,130.96L230.641,130.96z
			"/>
		<path d="M238.604,86.015c1.85-2.11,2.703-1.713,3.157-4.469c1.185-7.19,1.697-11.456,7.294-16.873
			c10.812-10.465,35.473-16.137,50.08-16.586c1.629-26.076-52.097-40.209-65.936-19.917c-13.985,20.506-3.695,37.005,1.686,59.881"
			/>
		<path d="M354.86,86.177c-1.851-2.11-2.035-1.813-2.488-4.569c-1.186-7.19-2.773-11.518-8.371-16.935
			c-10.812-10.465-35.473-16.137-50.08-16.586c-1.629-26.076,52.098-40.209,65.936-19.917c13.986,20.506,5.1,41.366-0.281,64.242"/>
		<path d="M295.094,45.713c10.487-0.279,31.257,6.084,35.876,16.666c3.593,8.232-2.701,11.942-8.269,16.522
			c3.73-1.445,11.461-4.875,13.014-9.002c2.449-6.509-3.336-8.8-8.164-12.311c-9.392-6.829-22.274-11.974-34.001-11.165
			c-2.664-6.373,2.517-14.599,7.34-19.047c10.355-9.549,19.602-7.346,30.785-2.626c-10.073-19.184-41.517-9.283-38.248,11.081
			c0-6.73,2.27-15.317-4.166-17.615c-6.794-2.426-14.236,4.838-18.874,7.58c5.271-2.396,10.549-2.89,16.251-2.46
			c0.931,5.414,7.784,13.315,9.289,16.543"/>
		<path class="st3" d="M231.761,108.213c-7.695-6.491-15.955-12.519-16.663,1.666c-0.415,8.309,6.75,20.67,16.538,19.041
			c0.579-7.023-2.268-15.49,0.126-21.541"/>
		<path class="st5" d="M292.078,157.418h8.772C300.85,157.418,295.456,163.301,292.078,157.418z"/>
		<ellipse class="st5" cx="295.05" cy="172.047" rx="16.738" ry="7.916"/>
		<ellipse class="st6" cx="295.05" cy="168.379" rx="16.738" ry="7.916"/>
		<path class="st7" d="M262.87,102.154c0,3.346,4.439,6.06,9.915,6.06s9.914-2.714,9.914-6.06c0-3.348-4.438-6.062-9.914-6.062
			S262.87,98.806,262.87,102.154z"/>
		<path class="st7" d="M305.186,102.443c0,3.188,4.439,5.771,9.915,5.771s9.914-2.583,9.914-5.771c0-3.187-4.438-5.77-9.914-5.77
			C309.625,96.673,305.186,99.256,305.186,102.443z"/>
		<path d="M258.091,76.938c0,0,13.957-5.833,24.591,0C282.682,76.938,268.7,67.772,258.091,76.938z"/>
		<path d="M329.793,76.938c0,0-13.957-5.833-24.59,0C305.203,76.938,319.185,67.772,329.793,76.938z"/>
		<path class="st13" d="M267.667,101.21c0-2.826,2.291-5.117,5.117-5.117s5.117,2.291,5.117,5.117s-2.291,5.117-5.117,5.117
			C269.958,106.327,267.667,104.036,267.667,101.21z"/>
		<path class="st13" d="M309.983,101.21c0-2.826,2.29-5.117,5.117-5.117c2.826,0,5.117,2.291,5.117,5.117s-2.291,5.117-5.117,5.117
			C312.274,106.327,309.983,104.036,309.983,101.21z"/>
		<path d="M270.386,101.21c0-1.324,1.074-2.398,2.398-2.398s2.398,1.073,2.398,2.398c0,1.324-1.074,2.397-2.398,2.397
			S270.386,102.534,270.386,101.21z"/>
		<path d="M312.702,101.21c0-1.324,1.073-2.398,2.397-2.398s2.398,1.073,2.398,2.398c0,1.324-1.074,2.397-2.398,2.397
			C313.776,103.607,312.702,102.534,312.702,101.21z"/>
		<path class="st4" d="M288.488,141.492c-3.862,3.502-0.482,8.75,3.436,10.309c3.143,1.25,9.079,0.343,11.382-2.348
			c2.268-2.649,1.582-10.196-2.513-10.48c-1.799-0.124-5.007,1.33-7.166,1.438c-1.819,0.091-5.166,0.304-6.284-0.351"/>
		<path class="st4" d="M287.996,141.857c1.012-4.223,3.249-11.793,8.992-9.496c3.312,1.324,4.238,5.161,6.055,7.877
			c-2.478,0.18-4.934,0.368-7.4,0.495c-2.217,0.114-6.086-0.38-7.872,0.899"/>
		<path d="M292.405,141.342c-1.857-1.163,2.453-7.648,5.477-3.727c0.691,0.897,0.51,2.188,1.783,2.677
			c1.403,0.538,2.972-0.618,4.134-1.148c-1.586,1.332-2.884,2.637-3.693,4.682c-0.852,2.153-1.209,5.041-3.974,5.271
			c-2.487,0.207-3.188-1.883-4.168-3.781c-1.103-2.137-2.469-2.631-4.189-4.241c1.64,0.041,3.303-0.255,4.631-0.23"/>
		<path class="st0" d="M254.258,112.914c0,4.806,7.09,8.701,15.835,8.701c8.746,0,15.836-3.896,15.836-8.701
			c0-4.805-7.09-8.7-15.836-8.7C261.347,104.213,254.258,108.109,254.258,112.914z"/>
		<path class="st0" d="M307.114,111.114c0,4.806,7.089,8.701,15.835,8.701s15.836-3.896,15.836-8.701c0-4.805-7.09-8.7-15.836-8.7
			S307.114,106.309,307.114,111.114z"/>
		<path class="st6" d="M289.128,128.794c-1.526-0.033-3.189,0.635-4.698,0.098c-2.104-0.748-2.063-2.722-1.307-4.413
			c0.731-1.635,2.594-3.262,4.576-3.099c1.377,0.113,2.176,1.489,3.324,1.642c0.294-1.706,3.409-2.784,4.905-2.637
			c1.597,0.158,2.573,1.395,2.781,2.867c1.308-2.383,5.115-2.409,6.941-0.881c1.949,1.632,2.875,4.684-0.16,5.684
			c-1.252,0.412-2.745,0.341-4.088,0.355c-2.123,0.023-4.253,0.221-6.395,0.135c-2.014-0.082-6.077-0.716-7.925,0.121"/>
		<path class="st10" d="M285.929,126.883c0,1.688,0.826,3.055,1.845,3.055s1.845-1.367,1.845-3.055s-0.826-3.055-1.845-3.055
			C286.755,123.829,285.929,125.196,285.929,126.883z"/>
		<ellipse class="st10" cx="303.342" cy="126.741" rx="1.845" ry="3.055"/>
		<path class="st9" d="M237.654,155.588c21.789,38.968,89.197,35.109,116.559,4.162c-5.302,20.455-30.423,36.749-50.683,37.23
			c-23.183,0.549-45.502-9.102-60.833-25.854C242.697,171.126,235.874,163.058,237.654,155.588z"/>
	</g>
</g>
</svg>
