<?xml version="1.0" encoding="utf-8"?>
<!-- Generator: Adobe Illustrator 22.0.1, SVG Export Plug-In . SVG Version: 6.00 Build 0)  -->
<svg version="1.1" id="Ebene_1" xmlns="http://www.w3.org/2000/svg" xmlns:xlink="http://www.w3.org/1999/xlink" x="0px" y="0px"
	 width="600px" height="265px" viewBox="0 0 600 265" style="enable-background:new 0 0 600 265;" xml:space="preserve">
<style type="text/css">
	.st0{fill:#F8C29D;}
	.st1{fill:#E872A5;}
	.st2{fill:#F4AA92;}
	.st3{fill:#F3A690;}
	.st4{fill:#D89C85;}
	.st5{fill:#C38D79;}
	.st6{fill:#FBDABC;}
	.st7{fill:#C4B09A;}
	.st8{fill:#BA9383;}
	.st9{fill:#F4AE94;}
	.st10{fill:#5D2313;}
	.st11{fill:#3D2D10;}
	.st12{fill:#FFFFFF;}
	.st13{fill:#BD5E88;}
	.st14{fill:#FDE6C4;}
</style>
<g>
	<path class="st0" d="M53.37,162.987c-1.219,11.062-1.563,20.531-7.851,27.617c-7.898,8.9-17.034,9.412-21.781,23.061
		c-2.938,8.443-10.879,47.256-10.879,47.256c13.206-0.1,170.696,0.44,176.977,0c0,0-5.546-28.871-7.316-37.709
		c-2.616-13.066-11.843-18.412-19.474-21.367c-7.847-3.037-13.631-9.234-16.075-22.217c-2.329-12.371-0.101-23.958-0.503-36.527
		c-13.491,12.953-24.638,30.064-41.488,31.009c-12.521,0.703-26.376,1.389-38.52-4.146c-2.73-1.246-7.601-3.267-9.718-6.436
		c-1.305-1.954-1.481-5.107-2.497-5.399"/>
	<path class="st1" d="M7.974,265c0,0,87.81-83,188.809,0H7.974z"/>
	<g>
		<path class="st2" d="M35.453,249.053c0.533-2.955-2.288-11.111,4.056-7.062c2.542,1.621,5.225,4.941,5.707,8.062
			c1.381,8.934-10.746,0.74-10.513-4.75"/>
		<path class="st2" d="M43.203,246.553c-0.936-2.883-3.568-10.977,2.506-9.199c3.025,0.885,5.484,4.863,6.244,7.705
			c0.662,2.473,0.666,5.939-2.556,6c-1.775,0.033-3.345-1.301-4.45-2.562c-1.331-1.52-1.671-5-3.744-5.443"/>
		<path class="st2" d="M50.691,242.58c-1.966-3.238-1.388-7.436,1.612-7.836c2.815-0.377,5.085,4.006,5.735,6.141
			c0.616,2.023,0.752,5.945-1.835,6.674c-2.262,0.635-6.269-3.357-5-5.756"/>
		<path class="st2" d="M34.103,246.631C21.022,256.49,46.503,254.018,34.103,246.631"/>
		<path class="st0" d="M53.581,245.461c0.981-0.701,2.479-1.287,3.58-1.709c-0.135-1.395-2.603-2.504-3.781-1.59
			c-1.099,0.854-0.766,3.008,0.503,3.197"/>
		<path class="st0" d="M47.367,248.566c0.981-0.699,2.479-1.287,3.58-1.709c-0.135-1.395-2.603-2.504-3.781-1.59
			c-1.099,0.854-0.766,3.01,0.503,3.199"/>
		<path class="st0" d="M40.377,251.414c0.981-0.699,2.479-1.287,3.58-1.709c-0.135-1.395-2.603-2.504-3.781-1.59
			c-1.099,0.854-0.766,3.01,0.503,3.199"/>
		<path class="st0" d="M32.277,251.629c0.743-0.596,1.877-1.094,2.711-1.453c-0.103-1.184-1.971-2.127-2.863-1.35
			c-0.832,0.725-0.58,2.557,0.381,2.717"/>
	</g>
	<g>
		<path class="st2" d="M173.421,249.342c-0.533-2.955,2.289-11.111-4.056-7.062c-2.542,1.621-5.225,4.941-5.707,8.062
			c-1.381,8.934,10.746,0.74,10.513-4.75"/>
		<path class="st2" d="M165.671,246.842c0.937-2.883,3.568-10.977-2.506-9.199c-3.025,0.885-5.484,4.863-6.244,7.705
			c-0.662,2.473-0.665,5.939,2.556,6c1.775,0.033,3.345-1.301,4.45-2.562c1.331-1.52,1.671-5,3.744-5.443"/>
		<path class="st2" d="M158.183,242.869c1.966-3.238,1.388-7.436-1.612-7.836c-2.815-0.377-5.085,4.006-5.735,6.141
			c-0.616,2.023-0.752,5.945,1.834,6.674c2.262,0.635,6.27-3.357,5-5.756"/>
		<path class="st2" d="M174.772,246.92C187.853,256.779,162.372,254.307,174.772,246.92"/>
		<path class="st0" d="M155.294,245.75c-0.981-0.701-2.479-1.287-3.58-1.709c0.135-1.395,2.603-2.504,3.781-1.59
			c1.099,0.854,0.766,3.008-0.503,3.197"/>
		<path class="st0" d="M161.508,248.855c-0.981-0.699-2.479-1.287-3.58-1.709c0.135-1.395,2.603-2.504,3.781-1.59
			c1.099,0.854,0.766,3.01-0.503,3.199"/>
		<path class="st0" d="M168.498,251.703c-0.981-0.699-2.48-1.287-3.58-1.709c0.135-1.395,2.603-2.504,3.781-1.59
			c1.099,0.854,0.766,3.01-0.503,3.199"/>
		<path class="st0" d="M176.597,251.918c-0.743-0.596-1.877-1.094-2.711-1.453c0.103-1.184,1.971-2.127,2.863-1.35
			c0.832,0.725,0.58,2.557-0.381,2.717"/>
	</g>
	<g>
		<path class="st3" d="M161.242,117.611c3.34-2.692,9.823-10.078,14.591-6.949c3.729,2.447,2.486,10.488,1.304,13.655
			c-3.259,8.734-14.045,14.089-22.097,17.076c-1.003-0.381,0.571-0.336,0.84-0.802"/>
		<path class="st0" d="M30.491,141.47c0,36.223,29.364,65.587,65.585,65.587l0,0c36.222,0,65.586-29.363,65.586-65.587v-19.662
			c0-36.223-29.126-68.884-65.348-68.884l-1.415,1.06c-36.222,0-64.409,31.602-64.409,67.824v19.662H30.491z"/>
		<path d="M38.455,96.525c1.85-2.11,2.703-1.713,3.157-4.469c1.185-7.19,1.697-11.456,7.294-16.873
			c10.812-10.465,35.473-16.137,50.08-16.586c1.629-26.076-52.097-40.209-65.936-19.917c-13.985,20.506-3.695,37.005,1.686,59.881"
			/>
		<path d="M154.71,96.687c-1.85-2.11-2.034-1.813-2.488-4.569c-1.185-7.19-2.773-11.518-8.371-16.935
			c-10.812-10.465-35.473-16.137-50.08-16.586c-1.629-26.076,52.097-40.209,65.936-19.917c13.985,20.506,5.099,41.366-0.282,64.242"
			/>
		<path d="M94.945,56.223c10.487-0.279,31.257,6.084,35.876,16.666c3.593,8.232-2.701,11.942-8.269,16.521
			c3.731-1.445,11.461-4.875,13.015-9.002c2.449-6.509-3.337-8.8-8.164-12.311c-9.392-6.829-22.274-11.974-34.001-11.165
			c-2.664-6.373,2.517-14.599,7.34-19.047c10.355-9.549,19.603-7.346,30.785-2.626C121.454,16.075,90.01,25.976,93.28,46.34
			c0-6.729,2.27-15.317-4.167-17.615c-6.794-2.426-14.236,4.838-18.874,7.58c5.271-2.395,10.549-2.89,16.251-2.46
			c0.931,5.414,7.784,13.315,9.29,16.543"/>
		<path class="st3" d="M31.612,118.723c-7.695-6.491-15.955-12.519-16.663,1.666c-0.415,8.309,6.75,20.67,16.538,19.041
			c0.579-7.023-2.268-15.49,0.126-21.541"/>
		<path class="st4" d="M80.48,156.756c5.203-0.551,9.073-9.355,14.374-9.143c3.296,0.133,9.873,6.222,12.934,8.376
			c-3.513,1.759-10.678,6.97-14.235,6.681c-4.244-0.345-9.624-6.242-13.872-5.924c1.728,0.394,5.893-2.194,6.954-2.581"/>
		<path class="st5" d="M84.856,164.376h20.088C104.944,164.376,92.593,170.258,84.856,164.376z"/>
		<path class="st5" d="M78.162,179.557c0,4.373,7.494,7.916,16.738,7.916s16.738-3.543,16.738-7.916s-7.494-7.917-16.738-7.917
			C85.656,171.64,78.162,175.184,78.162,179.557z"/>
		<path class="st6" d="M78.162,175.889c0,4.373,7.494,7.916,16.738,7.916s16.738-3.543,16.738-7.916s-7.494-7.917-16.738-7.917
			C85.656,167.972,78.162,171.516,78.162,175.889z"/>
		<path class="st7" d="M62.72,114.313c0,2.435,4.439,4.41,9.915,4.41s9.914-1.975,9.914-4.41c0-2.436-4.438-4.41-9.914-4.41
			C67.159,109.903,62.72,111.878,62.72,114.313z"/>
		<path class="st7" d="M105.037,114.313c0,2.435,4.439,4.41,9.915,4.41s9.914-1.975,9.914-4.41c0-2.436-4.438-4.41-9.914-4.41
			S105.037,111.878,105.037,114.313z"/>
		<path d="M55.222,100.76c0,0,13.957-5.833,24.591,0C79.813,100.76,65.831,91.594,55.222,100.76z"/>
		<path d="M133.537,100.598c0,0-13.957-5.833-24.591,0C108.947,100.598,122.928,91.432,133.537,100.598z"/>
		<path d="M58.222,115.11c0,0,11.195-3.119,16.793-0.632L58.222,115.11z"/>
		<path d="M128.1,113.902c0,0-11.195-3.119-16.793-0.632L128.1,113.902z"/>
		<path class="st8" d="M84.494,155.378c3.281-2.021,7.736-3.098,11.587-2.916c1.74,0.082,9.211,1.358,10.136,2.342
			c-2.822-3.268-7.622-7.685-11.363-7.19c-2.354,0.311-4.573,1.439-6.743,2.884c-1.104,0.735-2.462,2.832-3.45,3.806
			c-0.656,0.647-1.202,1.691-1.977,2.008"/>
		<path class="st9" d="M37.402,165.684c21.789,38.968,89.197,35.109,116.56,4.162c-5.302,20.455-30.423,36.749-50.684,37.23
			c-23.183,0.549-45.501-9.102-60.833-25.854C42.445,181.223,35.622,173.154,37.402,165.684z"/>
		<path class="st6" d="M88.746,139.92c-1.526-0.033-3.189,0.635-4.698,0.098c-2.104-0.748-2.063-2.722-1.307-4.413
			c0.731-1.635,2.594-3.262,4.576-3.099c1.377,0.113,2.176,1.489,3.324,1.642c0.294-1.706,3.409-2.784,4.905-2.637
			c1.597,0.158,2.573,1.395,2.781,2.867c1.308-2.383,5.115-2.409,6.941-0.881c1.949,1.632,2.875,4.684-0.16,5.684
			c-1.252,0.412-2.745,0.341-4.088,0.355c-2.123,0.022-4.253,0.221-6.395,0.135c-2.014-0.082-6.077-0.716-7.925,0.121"/>
		<path class="st10" d="M85.462,137.251c0,1.688,0.826,3.055,1.845,3.055c1.019,0,1.845-1.367,1.845-3.055s-0.826-3.055-1.845-3.055
			C86.287,134.196,85.462,135.563,85.462,137.251z"/>
		<ellipse class="st10" cx="103.192" cy="137.251" rx="1.845" ry="3.055"/>
	</g>
</g>
<g>
	<path class="st0" d="M454.292,165.615c-1.221,11.062-5.469,18.448-7.852,27.617c-6.253,24.068-16.257,16.568-21.781,23.06
		c-5.793,6.809-10.879,47.256-10.879,47.256c13.207-0.1,170.698,0.439,176.977,0c0,0-5.547-28.871-7.314-37.709
		c-2.617-13.066-11.844-18.412-19.475-21.367c-7.848-3.037-13.631-9.234-16.074-22.217c-2.33-12.371-0.102-23.959-0.504-36.527
		c-13.49,12.953-24.639,30.064-41.488,31.009c-12.521,0.703-26.377,1.389-38.52-4.146c-2.73-1.246-7.602-3.268-9.719-6.436
		c-1.305-1.954-1.481-5.107-2.498-5.399"/>
	<g>
		<path class="st3" d="M562.163,115.239c3.34-2.692,9.824-10.078,14.592-6.949c3.729,2.447,2.486,10.488,1.305,13.655
			c-3.26,8.734-14.047,14.089-22.098,17.076c-1.004-0.381,0.57-0.336,0.84-0.802"/>
		<path class="st0" d="M431.413,139.098c0,36.223,29.363,65.586,65.586,65.586l0,0c36.221,0,65.586-29.363,65.586-65.586v-19.662
			c0-36.223-29.127-68.884-65.35-68.884l-1.414,1.06c-36.221,0-64.408,31.602-64.408,67.824
			C431.413,119.436,431.413,139.098,431.413,139.098z"/>
		<path d="M439.376,94.153c1.85-2.11,2.703-1.713,3.156-4.469c1.186-7.19,1.697-11.456,7.295-16.873
			c10.813-10.465,35.473-16.137,50.081-16.586c1.629-26.076-52.098-40.209-65.936-19.917c-13.987,20.506-3.696,37.005,1.686,59.881"
			/>
		<path d="M555.632,94.315c-1.852-2.11-2.035-1.813-2.488-4.569c-1.186-7.19-2.773-11.518-8.371-16.935
			c-10.813-10.465-35.473-16.137-50.08-16.586c-1.629-26.076,52.098-40.209,65.936-19.917c13.986,20.506,5.1,41.366-0.281,64.242"/>
		<path d="M495.867,53.851c10.488-0.279,31.258,6.084,35.877,16.666c3.592,8.232-2.701,11.942-8.27,16.521
			c3.731-1.445,11.461-4.875,13.014-9.002c2.449-6.509-3.336-8.8-8.164-12.311c-9.393-6.829-22.273-11.974-34-11.165
			c-2.664-6.373,2.516-14.599,7.34-19.047c10.353-9.549,19.601-7.346,30.783-2.626c-10.072-19.184-41.516-9.283-38.246,11.081
			c0-6.729,2.27-15.317-4.168-17.615c-6.793-2.426-14.234,4.838-18.873,7.58c5.271-2.396,10.549-2.89,16.25-2.46
			c0.932,5.414,7.785,13.315,9.291,16.543"/>
		<path class="st3" d="M432.533,116.351c-7.695-6.491-15.954-12.519-16.663,1.666c-0.416,8.309,6.75,20.67,16.538,19.041
			c0.578-7.023-2.268-15.49,0.125-21.541"/>
		<path class="st5" d="M492.851,165.556h8.772C501.622,165.556,496.228,171.439,492.851,165.556z"/>
		<ellipse class="st5" cx="495.822" cy="180.185" rx="16.738" ry="7.916"/>
		<ellipse class="st6" cx="495.822" cy="176.517" rx="16.738" ry="7.916"/>
		<path class="st6" d="M489.9,127.459c-1.525-0.033-3.189,0.635-4.697,0.098c-2.104-0.748-2.064-2.722-1.307-4.413
			c0.73-1.635,2.594-3.262,4.576-3.099c1.377,0.113,2.176,1.489,3.324,1.642c0.293-1.706,3.408-2.784,4.904-2.637
			c1.596,0.158,2.572,1.395,2.781,2.867c1.307-2.383,5.113-2.409,6.941-0.881c1.949,1.632,2.875,4.684-0.16,5.684
			c-1.252,0.412-2.746,0.341-4.088,0.355c-2.125,0.022-4.254,0.221-6.396,0.135c-2.014-0.082-6.076-0.716-7.924,0.121"/>
		<path class="st10" d="M486.701,126.02c0,1.688,0.826,3.055,1.846,3.055c1.02,0,1.844-1.367,1.844-3.055s-0.824-3.055-1.844-3.055
			C487.527,122.965,486.701,124.333,486.701,126.02z"/>
		<path class="st10" d="M502.269,125.878c0,1.688,0.826,3.055,1.846,3.055c1.018,0,1.844-1.367,1.844-3.055
			s-0.826-3.055-1.844-3.055C503.095,122.823,502.269,124.19,502.269,125.878z"/>
		<path d="M459.775,99.974c3.17-1.301,6.424-4.199,9.312-6.188c4.125-2.841,8.68-5.752,12.326-9.1
			c-3.955,9.063-14.592,13.388-23.311,16.501c1.002-0.57,2.062-1.226,2.856-2.102"/>
		<path class="st11" d="M488.185,134.866c-2.08,0.056-5.176,3.505-7.033,4.849c-2.135,1.546-4.594-3.262-6.438-1.514
			c1.99,8.264,11.566,18.58,19.941,18.689c9.176,0.12,23.734-9.249,23.226-17.991c-3.354-5.329-6.848-3.161-13.078-4.815
			c-5.348-1.419-18.828-2.657-22.531,3.035"/>
		<path class="st12" d="M480.544,137.204L480.544,137.204c-2.338,1.651-2.158-1.545-3.271,2.436
			c1.811,1.565,5.936-1.304,10.586,1.565c0.701,1.086,0.947,1.881,1.07,2.945c5.322-0.722,10.697-0.811,16.066-0.812
			c1.918-2.966,4.24-5.128,11.971-4.191C505.958,130.578,487.57,130.117,480.544,137.204z"/>
		<path d="M458.103,103.025c0,0,14.424-3.583,20.828-1.768C478.931,101.257,477.343,96.517,458.103,103.025z"/>
		<path class="st5" d="M483.896,123.143c0,0-16.217,7.973-11.113,22.586C472.783,145.729,455.876,132.124,483.896,123.143z"/>
		<path class="st5" d="M512.107,123.143c0,0,16.217,7.973,11.113,22.586C523.22,145.729,540.126,132.124,512.107,123.143z"/>
		<path class="st12" d="M485.982,155.108c1.369-3.46,9.715-3.948,12.875-4.132c4.043-0.235,6.336,1.23,8.727,4.078
			c-6.982,2.032-15.318-0.107-22.555,0.338c-0.025,0.447,0.258,0.248,0.467,0.445"/>
		<path class="st4" d="M475.73,141.205c2.035-3.265,5.74-2.07,9.119-3.772c3.539-1.782,7.305-2.599,11.213-2.889
			c4.582-0.34,9.291,0.129,13.326,2.412c2.965,1.678,6.486,0.825,8.486,2.885c0.535,0.55,0.449-1.234,1.061-0.819
			c0.305-1.5,1.578-2.718,1.18-4.018c-2.219-7.237-7.582,1.252-9.121-0.056c-1.74-1.477-2.861-1.506-4.912-2.405
			c-2.039-0.894-3.887-1.557-6.092-1.782c-5.102-0.522-9.34,0.008-13.863,2.53c-4.23,2.358-7.756-2.307-10.943,1.145
			c-0.482,0.523-0.469,3.429-0.469,3.765"/>
		<path class="st5" d="M476.04,104.197c-2.287-2.953-7.611-1.664-11.695-0.932C468.273,103.975,471.812,105.674,476.04,104.197z"/>
		<path d="M531.417,100.755c-3.17-1.301-6.235-4.506-9.312-6.188c-6.676-3.648-8.842-6.259-12.326-9.1
			c3.955,9.063,14.592,13.388,23.311,16.501c-1.002-0.57-2.062-1.226-2.855-2.102"/>
		<path d="M533.089,103.805c0,0-14.424-3.583-20.828-1.768C512.261,102.038,513.849,97.297,533.089,103.805z"/>
		<path class="st5" d="M515.152,104.977c2.287-2.953,7.611-1.664,11.695-0.932C522.919,104.756,519.38,106.455,515.152,104.977z"/>
		<path class="st11" d="M486.736,144.809c6.596,0.647,16.375-4.176,22.5,1"/>
		<path class="st4" d="M507.644,155.451c-3.01-2.616-9.186-1.645-13-1.5c-3.67,0.14-12.43,1.812-6,5.387
			c2.979,1.655,10.83,0.917,14.025,0.141c4.293-1.042,7.521-6.132,0.975-6.027"/>
		<path class="st9" d="M438.325,163.312c21.79,38.968,89.197,35.109,116.559,4.162c-5.302,20.455-30.423,36.749-50.683,37.23
			c-23.183,0.549-45.501-9.102-60.833-25.854C443.368,178.851,436.544,170.782,438.325,163.312z"/>
	</g>
	<g>
		<path class="st1" d="M487.062,235.059c-0.273,0.012-0.73-0.023-0.611-0.076c9.449,2.268,20.998,0.729,30.682,0.34
			c4.283-0.17,6.646-0.91,10.676,0.248c3.066,0.883,7.768,0.633,10.268,2.105c0.504,0.297,1.5,2.043,2.56,2.695
			c5.281,3.252,10.842,6.504,16.402,9.467c12.023,6.402,25.279,10.072,38.088,15.162c-4.89,0-188.523,0-191.91,0
			c9.436-2.756,57.48-17.926,63.187-22.32c2.396-1.846,8.803-6.014,8.508-8.912c-0.459,0.332-0.477,0.467-0.816,0.99
			c1.018,0.178,1.715-0.137,1.854-0.225"/>
		<path class="st13" d="M455.904,256.053c3.166-0.375,6.283-3.617,8.584-5.719c3.262-2.979,6.76-5.625,9.982-8.637
			c1.891-1.768,3.914-3.16,5.537-4.943c8.17,5.312,20.195,3.475,29.189,5.668c-0.42,0.166-0.799,0.262-1.215,0.377
			c8.74-0.939,17.645-4.824,25.668-8.457c-0.146,0.133-0.365,0.211-0.629,0.27c-1.029,4.309,4.385,9.062,7.064,11.744
			c3.486,3.488,9.674,8.744,13.355,10.787c-7.387-3.059-12.838-8.531-17.898-14.316c0.117,6.357,4.816,13.623,4.229,20.645
			c-0.047-3.426-3.543-5.617-4.953-8.549c-1.652-3.434-0.537-8.602-2.662-11.361c-1.648,1.703-4.199,1.438-6.346,2.527
			c-6.996,3.551-13.205,9.207-20.146,13.062c4.65-7.09,13.527-11.109,18.309-17.748c-3.945,1.416-8.479,2.447-12.863,3.092
			c-7.639,1.125-14.855-1.293-22.309-0.629c3.76-0.098,13.131,3.137,16.551,5.84c-3.969,0.977-16.82-2.906-20.014-6.17
			c0.549,3.332,3.145,6.818,5.412,9.309c2.557,2.809,4.199,5.525,6.334,8.457c-4.557-4.361-9.564-7.098-13.545-12.381
			c-1.824-2.418-4.049-5.08-5.729-7.158c0.912,4.098-6.834,8.572-9.73,10.635c-6.191,4.414-14.197,8.897-21.752,9.695
			c3.783-3.09,9.389-5.117,12.801-8.549"/>
		<g>
			<path class="st2" d="M467.829,240.766c-5.146-0.822-8.195-11.094-8.354-15.832c-0.221-6.664,2.098-8.266,6.689-10.996
				c2.088-1.242,5.655-3.286,8.635-3.389c4.505-0.155,6.844,2.138,9.377,3.598c5.467,3.152,3.289,4.752-2.721,6.66
				c9.615-2.514,6.584,5.256,1.664,8.338c3.402,0.402,5.033,2.99,4.582,6.477c-5.957,2.475-18.889,7.975-23.207,5.145"/>
			<path class="st4" d="M474.8,210.549c2.006-0.168,6.219,0.154,8.049,0.814c1.924,0.697,2.77,0.466,4.51,1.62
				c3.453,2.295,2.29,3.338,0.092,5.441c3.074,1.984,4.014,5.981,0.34,7.197c2.617,0.35,4.295,3.957,1.896,5.674
				c5.166,2.047-7.809,6.617-9.119,7.383c1.561-1.217,2.52-2.115,2.607-4.146c0.074-1.734-0.953-4.611-3.162-3.508
				c4.68,0.451,2.215-7.635-1.338-8.092c1.977-2.125,2.32-4.992,1.047-7.52"/>
			<path class="st1" d="M465.613,214.871c0.275-3.721-10.578-2.393-11.856-7.039c2.203-2.154,22.385-11.518,20.502-3.77
				c-0.43,1.764-2.584,2.666-3.182,4.324c-0.951,2.639,1.643,1.031,3.723,2.162c-3.277-0.014-7.602,2.699-10.307,4.402
				c-0.389,0.396,0.199,0.023,0.309,0.191"/>
		</g>
		<g>
			<path class="st2" d="M539.591,240.435c5.146-0.822,7.103-10.763,7.26-15.503c0.221-6.662-2.096-8.264-6.688-10.994
				c-4.377-2.604-10.342-4.763-16.683-2.986c-6.077,1.702-4.619,7.947,1.391,9.855c-9.613-2.514-6.582,5.256-1.664,8.338
				c-3.4,0.402-5.033,2.99-4.582,6.477c5.959,2.475,17.695,7.58,22.012,4.75"/>
			<path class="st4" d="M531.529,210.549c-2.006-0.168-6.219-0.258-8.049,0.402c-1.924,0.697-3.09,0.877-4.828,2.031
				c-3.455,2.295-1.577,4.68,0.555,5.289c-4.417,1.523-4.344,6.131-0.67,7.35c-2.617,0.35-4.297,3.957-1.898,5.674
				c-5.166,2.047,7.811,6.617,9.121,7.383c-1.561-1.217-2.52-2.115-2.607-4.146c-0.076-1.734,0.951-4.611,3.16-3.508
				c-4.68,0.451-2.215-7.637,1.338-8.092c-1.975-2.125-2.32-4.992-1.045-7.52C527.523,213.592,528.884,211.164,531.529,210.549"/>
			<path class="st1" d="M532.069,204.062c0.428,1.764,2.584,2.666,3.182,4.324c0.951,2.639-0.463,1.098-2.543,2.229
				c2.861-0.012,5.62,2.003,8.075,3.647c0.911-2.975,10.587-2.059,11.789-6.431C550.368,205.678,530.185,196.314,532.069,204.062z"
				/>
		</g>
		<path class="st13" d="M468.806,212.684c-3.77,0.438-6.576-2.035-9.576-3.965c3.957,0.945,7.701,1.766,10.406,3.92
			c-1.082-1.617-2.283-4.746-0.908-6.02c1.162,1.68,2.074,3.768,1.154,5.707"/>
		<path class="st13" d="M538.196,210.435c-0.18,0.393-0.449,0.494-0.365,0.984c-0.172-3.074,0.459-6.324,3.904-7.041
			c0.232,2.367-1.936,3.979-2.766,6.02c2.518-1.773,6.836-4.029,9.949-3.832c-2.377,2.984-8.125,4.545-11.768,5.242
			c0.062-0.523,0.336-0.137,0.688-0.299"/>
	</g>
</g>
<g>
	<path class="st0" d="M253.519,165.477c-1.219,11.062-1.563,20.531-7.851,27.617c-7.898,8.9-17.034,9.412-21.781,23.061
		c-2.938,8.443-10.879,47.256-10.879,47.256c13.206-0.1,170.697,0.44,176.976,0c0,0-5.546-28.871-7.314-37.709
		c-2.617-13.066-11.844-18.412-19.475-21.367c-7.847-3.037-13.631-9.234-16.074-22.217c-2.329-12.371-0.102-23.958-0.504-36.527
		c-13.49,12.953-24.638,30.064-41.488,31.009c-12.521,0.703-26.376,1.389-38.52-4.146c-2.73-1.246-7.601-3.268-9.718-6.436
		c-1.305-1.954-1.481-5.107-2.498-5.399"/>
	<g>
		<path class="st1" d="M207.974,265c0,0,26.008-9.354,41.206-20.076c18.056-12.74,7.505-27.717,53.199-26.4
			c47.779,1.375,38.433,14.229,64.956,33.047c6.686,4.744,22.596,7.797,29.449,13.43h-188.81V265z"/>
		<path class="st13" d="M277.244,228.838c10.126-3.17,20.501-4.668,31.289-4.07c6.727,0.371,12.141,1.729,17.883,4.689
			c1.291,0.666,2.712,1.121,4.023,1.451c-11.211-2.68-22.013-3.445-33.62-3.445c-4.946,0-9.599,0.609-14.426,1.049
			c-1.895,0.174-7.326-0.82-7.9,0.67"/>
		<path class="st13" d="M254.894,245.344c0.057,2.352,0.038,4.617-0.664,6.893c-0.586,1.9-2.36,3.623-2.378,5.459
			c4.187-3.275,6.239-7.785,3.387-12.352"/>
		<path class="st13" d="M358.051,252.564c0.217,3.256,2.422,4.9,4.099,7.17c-1.947,0.293-5.319-0.576-6.186-2.625
			c-0.938-2.213,1.282-4.289,2.096-6.314c-0.291-0.068,0.204,0.205,0.336,0.395"/>
		<path class="st13" d="M266.585,240.873c-2.032,5.705,14.983,10.793,19.496,11.346c-7.511,0.174-13.642-13.898-20.818-11.98
			c-0.04,1.295,0.718,2.221,2.01,2.699"/>
		<path class="st13" d="M341.545,241.561c-2.674,2.059-3.867,6.002-6.894,8.201c-1.716,1.246-4.056,2.631-5.802,3.338
			c3.778-0.717,8.686-1.887,11.338-5.004c2.087-2.453,2.678-6.592,4.074-9.508c-1.669,1.531-3.854,3.23-5.123,5.037"/>
	</g>
	<g>
		<path class="st2" d="M251.22,241.379c-0.561-2.949-6.121-9.551,1.253-8.047c2.955,0.604,6.65,2.74,8.219,5.479
			c4.493,7.846-9.766,4.545-11.517-0.662"/>
		<path class="st2" d="M257.558,236.266c-1.908-2.354-7.267-8.967-0.96-9.486c3.142-0.258,6.864,2.574,8.592,4.953
			c1.505,2.072,2.752,5.307-0.234,6.518c-1.645,0.668-3.588-0.014-5.073-0.795c-1.787-0.941-3.353-4.068-5.447-3.738"/>
		<path class="st2" d="M263.124,229.873c-2.997-2.318-3.962-6.443-1.306-7.893c2.492-1.361,6.184,1.914,7.555,3.674
			c1.301,1.67,2.835,5.281,0.681,6.889c-1.883,1.404-7.057-0.885-6.732-3.58"/>
		<path class="st2" d="M249.092,239.604C240.417,253.498,263.316,242.051,249.092,239.604"/>
		<path class="st14" d="M266.854,231.525c0.664-1.006,1.853-2.09,2.729-2.879c-0.627-1.254-3.328-1.404-4.1-0.129
			c-0.719,1.191,0.364,3.084,1.617,2.805"/>
		<path class="st14" d="M262.168,236.654c0.665-1.006,1.853-2.092,2.729-2.881c-0.627-1.252-3.328-1.402-4.1-0.127
			c-0.719,1.189,0.364,3.084,1.617,2.805"/>
		<path class="st14" d="M256.664,241.818c0.665-1.006,1.853-2.09,2.729-2.879c-0.626-1.254-3.328-1.404-4.1-0.129
			c-0.719,1.191,0.364,3.084,1.617,2.807"/>
		<path class="st14" d="M249.179,244.924c0.48-0.822,1.36-1.695,2.01-2.328c-0.521-1.07-2.603-1.279-3.157-0.234
			c-0.517,0.975,0.375,2.594,1.33,2.4"/>
	</g>
	<g>
		<path class="st2" d="M360.804,246.148c0.88-2.871,7.128-8.824-0.367-8.137c-3.002,0.275-6.909,1.996-8.768,4.549
			c-5.324,7.307,9.211,5.584,11.52,0.598"/>
		<path class="st2" d="M355.062,240.373c2.154-2.133,8.204-8.119,1.991-9.324c-3.095-0.6-7.104,1.809-9.082,3.984
			c-1.723,1.895-3.315,4.973-0.479,6.504c1.561,0.844,3.568,0.379,5.13-0.236c1.879-0.74,3.776-3.678,5.823-3.121"/>
		<path class="st2" d="M350.229,233.41c3.231-1.977,4.643-5.971,2.16-7.703c-2.328-1.625-6.356,1.229-7.911,2.828
			c-1.476,1.516-3.395,4.939-1.43,6.771c1.719,1.602,7.11-0.109,7.082-2.822"/>
		<path class="st2" d="M363.114,244.615C370.219,259.375,348.708,245.494,363.114,244.615"/>
		<path class="st14" d="M346.341,234.645c-0.552-1.072-1.615-2.281-2.398-3.16c0.759-1.178,3.461-1.031,4.088,0.32
			c0.586,1.264-0.697,3.025-1.913,2.611"/>
		<path class="st14" d="M350.438,240.254c-0.55-1.072-1.612-2.279-2.398-3.16c0.761-1.176,3.462-1.031,4.09,0.32
			c0.585,1.264-0.699,3.025-1.913,2.613"/>
		<path class="st14" d="M355.345,245.99c-0.551-1.072-1.613-2.281-2.398-3.16c0.76-1.178,3.462-1.031,4.089,0.32
			c0.585,1.262-0.698,3.025-1.913,2.611"/>
		<path class="st14" d="M362.445,249.893c-0.387-0.867-1.166-1.832-1.743-2.533c0.635-1.004,2.728-0.986,3.164,0.113
			c0.407,1.025-0.657,2.537-1.584,2.24"/>
	</g>
	<g>
		<path class="st3" d="M361.391,107.101c3.34-2.692,9.824-10.078,14.592-6.949c3.73,2.447,2.486,10.488,1.305,13.655
			c-3.26,8.734-14.046,14.089-22.098,17.076c-1.003-0.381,0.57-0.336,0.84-0.802"/>
		<path class="st0" d="M230.641,130.96c0,36.223,29.364,65.587,65.585,65.587l0,0c36.222,0,65.586-29.363,65.586-65.587v-19.662
			c0-36.223-29.127-68.884-65.349-68.884l-1.415,1.06c-36.222,0-64.409,31.602-64.409,67.824v19.662H230.641z"/>
		<path d="M238.604,86.015c1.85-2.11,2.703-1.713,3.157-4.469c1.185-7.19,1.697-11.456,7.294-16.873
			c10.812-10.465,35.473-16.137,50.08-16.586c1.629-26.076-52.097-40.209-65.936-19.917c-13.985,20.506-3.695,37.005,1.686,59.881"
			/>
		<path d="M354.86,86.177c-1.851-2.11-2.035-1.813-2.488-4.569c-1.186-7.19-2.773-11.518-8.371-16.935
			c-10.812-10.465-35.473-16.137-50.08-16.586c-1.629-26.076,52.098-40.209,65.936-19.917c13.986,20.506,5.1,41.366-0.281,64.242"/>
		<path d="M295.094,45.713c10.487-0.279,31.257,6.084,35.876,16.666c3.593,8.232-2.701,11.942-8.269,16.522
			c3.73-1.445,11.461-4.875,13.014-9.002c2.449-6.509-3.336-8.8-8.164-12.311c-9.392-6.829-22.274-11.974-34.001-11.165
			c-2.664-6.373,2.517-14.599,7.34-19.047c10.355-9.549,19.602-7.346,30.785-2.626c-10.073-19.184-41.517-9.283-38.248,11.081
			c0-6.73,2.27-15.317-4.166-17.615c-6.794-2.426-14.236,4.838-18.874,7.58c5.271-2.396,10.549-2.89,16.251-2.46
			c0.931,5.414,7.784,13.315,9.289,16.543"/>
		<path class="st3" d="M231.761,108.213c-7.695-6.491-15.955-12.519-16.663,1.666c-0.415,8.309,6.75,20.67,16.538,19.041
			c0.579-7.023-2.268-15.49,0.126-21.541"/>
		<path class="st5" d="M292.078,157.418h8.772C300.85,157.418,295.456,163.301,292.078,157.418z"/>
		<ellipse class="st5" cx="295.05" cy="172.047" rx="16.738" ry="7.916"/>
		<ellipse class="st6" cx="295.05" cy="168.379" rx="16.738" ry="7.916"/>
		<path class="st7" d="M262.87,102.154c0,3.346,4.439,6.06,9.915,6.06c5.476,0,9.914-2.714,9.914-6.06
			c0-3.348-4.438-6.062-9.914-6.062C267.309,96.092,262.87,98.806,262.87,102.154z"/>
		<path class="st7" d="M305.186,102.443c0,3.188,4.439,5.771,9.915,5.771c5.476,0,9.914-2.583,9.914-5.771
			c0-3.187-4.438-5.77-9.914-5.77C309.625,96.673,305.186,99.256,305.186,102.443z"/>
		<path d="M258.091,76.938c0,0,13.957-5.833,24.591,0C282.682,76.938,268.7,67.772,258.091,76.938z"/>
		<path d="M329.793,76.938c0,0-13.957-5.833-24.59,0C305.203,76.938,319.185,67.772,329.793,76.938z"/>
		<path class="st12" d="M267.667,101.21c0-2.826,2.291-5.117,5.117-5.117s5.117,2.291,5.117,5.117s-2.291,5.117-5.117,5.117
			C269.958,106.327,267.667,104.036,267.667,101.21z"/>
		<path class="st12" d="M309.983,101.21c0-2.826,2.29-5.117,5.117-5.117c2.826,0,5.117,2.291,5.117,5.117s-2.291,5.117-5.117,5.117
			C312.274,106.327,309.983,104.036,309.983,101.21z"/>
		<path d="M270.386,101.21c0-1.324,1.074-2.398,2.398-2.398s2.398,1.073,2.398,2.398c0,1.324-1.074,2.397-2.398,2.397
			S270.386,102.534,270.386,101.21z"/>
		<path d="M312.702,101.21c0-1.324,1.073-2.398,2.397-2.398s2.398,1.073,2.398,2.398c0,1.324-1.074,2.397-2.398,2.397
			C313.776,103.607,312.702,102.534,312.702,101.21z"/>
		<path class="st4" d="M288.488,141.492c-3.862,3.502-0.482,8.75,3.436,10.309c3.143,1.25,9.079,0.343,11.382-2.348
			c2.268-2.649,1.582-10.196-2.513-10.48c-1.799-0.124-5.007,1.33-7.166,1.438c-1.819,0.091-5.166,0.304-6.284-0.351"/>
		<path class="st4" d="M287.996,141.857c1.012-4.223,3.249-11.793,8.992-9.496c3.312,1.324,4.238,5.161,6.055,7.877
			c-2.478,0.18-4.934,0.368-7.4,0.495c-2.217,0.114-6.086-0.38-7.872,0.899"/>
		<path d="M292.405,141.342c-1.857-1.163,2.453-7.648,5.477-3.727c0.691,0.897,0.51,2.188,1.783,2.677
			c1.403,0.538,2.972-0.618,4.134-1.148c-1.586,1.332-2.884,2.637-3.693,4.682c-0.852,2.153-1.209,5.041-3.974,5.271
			c-2.487,0.207-3.188-1.883-4.168-3.781c-1.103-2.137-2.469-2.631-4.189-4.241c1.64,0.041,3.303-0.255,4.631-0.23"/>
		<path class="st0" d="M254.258,112.914c0,4.806,7.09,8.701,15.835,8.701c8.746,0,15.836-3.896,15.836-8.701
			c0-4.805-7.09-8.7-15.836-8.7C261.347,104.213,254.258,108.109,254.258,112.914z"/>
		<path class="st0" d="M307.114,111.114c0,4.806,7.089,8.701,15.835,8.701s15.836-3.896,15.836-8.701c0-4.805-7.09-8.7-15.836-8.7
			S307.114,106.309,307.114,111.114z"/>
		<path class="st6" d="M289.128,128.794c-1.526-0.033-3.189,0.635-4.698,0.098c-2.104-0.748-2.063-2.722-1.307-4.413
			c0.731-1.635,2.594-3.262,4.576-3.099c1.377,0.113,2.176,1.489,3.324,1.642c0.294-1.706,3.409-2.784,4.905-2.637
			c1.597,0.158,2.573,1.395,2.781,2.867c1.308-2.383,5.115-2.409,6.941-0.881c1.949,1.632,2.875,4.684-0.16,5.684
			c-1.252,0.412-2.745,0.341-4.088,0.355c-2.123,0.023-4.253,0.221-6.395,0.135c-2.014-0.082-6.077-0.716-7.925,0.121"/>
		<path class="st10" d="M285.929,126.883c0,1.688,0.826,3.055,1.845,3.055c1.019,0,1.845-1.367,1.845-3.055
			s-0.826-3.055-1.845-3.055C286.755,123.829,285.929,125.196,285.929,126.883z"/>
		<ellipse class="st10" cx="303.342" cy="126.741" rx="1.845" ry="3.055"/>
		<path class="st9" d="M237.654,155.588c21.789,38.968,89.197,35.109,116.559,4.162c-5.302,20.455-30.423,36.749-50.683,37.23
			c-23.183,0.549-45.502-9.102-60.833-25.854C242.697,171.126,235.874,163.058,237.654,155.588z"/>
	</g>
</g>
</svg>
