<?xml version="1.0" encoding="utf-8"?>
<!-- Generator: Adobe Illustrator 22.0.1, SVG Export Plug-In . SVG Version: 6.00 Build 0)  -->
<svg version="1.1" id="Ebene_1" xmlns="http://www.w3.org/2000/svg" xmlns:xlink="http://www.w3.org/1999/xlink" x="0px" y="0px"
	 width="400px" height="265px" viewBox="0 0 400 265" style="enable-background:new 0 0 400 265;" xml:space="preserve">
<style type="text/css">
	.st0{fill:#F8C29D;}
	.st1{fill:#E872A5;}
	.st2{fill:#BD5E88;}
	.st3{fill:#F4AA92;}
	.st4{fill:#FDE6C4;}
	.st5{fill:#E9AC94;}
	.st6{fill:#F3A690;}
	.st7{fill:#C38D79;}
	.st8{fill:#FBDABC;}
	.st9{fill:#C9AF2A;}
	.st10{fill:#896B28;}
	.st11{fill:#F4AE94;}
	.st12{fill:#9A881F;}
	.st13{fill:#846153;}
	.st14{fill:#FFFFFF;}
	.st15{fill:#D89C85;}
	.st16{fill:none;stroke:#000000;stroke-miterlimit:10;}
	.st17{fill:#E6530F;}
</style>
<g>
	<path class="st0" d="M52.158,165.477c-1.219,11.062-1.563,20.531-7.851,27.617c-7.898,8.9-17.034,9.412-21.781,23.061
		c-2.938,8.443-10.879,47.256-10.879,47.256c13.206-0.1,170.696,0.439,176.976,0c0,0-5.545-28.871-7.314-37.709
		c-2.617-13.066-11.844-18.412-19.475-21.367c-7.846-3.037-13.631-9.234-16.074-22.217c-2.328-12.371-0.102-23.959-0.504-36.527
		c-13.49,12.953-24.637,30.064-41.487,31.01c-12.521,0.703-26.376,1.389-38.52-4.146c-2.73-1.246-7.601-3.268-9.718-6.436
		c-1.305-1.955-1.481-5.107-2.498-5.4"/>
	<g>
		<path class="st1" d="M6.613,265c0,0,26.008-9.354,41.206-20.076c18.056-12.74,7.505-27.717,53.199-26.4
			c47.779,1.375,38.434,14.229,64.955,33.047c6.686,4.744,22.596,7.797,29.449,13.43H6.613V265z"/>
		<path class="st2" d="M75.884,228.838c10.126-3.17,20.5-4.668,31.289-4.07c6.727,0.371,12.141,1.729,17.883,4.689
			c1.291,0.666,2.713,1.121,4.023,1.451c-11.211-2.68-22.013-3.445-33.62-3.445c-4.946,0-9.599,0.609-14.426,1.049
			c-1.895,0.174-7.326-0.82-7.9,0.67"/>
		<path class="st2" d="M53.533,245.344c0.057,2.352,0.038,4.617-0.664,6.893c-0.586,1.9-2.36,3.623-2.378,5.459
			c4.187-3.275,6.239-7.785,3.387-12.352"/>
		<path class="st2" d="M156.69,252.564c0.217,3.256,2.422,4.9,4.1,7.17c-1.947,0.293-5.32-0.576-6.188-2.625
			c-0.938-2.213,1.283-4.289,2.096-6.314c-0.291-0.068,0.205,0.205,0.336,0.395"/>
		<path class="st2" d="M65.224,240.873c-2.032,5.705,14.983,10.793,19.496,11.346c-7.511,0.174-13.642-13.898-20.818-11.98
			c-0.041,1.295,0.718,2.221,2.01,2.699"/>
		<path class="st2" d="M140.184,241.561c-2.674,2.059-3.867,6.002-6.893,8.201c-1.717,1.246-4.057,2.631-5.803,3.338
			c3.779-0.717,8.686-1.887,11.338-5.004c2.088-2.453,2.678-6.592,4.074-9.508c-1.668,1.531-3.854,3.23-5.123,5.037"/>
	</g>
	<g>
		<path class="st3" d="M49.86,241.379c-0.562-2.949-6.121-9.551,1.253-8.047c2.955,0.604,6.65,2.74,8.219,5.479
			c4.493,7.846-9.766,4.545-11.517-0.662"/>
		<path class="st3" d="M56.198,236.266c-1.908-2.354-7.267-8.967-0.96-9.486c3.142-0.258,6.864,2.574,8.592,4.953
			c1.505,2.072,2.751,5.307-0.234,6.518c-1.645,0.668-3.588-0.014-5.073-0.795c-1.787-0.941-3.353-4.068-5.447-3.738"/>
		<path class="st3" d="M61.763,229.873c-2.997-2.318-3.962-6.443-1.306-7.893c2.492-1.361,6.184,1.914,7.555,3.674
			c1.301,1.67,2.835,5.281,0.681,6.889c-1.883,1.404-7.057-0.885-6.731-3.58"/>
		<path class="st3" d="M47.731,239.604C39.056,253.498,61.955,242.051,47.731,239.604"/>
		<path class="st4" d="M65.493,231.525c0.664-1.006,1.853-2.09,2.729-2.879c-0.626-1.254-3.328-1.404-4.1-0.129
			c-0.719,1.191,0.364,3.084,1.617,2.805"/>
		<path class="st4" d="M60.807,236.654c0.665-1.006,1.853-2.092,2.729-2.881c-0.626-1.252-3.328-1.402-4.1-0.127
			c-0.719,1.189,0.364,3.084,1.617,2.805"/>
		<path class="st4" d="M55.303,241.818c0.665-1.006,1.853-2.09,2.729-2.879c-0.626-1.254-3.328-1.404-4.1-0.129
			c-0.719,1.191,0.364,3.084,1.617,2.807"/>
		<path class="st4" d="M47.819,244.924c0.48-0.822,1.36-1.695,2.01-2.328c-0.521-1.07-2.603-1.279-3.157-0.234
			c-0.517,0.975,0.375,2.594,1.33,2.4"/>
	</g>
	<g>
		<path class="st3" d="M159.444,246.148c0.879-2.871,7.127-8.824-0.367-8.137c-3.002,0.275-6.91,1.996-8.768,4.549
			c-5.324,7.307,9.211,5.584,11.52,0.598"/>
		<path class="st3" d="M153.701,240.373c2.154-2.133,8.203-8.119,1.99-9.324c-3.094-0.6-7.104,1.809-9.082,3.984
			c-1.723,1.895-3.314,4.973-0.479,6.504c1.561,0.844,3.568,0.379,5.129-0.236c1.879-0.74,3.777-3.678,5.824-3.121"/>
		<path class="st3" d="M148.867,233.41c3.232-1.977,4.643-5.971,2.16-7.703c-2.328-1.625-6.355,1.229-7.91,2.828
			c-1.477,1.516-3.395,4.939-1.43,6.771c1.719,1.602,7.109-0.109,7.082-2.822"/>
		<path class="st3" d="M161.754,244.615C168.858,259.375,147.348,245.494,161.754,244.615"/>
		<path class="st4" d="M144.981,234.645c-0.553-1.072-1.615-2.281-2.398-3.16c0.758-1.178,3.461-1.031,4.088,0.32
			c0.586,1.264-0.697,3.025-1.914,2.611"/>
		<path class="st4" d="M149.076,240.254c-0.549-1.072-1.611-2.279-2.398-3.16c0.762-1.176,3.463-1.031,4.09,0.32
			c0.586,1.264-0.699,3.025-1.912,2.613"/>
		<path class="st4" d="M153.985,245.99c-0.551-1.072-1.613-2.281-2.398-3.16c0.76-1.178,3.461-1.031,4.088,0.32
			c0.586,1.262-0.697,3.025-1.912,2.611"/>
		<path class="st4" d="M161.084,249.893c-0.387-0.867-1.166-1.832-1.744-2.533c0.635-1.004,2.729-0.986,3.164,0.113
			c0.408,1.025-0.656,2.537-1.584,2.24"/>
	</g>
	<g>
		<path class="st5" d="M79.14,193.643c15.302,6.417,34.177,3.214,46.506-7.892c3.45-3.108,6.393-6.748,8.974-10.608
			c5.273-7.883,9.082-16.742,11.176-25.992c-6.324,11.805-20.499,16.796-33.625,19.45c-10.849,2.193-22.031,3.49-32.984,1.896
			c-9.284-1.351-21.571-15.497-29.341-20.5C46.051,162.956,68.416,189.146,79.14,193.643z"/>
		<g>
			<path class="st6" d="M34.029,98.834c-1.001-4.343-4.212-8.115-8.338-9.798c-0.967-0.394-2.118-0.665-3.016-0.133
				c-0.934,0.554-1.229,1.752-1.367,2.829c-0.979,7.675,1.676,15.298,4.289,22.581c3.779,10.531,7.75,21.382,15.408,29.539
				c0.745,0.794,1.63,1.608,2.718,1.652c1.497,0.061,2.61-1.323,3.395-2.599c2.633-4.284,4.574-8.992,5.726-13.887"/>
			<path class="st6" d="M154.815,101.918c1.001-4.343,4.212-8.115,8.339-9.798c0.967-0.394,2.118-0.665,3.016-0.133
				c0.934,0.554,1.229,1.752,1.366,2.829c0.979,7.675-1.675,15.298-4.289,22.581c-3.779,10.531-7.75,21.382-15.408,29.54
				c-0.745,0.794-1.63,1.608-2.718,1.652c-1.497,0.061-2.61-1.323-3.395-2.599c-2.633-4.284-4.574-8.992-5.726-13.887"/>
			<ellipse class="st0" cx="94.814" cy="81.823" rx="65.795" ry="66.942"/>
			<polygon class="st0" points="30.549,98.155 57.457,166.255 134.375,165.597 159.935,96.729 			"/>
			<ellipse class="st0" cx="97.864" cy="163.777" rx="27.763" ry="10.989"/>
			<path class="st7" d="M107.046,152.313c-1.091,0.987-0.338,5.229,0.411,6.495c0.749,1.266,1.045,0.323,2.433,0.811
				c-12.323-0.444-11.637-0.28-23.92,0.811c2.673-0.237,0.917-6.251,2.945-7.163c2.314-1.04,1.699,2.146,3.3,4.098
				C96.143,162.152,100.048,164.082,107.046,152.313z"/>
			<path class="st8" d="M82.213,121.224c-1.819-0.301-7.341,5.01-7.23,6.85c0.191,3.166,8.805,3.937,11.615,5.408
				c3.018,1.581,0.503,4.702,3.314,6.627s15.359,1.882,16.387-1.366c0.507-1.604-0.149-3.414,0.41-5.001
				c0.914-2.598,4.261-3.093,6.935-3.752s5.697-3.244,4.318-5.628c-0.745-1.289-4.878-4.87-6.248-5.452
				c-4.842-2.057-13.991-28.812-15.273-35.657c-1.386-7.407,3.479-14.411,3.776-13.774c0.149,0.318,0.052-0.67-0.298-0.637
				l-17.613,1.805c0,0,5.348,9.041,5.348,12.607C87.654,96.171,83.756,116.982,82.213,121.224z"/>
			<path class="st7" d="M80.067,130.45c0,0.902,1.149,1.633,2.566,1.633s2.566-0.731,2.566-1.633s-1.149-1.633-2.566-1.633
				S80.067,129.548,80.067,130.45z"/>
			<path class="st7" d="M107.605,128.936c0,0.902,1.149,1.633,2.566,1.633c1.417,0,2.566-0.731,2.566-1.633
				s-1.149-1.633-2.566-1.633S107.605,128.034,107.605,128.936z"/>
			<path class="st7" d="M86.974,137.996c-2.38,1.014-6.032-3.659-7.181-5.976c-0.43-0.867-0.546-2.053,0.183-2.689
				c0.874-0.763,4.359,0.346,5.223,1.12C86.633,131.735,86.724,136.086,86.974,137.996"/>
			<path class="st7" d="M107.286,134.802c-0.035-1.357-0.13-2.732,0.161-4.058c0.291-1.326,1.039-2.628,2.261-3.219
				s2.934-0.221,3.529,0.999c0.536,1.099,0.051,2.424-0.617,3.448c-1.223,1.874-3.314,4.92-5.42,5.675
				c-0.33,0.207-0.283-2.188,0.105-2.155"/>
			<path class="st9" d="M44.147,62.828c-5.675,9.505-10.066,17.796-14.311,28.02c-2.317-12.832,0.89-29.751,8.911-43.485
				C52.243,24.252,52.022,49.64,44.147,62.828z"/>
			<path class="st9" d="M88.664,15.59c18.112-1.76,36.862,4.686,50.065,17.208c1.87,1.773,3.76,4.003,3.534,6.57
				c-8.395-0.423-15.095-6.735-22.161-11.288c-7.473-4.815-16.059-7.89-24.89-8.915c-3.547-0.411-7.189-0.49-10.64,0.427
				c-6.146,1.633-11.001,6.183-16.24,9.787c-4.147,2.852-21.311,15.669-26.199,12.102C46.608,29.084,76.973,16.726,88.664,15.59z"/>
			<path class="st9" d="M145.48,39.271c-1.936,5.374-0.82,11.407,1.344,16.693s5.321,10.11,7.659,15.321
				c4.378,9.76,5.761,20.839,3.919,31.375c1.512-3.194,1.759-6.819,1.971-10.346c0.571-9.474,1.058-19.138-1.376-28.311
				c-3.187-12.015-11.524-22.57-22.474-28.454"/>
			<path class="st10" d="M52.301,33.964c-3.273,1.478-6.751,3.134-8.565,6.234c-0.29,0.497-0.536,1.095-0.334,1.634
				c0.464,1.24,2.154,0.333,3.42-0.054c12.063-3.683,23.121-13.622,30.954-19.01C72.141,26.096,58.282,31.299,52.301,33.964z"/>
			<path class="st9" d="M30.315,87.478c-0.777,6.237,0.354,12.698,3.201,18.3c-0.44-8.417-0.608-16.848-0.503-25.276
				c-0.341,0.184-0.594,0.522-0.674,0.901"/>
			<path class="st11" d="M60.732,165.432c-1.113-0.44-2.43-0.328-3.452,0.295c-0.654,0.399-19.069-42.62-20.533-46.652
				c-1.495-4.119-7.866-14.572-1.772-16.06c2.23-0.545,5.408,1.168,7.448,1.838c4.291,1.409,7.619,1.881,12.102,1.199
				C58.7,125.053,58.749,146.031,60.732,165.432z"/>
			<path class="st11" d="M130.222,165.668c0,0,3.416-0.139,4.044,0.279c0.638,0.425,14.879-9.238,19.76-48.19
				c0.545-4.348,7.866-14.572,1.772-16.06c-2.23-0.544-5.408,1.168-7.448,1.838c-4.291,1.409-7.619,1.881-12.102,1.199
				C132.074,123.733,132.205,146.266,130.222,165.668z"/>
			<ellipse class="st0" cx="53.037" cy="104.722" rx="22.295" ry="15.307"/>
			<ellipse class="st0" cx="136.562" cy="100.729" rx="22.295" ry="15.307"/>
			<path class="st12" d="M125.189,30.965c3.119,2.452,6.57,4.48,10.23,6.011c-4.202-3.378-8.404-6.755-12.606-10.132
				c5.667,2.918,11.108,6.277,16.256,10.037c-4.507-4.6-9.45-8.773-14.74-12.445c5.691,0.897,10.84,4.056,14.987,8.055
				s7.397,8.822,10.494,13.68c-3.602-5.473-7.02-3.99-12.527-5.815c-2.55-0.845-4.956-2.14-7.065-3.805
				C128.244,34.992,127.048,32.427,125.189,30.965z"/>
			<g>
				<g>
					<path class="st7" d="M73.065,52.583c3.871,2.868,8.433,17.173,11.177,20.583L46.93,77.071
						C49.749,71.789,70.366,50.583,73.065,52.583z"/>
					<path class="st13" d="M77.482,54.792c-0.293-0.449-3.958-1.93-4.417-2.208C72.103,52,71.017,53.93,69.973,54.35
						c-3.802,1.529-5.468,3.433-8.319,6.377c7.015-2.432,14.364,5.788,19.081,10.987c2.135,2.352,4.186,3.315,2.585-0.624
						C81.879,67.541,79.57,57.99,77.482,54.792z"/>
				</g>
				<circle class="st14" cx="70.857" cy="73.342" r="5.742"/>
				<path class="st0" d="M70.75,69.591c4.629-0.024,4.425,2.374,6.016,4.37c0.781-2.987-1.066-6.42-3.988-7.414
					c-2.743-0.933-10.193-0.47-8.798,8.835C65.536,74.244,66.067,69.615,70.75,69.591z"/>
				<path d="M68.477,73.342c0-1.314,1.065-2.38,2.38-2.38c1.314,0,2.38,1.065,2.38,2.38c0,1.314-1.065,2.379-2.38,2.379
					C69.543,75.721,68.477,74.656,68.477,73.342z"/>
			</g>
			<g>
				<g>
					<path class="st7" d="M108.683,50.993c-3.871,2.868-8.433,17.173-11.177,20.583l37.312,3.906
						C132,70.198,111.383,48.993,108.683,50.993z"/>
					<path class="st13" d="M104.267,53.201c0.293-0.449,3.958-1.93,4.417-2.208c0.962-0.583,2.048,1.347,3.092,1.767
						c3.802,1.529,5.468,3.433,8.319,6.377c-7.015-2.432-14.364,5.788-19.081,10.987c-2.135,2.352-4.186,3.315-2.585-0.624
						C99.87,65.95,102.178,56.4,104.267,53.201z"/>
				</g>
				<circle class="st14" cx="110.892" cy="71.752" r="5.742"/>
				<path class="st0" d="M110.998,68c-4.629-0.024-4.425,2.374-6.016,4.37c-0.781-2.987,1.066-6.419,3.989-7.414
					c2.743-0.933,10.193-0.47,8.798,8.835C116.213,72.654,115.681,68.025,110.998,68z"/>
				<path d="M113.271,71.752c0-1.314-1.065-2.38-2.38-2.38c-1.314,0-2.379,1.065-2.379,2.38c0,1.314,1.065,2.38,2.379,2.38
					C112.206,74.131,113.271,73.066,113.271,71.752z"/>
			</g>
			<path d="M94.683,152.788c0-1.757,1.424-3.181,3.181-3.181s3.181,1.424,3.181,3.181s-1.424,3.181-3.181,3.181
				C96.107,155.969,94.683,154.544,94.683,152.788z"/>
		</g>
	</g>
</g>
<g>
	<path class="st0" d="M252.463,165.574c-1.219,11.062-1.564,20.531-7.851,27.617c-7.899,8.9-17.033,9.412-21.781,23.061
		c-2.938,8.443-10.878,47.256-10.878,47.256c13.206-0.1,170.697,0.439,176.976,0c0,0-5.545-28.871-7.314-37.709
		c-2.617-13.066-11.844-18.412-19.475-21.367c-7.846-3.037-13.631-9.234-16.074-22.217c-2.328-12.371-0.102-23.959-0.504-36.527
		c-13.49,12.953-24.637,30.064-41.488,31.01c-12.519,0.703-26.375,1.389-38.519-4.146c-2.731-1.246-7.602-3.268-9.719-6.436
		c-1.305-1.955-1.48-5.107-2.496-5.4"/>
	<g>
		<path class="st1" d="M285.993,235.059c-0.273,0.012-0.73-0.023-0.611-0.076c9.449,2.268,20.998,0.729,30.682,0.34
			c4.283-0.17,6.646-0.91,10.676,0.248c3.066,0.883,7.768,0.633,10.268,2.105c0.504,0.297,1.5,2.043,2.56,2.695
			c5.281,3.252,10.842,6.504,16.402,9.467c12.023,6.402,25.279,10.072,38.088,15.162c-5.13,0-186.11,0-189.48,0
			c9.436-2.756,55.05-17.926,60.757-22.32c2.396-1.846,8.803-6.014,8.508-8.912c-0.459,0.332-0.477,0.467-0.816,0.99
			c1.018,0.178,1.715-0.137,1.854-0.225"/>
		<path class="st2" d="M254.835,256.053c3.166-0.375,6.283-3.617,8.584-5.719c3.262-2.979,6.76-5.625,9.982-8.637
			c1.891-1.768,3.914-3.16,5.537-4.943c8.17,5.312,20.195,3.475,29.189,5.668c-0.42,0.166-0.799,0.262-1.215,0.377
			c8.74-0.939,17.645-4.824,25.668-8.457c-0.146,0.133-0.365,0.211-0.629,0.27c-1.029,4.309,4.385,9.062,7.064,11.744
			c3.486,3.488,9.674,8.744,13.355,10.787c-7.387-3.059-12.838-8.531-17.898-14.316c0.117,6.357,4.816,13.623,4.229,20.645
			c-0.047-3.426-3.543-5.617-4.953-8.549c-1.652-3.434-0.537-8.602-2.662-11.361c-1.648,1.703-4.199,1.438-6.346,2.527
			c-6.996,3.551-13.205,9.207-20.146,13.062c4.65-7.09,13.527-11.109,18.309-17.748c-3.945,1.416-8.479,2.447-12.863,3.092
			c-7.639,1.125-14.855-1.293-22.309-0.629c3.76-0.098,13.131,3.137,16.551,5.84c-3.969,0.977-16.82-2.906-20.014-6.17
			c0.549,3.332,3.145,6.818,5.412,9.309c2.557,2.809,4.199,5.525,6.334,8.457c-4.557-4.361-9.564-7.098-13.545-12.381
			c-1.824-2.418-4.049-5.08-5.729-7.158c0.912,4.098-6.834,8.572-9.73,10.635c-6.191,4.414-14.197,8.897-21.752,9.695
			c3.783-3.09,9.389-5.117,12.801-8.549"/>
		<g>
			<path class="st3" d="M266.761,240.766c-5.146-0.822-8.195-11.094-8.354-15.832c-0.221-6.664,2.098-8.266,6.689-10.996
				c2.088-1.242,5.655-3.286,8.635-3.389c4.505-0.155,6.844,2.138,9.377,3.598c5.467,3.152,3.289,4.752-2.721,6.66
				c9.615-2.514,6.584,5.256,1.664,8.338c3.402,0.402,5.033,2.99,4.582,6.477c-5.957,2.475-18.889,7.975-23.207,5.145"/>
			<path class="st15" d="M273.732,210.549c2.006-0.168,6.219,0.154,8.049,0.814c1.924,0.697,2.77,0.466,4.51,1.62
				c3.453,2.295,2.29,3.338,0.092,5.441c3.074,1.984,4.014,5.981,0.34,7.197c2.617,0.35,4.295,3.957,1.896,5.674
				c5.166,2.047-7.809,6.617-9.119,7.383c1.56-1.217,2.52-2.115,2.607-4.146c0.074-1.734-0.953-4.611-3.162-3.508
				c4.68,0.451,2.215-7.635-1.338-8.092c1.977-2.125,2.32-4.992,1.047-7.52"/>
			<path class="st1" d="M264.544,214.871c0.275-3.721-10.578-2.393-11.856-7.039c2.203-2.154,22.385-11.518,20.502-3.77
				c-0.43,1.764-2.584,2.666-3.182,4.324c-0.951,2.639,1.643,1.031,3.723,2.162c-3.277-0.014-7.602,2.699-10.307,4.402
				c-0.389,0.396,0.199,0.023,0.309,0.191"/>
		</g>
		<g>
			<path class="st3" d="M338.523,240.435c5.146-0.822,7.103-10.763,7.26-15.503c0.221-6.662-2.096-8.264-6.688-10.994
				c-4.377-2.604-10.342-4.763-16.684-2.986c-6.077,1.702-4.619,7.947,1.391,9.855c-9.613-2.514-6.582,5.256-1.664,8.338
				c-3.4,0.402-5.033,2.99-4.582,6.477c5.959,2.475,17.695,7.58,22.012,4.75"/>
			<path class="st15" d="M330.46,210.549c-2.006-0.168-6.219-0.258-8.049,0.402c-1.924,0.697-3.09,0.877-4.828,2.031
				c-3.455,2.295-1.578,4.68,0.555,5.289c-4.417,1.523-4.344,6.131-0.67,7.35c-2.617,0.35-4.297,3.957-1.898,5.674
				c-5.166,2.047,7.811,6.617,9.121,7.383c-1.561-1.217-2.52-2.115-2.608-4.146c-0.076-1.734,0.951-4.611,3.16-3.508
				c-4.68,0.451-2.215-7.637,1.338-8.092c-1.975-2.125-2.32-4.992-1.045-7.52C326.454,213.592,327.816,211.164,330.46,210.549"/>
			<path class="st1" d="M331.001,204.062c0.428,1.764,2.584,2.666,3.182,4.324c0.951,2.639-0.463,1.098-2.543,2.229
				c2.861-0.012,5.62,2.003,8.075,3.647c0.911-2.975,10.587-2.059,11.789-6.431C349.3,205.678,329.116,196.314,331.001,204.062z"/>
		</g>
		<path class="st2" d="M267.738,212.684c-3.77,0.438-6.576-2.035-9.576-3.965c3.957,0.945,7.701,1.766,10.406,3.92
			c-1.082-1.617-2.283-4.746-0.908-6.02c1.162,1.68,2.074,3.768,1.154,5.707"/>
		<path class="st2" d="M337.128,210.435c-0.18,0.393-0.449,0.494-0.365,0.984c-0.172-3.074,0.459-6.324,3.904-7.041
			c0.232,2.367-1.936,3.979-2.766,6.02c2.518-1.773,6.836-4.029,9.949-3.832c-2.377,2.984-8.125,4.545-11.768,5.242
			c0.062-0.523,0.336-0.137,0.688-0.299"/>
	</g>
	<g>
		<path class="st5" d="M278.635,190.101c15.302,6.417,34.177,3.214,46.506-7.892c3.45-3.108,6.393-6.748,8.974-10.608
			c5.273-7.883,9.082-16.742,11.176-25.992c-6.324,11.805-20.499,16.796-33.626,19.45c-10.849,2.193-22.031,3.49-32.984,1.896
			c-9.284-1.351-21.571-15.497-29.341-20.5C245.546,159.414,267.911,185.604,278.635,190.101z"/>
		<g>
			<path class="st6" d="M236.208,104.715c-1.001-4.343-4.212-8.115-8.339-9.798c-0.967-0.394-2.118-0.665-3.016-0.133
				c-0.934,0.554-1.229,1.752-1.366,2.829c-0.979,7.675,1.676,15.298,4.289,22.581c3.779,10.531,7.75,21.382,15.408,29.539
				c0.745,0.794,1.63,1.608,2.718,1.652c1.497,0.061,2.61-1.323,3.395-2.599c2.633-4.284,4.574-8.992,5.726-13.887"/>
			<path class="st6" d="M356.994,107.799c1.001-4.343,4.212-8.115,8.339-9.798c0.967-0.394,2.118-0.665,3.016-0.133
				c0.934,0.554,1.229,1.752,1.367,2.829c0.979,7.675-1.676,15.298-4.289,22.581c-3.779,10.531-7.75,21.382-15.408,29.539
				c-0.745,0.794-1.63,1.608-2.718,1.652c-1.497,0.061-2.61-1.323-3.395-2.599c-2.633-4.284-4.574-8.992-5.726-13.887"/>
			<ellipse class="st0" cx="296.993" cy="87.704" rx="65.795" ry="66.942"/>
			<polygon class="st0" points="232.728,104.037 259.636,172.136 336.554,171.478 362.115,102.611 			"/>
			<ellipse class="st0" cx="300.043" cy="169.658" rx="27.763" ry="10.989"/>
			<path class="st8" d="M284.393,127.105c-1.819-0.301-7.341,5.01-7.23,6.85c0.191,3.166,8.805,3.936,11.615,5.408
				c3.018,1.581,0.503,4.702,3.314,6.627s15.359,1.882,16.386-1.366c0.507-1.604-0.148-3.414,0.41-5.001
				c0.914-2.598,4.261-3.093,6.935-3.752s5.697-3.244,4.318-5.628c-0.745-1.289-4.878-4.87-6.248-5.452
				c-4.842-2.057-13.991-28.812-15.272-35.657c-1.387-7.407,3.479-14.411,3.776-13.774c0.149,0.318,0.052-0.67-0.298-0.637
				l-17.613,1.805c0,0,5.348,9.041,5.348,12.607C289.833,102.053,285.935,122.864,284.393,127.105z"/>
			<path class="st7" d="M282.246,136.331c0,0.902,1.149,1.633,2.566,1.633s2.566-0.731,2.566-1.633s-1.149-1.633-2.566-1.633
				S282.246,135.429,282.246,136.331z"/>
			<path class="st7" d="M309.784,134.818c0,0.902,1.149,1.633,2.566,1.633s2.566-0.731,2.566-1.633s-1.149-1.633-2.566-1.633
				S309.784,133.916,309.784,134.818z"/>
			<path class="st7" d="M289.154,143.877c-2.38,1.014-6.032-3.658-7.181-5.976c-0.43-0.867-0.546-2.053,0.183-2.689
				c0.874-0.763,4.359,0.346,5.223,1.12C288.812,137.617,288.904,141.967,289.154,143.877"/>
			<path class="st7" d="M309.465,140.683c-0.035-1.357-0.13-2.732,0.161-4.058c0.291-1.326,1.039-2.628,2.261-3.219
				c1.222-0.59,2.934-0.221,3.529,0.999c0.536,1.099,0.051,2.424-0.617,3.448c-1.223,1.874-3.314,4.92-5.42,5.675
				c-0.33,0.207-0.283-2.188,0.105-2.155"/>
			<path class="st9" d="M246.326,68.71c-5.675,9.505-10.067,17.796-14.311,28.02c-2.317-12.832,0.89-29.751,8.911-43.485
				C254.423,30.134,254.201,55.521,246.326,68.71z"/>
			<path class="st9" d="M290.843,21.472c18.112-1.76,36.862,4.685,50.065,17.208c1.87,1.773,3.76,4.003,3.535,6.57
				c-8.395-0.423-15.095-6.735-22.161-11.288c-7.473-4.815-16.059-7.89-24.89-8.915c-3.547-0.411-7.189-0.49-10.64,0.427
				c-6.146,1.633-11.001,6.183-16.241,9.787c-4.147,2.852-21.311,15.668-26.199,12.102
				C248.787,34.966,279.152,22.607,290.843,21.472z"/>
			<path class="st9" d="M347.659,45.153c-1.936,5.374-0.82,11.407,1.344,16.693s5.321,10.11,7.659,15.321
				c4.378,9.76,5.761,20.839,3.919,31.376c1.512-3.194,1.758-6.819,1.971-10.346c0.571-9.474,1.057-19.138-1.376-28.311
				c-3.187-12.015-11.524-22.57-22.474-28.454"/>
			<path class="st10" d="M254.481,39.846c-3.273,1.478-6.751,3.134-8.565,6.234c-0.29,0.497-0.536,1.095-0.335,1.634
				c0.464,1.24,2.154,0.333,3.42-0.054c12.063-3.683,23.121-13.622,30.954-19.01C274.32,31.977,260.462,37.18,254.481,39.846z"/>
			<path class="st9" d="M232.494,93.359c-0.777,6.237,0.354,12.698,3.201,18.3c-0.44-8.417-0.608-16.848-0.503-25.276
				c-0.341,0.184-0.594,0.522-0.674,0.901"/>
			<path class="st11" d="M262.912,171.314c-1.113-0.44-2.43-0.328-3.452,0.295c-0.655,0.399-19.069-42.62-20.533-46.652
				c-1.495-4.119-7.866-14.572-1.772-16.06c2.23-0.545,5.408,1.168,7.448,1.838c4.291,1.409,7.619,1.881,12.102,1.199
				C252.234,139.053,260.929,151.912,262.912,171.314z"/>
			<path class="st11" d="M332.401,171.549c0,0,3.416-0.139,4.044,0.279c0.638,0.425,18.297-44.159,19.76-48.19
				c1.495-4.119,7.866-14.572,1.772-16.06c-2.23-0.544-5.408,1.168-7.448,1.838c-4.291,1.409-7.619,1.881-12.102,1.199
				C334.253,129.614,334.384,152.148,332.401,171.549z"/>
			<ellipse class="st0" cx="253.735" cy="103.688" rx="22.295" ry="15.307"/>
			<ellipse class="st0" cx="343.187" cy="99.201" rx="22.295" ry="15.307"/>
			<path class="st12" d="M327.368,36.846c3.119,2.452,6.57,4.48,10.23,6.011c-4.202-3.377-8.404-6.755-12.606-10.132
				c5.667,2.918,11.108,6.277,16.255,10.037c-4.507-4.6-9.449-8.773-14.74-12.445c5.691,0.897,10.84,4.056,14.987,8.055
				s7.397,8.823,10.494,13.68c-3.602-5.473-7.02-3.99-12.527-5.815c-2.55-0.845-4.956-2.14-7.065-3.805
				C330.423,40.873,329.227,38.308,327.368,36.846z"/>
			<g>
				<g>
					<path class="st7" d="M275.244,58.465c3.871,2.868,8.433,17.173,11.177,20.583l-37.311,3.905
						C260.378,81.895,272.545,56.464,275.244,58.465z"/>
					<path class="st13" d="M279.661,60.673c-0.293-0.449-3.958-1.93-4.417-2.208c-0.962-0.583-2.048,1.347-3.092,1.767
						c-3.802,1.529-5.652,8.439-8.503,11.383c7.015-2.432,14.548,0.782,19.265,5.981c2.135,2.352,4.186,3.315,2.585-0.624
						C284.058,73.422,281.749,63.871,279.661,60.673z"/>
				</g>
			</g>
			<g>
				<g>
					<path class="st7" d="M310.863,56.874c-4.526-1.651-8.433,17.173-11.177,20.583l37.312,3.905
						C332.088,83.384,318.322,59.595,310.863,56.874z"/>
					<path class="st13" d="M306.446,59.083c0.293-0.449,3.958-1.93,4.417-2.208c0.962-0.583,2.048,1.347,3.092,1.767
						c3.802,1.529,6.196,7.225,9.047,10.169c-7.015-2.432-15.091,1.996-19.808,7.195c-2.135,2.352-4.186,3.315-2.585-0.624
						C302.049,71.832,304.358,62.281,306.446,59.083z"/>
				</g>
			</g>
			<path class="st0" d="M305.419,75.929c0,0,13.636-7.942,22.476,3.297L305.419,75.929z"/>
			<path d="M303.193,76.005l30.329,5.859C333.521,81.863,316.927,72.212,303.193,76.005z"/>
			<path class="st0" d="M277.409,74.979c0,0-8.606-4.131-17.212,4.131L277.409,74.979z"/>
			<path d="M257.099,81.519c-1.178,0.992,23.753-6.541,23.753-6.541S263.639,76.011,257.099,81.519z"/>
			<path d="M293.86,154.192c-4.709-0.812-13.199-3.719-17.051-11.854c-0.762-1.609-10.409-20.545-15.099-14.254
				c-4.964,6.66,8.657,33.292,18.167,32.017c6.318-0.847,10.748-2.98,16.123-5.678C295.279,154.38,294.563,154.313,293.86,154.192z"
				/>
			<path d="M333.562,126.628c-7.618-2.51-10.082,7.699-12.43,11.924c-0.657,1.182-2.149,3.596-2.878,4.735
				c-2.41,3.763-6.256,6.852-10.601,8.824c1.963,0.137,3.783,0.433,4.999,0.829c3.575,1.163,6.391,5.672,9.939,4.429
				C335.504,152.844,335.056,127.12,333.562,126.628z"/>
			<path class="st16" d="M285.416,151.269c0,0.054,0,0.108,0,0.162c5.574,3.01,11.977,3.758,18.139,2.29
				c6.162-1.469,11.802-4.63,16.956-8.312"/>
			<path class="st17" d="M277.669,153.027c-2.294-2.934-6.699-3.979-10.067-2.387c-3.367,1.591-5.357,5.658-4.547,9.293
				c0.118,0.529,0.293,1.057,0.621,1.489c0.748,0.984,2.093,1.256,3.32,1.406c1.479,0.18,2.968,0.286,4.458,0.317
				c1.175,0.024,2.405-0.012,3.436-0.576c1.031-0.564,1.778-1.817,1.392-2.927c1.984-0.495,4.041-0.693,6.083-0.587
				c-0.782-4.965-5.96-8.797-10.937-8.092"/>
			<path class="st7" d="M310.964,160.058c-0.531-0.515-12.561,3.615-14.038,3.846c-3.376,0.528-8.055,1.259-11.123-0.244
				C290.877,160.514,306.124,155.36,310.964,160.058z"/>
			<path class="st7" d="M262.465,117.512c0.357-0.357,0.779-0.721,1.284-0.727c0.553-0.006,6.208,5.703,8.616,8.15
				c-1.428-3.645-10.188-13.939-10.733-14.077c-1.367-0.347-2.121,3.116-2.611,4.438c-1.996,5.388-0.629,12.11-2.064,17.675"/>
			<path class="st7" d="M331.738,113.844c2.337-0.563,4.754,1.083,5.878,3.209c1.123,2.126,1.257,4.618,1.366,7.019
				c0.15,3.28,0.3,6.559,0.45,9.839c0.286-3.394,0.573-6.787,0.859-10.181c0.45-5.33,0.606-11.47-3.314-15.108
				c-0.452-0.419-1.011-0.812-1.626-0.761c-0.675,0.055-1.182,0.617-1.615,1.138c-2.831,3.412-5.661,6.825-8.493,10.236
				C326.918,117.317,329.157,114.467,331.738,113.844z"/>
			<path class="st11" d="M265.808,51.067c-1.623,0.733,41.494-12.843,58.783-2.47C324.59,48.597,306.313,32.79,265.808,51.067z"/>
			<path class="st11" d="M278.157,40.199c0,0,25.687-6.422,33.096-3.952C311.253,36.247,299.398,30.814,278.157,40.199z"/>
		</g>
	</g>
</g>
</svg>
