<?xml version="1.0" encoding="utf-8"?>
<!-- Generator: Adobe Illustrator 22.0.1, SVG Export Plug-In . SVG Version: 6.00 Build 0)  -->
<svg version="1.1" id="Ebene_1" xmlns="http://www.w3.org/2000/svg" xmlns:xlink="http://www.w3.org/1999/xlink" x="0px" y="0px"
	 width="194px" height="65px" viewBox="0 0 194 65" style="enable-background:new 0 0 194 65;" xml:space="preserve">
<style type="text/css">
	.st0{fill:#E7E237;}
	.st1{fill:#7D7E15;stroke:#E7E237;stroke-width:1.9943;stroke-miterlimit:10;}
	.st2{fill:#FFFFFF;}
	.st3{fill:none;stroke:#E7E237;stroke-width:2.9915;stroke-miterlimit:10;}
	.st4{fill:#DDAE3C;}
	.st5{fill:#7D7E15;}
</style>
<g>
	<g>
		<path class="st0" d="M38.572,28.632c4.148-5.329,10.682-8.729,17.431-9.073c3.777-0.192,7.663,0.566,10.869,2.569
			s5.659,5.327,6.198,9.065c0.479,3.322-0.134,4.162-0.11,7.518c0.024,3.356,0.95,8.331,4.245,8.989
			c-2.276-0.568-6.398,2.503-8.751,2.893c-3.272,0.543-6.543,1.085-9.815,1.628c-4.186,0.694-20.685,8.247-18.829,3.921
			c0.802-1.869,1.113-8.18-0.535-10.95C36.312,40.211,35.038,33.171,38.572,28.632z"/>
		<path class="st1" d="M39.642,58.416c0.682,3.813,9.947,5.35,20.694,3.433s18.906-6.563,18.224-10.376s-9.947-5.35-20.694-3.433
			C47.12,49.957,38.96,54.603,39.642,58.416z"/>
		<path class="st2" d="M44.614,26.995c-0.937,0.349-1.572,1.221-2.04,2.104c-2.128,4.015-1.761,9.224,0.908,12.903
			c0.388,0.534,0.842,1.055,1.451,1.311s1.405,0.172,1.808-0.351c0.431-0.558,0.272-1.377-0.072-1.992
			c-0.343-0.615-0.847-1.141-1.111-1.793c-0.657-1.622,0.324-3.4,1.225-4.9c0.901-1.5,1.768-3.385,0.918-4.915
			c-0.746-1.343-2.459-1.741-3.973-2.004c-0.959,0.857-1.532,2.129-1.539,3.415"/>
		<ellipse class="st3" cx="50.265" cy="17.589" rx="4.546" ry="4.54"/>
		<path class="st0" d="M43.92,60.59c0-2.435,1.977-4.41,4.415-4.41c2.439,0,4.415,1.974,4.415,4.41c0,2.435-1.977,4.41-4.415,4.41
			S43.92,63.026,43.92,60.59z"/>
	</g>
	<g>
		<g>
			<path class="st4" d="M27.124,1.641c6.706,0.837,12.973,4.708,16.718,10.326c2.096,3.144,3.43,6.867,3.344,10.643
				c-0.085,3.776-1.691,7.581-4.633,9.954c-2.614,2.109-3.65,2.012-6.526,3.748s-6.684,5.074-5.566,8.239
				c-0.674-2.245-5.424-4.213-6.963-6.033c-2.139-2.531-4.278-5.062-6.417-7.593c-2.737-3.238-17.67-13.541-12.999-14.158
				c2.019-0.267,7.609-3.226,9.15-6.056C16.005,5.62,21.412,0.928,27.124,1.641z"/>
		</g>
		<g>
			
				<ellipse transform="matrix(0.7557 -0.6549 0.6549 0.7557 -17.7671 17.7979)" class="st5" cx="14.973" cy="32.714" rx="7.019" ry="19.752"/>
			<path class="st4" d="M25.768,49.348c-4.562,0-11.539-5.253-16.858-11.394c-3.527-4.071-6.286-8.4-7.766-12.19
				c-1.605-4.109-1.518-7.211,0.244-8.734l0,0c3.935-3.403,13.064,2.839,19.652,10.442c6.586,7.602,11.461,17.52,7.522,20.924
				C27.804,49.05,26.854,49.348,25.768,49.348z M2.693,18.538c-1.044,0.902-0.928,3.333,0.31,6.502
				c1.4,3.583,4.033,7.707,7.415,11.611c7.237,8.353,14.68,12.099,16.837,10.238c2.154-1.862-0.487-9.759-7.724-18.112
				C12.291,20.421,4.848,16.677,2.693,18.538L2.693,18.538z"/>
		</g>
		<g>
			<path class="st2" d="M31.622,5.991c-0.779-0.626-1.855-0.725-2.853-0.675c-4.543,0.226-8.839,3.203-10.64,7.374
				c-0.262,0.606-0.477,1.262-0.386,1.916s0.57,1.293,1.226,1.373c0.7,0.085,1.324-0.47,1.677-1.08
				c0.354-0.609,0.549-1.31,0.975-1.87c1.06-1.393,3.091-1.46,4.843-1.453s3.817-0.213,4.699-1.724c0.774-1.326,0.241-3-0.306-4.435
				c-1.228-0.385-2.615-0.227-3.725,0.424"/>
		</g>
		<g>
			<path class="st4" d="M42.616,12.071c-0.5,0-1.003-0.062-1.499-0.188c-1.565-0.397-2.88-1.379-3.705-2.765
				c-0.825-1.385-1.061-3.008-0.664-4.571c0.398-1.562,1.381-2.877,2.768-3.701c2.864-1.7,6.579-0.758,8.282,2.103
				c1.703,2.86,0.759,6.57-2.105,8.271C44.747,11.783,43.689,12.071,42.616,12.071z M42.6,2.989c-0.53,0-1.066,0.138-1.553,0.427
				l0,0c-0.7,0.416-1.196,1.079-1.396,1.867c-0.201,0.788-0.082,1.608,0.334,2.307s1.08,1.195,1.869,1.395
				c0.792,0.202,1.611,0.082,2.31-0.334c1.445-0.858,1.922-2.73,1.062-4.173C44.656,3.521,43.641,2.989,42.6,2.989z"/>
		</g>
		<g>
			<path class="st4" d="M2.356,22.568c2.096-1.245,4.805-0.557,6.052,1.536c1.246,2.093,0.558,4.799-1.538,6.044
				s-4.805,0.557-6.052-1.536S0.26,23.813,2.356,22.568z"/>
		</g>
	</g>
</g>
<g>
	<g>
		<path class="st0" d="M146.317,29.454c0.169-6.747,3.404-13.359,8.63-17.638c2.924-2.394,6.502-4.089,10.272-4.379
			c3.77-0.289,7.721,0.929,10.377,3.617c2.36,2.389,2.366,3.428,4.381,6.114c2.015,2.686,5.718,6.139,8.761,4.714
			c-2.17,0.893-3.659,5.809-5.32,7.518c-2.31,2.377-4.619,4.754-6.929,7.131c-2.955,3.041-11.739,18.903-12.818,14.322
			c-0.466-1.98-3.969-7.242-6.941-8.493C151.383,40.11,146.173,35.202,146.317,29.454z"/>
		<path class="st1" d="M164.887,52.782c2.816,2.663,11.184-1.595,18.691-9.511s11.309-16.493,8.493-19.156
			s-11.184,1.595-18.691,9.511C165.874,41.542,162.071,50.118,164.887,52.782z"/>
		<path class="st2" d="M150.205,24.553c-0.546,0.836-0.538,1.915-0.39,2.903c0.675,4.492,4.068,8.466,8.402,9.843
			c0.63,0.2,1.305,0.349,1.947,0.194s1.232-0.695,1.246-1.355c0.015-0.704-0.6-1.269-1.242-1.56s-1.359-0.416-1.96-0.784
			c-1.493-0.915-1.761-2.928-1.928-4.669c-0.167-1.742-0.59-3.772-2.184-4.499c-1.398-0.638-3.013,0.058-4.388,0.744
			c-0.261,1.258,0.034,2.622,0.792,3.66"/>
		<ellipse class="st3" cx="149.158" cy="13.633" rx="4.546" ry="4.54"/>
		<path class="st0" d="M169.622,51.994c-1.448-1.959-1.031-4.72,0.93-6.167c1.962-1.446,4.726-1.03,6.175,0.929
			c1.448,1.96,1.032,4.72-0.93,6.167S171.07,53.954,169.622,51.994z"/>
	</g>
	<g>
		<g>
			<path class="st4" d="M121.057,14.527c5.893-3.304,13.237-3.906,19.591-1.607c3.555,1.286,6.843,3.491,9.019,6.58
				c2.176,3.089,3.147,7.102,2.191,10.756c-0.849,3.247-1.741,3.784-3.022,6.886c-1.282,3.102-2.36,8.046,0.421,9.93
				c-1.877-1.406-6.869-0.172-9.189-0.724c-3.226-0.768-6.452-1.536-9.678-2.303c-4.127-0.982-22.268-0.415-18.877-3.682
				c1.466-1.412,4.203-7.108,3.761-10.299C114.477,24.323,116.037,17.341,121.057,14.527z"/>
		</g>
		<g>
			
				<ellipse transform="matrix(0.2195 -0.9756 0.9756 0.2195 55.6824 163.0646)" class="st5" cx="129.756" cy="46.731" rx="7.014" ry="19.766"/>
			<path class="st4" d="M148.333,53.715c-3.671,2.706-12.408,2.617-20.339,0.831c-5.259-1.184-10.052-3.031-13.497-5.202
				c-3.735-2.354-5.509-4.901-4.997-7.171l0,0c1.142-5.072,12.199-5.464,22.02-3.254c9.819,2.211,19.639,7.299,18.493,12.374
				C149.793,52.268,149.206,53.071,148.333,53.715z M111.447,42.611c-0.303,1.345,1.235,3.232,4.115,5.047
				c3.257,2.052,7.827,3.809,12.87,4.944c10.789,2.428,19.005,1.028,19.634-1.748c0.626-2.776-6.194-7.563-16.984-9.992
				C120.289,38.434,112.075,39.836,111.447,42.611L111.447,42.611z"/>
		</g>
		<g>
			<path class="st2" d="M127.263,15.359c-0.999-0.041-1.923,0.517-2.697,1.149c-3.521,2.876-5.207,7.819-4.176,12.244
				c0.15,0.643,0.366,1.299,0.828,1.77c0.462,0.472,1.228,0.702,1.803,0.377c0.614-0.347,0.785-1.164,0.708-1.864
				c-0.078-0.7-0.337-1.379-0.327-2.083c0.024-1.75,1.619-3.008,3.033-4.042s2.944-2.435,2.755-4.174
				c-0.166-1.526-1.59-2.557-2.883-3.387c-1.217,0.419-2.239,1.369-2.745,2.551"/>
		</g>
		<g>
			<path class="st4" d="M139.723,13.73c-0.402,0.296-0.844,0.545-1.318,0.737c-1.495,0.609-3.137,0.599-4.625-0.027
				c-1.487-0.625-2.642-1.791-3.252-3.284c-0.609-1.493-0.6-3.133,0.027-4.62c1.293-3.066,4.843-4.512,7.914-3.22
				c3.071,1.291,4.517,4.836,3.224,7.903C141.266,12.235,140.586,13.094,139.723,13.73z M134.311,6.433
				c-0.426,0.314-0.776,0.743-0.996,1.264l0,0c-0.316,0.749-0.321,1.577-0.013,2.33c0.307,0.753,0.89,1.342,1.641,1.658
				c0.751,0.316,1.579,0.321,2.333,0.014c0.757-0.307,1.345-0.889,1.66-1.639c0.653-1.547-0.077-3.336-1.627-3.988
				C136.281,5.641,135.148,5.815,134.311,6.433z"/>
		</g>
		<g>
			<path class="st4" d="M113.572,46.054c0.946-2.245,3.535-3.298,5.782-2.353c2.248,0.945,3.302,3.53,2.356,5.775
				c-0.946,2.245-3.535,3.298-5.783,2.353C113.681,50.884,112.626,48.298,113.572,46.054z"/>
		</g>
	</g>
</g>
</svg>
