<?xml version="1.0" encoding="utf-8"?>
<!-- Generator: Adobe Illustrator 22.0.1, SVG Export Plug-In . SVG Version: 6.00 Build 0)  -->
<svg version="1.1" id="Ebene_1" xmlns="http://www.w3.org/2000/svg" xmlns:xlink="http://www.w3.org/1999/xlink" x="0px" y="0px"
	 width="2344px" height="138px" viewBox="0 0 2344 138" style="enable-background:new 0 0 2344 138;" xml:space="preserve">
<style type="text/css">
	.st0{fill:#AF1280;}
</style>
<g>
	<path d="M504.2,102.4c-9.7,2.8-19.5,5.7-29.2,8.5c-8.2,2-16.4,4.1-24.7,6.1c-21.7,3.8-42.9,9.5-64,11.8
		c-28.2,3.1-56.3,7.4-83.1,7.7c-6.6,0.5-13.1,0.9-19.7,1.4c-61,0.3-119.6-3.5-175.3-15c-31.4-6.5-61.7-16.6-87.7-35.7
		C10.8,80.1-2.2,66.5,0.3,50.9c2.3-14.1,16.7-26.6,36.9-29.7c25.8-4,48.5-3.8,71-0.3c16.6,2.6,32.8,5.8,48.6,10.1
		c5.9,2.1,11.9,4.2,17.8,6.2c22,6.6,42.7,16,65.3,21.5c23.7,5.7,49.5,5.8,77.1,2.4c11.2-1.4,22-5.2,34-7.9
		c5.1-1.8,10.2-3.7,15.3-5.5c5.6-2.3,11.3-4.5,16.9-6.8c7.6-3.3,15.3-6.6,22.9-10c7.2-3,14.5-6.1,21.7-9.1c3.8-1.4,7.5-2.8,11.3-4.1
		c8.9-2.8,17.8-5.6,26.7-8.3c7.7-1.8,15.4-3.7,23.1-5.5c24.5-4,47.7-6,68-0.3c5.4,1.5,11.3,4.1,15.9,7.4
		c13.2,9.4,15.9,24.3,10.3,37.2c-9.5,22-37.1,37.2-67.1,49.9C512.2,99.4,508.2,100.9,504.2,102.4z"/>
</g>
<g>
	<path d="M1090.2,102.4c-9.7,2.8-19.5,5.7-29.2,8.5c-8.2,2-16.4,4.1-24.7,6.1c-21.7,3.8-42.9,9.5-64,11.8
		c-28.2,3.1-56.3,7.4-83.1,7.7c-6.6,0.5-13.1,0.9-19.7,1.4c-61,0.3-119.6-3.5-175.3-15c-31.4-6.5-61.7-16.6-87.7-35.7
		c-9.7-7.2-22.8-20.8-20.2-36.4c2.3-14.1,16.7-26.6,36.9-29.7c25.8-4,48.5-3.8,71-0.3c16.6,2.6,32.8,5.8,48.6,10.1
		c5.9,2.1,11.9,4.2,17.8,6.2c22,6.6,42.7,16,65.3,21.5c23.7,5.7,49.5,5.8,77.1,2.4c11.2-1.4,22-5.2,34-7.9
		c5.1-1.8,10.2-3.7,15.3-5.5c5.6-2.3,11.3-4.5,16.9-6.8c7.6-3.3,15.3-6.6,22.9-10c7.2-3,14.5-6.1,21.7-9.1c3.8-1.4,7.5-2.8,11.3-4.1
		c8.9-2.8,17.8-5.6,26.7-8.3c7.7-1.8,15.4-3.7,23.1-5.5c24.5-4,47.7-6,68-0.3c5.4,1.5,11.3,4.1,15.9,7.4
		c13.2,9.4,15.9,24.3,10.3,37.2c-9.5,22-37.1,37.2-67.1,49.9C1098.2,99.4,1094.2,100.9,1090.2,102.4z"/>
	<path class="st0" d="M635.1,66.4c-3.8-4.3-7.8-13.3-1.1-19.4c5.1-4.7,10.5-4.9,14-2.9s7.2,8.4,7.6,11.2c0.4-5,0.8-9.4,3.3-13.8
		c3.5-6.2,11.6-10.4,18.4-4.5c1.9,1.6,3.2,3.8,4,6.1c2,6,0.6,12.3-1.3,18.2c-1.9,5.8-16.7,23.3-20.1,27.7
		C659.4,87.9,643.4,75.5,635.1,66.4z"/>
</g>
<g>
	<path d="M1676.2,102.4c-9.7,2.8-19.5,5.7-29.2,8.5c-8.2,2-16.4,4.1-24.7,6.1c-21.7,3.8-42.9,9.5-64,11.8
		c-28.2,3.1-56.3,7.4-83.1,7.7c-6.6,0.5-13.1,0.9-19.7,1.4c-61,0.3-119.6-3.5-175.3-15c-31.4-6.5-61.7-16.6-87.7-35.7
		c-9.7-7.2-22.8-20.8-20.2-36.4c2.3-14.1,16.7-26.6,36.9-29.7c25.8-4,48.5-3.8,71-0.3c16.6,2.6,32.8,5.8,48.6,10.1
		c5.9,2.1,11.9,4.2,17.8,6.2c22,6.6,42.7,16,65.3,21.5c23.7,5.7,49.5,5.8,77.1,2.4c11.2-1.4,22-5.2,34-7.9
		c5.1-1.8,10.2-3.7,15.3-5.5c5.6-2.3,11.3-4.5,16.9-6.8c7.6-3.3,15.3-6.6,22.9-10c7.2-3,14.5-6.1,21.7-9.1c3.8-1.4,7.5-2.8,11.3-4.1
		c8.9-2.8,17.8-5.6,26.7-8.3c7.7-1.8,15.4-3.7,23.1-5.5c24.5-4,47.7-6,68-0.3c5.4,1.5,11.3,4.1,15.9,7.4
		c13.2,9.4,15.9,24.3,10.3,37.2c-9.5,22-37.1,37.2-67.1,49.9C1684.2,99.4,1680.2,100.9,1676.2,102.4z"/>
	<path class="st0" d="M1426,100.2c-2.9-4.1-5-10.5,1.5-15.2c4.9-3.5,9.7-3.2,12.5-1s5.4,8,5.4,10.5c1.1-4.1,1.7-5.5,3.3-7.7
		c2.5-3.5,11.3-7.9,16.6-2c1.4,1.6,2.5,3.6,2.8,5.7c0.8,4.1-0.8,7.4-2.3,10c-2.7,4.7-17.3,18.6-20.7,22.1
		C1444.8,121.4,1432.2,109,1426,100.2z"/>
</g>
<g>
	<path d="M2262.2,102.4c-9.7,2.8-19.5,5.7-29.2,8.5c-8.2,2-16.4,4.1-24.7,6.1c-21.7,3.8-42.9,9.5-64,11.8
		c-28.2,3.1-56.3,7.4-83.1,7.7c-6.6,0.5-13.1,0.9-19.7,1.4c-61,0.3-119.6-3.5-175.3-15c-31.4-6.5-61.7-16.6-87.7-35.7
		c-9.7-7.2-22.8-20.8-20.2-36.4c2.3-14.1,16.7-26.6,36.9-29.7c25.8-4,48.5-3.8,71-0.3c16.6,2.6,32.8,5.8,48.6,10.1
		c5.9,2.1,11.9,4.2,17.8,6.2c22,6.6,42.7,16,65.3,21.5c23.7,5.7,49.5,5.8,77.1,2.4c11.2-1.4,22-5.2,34-7.9
		c5.1-1.8,10.2-3.7,15.3-5.5c5.6-2.3,11.3-4.5,16.9-6.8c7.6-3.3,15.3-6.6,22.9-10c7.2-3,14.5-6.1,21.7-9.1c3.8-1.4,7.5-2.8,11.3-4.1
		c8.9-2.8,17.8-5.6,26.7-8.3c7.7-1.8,15.4-3.7,23.1-5.5c24.5-4,47.7-6,68-0.3c5.4,1.5,11.3,4.1,15.9,7.4
		c13.2,9.4,15.9,24.3,10.3,37.2c-9.5,22-37.1,37.2-67.1,49.9C2270.2,99.4,2266.2,100.9,2262.2,102.4z"/>
	<path class="st0" d="M2255.6,41.1c-2.2-5.3-2.9-15.1,5.4-18.6c6.3-2.7,11.5-1.1,14.1,2c2.6,3.1,4,10.3,3.5,13.1
		c2-4.6,3.9-8.6,7.7-11.9c5.4-4.6,14.4-5.9,18.9,1.9c1.2,2.2,1.8,4.6,1.8,7.1c-0.1,6.3-3.5,11.8-7.2,16.7
		c-3.7,4.9-23.5,16.4-28.2,19.5C2271.4,69.4,2260.4,52.5,2255.6,41.1z"/>
</g>
</svg>
