<?xml version="1.0" encoding="utf-8"?>
<!-- Generator: Adobe Illustrator 22.0.1, SVG Export Plug-In . SVG Version: 6.00 Build 0)  -->
<svg version="1.1" id="Ebene_1" xmlns="http://www.w3.org/2000/svg" xmlns:xlink="http://www.w3.org/1999/xlink" x="0px" y="0px"
	 width="1408px" height="112px" viewBox="0 0 1408 112" style="enable-background:new 0 0 1408 112;" xml:space="preserve">
<style type="text/css">
	.st0{fill:#B74191;}
	.st1{fill:#6BBFA0;}
	.st2{fill:#D8DB22;}
	.st3{fill:#E872A5;}
	.st4{fill:#A34091;}
	.st5{fill:#DDDC00;}
	.st6{fill:#48A9E0;}
	.st7{fill:#D1CF07;}
	.st8{fill:#F3F2BA;}
	.st9{fill:#A5D8F6;}
	.st10{fill:#F5B3D1;}
	.st11{fill:#D6DA31;}
	.st12{fill:#E8375E;}
	.st13{fill:#AF1280;}
	.st14{fill:#E2071B;}
	.st15{fill:#FBBC13;}
</style>
<g id="Ebene_2_1_">
	<g id="Ebene_118">
		<path class="st0" d="M47.425,102.028c-7.097,6.608-18.509,8.658-26.911,3.831c-2.031-1.037-3.679-2.693-4.704-4.727
			c-0.725-1.903-0.915-3.968-0.548-5.971c1.402-9.403,8.09-17.165,17.193-19.953C19.756,78.671,5.035,70.72,0.988,58.211
			c-2.093-6.459-0.997-14.579,4.595-18.401c3.987-2.707,9.359-2.607,13.874-0.945c4.515,1.662,8.382,4.707,12.15,7.693l9.299,7.364
			c-10.944-14.111-9.13-36.403,3.937-48.534c2.517-2.543,5.697-4.332,9.18-5.165c9.568-1.831,18.14,7.961,18.778,17.724
			s-4.176,18.878-8.841,27.387c4.3-8.039,9.935-15.29,16.665-21.446c7.894-7.225,18.04-13.076,28.755-12.081
			s20.712,11.255,18.24,21.665c-1.993,8.19-10.097,13.096-17.522,17.087c-8.432,4.518-17.353,9.175-26.911,8.956
			c12.339-1.473,25.127,6.966,28.576,18.908s-2.871,25.874-14.103,31.208s-26.064,1.353-33.131-8.857
			c-3.379-4.896-3.558-14.43-8.033-17.555C55.09,90.295,52.817,96.972,47.425,102.028z"/>
		<path class="st1" d="M43.717,23.987c1.236-3.344,3.379-6.837,7.525-6.737c1.902,0.095,3.692,0.931,4.984,2.329
			c2.99,3.125,3.439,7.484,3.439,11.604c-0.012,8.151-1.463,16.236-4.286,23.884C66.612,44.428,79.071,33.172,94.48,31.789
			c1.397-0.211,2.824-0.092,4.166,0.348c2.99,1.184,4.206,4.886,3.907,8.091c-0.648,6.906-6.309,12.27-12.21,15.923
			c-8.536,5.264-18.22,8.388-28.227,9.106c12.19,0.129,23.772,9.275,26.243,21.326c0.532,2.365-0.024,4.844-1.515,6.757
			c-3.907,4.737-10.964,1.552-15.868-1.781C63.871,86.682,56.106,80.761,55.1,72.203c-2.314,10.503-8.785,19.624-17.941,25.287
			c-1.459,0.925-3.22,1.25-4.914,0.906c-3.199-0.726-3.718-3.413-3.748-5.852c-0.12-11.156,7.655-20.739,15.559-28.621
			c-8.751,8.131-24.499,6.767-31.705-2.757c-1.076-1.423-1.993-3.194-0.548-5.055c0.718-0.864,1.697-1.472,2.791-1.732
			c10.115-2.576,20.813-1.548,30.25,2.906c3.508-3.981-1.475-10.23-2.412-14.768C41.127,36.341,41.573,29.924,43.717,23.987z"/>
		<ellipse class="st2" cx="54.262" cy="63.605" rx="11.811" ry="11.793"/>
	</g>
</g>
<title>Element 21</title>
<g id="Ebene_2_2_">
	<g id="Ebene_118_1_">
		<path class="st3" d="M186.445,74.154c-1.555,2.616-4.312,4.284-7.35,4.45c-3.264-0.084-6.064-2.353-6.82-5.53
			c-0.575-3.21,1.095-6.402,4.06-7.76c-5.14,2.99-13.1,1.17-14.24-5.95c-0.334-1.945,0.131-3.943,1.29-5.54
			c3.22-4.27,9-3.54,13.83-2.59c-4.66-2.66-7.13-9.21-3.09-13.88c1.545-1.822,3.867-2.799,6.25-2.63c5,0.42,7.77,5.53,9.75,10
			c-0.175-3.026,0.377-6.051,1.61-8.82c1.288-2.797,3.853-4.795,6.88-5.36c3.555-0.396,6.915,1.708,8.11,5.08
			c1.029,3.445-0.493,7.14-3.65,8.86c5-3,12-5.35,16.33-1.44c2.212,2.046,3.109,5.149,2.33,8.06c-1.52,5.95-8,8.39-13.44,7.1
			c5.66-0.24,11.32,5.27,9.26,11.18c-1.165,3.558-4.759,5.727-8.45,5.1c-3.64-0.73-5.94-4.07-7.9-7.16c1.1,3.88,4.3,8,2.2,11.45
			c-0.892,1.35-2.304,2.27-3.9,2.54c-4.527,0.866-9.097-1.282-11.32-5.32c-1.426-2.714-1.384-5.964,0.11-8.64
			C188.805,69.614,187.745,72.134,186.445,74.154z"/>
		<ellipse class="st4" cx="190.715" cy="57.604" rx="8.74" ry="8.68"/>
		<path class="st5" d="M169.265,58.414c-0.011-1.579,1.26-2.869,2.84-2.88s2.869,1.26,2.88,2.84s-1.26,2.869-2.84,2.88
			c-0.01,0-0.02,0-0.03,0C170.545,61.254,169.271,59.984,169.265,58.414z"/>
		<path class="st5" d="M178.095,44.774c-0.011-1.579,1.261-2.869,2.84-2.88s2.869,1.261,2.88,2.84
			c0.011,1.572-1.248,2.857-2.82,2.879c-1.574,0.028-2.872-1.226-2.9-2.8C178.095,44.801,178.095,44.787,178.095,44.774z"/>
		<path class="st5" d="M194.995,41.404c-0.011-1.574,1.256-2.859,2.83-2.87c1.574-0.011,2.859,1.256,2.87,2.83
			c0.011,1.574-1.256,2.859-2.83,2.87c-0.007,0-0.013,0-0.02,0C196.277,44.239,195.001,42.972,194.995,41.404
			C194.995,41.404,194.995,41.404,194.995,41.404z"/>
		<path class="st5" d="M205.995,51.124c-0.017-1.579,1.25-2.873,2.83-2.89s2.873,1.25,2.89,2.83c0.017,1.579-1.25,2.873-2.83,2.89
			c-0.01,0-0.02,0-0.03,0C207.285,53.959,206.006,52.694,205.995,51.124z"/>
		<path class="st5" d="M204.875,64.354c-0.011-1.579,1.26-2.869,2.84-2.88s2.869,1.26,2.88,2.84c0.011,1.579-1.26,2.869-2.84,2.88
			c-0.01,0-0.02,0-0.03,0c-1.563,0.011-2.839-1.247-2.85-2.81C204.875,64.374,204.875,64.364,204.875,64.354z"/>
		<path class="st5" d="M192.645,72.184c-0.006-1.574,1.266-2.854,2.84-2.86s2.854,1.266,2.86,2.84
			c0.006,1.574-1.266,2.854-2.84,2.86c-0.003,0-0.007,0-0.01,0c-1.568,0.006-2.844-1.262-2.85-2.83
			C192.645,72.19,192.645,72.187,192.645,72.184z"/>
		<path class="st5" d="M178.235,69.894c-0.017-1.579,1.25-2.873,2.83-2.89c1.579-0.017,2.873,1.25,2.89,2.83
			c0.017,1.579-1.25,2.873-2.83,2.89c-0.013,0-0.027,0-0.04,0C179.519,72.724,178.246,71.46,178.235,69.894z"/>
	</g>
</g>
<title>Element 20</title>
<g id="Ebene_2_3_">
	<g id="Ebene_118_2_">
		<path class="st6" d="M305.739,87.4c-1.86,2.13-4,4.23-6.8,4.85c-2.8,0.62-6.16-0.91-6.62-3.71c-0.35-2.07-0.37-6,0.89-7.63
			c5.315-6.844,11.316-13.127,17.91-18.75c-8.09,3.26-15.48,7.61-24.13,8.59c-3.12,0.35-13.12-1.26-12.49-9.89
			c0.26-3.39,6.81-5.25,8.3-5.73c12.2-3.91,17.83,3.69,28,3.38c-9.49-6.27-19.47-11.23-20.3-22.91c-0.146-1.76,0.2-3.526,1-5.1
			c2.4-4.56,7.24-3.57,10-0.93c1.88,1.83,3,4.31,4,6.72c3.2,7.447,6.407,14.897,9.62,22.35c-1.41-14.54-4.78-39.19,7.93-41.64
			c3.45,1.17,5.45,4.84,5.85,8.43s-0.62,7.19-1.6,10.67l-6,21.22c5.13-11.6,9.77-22.14,20.4-29c1.473-0.723,3.066-1.171,4.7-1.32
			c1.45,0.604,2.669,1.655,3.48,3c1.7,4.48,1.19,8.94-4.19,13c-7,5.29-12.91,12-20.95,15.43c11.093-4.461,23.113-6.124,35-4.84
			c3.008,0.265,5.416,2.61,5.76,5.61c0.5,4.95-5.35,6.68-9.87,7c-9.93,0.61-20.84-3.45-30.73-4.52c5.71,4.2,11.46,13.45,15,19.63
			c1.73,3,3.18,6.57,1.93,10c-0.685,2.15-2.655,3.63-4.91,3.69c-2.79,0-4.46-2.46-5.82-4.68c-2.23-3.65-8.8-19.1-13.2-19.27
			C316.129,71,305.739,85.52,305.739,87.4z"/>
		<path class="st7" d="M312.149,57.21c-3.46,1.09-17.95,2-20-1c-0.44-0.67-2.08-3.65-1-6.51s5-2.86,5.41-2.83
			c7.66,0.57,9.35,8,15.6,10.38c-2.41-3.9-6.4-6.64-7-11.2c-0.27-2-1.52-7.13,0.26-8.07c5.45-2.86,9.4,2,9.6,3.39
			c0.61,4.21,2,7.76,2.59,12c1-6.47-2.24-11,2.92-16c1.95-1.91,5.78-2.71,8.49-2.45c0.71,0.06-2.75-2.63,0.86,0.22
			c0.529,0.459,0.841,1.12,0.86,1.82c-0.34,7.16-4.79,13.37-9,19.11c4.123-4.238,9.013-7.655,14.41-10.07c2.71-1.2,6.45-2,7.64,2
			c0.652,2.821-0.578,5.743-3.05,7.25c-0.77,0.451-1.564,0.859-2.38,1.22c-4.31,1.9-9.25,1.75-13.82,2.86
			c6-0.5,12.3-0.59,17.45,3.42c2.242,1.748,3.658,4.348,3.91,7.18c0.084,0.578-0.01,1.167-0.27,1.69c-0.74,1.25-3.26,3.43-4.68,3.08
			c-3-0.74-5.1-1-8-1.82c-3.82-1.08-8.2-5.48-9.76-9.15c1.996,4.594,3.667,9.322,5,14.15c0.349,1.197,0.391,2.463,0.12,3.68
			c-1,4.09-5,3.74-7.1,1.71c-1.35-1.512-2.239-3.379-2.56-5.38c-0.85-3.737-1.09-7.587-0.71-11.4c-1.6,7.87-0.64,19.43-11.19,18.1
			c-2.42-3.62-3.43-8.45-1.34-12.07c2.09-3.62,5.09-4.82,8.09-7.76c2.59-5.22-6.94,3.43-15.25,7.86c-0.79,0.42-2-0.5-2.17-0.44
			c-0.89,0.38-1.64,1-2.27,0.27c-4.2-4.93-1-8.58,0-9.25c5.21-3.59,19.78-3.37,16.61-3.38L312.149,57.21z"/>
		<ellipse class="st3" cx="320.649" cy="61.35" rx="12.41" ry="12.46"/>
	</g>
</g>
<g id="Ebene_2_4_">
	<g id="Ebene_118_3_">
		<path class="st8" d="M439.426,65.996c-3.51,1.07-7.94-1.07-7.94-5.47c0.001-1.211,0.442-2.38,1.24-3.29
			c1.86-2,4.64-1.81,7.09-1.31c-2.909-0.066-5.442-2.007-6.26-4.8c-0.705-2.842,0.508-5.813,3-7.35c0.593-0.387,1.293-0.576,2-0.54
			c1.55,0.15,2.47,1.82,3.12,3.29c1,2.24,2,4.49,3,6.74c-1.215-3.646-0.853-7.633,1-11c1.31-2.24,3.46-4.27,6.37-3.62
			c1.188,0.272,2.247,0.942,3,1.9c2,2.55,1.66,6.09,0.09,8.74c-1.361,2.098-3.184,3.856-5.33,5.14c1.85,0,3.29-1.63,5.05-2.22
			c2.44-0.82,5.15,0.41,7.05,2.17c2.46,2.27,4.11,6.43,0.57,8.75c-1.065,0.67-2.314,0.989-3.57,0.91c-1.91-0.06-4,0-5.82-1
			c-1.369-0.642-2.308-1.948-2.48-3.45c2.54,2.397,4.032,5.699,4.15,9.19c0.122,1.126-0.189,2.255-0.87,3.16
			c-0.899,0.772-2.019,1.241-3.2,1.34c-1.604,0.349-3.274,0.242-4.82-0.31c-5.19-2-4.63-7.53-2.86-11.08
			C443.206,64.106,441.486,65.356,439.426,65.996z"/>
	</g>
</g>
<title>Element 18</title>
<g id="Ebene_2_5_">
	<g id="Ebene_118_4_">
		<path class="st9" d="M563.887,67.179c-1.878-0.623-3.04-2.501-2.76-4.46c0.66-3.61,5.64-4,7.81-6.8c-2.3-0.11-4.72-0.38-6.47-2
			c-1.024-0.862-1.568-2.166-1.46-3.5c0.38-2.79,3.66-3.54,5.94-2.55c1.95,0.85,3.32,2.59,4.62,4.27c-1.91-1.65-2.08-4.5-2.1-7
			c0-1.69,0-3.54,1.68-4.6c0.883-0.544,1.954-0.689,2.95-0.4c2.45,0.69,3.67,3.11,3.84,5.47c0.049,1.911-0.204,3.818-0.75,5.65
			c0.818-3.112,2.387-5.976,4.57-8.34c1.07-1.18,2.39-2.28,4.25-1.73c1.015,0.311,1.851,1.038,2.3,2c1.14,2.36,0,5-1.77,6.66
			c-1.555,1.328-3.319,2.389-5.22,3.14c2.52-1.13,5.63-1.47,7.91,0.3c1.146,0.855,1.809,2.211,1.78,3.64
			c-0.15,2.94-3.13,4.1-5.59,3.68c-1.901-0.464-3.683-1.322-5.23-2.52c2.791,1.373,4.448,4.322,4.17,7.42
			c-0.413,3.087-2.682,5.602-5.71,6.33c-1.432,0.37-2.953,0.12-4.19-0.69c-0.656-0.513-1.187-1.17-1.55-1.92
			c-0.747-1.64-1.057-3.445-0.9-5.24C570.007,66.049,567.457,68.509,563.887,67.179z"/>
	</g>
</g>
<title>Element 17</title>
<g id="Ebene_2_6_">
	<g id="Ebene_118_5_">
		<path class="st10" d="M700.238,55.357c-2.541,0.47-5.126-0.565-6.64-2.66c-1.468-2.148-1.588-4.944-0.31-7.21
			c0.263-0.509,0.67-0.93,1.17-1.21c1.06-0.51,2.32,0.07,3.24,0.81c2.502,2.055,3.894,5.165,3.76,8.4
			c-0.279-3.256,0.418-6.521,2-9.38c0.567-1.101,1.522-1.953,2.68-2.39c3.55-1.23,5.66,2.94,4.68,5.91
			c-0.82,2.54-3.08,4.28-5.23,5.86c1.838-1.567,4.101-2.553,6.5-2.83c3.1-0.15,6.52,2.1,5.82,5.78
			c-0.228,1.145-0.86,2.171-1.78,2.89c-3,2.37-7.08,1-9.23-1.71c2.69,2.14,5.65,4.8,5,8.47c-0.423,2.143-2.091,3.822-4.23,4.26
			c-5.75,1.26-8.83-5.3-6.65-9.55c0.49,3-2.58,5.45-5.54,6c-1.71,0.34-3.61,0.29-4.83-1.71c-0.589-0.967-0.786-2.123-0.55-3.23
			c0.62-2.89,3.44-4.52,6.2-4.76c1-0.08,2.4-0.65,2-1.53"/>
	</g>
</g>
<title>Element 12</title>
<g id="Ebene_2_7_">
	<g id="Ebene_118_6_">
		<path class="st11" d="M831.671,58.093c-1.92,2.77-7,5.29-10.23,4.36c-6.19-1.77-3.63-7.52-3-7.9c2-1.18,3-1.45,3.81-1.41
			c1.87,0.08,4.92,0,6.66,0.71c-1.89-2.11-4.6-3.58-4.53-6.41c0.07-2.83,2.52-5.69,5.37-5.46c2.194,0.347,3.951,2.001,4.43,4.17
			c0.414,2.124,0.177,4.323-0.68,6.31c1.06-2.87,3-5.66,6-6.59s6.78,0.84,7.05,3.88c0.19,2.12-1.34,4.1-3.22,5.11
			c-1.959,0.89-4.071,1.392-6.22,1.48c-0.4,0.05-1-0.14-0.86-0.51c3.144,0.119,6.122,1.44,8.32,3.69c2,2.05,3,5.72,0.82,7.54
			c-1.134,0.81-2.562,1.094-3.92,0.78c-3.58-0.63-6.85-5.68-7-9.28c0.6,3,2.06,9.57-1.39,11s-7.7-0.5-7.48-4.75
			C825.601,64.413,829.201,58.293,831.671,58.093"/>
	</g>
</g>
<g id="Ebene_2_8_">
	<g id="Ebene_118_7_">
		<path class="st12" d="M956.978,54.225c-1.08,0.31-7.36-0.57-8.79-4.39s1.17-6.5,5-7.83c0.455-0.189,0.965-0.203,1.43-0.04
			c0.429,0.221,0.779,0.571,1,1c1.726,2.77,2.828,5.882,3.23,9.12c1.72-2.85,2.32-6.29,4.05-9.14c1.73-2.85,5.44-5,8.27-3.32
			c2.55,1.54,2.78,5.44,1.27,8c-1.51,2.56-4.21,4.18-6.79,5.66c3.76-2.2,9.47-1.62,11.37,2.35c1.337,3.326-0.275,7.105-3.601,8.442
			c-0.292,0.118-0.593,0.214-0.899,0.288c-3.69,0.67-7.5-2.74-7.42-6.55c1,3.51,1.77,7.37,0.38,10.74
			c-1.39,3.37-5.72,5.67-8.72,3.66c-2-1.35-2.71-4.15-2.2-6.54c0.641-2.365,1.881-4.524,3.6-6.27c-0.15,1-1.19,1.67-2.12,2.15
			c-2.52,1.29-5.14,2.61-7.95,2.41c-2.81-0.2-5.71-2.36-5.57-5.22c0.28-2.203,1.858-4.022,4-4.61c2.096-0.517,4.282-0.544,6.39-0.08
			c1,0.15,3.38-0.41,3,0.48"/>
	</g>
</g>
<title>Element 16</title>
<g id="Ebene_2_9_">
	<g id="Ebene_118_8_">
		<path class="st13" d="M1062.105,47.681c-0.64-5.76,1.43-15.44,10.4-16.54c6.86-0.84,11.42,2.17,13.06,5.86
			c1.64,3.69,1,11.12-0.34,13.64c3.26-3.92,6.16-7.2,10.78-9.3c6.5-2.95,15.55-1.68,17.63,7.22c0.571,2.461,0.474,5.029-0.28,7.44
			c-1.86,6.09-6.71,10.45-11.69,14.17c-4.98,3.72-27.29,9.16-32.67,10.83C1069.325,79.631,1063.475,60.081,1062.105,47.681z"/>
	</g>
</g>
<g id="Ebene_2_10_">
	<g id="Ebene_118_9_">
		<path class="st14" d="M1235.244,80.293c-6.05,0.22-34.76-6-39.56-9.66c-4.8-3.66-7.35-10.81-4.47-16.15
			c2.47-4.58,8.15-6.66,13.33-6.29c5.18,0.37,10,2.76,14.56,5.21c-1.92-6.66-1.71-14.32,3.14-19.69
			c2.872-3.355,7.355-4.86,11.67-3.92c9,2.23,8.83,13.85,7.26,22.76C1237.174,75.253,1233.064,87.833,1235.244,80.293
			c0.1-0.35-0.55,0.42-0.72,0.09"/>
	</g>
</g>
<g id="Ebene_2_11_">
	<g id="Ebene_118_10_">
		<path class="st15" d="M1329.104,59.15c-2.73-2.39-4.62-6-3.94-9.57c0.241-1.366,0.948-2.606,2-3.51
			c1.709-1.181,3.828-1.607,5.86-1.18c4.92,0.73,11,3,10.78,7.9c1.13-3,1.07-4.44,3-7.07c1.849-2.744,4.739-4.612,8-5.17
			c3.26-0.38,6.87,1.4,7.88,4.49c0.86,2.64-0.28,5.57-2.11,7.67c-1.83,2.1-13.45,18.79-13.45,18.79S1331.704,61.43,1329.104,59.15z"
			/>
	</g>
</g>
</svg>
