<?xml version="1.0" encoding="utf-8"?>
<!-- Generator: Adobe Illustrator 22.0.1, SVG Export Plug-In . SVG Version: 6.00 Build 0)  -->
<svg version="1.1" id="Ebene_1" xmlns="http://www.w3.org/2000/svg" xmlns:xlink="http://www.w3.org/1999/xlink" x="0px" y="0px"
	 width="904px" height="452px" viewBox="0 0 904 452" style="enable-background:new 0 0 904 452;" xml:space="preserve">
<style type="text/css">
	.st0{fill:#5E9FD7;}
	.st1{fill:#5279BC;}
	.st2{fill:#F8C29D;}
	.st3{fill:#623A15;}
	.st4{fill:#CCA393;}
	.st5{fill:#C99D43;}
	.st6{fill:#D26D5D;}
	.st7{fill:#8B5046;}
	.st8{fill:#E9AC94;}
	.st9{fill:#8C6D59;}
	.st10{fill:#F3A690;}
	.st11{fill:#9E8B61;}
	.st12{fill:#FBDABC;}
	.st13{fill:#FFFFFF;}
	.st14{fill:#3772A6;}
	.st15{fill:#D3916B;}
	.st16{fill:#F3A1C5;}
	.st17{fill:#FAD6E7;}
	.st18{fill:#4878A0;}
	.st19{fill:#4FABE1;}
</style>
<g>
	<path class="st0" d="M268.893,334.985c14.532-3.182,28.866-8.723,40.15-18.422s19.201-23.992,18.856-38.873
		c-0.055-2.384-161.804,1.08-174.963,13.303c-19.777,18.37,24.92,35.686,36.135,39.468
		C214.625,339.079,242.533,340.757,268.893,334.985z"/>
	<path class="st1" d="M166.289,318.926l142.754-2.364c0,0,12.552-10.991,11.338-25.56l-180.786,1.214L166.289,318.926z"/>
	<path class="st0" d="M335.776,160.712c-8.929-2.067-30.663-11.2-38.147-17.213c-6.902,5.783-1.333,17.578-4.128,21.056
		c-7.119,8.856-13.635,24.672-7.468,35.013c0.714,1.197,1.726,2.262,3.018,2.782c1.249,0.502,2.64,0.458,3.985,0.406
		c3.421-0.132,6.842-0.264,10.262-0.396c1.192-0.046,2.42-0.1,3.5-0.605c0.989-0.462,2.676,16.982,3.411,16.175
		c10.622-11.656,26.944-35.056,31.772-50.072c0.753-2.342-2.383-5.961-4.718-6.828C336.769,160.92,336.27,160.826,335.776,160.712z"
		/>
	<path class="st0" d="M326.775,247.938c-1.079-3.149-2.157-6.619-0.957-9.724c1.127-2.916-0.13-24.556,2.988-38.902
		c0.438-4.951,1.032-9.884,2.031-14.762c0.666-3.251,1.531-6.626,2.825-9.754c-2.692-2.708-7.069-3.352-5.852-10.011
		c0-0.002,0.001-0.003,0.001-0.005c-36.39,21.313-68.302,8.873-97.138-14.96l-51.134-7.585
		c-23.149,4.453-44.634,12.828-44.634,12.828c-9.011,6.037-12.265,3.34-12.948,13.987c1.056,5.764,5.998,14.506,6.75,20.424
		c0.424,0.631,0.859,1.254,1.267,1.896c4.081,6.435,3.82,50.978,4.311,58.583c0.329,5.096-7.278,28.272-7.046,33.373
		c0.741,16.312,21.95,19.982,37.687,24.302s30.767-1.726,46.899-4.19c1.68-4.391,4.397-12.215,6.455-17.856
		c-1.007,5.521,2.428,11.769,7.406,14.889c6.034,3.781,13.362,10.209,20.476,10.509c32.542,1.37,66.858-3.609,95.979-18.206
		L326.775,247.938z"/>
	<path class="st2" d="M164.246,190.414c2.37,9.448,10.201,16.784,19.036,20.874c8.835,4.09,18.667,5.399,28.343,6.467
		c16.032,1.77,32.34,3.006,48.215,0.15s31.468-10.227,41.364-22.972c1.584-2.041,3.036-4.253,3.7-6.751
		c3.592-13.504-16.453-24.085-14.452-37.914c-6.713,12.16-17.317,21.645-28.055,30.452c-9.655,7.918-20.331,15.8-32.764,16.918
		c-12.886,1.159-25.508-5.372-34.673-14.509c-8.462-8.436-12.994-19.231-20.258-28.304
		C165.886,160.149,161.824,180.76,164.246,190.414z"/>
	<g>
		<path class="st3" d="M336.069,103.278c-0.215,9.346-1.329,18.915-6.313,27.357c-4.984,8.443-14.497,15.64-26.006,16.9
			c3.733,4.665,6.392,9.982,6.849,15.518c0.457,5.536-1.431,11.298-5.888,15.531c-0.64,0.607-1.414,1.218-2.397,1.305
			c-0.675,0.06-1.339-0.139-1.973-0.334c-2.313-0.712-4.626-1.424-6.939-2.136c3.551-5.191,4.236-11.598,1.839-17.201
			c-0.599,6.064-6.65,11.511-14.071,12.666c-2.157-1.684-4.675-3.068-7.409-4.071c6.914-4.151,10.386-10.971,13.238-17.522
			c9.621-22.107,15.818-45.179,18.4-68.51c10.018-2.203,20.611-2.695,30.877-1.433"/>
		<path class="st3" d="M142.123,116.521c4.941,14.872,17.654,28.28,35.051,34.681c-8.033-25.564-1.438-52.466-2.393-78.823
			c0.052,1.448-15.671,2.184-17.391,2.061c-3.003-0.214-7.585-2.195-10.455-0.895c-3.636,1.647-4.499,8.457-5.297,11.396
			c-1.325,4.883-2.057,9.875-2.1,14.874C139.49,105.443,140.315,111.08,142.123,116.521z"/>
		<path class="st2" d="M283.084,33.615c-6.416-8.975-20.145-13.246-33.01-13.061c-12.864,0.185-25.153,4.076-37.02,8.076
			c-13.355,4.501-27.247,9.622-35.705,19.079c-4.144,4.633-6.721,10.052-8.756,15.52c-12.739,34.25-5.287,71.663,11.316,104.823
			c6.993,13.967,16.07,27.913,31.026,36.963c4.216,2.551,8.94,4.699,14.12,5.502c8.208,1.274,16.801-0.993,23.662-4.837
			c6.86-3.844,12.233-9.148,17.21-14.553c14.573-15.823,26.684-33.323,33.361-52.271c3.706-10.517,5.707-21.374,7.277-32.233
			c1.535-10.62,2.66-21.418,0.455-31.96c-3.762-17.984-17.141-34.036-34.191-46.05"/>
		<path class="st4" d="M184.813,96.942c1.2-1.189,10.73-3.674,12.415-4.461c3.851-1.798,1.417-4.235,3.579-3.596
			c2.046,0.605,3.445,2.202,4.034,3.892c0.589,1.689,0.602,0.979,0.445,2.729c-0.024,0.265-4.325,1.267-4.581,1.436
			c-0.207,0.136-2.439,1.131-2.706,1.136C192.626,98.182,177.097,104.587,184.813,96.942z"/>
		<path class="st5" d="M260.646,24.304c0.112,6.998-1.87,14.012-5.732,20.283c-3.531,5.733-8.548,10.774-13.526,15.764
			c-4.398,4.409-8.796,8.819-13.351,13.124c-3.738,3.533-7.817,7.127-13.244,8.694c2.894-5.226,5.541-10.54,7.933-15.927
			c-4.735,2.763-9.469,5.525-14.204,8.288c3.4-4.063,6.131-8.488,8.101-13.123c-0.43,2.257-2.588,4.089-5.048,5.226
			s-5.246,1.712-7.927,2.458c-17.524,4.875-31.08,17.983-33.856,32.736c-1.882-5.208-1.22-10.983,1.813-15.827
			c-4.485,3.922-8.414,8.255-11.688,12.888c-0.162-3.179-0.323-6.357-0.485-9.536c-1.74,2.992-3.48,5.983-5.22,8.975
			c-2.033-5.651-6.053-10.777-7.638-16.52c-1.779-6.447-0.357-13.179,1.646-19.582c5.359-17.128,15.547-34.038,33.192-44.542
			c7.102-4.228,15.191-7.286,23.513-9.671c15.653-4.486,33.242-6.594,48.74-1.771c3.597,1.12,7.126,2.665,9.504,5.11
			c1.67,1.718,2.68,3.781,3.666,5.813c1.973,4.061,3.945,8.122,5.917,12.184c-5.311-2.508-13.182,0.044-14.85,4.815"/>
		<path class="st6" d="M222.751,152.477c6.693-0.498,12.917-4.003,15.79-8.894c-6.691,0.158-13.383,0.317-20.074,0.475
			c-4.436,0.105-10.439-0.217-14.327,1.479C208.837,149.85,215.349,153.027,222.751,152.477z"/>
		<path class="st7" d="M208.805,140.57c3.472-1.034,7.646-1.722,10.651,0.018c7.957,1.598,21.572-7.484,29.287-6.122
			c-6.376,0.134-14.279,10.177-20.656,10.312c-1.007,0.021-2.043,0.048-2.963,0.377c-0.987,0.353-1.742,1.02-2.652,1.488
			c-2.113,1.086-5.087,0.943-7.024-0.338c-0.563-0.372-1.063-0.838-1.748-1.038c-0.649-0.189-1.365-0.11-2.048-0.029
			c-6.284,0.75-14.965-7.239-21.249-6.488c2.25-0.269,2.612,0.182,4.497-0.724C197.899,136.584,205.531,141.545,208.805,140.57z"/>
		<path class="st8" d="M275.022,132.927c0.698,0.593-14.398,8.745-16.116,10.03s-3.736,2.645-3.933,4.526
			c0.43-1.243-0.104-2.557-0.656-3.768c-1.74-3.815,4.724-7.629,2.498-11.277c-1.739-2.85-13.719-6.223-14.432-9.238
			C248.928,124.089,270.794,129.338,275.022,132.927z"/>
		<path class="st8" d="M199.592,124.425l-14.024,13.601l4.315,10.128l-19.849-10.832
			C170.034,137.322,183.41,129.634,199.592,124.425z"/>
		<path class="st9" d="M180.893,100.696c0,0,2.517,25.755,25.531,1.447L180.893,100.696z"/>
		<path class="st2" d="M181.992,97.439c0,0,3.576,25.539,26.59,1.231L181.992,97.439z"/>
		<path class="st10" d="M316.545,111.551c-0.356,4.195-0.847,8.385-1.625,12.542c-1.373,7.337-3.843,14.881-9.977,20.421
			c-1.209,1.092-2.93,2.174-4.668,1.748c-1.441-0.354-2.212-1.601-2.645-2.763c-1.765-4.727-0.649-9.801,0.478-14.653
			c1.138-4.898,2.438-9.792,3.338-14.722c0.54-2.955,0.329-6.703,2.068-9.421c1.491-2.329,4.092-3.955,7.603-3.488
			C316.988,101.995,317.009,107.629,316.545,111.551z"/>
		<path class="st10" d="M165.155,110.159c-0.096-1.875-0.616-3.735-1.527-5.463c-0.164-0.31-0.412-0.66-0.829-0.69
			c-0.497-0.037-0.826,0.395-1.011,0.768c-1.713,3.445-1.886,7.242-2.037,10.951c-0.165,4.054-0.329,8.133,0.384,12.149
			c0.713,4.016,2.358,8.005,5.473,11.194c0.16,0.164,0.344,0.336,0.596,0.383c0.617,0.115,0.99-0.536,1.057-1.043
			c0.319-2.44-0.589-4.861-1.347-7.237c-2.748-8.619-3.603-17.545-4.448-26.416"/>
		<path class="st3" d="M287.189,91.672c9.6,13.743,28.491,22.964,48.072,23.465c-0.596-12.335-2.469-25.663-12.927-34.694
			c-6.464-5.582-15.416-8.777-24.107-11.826c-5.619-1.971-21.628-8.21-20.597,0.564C278.501,76.601,282.689,85.229,287.189,91.672z"
			/>
		<path class="st9" d="M239.868,104.424c-0.73-0.913,29.177,0.948,29.177,0.948S256.955,125.774,239.868,104.424z"/>
		<path class="st2" d="M239.868,100.028c-0.73-0.913,29.177,0.948,29.177,0.948S256.955,121.378,239.868,100.028z"/>
		<path class="st9" d="M226.631,183.743c16.033-1.443,30.022-10.846,36.758-22.644c-2.802,8.531-7.449,16.92-15.361,23.029
			c-7.911,6.109-19.514,9.589-30.123,7.359c-10.609-2.23-18.312-9.461-24.753-16.602c-2.52-2.793-5.208-5.969-5.047-9.57
			C194.471,177.519,210.014,185.239,226.631,183.743z"/>
		<path class="st5" d="M298.04,85.555c4.886,2.666,10.33,4.882,16.198,5.397c2.606,0.228,5.777,0.366,6.979,2.241
			c-3.163-3.037-5.352-6.727-6.298-10.616c2.448,2.992,7.383,4.174,9.853,7.155c1.433,1.73,1.86,3.864,2.149,5.93
			c0.828,5.924,0.811,11.925-0.051,17.846c3.599-7.129,5.543-14.797,5.703-22.492c3.566,11.521,2.514,23.938-2.963,34.963
			c8.522-15.194,13.768-31.708,13.823-48.378s-5.235-33.495-16.424-47.524c-4.165-5.222-9.331-10.176-16.238-12.935
			c-13.372-5.342-38.978-0.964-43.853,11.952c-4.401,11.659,2.813,28.35,10.1,38.272C282.296,74.55,289.446,80.866,298.04,85.555z"
			/>
		<path class="st11" d="M204.092,88.413c0.069-0.171,0.165-0.314,0.249-0.47c-0.32-0.172-0.64-0.344-0.96-0.517
			c1.707-2.599,3.213-5.276,4.501-8.003c-6.226,2.949-12.453,5.898-18.679,8.847c4.908,3.315,6.397,0.378,11.249-0.009
			c1.026-0.082,2.239,0.133,3.536,0.52C204.025,88.659,204.044,88.53,204.092,88.413z"/>
		<path class="st11" d="M247.942,90.646c4.928,0.541,9.84-1.359,12.199-4.719c-2.903-0.381-26.096-6.433-26.539-5.819
			C231.021,83.679,245.407,90.367,247.942,90.646z"/>
		<path class="st9" d="M190.405,151.052l-2.299,14.265C188.106,165.317,196.7,157.203,190.405,151.052z"/>
		<path class="st9" d="M252.009,148.518l6.295,19.541C258.304,168.059,262.8,156.118,252.009,148.518z"/>
		<path class="st12" d="M214.377,100.312c0.809,3.163,0.447,6.661-1.875,9.295c-1.81,2.053-4.632,3.397-7.559,4.283
			c-1.313,0.398-2.813,0.82-3.379,1.854c-0.513,0.938-0.044,2.018,0.443,2.965c1.731,3.361,3.783,6.725,7.098,9.198
			c3.316,2.473,8.154,3.908,12.46,2.801c1.563-0.402,3.037-1.154,3.904-2.274c0.685-0.885,0.951-1.934,1.161-2.963
			c2.005-9.83-0.149-20.179-6.025-28.947c-0.975-1.455-6.958-8.124-10.056-5.71C209.196,91.869,213.991,98.802,214.377,100.312z"/>
		<path class="st12" d="M228.592,168.714c1.63,0.108,3.288,0.267,4.77,0.824c2.52,0.947,4.186,2.896,5.728,4.757
			c-6.44,0.481-12.9,0.796-19.366,0.946c-3.623,0.084-11.329,1.393-14.691,0c-1.518-0.629-2.535-2.109-1.8-3.526
			c1.013-1.953,4.945-2.069,7.143-2.369C216.385,168.526,222.519,168.311,228.592,168.714z"/>
		<path class="st5" d="M164.42,15.581c-23.943,15.322-37.411,40.093-37.52,64.711c-0.018,4.179,0.356,8.478,2.574,12.256
			c2.744,4.675,7.977,8.034,13.035,11.22c-0.797-7.278,1.475-14.751,6.358-20.911c-1.632,6.479,1.562,13.594,7.963,17.738
			c-1.172-13.771,6.759-27.251,18.076-37.624s25.827-18.104,40.264-25.557c9.09-4.692,47.088-16.756,37.175-30.327
			c-4.204-5.755-18.819-6.416-26.107-6.855c-10.489-0.633-21.111,0.332-31.206,2.691C183.952,5.513,173.458,9.797,164.42,15.581z"/>
		<path class="st11" d="M253.833,77.072c3.37-3.631,5.598-7.944,6.419-12.428c0.894,4.94,3.54,9.666,7.545,13.478
			c1.385,1.667,1.717,3.871,0.865,5.755c4.601-10.003,7.791-20.544,7.735-31.21c-0.037-6.959-1.443-14.131-4.779-20.582
			c-3.717-7.185-5.578-4.182-8.255,1.522C256.812,47.571,253.052,62.094,253.833,77.072z"/>
		<path class="st11" d="M236.434,77.493c1.717-7.465,3.435-14.93,5.152-22.395c0.865-3.762,1.744-7.559,3.615-11.076
			c2.91-5.468,8.633-12.808,14.641-16.259c5.576,4.43-4.289,19.187-6.819,24.096c-2.34,4.539-4.927,8.995-7.757,13.35
			C242.99,68.714,237.302,73.721,236.434,77.493z"/>
		<path class="st9" d="M224.831,127.245c-1.462-0.557-2.88-1.191-4.241-1.895c-0.688-0.356-1.453-0.983-1.075-1.567
			c0.162-0.25,0.495-0.394,0.821-0.496c2.425-0.761,5.48,0.201,6.619,2.085c-0.947,0.864-2.558,1.213-3.916,0.847"/>
		<path class="st9" d="M204.551,127.709c-0.39-0.975-0.528-2.015-0.403-3.035c0.049-0.397,0.278-0.894,0.774-0.889
			c0.333,0.003,0.576,0.245,0.769,0.464c1.343,1.529,2.687,3.058,4.03,4.587c-1.86-0.36-3.72-0.719-5.58-1.079"/>
		<path class="st11" d="M248.35,12.059c-8.159,0.04-16.317,0.344-24.446,0.911c10.412-1.144,21.215,0.115,30.795,3.59
			c-16.646,1.272-32.422,6.363-47.928,11.399c18.749-3.103,37.99-3.618,57.121-4.123c-21.67,9.234-43.339,18.467-65.009,27.701
			c7.387-3.148,18.772-3.457,26.891-5.438c8.743-2.133,17.358-4.739,25.365-8.307c6.035-2.689,16.288-6.626,15.723-13.204
			C266.216,17.053,256.79,12.018,248.35,12.059z"/>
		<path class="st2" d="M174.87,67.918c4.142-4.243,9.799-7.346,15.535-10.139c-12.504,6.089-15.911,18.883-21.949,28.306
			C162.54,83.269,171.982,70.877,174.87,67.918z"/>
	</g>
	<path class="st13" d="M226.057,216.378c0,0,64.595-22.802,82.314-32.349c-1.933,10.717-9.829,19.661-19.252,25.11
		c-9.423,5.448-20.285,7.835-31.046,9.459c-17.038,2.571-34.336,3.419-51.544,2.526c-10.848-0.563-22.106-1.968-31.238-7.854
		c-8.089-5.214-14.478-15.148-12.536-24.965C178.287,193.366,226.057,216.378,226.057,216.378z"/>
	<path class="st8" d="M266.658,193.044c6.313-2.451,12.476-5.602,17.362-10.293c9.243-8.876,12.78-21.991,15.928-34.417
		c-10.527,11.062-27.275,15.754-42.013,11.77c-4.604,13.889-17.518,24.649-32.003,26.664c-15.893,2.21-24.479-8.019-36.184-16.429
		c-3.206-2.303-14.159-22.66-17.245-19.526c-1.913,1.943,6.158,27.041,6.807,29.062
		C188.093,207.222,247.148,200.619,266.658,193.044z"/>
	<path class="st14" d="M159.636,178.7c-0.121,2.929-0.416,18.201,0.562,20.965c1.357,3.837,4.354,6.827,7.258,9.677
		c1.342,1.317,2.747,2.673,4.525,3.284c2.869,0.986,9.079,3.611,11.888,4.755c-4.857,0.624-11.89-7.327-14.273-11.608
		c-3.421-6.146-4.9-13.294-4.502-20.299c0.219-3.856,0.999-7.691,2.343-11.313c1.137-3.065,5.469-15.091,5.469-15.091
		s-0.404-8.258-2.019-6.639C164.968,158.361,159.977,170.458,159.636,178.7z"/>
	<path class="st14" d="M298.696,197.706c-2.965,6.275-7.776,11.518-13.101,15.966c8.237-1.881,14.975-8.284,18.677-15.883
		c3.59-7.184,5.14-16.472,4.173-24.404C299.23,179.592,303.016,188.564,298.696,197.706z"/>
	<path class="st1" d="M211.268,250.713c4.07-1.051,8.114-2.261,12.276-2.851c6.661-0.944,13.433-0.278,20.131,0.352
		c19.095,1.796,38.531,3.275,57.308-0.629c-16.843,4.38-34.11,7.016-51.45,8.494c-7.931,0.676-15.88,1.111-23.827,1.546
		c-3.8,0.208-7.6,0.416-11.4,0.624c-13.341,0.73-28.953,3.249-42.062,0.691c3.695-3.439,9.849-3.328,14.7-3.857
		C195.149,254.187,203.273,252.777,211.268,250.713z"/>
	<path class="st1" d="M160.259,226.725c-2.522,0.499,144.64-3.119,144.64-3.119S216.993,215.496,160.259,226.725z"/>
	<path class="st0" d="M208.627,366.745c3.623,7.179,5.34,16.209,1.109,23.047c4.507-0.645,9.14-0.401,13.554,0.714
		c2.474-18.397,5.667-36.697,9.569-54.845c-10.077,0.611-20.27-0.76-29.829-4.01c-8.034-2.732-15.667-6.705-24.173-7.794
		c5.251,5.736,5.041,11.526,9.029,18.622C192.907,351.411,203.984,357.545,208.627,366.745z"/>
	<path class="st0" d="M265.542,375.939c3.678,5.23,5.556,12.25,2.972,18.098c6.644-0.43,13.247-1.488,19.692-3.157
		c2.339-9.569-1.208-20.331-8.776-26.631c-1.004-0.836-2.159-1.75-2.284-3.051c-0.085-0.889,0.346-1.737,0.773-2.521
		c6.143-11.273,14.22-22.087,15.772-34.833c-13.011,2.537-38.931,1.874-44.922,16.372
		C241.456,357.916,257.207,364.085,265.542,375.939z"/>
	<path class="st1" d="M154.477,251.228c-3.077-1.889-6.87-2.576-10.414-1.888c-1.977,0.384-12.257-43.275-12.606-47.385
		C143.66,208.775,149.442,238.668,154.477,251.228z"/>
	<path class="st1" d="M310.321,248.495c3.704-1.483,5.302-5.83,5.943-9.77c0.64-3.941,0.842-8.206,3.265-11.378
		c-2.256,11.481-1.324,23.572,2.663,34.572c1.056-18.788,2.113-37.576,3.169-56.364c0.334-5.946,0.801-11.808,2.737-17.482
		c-0.378,9.146-6.622,18.569-9.521,27.219C314.947,226.117,312.18,237.229,310.321,248.495z"/>
	<path d="M208.473,93.954c-4.712,2.1-10.53,2.348-15.65,2.989c-3.733,0.467-7.192-0.203-10.831,0.497
		C189.918,105.519,200.931,97.315,208.473,93.954z"/>
	<g>
		<path class="st4" d="M258.666,96.943c-1.2-1.189-9.348-3.39-11.033-4.177c-3.851-1.798-2.799-4.519-4.96-3.88
			c-2.046,0.605-3.445,2.202-4.034,3.892s-0.602,0.979-0.445,2.729c0.024,0.265,4.325,1.267,4.581,1.436
			c0.207,0.136,2.439,1.131,2.706,1.136C250.852,98.182,266.381,104.587,258.666,96.943z"/>
		<path d="M235.005,93.954c4.712,2.1,10.492,3.141,15.65,2.989c10.292-0.303,20.156-3.64,14.785-0.508
			C257.514,104.515,242.548,97.315,235.005,93.954z"/>
	</g>
	<path class="st1" d="M117.474,247.38c3.452,7.602,8.217,14.754,14.747,19.953c8.824,7.025,20.116,9.978,31.046,12.755
		c8.48,2.155,16.96,4.31,25.441,6.465c1.141-6.835,4.342-13.312,9.077-18.368c-19.403-11.253-38.805-22.507-58.208-33.76
		c-1.509-0.875-3.073-1.802-4.026-3.263c-0.787-1.206-1.078-2.66-1.353-4.074c-2.426-12.472-4.853-24.944-7.279-37.416
		c-0.508-2.614-0.913-13.524-4.509-14.334c-2.929-0.66-5.993,9.524-6.795,11.713C108.48,206.509,109.057,228.431,117.474,247.38z"/>
	<path class="st0" d="M119.324,242.443c3.452,7.602,8.217,14.754,14.747,19.953c8.824,7.025,20.116,9.978,31.046,12.755
		c8.48,2.155,16.96,4.31,25.44,6.465c1.141-6.835,4.342-13.312,9.077-18.368c-19.403-11.253-38.805-22.507-58.208-33.76
		c-1.509-0.875-3.073-1.802-4.026-3.263c-0.787-1.206-1.078-2.66-1.353-4.074c-2.426-12.472,2.529-24.675-3.368-36.013
		c-1.229-2.363-4.825-14.927-8.421-15.737c-2.929-0.66-5.993,9.524-6.795,11.713C110.33,201.572,110.907,223.494,119.324,242.443z"
		/>
	<path class="st1" d="M342.051,244.701c-3.452,7.602-8.217,14.754-14.747,19.953c-8.824,7.025-20.116,9.978-31.046,12.755
		c-8.48,2.155-16.96,4.31-25.44,6.465c-1.141-6.835-4.342-13.312-9.077-18.368c19.402-11.253,38.805-22.507,58.208-33.76
		c1.509-0.875,3.073-1.802,4.026-3.263c0.787-1.206,1.078-2.66,1.353-4.074c2.426-12.472,4.853-24.944,7.279-37.415
		c0.508-2.615,0.913-13.524,4.509-14.334c2.929-0.66,5.993,9.524,6.795,11.713C351.045,203.83,350.467,225.752,342.051,244.701z"/>
	<path class="st15" d="M225.815,282.826c2.221,1.946,4.235,4.402,4.62,7.331c-0.201-1.622,0.661-3.171,1.545-4.546
		c3.073-4.785,6.934-9.267,12.017-11.815c-4.279,6.14-8.607,12.371-11.143,19.414c-0.625,1.737-1.146,3.532-2.086,5.121
		c-0.132,0.223-0.291,0.457-0.536,0.541c-0.364,0.124-0.742-0.131-1.018-0.398c-1.925-1.856-2.347-4.722-3.262-7.236
		c-1.102-3.03-3.004-5.65-4.748-8.329c-1.111-1.707-4.099-5.358-2.949-7.473c1.08,0.599,1.627,2.094,2.442,3.037
		C222.159,280.159,224.14,281.359,225.815,282.826z"/>
	<path class="st0" d="M340.2,239.764c-3.452,7.602-8.217,14.754-14.747,19.953c-8.824,7.025-20.116,9.978-31.046,12.755
		c-8.48,2.155-16.96,4.31-25.44,6.465c-1.141-6.835-4.342-13.312-9.077-18.368c19.403-11.253,38.805-22.507,58.208-33.76
		c1.509-0.875,3.073-1.802,4.026-3.263c0.787-1.206,1.078-2.66,1.353-4.074c2.426-12.472-0.6-23.246,1.826-35.718
		c0.508-2.614,6.367-15.222,9.963-16.031c2.929-0.66,4.724,1.126,5.526,3.315C347.926,190.495,348.617,220.815,340.2,239.764z"/>
	<path class="st2" d="M223.414,256.093c1.066-0.764,3.164-4.87,4.382-4.385c1.03,0.41,0.926,5.052,0.701,6.139
		c-0.225,1.086,1.042,2.111,0.207,2.842c-3.222,2.823-7.63,3.737-11.591,5.366c-1.403,0.577-2.958,1.521-3.056,3.035
		c-0.06,0.929,0.285,1.94,0.978,2.561c10.833,9.699,15.919,23.235,13.813,28.115c-0.987,0.175-1.924-0.631-2.295-1.563
		c-0.371-0.931-0.332-1.966-0.383-2.968c-0.357-6.988-11.049-11.765-17.115-15.246c-6.065-3.482-13.08-4.841-19.949-6.148
		c0.761,0.143,4.725-7.504,5.825-8.301c2.493-1.804,5.011-1.313,7.987-1.469C211.068,263.644,216.75,260.864,223.414,256.093z"/>
	<path class="st2" d="M233.23,257.496c-1.067-0.764-3.339-6.098-4.557-5.613c-1.03,0.41-0.05,8.56,0.175,9.647
		s-0.978-1.572-0.143-0.841c3.222,2.823,6.842,3.34,10.804,4.968c1.403,0.577,2.958,1.521,3.056,3.035
		c0.06,0.929-0.467,1.783-0.978,2.561c-2.916,4.443-5.971,8.867-7.836,13.845c-1.865,4.977-5.782,9.437-3.676,14.317
		c0.987,0.175,2.403-2.156,2.454-3.157c0.357-6.988,8.972-13.184,15.038-16.666c6.065-3.482,13.08-4.841,19.949-6.148
		c-0.761,0.143-4.725-7.504-5.825-8.301c-2.493-1.804-5.011-1.313-7.987-1.469C245.554,263.247,239.894,262.267,233.23,257.496z"/>
	<g>
		<path class="st16" d="M211.108,356.159c9.026-5.707,19.809-10.194,30.197-7.728c10.389,2.466,18.742,14.585,13.919,24.116
			c6.272-6.529,15.525-9.381,24.54-10.185c10.012-0.892,21.047,0.86,27.966,8.155s6.951,21.194-1.825,26.096
			c9.033-1.055,18.478,3.767,22.928,11.703c4.449,7.937,3.637,18.516-1.972,25.679c-4.212,5.379-10.58,8.636-17.036,10.867
			c-10.34,3.573-21.752,4.896-32.241,1.789c-10.489-3.107-19.84-11.144-22.746-21.696c2.72,9.875-29.055,25.746-36.057,26.706
			c-18.219,2.497-25.223-9.109-31.203-24.537c-53.523,33.47-65.576-85.131,9.459-51.106
			C197.862,367.059,203.75,360.811,211.108,356.159z"/>
		<path class="st17" d="M188.889,372.127c7.559-12.358,19.105-23.211,33.353-25.793s30.829,5.578,34.056,19.702
			c11.077-11.933,30.561-15.933,44.489-7.504c13.927,8.429,19.04,29.457,9.024,42.295c5.648-8.349,2.484-20.677-5.367-26.996
			s-19.022-7.28-28.744-4.631c-9.722,2.649-18.26,8.464-26.196,14.677c1.365-12.58-10.383-24.42-23.027-24.656
			c-12.644-0.237-24.243,9.726-27.586,21.929c1.849-6.75-23.268-6.951-26.242-6.251c-11.024,2.594-16.772,10.279-23.896,18.124
			c-9.293-5.604,3.779-18.49,9.374-21.638C167.472,366.125,179.834,366.339,188.889,372.127z"/>
		<path class="st17" d="M322.934,402.578c-8.205-3.882-17.114-7.245-26.136-6.253c-8.472,0.932-16.408,5.916-20.929,13.146
			c3.657-8.299,10.059-15.665,18.479-19.024c8.42-3.359,18.886-2.094,25.338,4.276c4.896,4.834,6.995,11.815,8.129,18.604"/>
		<path class="st17" d="M201.563,383.038c5.978-2.561,13.014-2.531,18.969,0.083c-7.608,0.846-15.236,2.377-22.13,5.707
			c-6.893,3.33-13.043,8.602-16.352,15.509C185.369,397.375,194.381,386.115,201.563,383.038z"/>
	</g>
</g>
<g>
	<path class="st0" d="M720.896,334.944c14.532-3.182,28.866-8.723,40.15-18.422c11.284-9.699,19.201-23.992,18.856-38.873
		c-0.055-2.384-161.804,1.08-174.963,13.303c-19.777,18.37,24.92,35.686,36.135,39.468
		C666.629,339.037,694.537,340.716,720.896,334.944z"/>
	<path class="st1" d="M618.292,318.885l142.754-2.363c0,0,12.552-10.991,11.338-25.56l-180.786,1.214L618.292,318.885z"/>
	<g>
		<path class="st18" d="M857.462,87.585c-0.294-0.977-2.639-2.466-2.456-3.471c0.183-1.005,0.23-3.456,3.147-2.765
			c0.745,0.176,2.261,2.041,2.753,2.647c3.234,3.977,5.536,8.758,6.653,13.824c0.166,0.751,0.284,1.614-0.168,2.226
			c-0.26,0.352-0.669,0.554-1.081,0.675c-1.851,0.547-3.875-0.339-5.247-1.736c-1.371-1.397-5.008-0.55-5.829-2.351
			c-1.621-3.554-0.808-10.339-0.154-14.21"/>
		<path class="st2" d="M855.384,92.601c1.664-14.35,15.167-26.333,29.605-26.272c0.297,1.117-0.913,2.007-1.944,2.529
			c-4.485,2.272-8.97,4.543-13.456,6.815c4.819-0.94,9.638-1.88,14.457-2.819c4.268-0.832,8.697-1.734,12.176-4.342
			c2.428-1.82,6.588-6.406,7.776-4.182c-0.48,2.965-7.16,9.96-9.536,11.796c-6.741,5.209-9.443,5.599-17.25,9.007
			c-3.836,1.675-7.928,2.915-11.31,5.382c-3.3,2.406-5.701,5.819-8.04,9.167c-2.846,4.074-5.692,8.148-8.538,12.221"/>
		<path class="st12" d="M889.805,74.951c1.322-4.737,3.574-6.767,6.15-10.956c1.292-1.392,2.186-3.281,3.379-2.188
			c1.399,1.284-2.002,7.238-2.584,9.347c-1.034,3.748-2.833,7.32-5.948,9.644c-3.116,2.324-10.487,3.581-14.034,5.168
			c-5.257,2.351-10.508,5.063-15.905,7.021c0.419-5.176,4.165-8.483,8.347-10.845c3.204-1.81,6.457-3.441,9.935-4.662
			C880.05,77.161,889.744,75.168,889.805,74.951z"/>
	</g>
	<g>
		<path class="st18" d="M497.538,98.306c0.294-0.977,2.639-2.466,2.456-3.471c-0.183-1.005-0.23-3.456-3.147-2.765
			c-0.745,0.176-2.261,2.041-2.753,2.647c-3.234,3.977-5.536,8.758-6.653,13.824c-0.166,0.751-0.284,1.614,0.168,2.226
			c0.26,0.352,0.669,0.554,1.081,0.675c1.851,0.547,3.875-0.339,5.247-1.736c1.371-1.397,5.008-0.55,5.829-2.351
			c1.621-3.554,0.808-10.339,0.154-14.21"/>
		<path class="st2" d="M499.616,103.323c-1.664-14.351-15.167-26.334-29.605-26.272c-0.297,1.117,0.913,2.007,1.944,2.529
			c4.485,2.272,8.97,4.543,13.456,6.815c-4.819-0.94-9.638-1.88-14.458-2.819c-4.268-0.832-8.697-1.734-12.176-4.343
			c-2.428-1.82-6.588-6.406-7.777-4.182c0.48,2.965,7.16,9.96,9.536,11.796c6.741,5.209,9.443,5.599,17.25,9.007
			c3.836,1.675,7.928,2.915,11.31,5.382c3.3,2.406,5.701,5.819,8.04,9.167c2.846,4.074,5.692,8.148,8.538,12.221"/>
		<path class="st12" d="M465.195,85.672c-1.322-4.737-3.574-6.767-6.15-10.956c-1.292-1.392-2.186-3.281-3.379-2.187
			c-1.399,1.284,2.002,7.238,2.584,9.347c1.034,3.748,2.833,7.32,5.948,9.644c3.116,2.324,10.487,3.581,14.034,5.168
			c5.257,2.351,10.508,5.063,15.905,7.021c-0.419-5.176-4.165-8.483-8.347-10.845c-3.204-1.81-6.457-3.441-9.935-4.662
			C474.95,87.883,465.256,85.89,465.195,85.672z"/>
	</g>
	<path class="st0" d="M790.804,132.137c3.552,2.135,3.994,9.795,2.517,14.39c-1.695,5.271-5.496,20.271-7.19,25.542
		c-4.828,15.016-14.199,15.917-24.821,27.573c-0.735,0.807-1.519,1.61-2.508,2.072c-1.08,0.505-2.308,0.559-3.5,0.605
		c-3.421,0.132-6.841,0.264-10.262,0.396c-1.345,0.052-2.736,0.096-3.985-0.406c-1.292-0.52-2.305-1.585-3.018-2.782
		c-6.167-10.341,0.349-26.157,7.468-35.013C752.54,155.763,779.861,131.954,790.804,132.137z"/>
	<path class="st0" d="M631.543,142.194c-23.149,4.453-29.957,8.113-51.327-1.843c-10.301-4.799-69.627-39.684-79.325-48.497
		c0,0-9.997,19.451-12.586,19.665c42.022,33.685,75.345,50.913,93.673,79.811c4.081,6.435,3.82,50.978,4.311,58.583
		c0.329,5.096-7.278,28.272-7.046,33.373c0.741,16.312,21.95,19.982,37.687,24.302s30.767-1.726,46.899-4.19
		c2.053-5.367,5.658-15.867,7.711-21.234c-3.668,6.106,0.116,14.486,6.15,18.267s13.362,10.209,20.476,10.509
		c32.542,1.37,66.858-3.609,95.979-18.206c-5.122-14.945-10.244-29.891-15.365-44.837c-1.079-3.149-2.157-6.619-0.957-9.724
		c1.376-3.56-0.807-35.041,5.767-47.067c2.36-4.318,68.625-60.454,83.695-91.042c-9.427,0.625-13.198-9.652-12.033-17.992
		c-37.693,47.99-123.585,108.195-172.573,67.706"/>
	<path class="st2" d="M616.25,190.373c2.37,9.448,10.201,16.784,19.036,20.874c8.835,4.09,18.667,5.399,28.343,6.467
		c16.032,1.77,32.34,3.006,48.215,0.15c15.875-2.855,31.468-10.227,41.364-22.972c1.584-2.041,3.036-4.253,3.7-6.751
		c3.592-13.504-16.453-24.085-14.452-37.914c-6.713,12.16-17.317,21.645-28.055,30.452c-9.655,7.918-20.33,15.8-32.764,16.918
		c-12.886,1.159-25.508-5.372-34.673-14.509c-8.462-8.436-12.994-19.231-20.258-28.304
		C617.889,160.108,613.828,180.719,616.25,190.373z"/>
	<g>
		<path class="st3" d="M788.073,103.236c-0.215,9.346-1.329,18.915-6.313,27.357c-4.984,8.443-14.497,15.64-26.006,16.9
			c3.733,4.665,6.392,9.982,6.849,15.518c0.457,5.536-1.431,11.298-5.888,15.531c-0.64,0.607-1.414,1.218-2.397,1.305
			c-0.675,0.06-1.339-0.139-1.973-0.334c-2.313-0.712-4.626-1.424-6.939-2.136c3.551-5.191,4.236-11.598,1.839-17.201
			c-0.599,6.064-6.65,11.511-14.071,12.666c-2.157-1.684-4.675-3.068-7.409-4.071c6.914-4.151,10.386-10.971,13.238-17.522
			c9.621-22.107,15.818-45.179,18.4-68.51c10.018-2.203,20.611-2.695,30.877-1.433"/>
		<path class="st3" d="M594.126,116.48c4.941,14.872,17.654,28.28,35.051,34.681c-8.033-25.564-1.438-52.466-2.393-78.823
			c0.052,1.448-15.671,2.184-17.391,2.061c-3.003-0.214-7.585-2.195-10.455-0.895c-3.636,1.647-4.499,8.457-5.297,11.396
			c-1.325,4.883-2.057,9.875-2.1,14.874C591.493,105.402,592.319,111.039,594.126,116.48z"/>
		<path class="st2" d="M735.088,33.574c-6.416-8.975-20.145-13.246-33.01-13.061c-12.864,0.185-25.153,4.076-37.02,8.076
			c-13.355,4.501-27.247,9.622-35.705,19.079c-4.144,4.633-6.721,10.052-8.756,15.52c-12.739,34.25-5.287,71.663,11.316,104.823
			c6.993,13.967,16.07,27.913,31.026,36.963c4.216,2.551,8.94,4.698,14.12,5.502c8.208,1.274,16.801-0.993,23.662-4.837
			c6.86-3.844,12.233-9.148,17.21-14.553c14.573-15.823,26.684-33.323,33.361-52.271c3.706-10.517,5.707-21.374,7.277-32.233
			c1.535-10.62,2.66-21.418,0.455-31.96c-3.762-17.984-17.141-34.036-34.191-46.05"/>
		<path class="st13" d="M641.297,91.811c1.2-1.189,3.017-1.844,4.795-2.389c2.152-0.659,4.556-1.217,6.718-0.578
			c2.046,0.605,3.445,2.202,4.034,3.892c0.589,1.689,0.486,3.479,0.329,5.229c-0.024,0.265-0.068,0.562-0.324,0.73
			c-0.207,0.136-0.495,0.149-0.762,0.154C650.714,98.952,633.582,99.456,641.297,91.811z"/>
		<ellipse class="st19" cx="647.28" cy="92.263" rx="3.529" ry="2.84"/>
		<path d="M632.771,96.527c-2.016-0.645-3.47-2.718-2.309-4.193c0.189-0.24,0.749-0.389,0.794-0.107
			c-0.235,0.059-0.182,0.376,0.04,0.461c0.223,0.085,0.486,0.013,0.71-0.069c1.866-0.68,3.25-1.978,4.847-3.011
			c2.505-1.621,5.63-2.613,8.836-2.805c1.007-0.06,2.032-0.042,3.008,0.164c2.685,0.568,6.34,2.94,8.05,4.7
			c-0.729-1.58-4.929-2.65-7.022-2.597c-3.544,0.091-6.967,4.272-9.092,6.569C638.292,98.17,637.93,98.176,632.771,96.527z"/>
		<path class="st13" d="M715.795,99.637c-4.423,0.429-24.96,2.579-17.271-5.659c2.404-2.576,7.879-3.73,11.477-2.34
			C711.415,92.185,717.245,99.497,715.795,99.637z"/>
		<path d="M714.978,91.351c-2.8-3.023-8.229-3.421-12.881-2.971c-2.67,0.258-5.636,0.914-7.151,2.604
			c0.951-0.505,2.018-0.87,3.142-1.025c2.82-0.387,5.66,0.424,8.331,1.249c3.615,1.117,8.657,7.878,10.896,10.42
			c1.528,1.735,1.22-1.35,3.733-0.694C717.221,98.976,717.689,94.277,714.978,91.351z"/>
		<path class="st5" d="M712.65,24.263c0.112,6.998-1.87,14.012-5.732,20.283c-3.531,5.733-8.548,10.774-13.526,15.764
			c-4.398,4.409-8.796,8.819-13.351,13.124c-3.738,3.533-7.817,7.127-13.244,8.694c2.894-5.226,5.541-10.54,7.933-15.927
			c-4.735,2.763-9.469,5.525-14.204,8.288c3.4-4.063,6.131-8.488,8.101-13.123c-0.43,2.257-2.588,4.089-5.048,5.226
			c-2.46,1.137-5.246,1.712-7.927,2.458c-17.524,4.875-31.08,17.983-33.856,32.736c-1.882-5.208-1.22-10.983,1.813-15.827
			c-4.485,3.922-8.414,8.255-11.688,12.888c-0.162-3.179-0.323-6.357-0.485-9.536c-1.74,2.992-3.48,5.983-5.22,8.975
			c-2.033-5.651-6.053-10.777-7.638-16.52c-1.779-6.447-0.357-13.179,1.646-19.582c5.359-17.128,15.547-34.038,33.192-44.542
			c7.102-4.228,15.191-7.286,23.513-9.671c15.653-4.486,33.242-6.594,48.74-1.771c3.597,1.119,7.126,2.665,9.504,5.11
			c1.67,1.718,2.68,3.781,3.666,5.813c1.972,4.061,3.945,8.122,5.917,12.184c-5.311-2.508-13.182,0.044-14.85,4.815"/>
		<path class="st6" d="M674.754,152.436c6.693-0.498,12.917-4.003,15.79-8.894c-6.691,0.158-13.383,0.317-20.074,0.475
			c-4.436,0.105-10.439-0.217-14.327,1.479C660.84,149.809,667.353,152.986,674.754,152.436z"/>
		<path class="st19" d="M699.927,93.938c0-1.569,1.58-2.84,3.529-2.84c1.949,0,3.529,1.272,3.529,2.84c0,1.569-1.58,2.84-3.529,2.84
			C701.507,96.778,699.927,95.507,699.927,93.938z"/>
		<path class="st7" d="M660.809,140.529c3.472-1.034,7.646-1.722,10.651,0.018c7.957,1.598,21.572-7.484,29.287-6.122
			c-6.376,0.134-14.279,10.177-20.656,10.312c-1.006,0.021-2.043,0.048-2.963,0.377c-0.987,0.353-1.742,1.02-2.652,1.488
			c-2.113,1.086-5.087,0.943-7.024-0.338c-0.563-0.372-1.063-0.838-1.748-1.038c-0.649-0.189-1.365-0.11-2.048-0.029
			c-6.284,0.75-14.965-7.239-21.249-6.488c2.25-0.269,2.612,0.182,4.497-0.724C649.902,136.543,657.535,141.503,660.809,140.529z"/>
		<path class="st8" d="M727.025,132.885c0.698,0.593-14.398,8.745-16.116,10.03s-3.736,2.645-3.933,4.526
			c0.43-1.243-0.104-2.557-0.656-3.768c-1.74-3.815,4.724-7.629,2.499-11.277c-1.739-2.85-13.719-6.223-14.432-9.238
			C700.932,124.048,722.798,129.297,727.025,132.885z"/>
		<path class="st8" d="M651.595,124.384l-14.024,13.601l4.315,10.128l-19.849-10.832
			C622.037,137.281,635.414,129.593,651.595,124.384z"/>
		<path class="st9" d="M632.897,100.655c0,0,2.517,25.755,25.531,1.447L632.897,100.655z"/>
		<path class="st2" d="M635.054,97.182c0,0,2.517,25.755,25.531,1.447L635.054,97.182z"/>
		<path class="st10" d="M768.548,111.51c-0.356,4.195-0.847,8.385-1.625,12.542c-1.373,7.337-3.843,14.881-9.977,20.421
			c-1.209,1.092-2.93,2.174-4.668,1.748c-1.441-0.354-2.212-1.601-2.645-2.763c-1.765-4.727-0.649-9.801,0.478-14.653
			c1.138-4.898,2.438-9.792,3.338-14.722c0.539-2.954,0.329-6.703,2.068-9.421c1.491-2.329,4.092-3.955,7.603-3.488
			C768.991,101.954,769.013,107.588,768.548,111.51z"/>
		<path class="st10" d="M617.159,110.118c-0.096-1.875-0.616-3.735-1.527-5.463c-0.164-0.31-0.412-0.66-0.829-0.69
			c-0.497-0.037-0.826,0.395-1.011,0.768c-1.713,3.445-1.886,7.242-2.037,10.951c-0.165,4.054-0.329,8.133,0.384,12.149
			c0.713,4.016,2.358,8.005,5.473,11.194c0.16,0.164,0.344,0.336,0.596,0.383c0.617,0.115,0.99-0.536,1.057-1.043
			c0.319-2.44-0.589-4.861-1.347-7.237c-2.748-8.619-3.603-17.545-4.448-26.417"/>
		<path class="st3" d="M739.193,91.631c9.6,13.743,28.491,22.964,48.072,23.465c-0.595-12.335-2.469-25.663-12.927-34.694
			c-6.464-5.582-15.416-8.777-24.107-11.826c-5.619-1.972-21.628-8.21-20.597,0.564C730.504,76.56,734.692,85.188,739.193,91.631z"
			/>
		<path class="st9" d="M691.871,104.383c-0.73-0.913,29.177,0.948,29.177,0.948S708.958,125.733,691.871,104.383z"/>
		<path class="st2" d="M691.871,99.987c-0.73-0.913,29.177,0.948,29.177,0.948S708.958,121.337,691.871,99.987z"/>
		<path class="st9" d="M678.634,183.702c16.033-1.443,30.022-10.846,36.758-22.644c-2.802,8.531-7.449,16.92-15.361,23.029
			c-7.911,6.109-19.514,9.589-30.123,7.359c-10.609-2.23-18.312-9.461-24.753-16.602c-2.52-2.793-5.208-5.969-5.047-9.57
			C646.475,177.478,662.017,185.198,678.634,183.702z"/>
		<path class="st5" d="M750.044,85.514c4.886,2.666,10.33,4.882,16.198,5.397c2.606,0.228,5.777,0.366,6.979,2.241
			c-3.163-3.037-5.352-6.727-6.298-10.616c2.448,2.992,7.383,4.174,9.853,7.155c1.433,1.73,1.86,3.864,2.149,5.93
			c0.828,5.924,0.811,11.925-0.051,17.846c3.599-7.129,5.543-14.797,5.703-22.492c3.566,11.521,2.514,23.938-2.963,34.963
			c8.522-15.194,13.768-31.708,13.823-48.378c0.055-16.67-5.235-33.495-16.424-47.524c-4.165-5.222-9.331-10.176-16.238-12.935
			c-13.372-5.342-38.978-0.964-43.853,11.952c-4.401,11.659,2.813,28.35,10.1,38.272C734.299,74.509,741.449,80.824,750.044,85.514z
			"/>
		<path class="st11" d="M641.695,81.398c6.882-0.289,13.765-0.578,20.647-0.867c-2.248,2.009-4.677,3.888-7.261,5.616
			c2.881,3.585,5.762,7.17,8.642,10.755c-2.729-2.746-7.671-9.801-11.664-11.128C647.44,84.239,644.925,86.364,641.695,81.398z"/>
		<path class="st11" d="M702.709,88.474c4.917-0.628,9.248-3.626,10.756-7.445c-2.912,0.31-26.876-0.141-27.163,0.559
			C684.629,85.665,700.179,88.798,702.709,88.474z"/>
		<path class="st9" d="M642.408,151.01l-2.299,14.265C640.109,165.275,648.704,157.162,642.408,151.01z"/>
		<path class="st9" d="M704.012,148.477l6.295,19.541C710.307,168.018,714.804,156.077,704.012,148.477z"/>
		<path class="st12" d="M666.381,100.271c0.809,3.163,0.447,6.661-1.875,9.295c-1.81,2.053-4.632,3.397-7.559,4.283
			c-1.313,0.398-2.813,0.82-3.379,1.854c-0.513,0.938-0.044,2.018,0.443,2.965c1.731,3.361,3.783,6.725,7.098,9.198
			c3.316,2.473,8.154,3.908,12.46,2.801c1.563-0.402,3.037-1.154,3.904-2.274c0.685-0.885,0.951-1.934,1.161-2.963
			c2.005-9.83-0.149-20.179-6.025-28.947c-0.975-1.455-6.958-8.124-10.056-5.71C661.199,91.828,665.994,98.761,666.381,100.271z"/>
		<path class="st12" d="M680.596,168.673c1.63,0.108,3.288,0.267,4.77,0.824c2.52,0.947,4.186,2.896,5.728,4.757
			c-6.44,0.481-12.9,0.796-19.366,0.946c-3.623,0.084-11.329,1.393-14.691,0c-1.518-0.629-2.535-2.109-1.8-3.526
			c1.013-1.953,4.945-2.069,7.143-2.369C668.388,168.485,674.522,168.27,680.596,168.673z"/>
		<path class="st5" d="M616.424,15.539c-23.943,15.322-37.411,40.093-37.52,64.711c-0.018,4.179,0.356,8.478,2.574,12.256
			c2.744,4.675,7.977,8.034,13.035,11.22c-0.797-7.278,1.475-14.751,6.358-20.911c-1.632,6.479,1.562,13.594,7.963,17.738
			c-1.172-13.771,6.759-27.251,18.076-37.624c11.317-10.373,25.827-18.104,40.264-25.557c9.09-4.692,47.088-16.756,37.175-30.327
			c-4.204-5.755-18.819-6.416-26.107-6.855c-10.489-0.633-21.111,0.332-31.206,2.691C635.955,5.472,625.461,9.756,616.424,15.539z"
			/>
		<path class="st11" d="M705.836,77.031c3.37-3.631,5.598-7.944,6.419-12.428c0.894,4.94,3.54,9.666,7.545,13.478
			c1.385,1.667,1.717,3.871,0.865,5.755c4.601-10.003,7.791-20.544,7.735-31.21c-0.037-6.959-1.443-14.131-4.779-20.582
			c-3.717-7.185-5.578-4.182-8.255,1.522C708.815,47.53,705.055,62.053,705.836,77.031z"/>
		<path class="st11" d="M688.438,77.452c1.717-7.465,3.435-14.93,5.152-22.395c0.865-3.762,1.744-7.559,3.615-11.076
			c2.91-5.468,8.633-12.808,14.641-16.259c5.576,4.43-4.289,19.187-6.819,24.096c-2.34,4.539-4.927,8.995-7.757,13.35
			C694.994,68.673,689.305,73.68,688.438,77.452z"/>
		<path class="st9" d="M676.834,127.204c-1.462-0.557-2.88-1.191-4.241-1.895c-0.688-0.356-1.453-0.983-1.075-1.567
			c0.162-0.25,0.495-0.394,0.821-0.496c2.425-0.761,5.48,0.201,6.619,2.085c-0.947,0.864-2.558,1.213-3.916,0.847"/>
		<path class="st9" d="M656.554,127.668c-0.39-0.975-0.528-2.015-0.403-3.035c0.049-0.397,0.278-0.894,0.774-0.889
			c0.333,0.003,0.576,0.245,0.769,0.464c1.343,1.529,2.687,3.058,4.031,4.587c-1.86-0.36-3.72-0.719-5.58-1.079"/>
		<path class="st11" d="M700.354,12.018c-8.159,0.04-16.317,0.344-24.446,0.911c10.412-1.144,21.215,0.115,30.795,3.59
			c-16.646,1.272-32.422,6.363-47.928,11.399c18.749-3.103,37.99-3.618,57.121-4.123c-21.67,9.234-43.339,18.467-65.009,27.701
			c7.387-3.148,18.772-3.457,26.891-5.438c8.743-2.133,17.358-4.739,25.365-8.307c6.035-2.689,16.289-6.626,15.723-13.204
			C718.219,17.012,708.794,11.977,700.354,12.018z"/>
		<path class="st2" d="M626.873,67.877c4.142-4.243,9.799-7.346,15.535-10.139c-12.504,6.089-15.911,18.883-21.949,28.306
			C614.544,83.228,623.985,70.835,626.873,67.877z"/>
	</g>
	<path class="st0" d="M621.624,152.168c-8.179-3.502-14.884-9.646-22.19-14.726c-7.305-5.08-15.996-9.272-24.797-7.971
		c-0.998,0.148-2.036,0.39-2.783,1.068c-0.806,0.731-1.088,1.748-1.088,2.842s0.281,2.266,0.601,3.306
		c5.289,17.232,12.2,33.966,20.61,49.908c2.394,4.537,6.269,9.707,11.313,8.784c0.77-0.141,1.608-0.527,1.82-1.281
		c0.212-0.754-0.769-1.64-1.345-1.109L621.624,152.168z"/>
	<path class="st13" d="M678.06,216.337c0,0,64.595-22.802,82.314-32.349c-1.933,10.717-9.829,19.661-19.252,25.11
		c-9.423,5.448-20.285,7.835-31.047,9.459c-17.038,2.571-34.336,3.419-51.544,2.526c-10.848-0.563-22.106-1.968-31.238-7.854
		c-8.089-5.214-14.478-15.148-12.536-24.965C630.29,193.325,678.06,216.337,678.06,216.337z"/>
	<path class="st8" d="M718.661,193.003c6.313-2.451,12.476-5.602,17.362-10.293c9.243-8.876,12.78-21.991,15.928-34.417
		c-10.527,11.062-27.275,15.754-42.013,11.77c-4.604,13.889-17.518,24.649-32.003,26.664c-15.893,2.21-24.479-8.019-36.184-16.428
		c-3.206-2.303-14.159-22.66-17.245-19.526c-1.913,1.943,6.158,27.041,6.807,29.062
		C640.097,207.181,699.151,200.578,718.661,193.003z"/>
	<path class="st14" d="M611.639,178.659c-0.121,2.929-0.416,18.201,0.562,20.965c1.357,3.837,4.354,6.827,7.258,9.677
		c1.342,1.317,2.747,2.673,4.525,3.284c2.869,0.986,9.079,3.611,11.888,4.755c-4.857,0.624-11.89-7.327-14.273-11.608
		c-3.421-6.146-4.9-13.294-4.502-20.299c0.219-3.856,0.999-7.691,2.343-11.313c1.137-3.065,5.469-15.091,5.469-15.091
		s-0.404-8.258-2.019-6.639C616.971,158.32,611.981,170.417,611.639,178.659z"/>
	<polygon class="st1" points="571.367,136.687 583.089,182.993 560.873,129.087 	"/>
	<polygon class="st1" points="793.026,137.423 779.696,184.104 804.689,130.199 	"/>
	<path class="st1" d="M812.637,143.087c-1.73-3.909-3.474-8.389-1.78-12.314c0.597-1.383,1.578-2.559,2.546-3.714
		c2.224-2.653,4.437-5.315,6.675-7.955C819.117,123.522,810.939,139.271,812.637,143.087z"/>
	<path class="st1" d="M531.685,114.541c2.316,5.832,4.295,11.799,5.925,17.859c2.893-2.636,3.716-7.281,1.906-10.752
		c-2.088-4.003-6.726-5.791-10.404-8.409c-0.377-0.269-0.891-0.553-1.264-0.278c-0.373,0.275,0.336,0.968,0.43,0.514"/>
	<path class="st14" d="M750.7,197.665c-2.965,6.275-7.776,11.518-13.101,15.966c8.237-1.881,14.975-8.284,18.677-15.883
		c3.59-7.184,5.14-16.472,4.173-24.404C751.234,179.551,755.02,188.523,750.7,197.665z"/>
	<path class="st1" d="M663.271,250.672c4.07-1.051,8.114-2.261,12.276-2.851c6.661-0.944,13.433-0.278,20.131,0.352
		c19.095,1.796,38.531,3.275,57.308-0.629c-16.843,4.38-34.11,7.016-51.45,8.494c-7.931,0.676-15.88,1.111-23.827,1.546
		c-3.8,0.208-7.6,0.416-11.4,0.624c-13.341,0.73-28.953,3.249-42.062,0.691c3.695-3.439,9.849-3.328,14.7-3.857
		C647.152,254.146,655.277,252.736,663.271,250.672z"/>
	<path class="st1" d="M612.263,226.684c-2.522,0.499,144.64-3.119,144.64-3.119S668.997,215.455,612.263,226.684z"/>
	<path class="st0" d="M660.63,366.704c3.623,7.179,5.34,16.209,1.109,23.047c4.507-0.645,9.14-0.401,13.554,0.714
		c2.474-18.397,5.667-36.697,9.569-54.845c-10.077,0.611-20.27-0.759-29.829-4.01c-8.034-2.732-15.667-6.705-24.173-7.794
		c5.251,5.736,5.041,11.526,9.029,18.622C644.91,351.369,655.987,357.504,660.63,366.704z"/>
	<path class="st0" d="M717.546,375.897c3.678,5.23,5.556,12.25,2.972,18.098c6.644-0.43,13.247-1.488,19.692-3.157
		c2.339-9.569-1.208-20.331-8.776-26.631c-1.004-0.836-2.159-1.75-2.284-3.051c-0.085-0.889,0.346-1.737,0.773-2.521
		c6.143-11.273,14.22-22.087,15.771-34.833c-13.011,2.537-38.931,1.874-44.922,16.372
		C693.459,357.875,709.21,364.044,717.546,375.897z"/>
	<path class="st1" d="M606.481,251.187c-3.077-1.889-6.87-2.576-10.414-1.888c-1.977,0.384-12.257-43.275-12.606-47.385
		C595.664,208.734,601.445,238.627,606.481,251.187z"/>
	<path class="st1" d="M762.324,248.454c3.705-1.483,5.302-5.83,5.943-9.77c0.64-3.941,0.842-8.206,3.265-11.378
		c-2.256,11.481-1.324,23.572,2.663,34.572c1.056-18.788,2.113-37.576,3.169-56.364c0.334-5.946,0.801-11.808,2.737-17.482
		c-0.378,9.146-6.622,18.569-9.521,27.219C766.951,226.076,764.183,237.187,762.324,248.454z"/>
	<g>
		<path class="st16" d="M663.108,356.16c9.026-5.707,19.809-10.194,30.197-7.728c10.389,2.466,18.742,14.585,13.919,24.116
			c6.272-6.529,15.525-9.381,24.54-10.185c10.012-0.892,21.047,0.86,27.966,8.155c6.919,7.295,6.951,21.194-1.825,26.096
			c9.033-1.055,18.478,3.767,22.928,11.703c4.449,7.937,3.637,18.516-1.972,25.679c-4.212,5.379-10.58,8.636-17.036,10.867
			c-10.34,3.573-21.752,4.896-32.241,1.789s-19.84-11.144-22.746-21.696c2.72,9.875-29.055,25.746-36.057,26.706
			c-18.219,2.497-25.223-9.109-31.203-24.537c-53.523,33.47-65.576-85.131,9.459-51.106
			C649.862,367.06,655.75,360.812,663.108,356.16z"/>
		<path class="st17" d="M640.889,372.128c7.559-12.358,19.105-23.211,33.353-25.793s30.829,5.578,34.056,19.702
			c11.077-11.933,30.561-15.933,44.489-7.504c13.927,8.429,19.04,29.457,9.024,42.295c5.648-8.349,2.484-20.677-5.367-26.996
			s-19.022-7.28-28.744-4.631c-9.722,2.649-18.26,8.464-26.196,14.677c1.365-12.58-10.383-24.42-23.027-24.656
			c-12.644-0.237-24.243,9.726-27.586,21.929c1.849-6.75-23.268-6.951-26.242-6.251c-11.024,2.594-16.772,10.279-23.896,18.124
			c-9.293-5.604,3.779-18.49,9.374-21.638C619.472,366.126,631.834,366.34,640.889,372.128z"/>
		<path class="st17" d="M774.934,402.579c-8.205-3.882-17.114-7.245-26.136-6.253c-8.472,0.932-16.408,5.916-20.929,13.146
			c3.657-8.299,10.059-15.665,18.479-19.024c8.42-3.359,18.886-2.094,25.338,4.276c4.896,4.834,6.995,11.815,8.129,18.604"/>
		<path class="st17" d="M653.563,383.039c5.978-2.561,13.014-2.531,18.969,0.083c-7.608,0.846-15.236,2.377-22.13,5.707
			c-6.893,3.33-13.043,8.602-16.352,15.509C637.369,397.376,646.381,386.116,653.563,383.039z"/>
	</g>
</g>
</svg>
