<?xml version="1.0" encoding="utf-8"?>
<!-- Generator: Adobe Illustrator 22.0.1, SVG Export Plug-In . SVG Version: 6.00 Build 0)  -->
<svg version="1.1" id="Ebene_1" xmlns="http://www.w3.org/2000/svg" xmlns:xlink="http://www.w3.org/1999/xlink" x="0px" y="0px"
	 width="110px" height="50px" viewBox="0 0 110 50" style="enable-background:new 0 0 110 50;" xml:space="preserve">
<style type="text/css">
	.st0{fill:#AF1280;}
</style>
<path class="st0" d="M7.45,22.137c-2.73-4.249-4.568-10.781,2.115-15.25c5.036-3.325,9.818-2.827,12.525-0.496
	c2.707,2.331,5.069,8.279,4.967,10.798c1.265-4.085,1.921-5.471,3.608-7.621c2.639-3.423,11.606-7.495,16.66-1.335
	c1.333,1.669,2.351,3.729,2.565,5.856c0.633,4.163-1.099,7.421-2.703,9.979C44.3,28.692,29.154,42.096,25.616,45.482
	C25.367,44.261,13.286,31.255,7.45,22.137z"/>
<path class="st0" d="M58.02,21.505c-3.333-5.186-5.577-13.159,2.582-18.614c6.149-4.058,11.987-3.451,15.292-0.605
	c3.305,2.845,6.189,10.105,6.064,13.18c1.545-4.986,2.345-6.678,4.405-9.302c3.222-4.178,14.17-9.148,20.341-1.629
	c1.628,2.037,2.87,4.552,3.132,7.148c0.773,5.081-1.342,9.058-3.3,12.18C103.012,29.506,84.519,45.867,80.199,50
	C79.895,48.51,65.145,32.635,58.02,21.505z"/>
</svg>
