<?xml version="1.0" encoding="utf-8"?>
<!-- Generator: Adobe Illustrator 22.0.1, SVG Export Plug-In . SVG Version: 6.00 Build 0)  -->
<svg version="1.1" id="Ebene_1" xmlns="http://www.w3.org/2000/svg" xmlns:xlink="http://www.w3.org/1999/xlink" x="0px" y="0px"
	 width="6750px" height="596px" viewBox="0 0 6750 596" style="enable-background:new 0 0 6750 596;" xml:space="preserve">
<style type="text/css">
	.st0{fill:#B74191;}
	.st1{fill:#784E9A;}
	.st2{fill:#2A4E9D;}
	.st3{fill:#6BBFA0;}
	.st4{fill:#76B82A;}
	.st5{fill:#A8C812;}
	.st6{fill:#E3E01E;}
	.st7{fill:#FBBC13;}
	.st8{fill:#EA5131;}
	.st9{fill:#E2071B;}
</style>
<path class="st0" d="M337.5,407.71c-58.89,0-106.62,84.3-106.62,188.29h44.66c0-60.43,27.74-109.42,61.96-109.42
	c34.22,0,61.96,48.99,61.96,109.42h44.66C444.12,492.01,396.39,407.71,337.5,407.71z"/>
<path class="st1" d="M337.5,362.41c-73.05,0-132.27,104.58-132.27,233.59h25.65c0-103.99,47.74-188.29,106.62-188.29
	S444.12,492.01,444.12,596h25.65C469.77,466.99,410.55,362.41,337.5,362.41z"/>
<path class="st2" d="M337.5,317.11c-87.22,0-157.93,124.86-157.93,278.89h25.65c0-129.01,59.22-233.59,132.27-233.59
	S469.77,466.99,469.77,596h25.65C495.43,441.97,424.72,317.11,337.5,317.11z"/>
<path class="st3" d="M337.5,271.81c-101.39,0-183.58,145.15-183.58,324.19h25.65c0-154.03,70.71-278.89,157.93-278.89
	S495.43,441.97,495.43,596h25.65C521.08,416.95,438.89,271.81,337.5,271.81z"/>
<path class="st4" d="M337.5,226.51c-115.56,0-209.23,165.43-209.23,369.49h25.65c0-179.04,82.19-324.19,183.58-324.19
	S521.08,416.96,521.08,596h25.65C546.73,391.93,453.06,226.51,337.5,226.51z"/>
<path class="st5" d="M337.5,181.21c-129.73,0-234.89,185.71-234.89,414.79h25.65c0-204.07,93.68-369.49,209.23-369.49
	c115.56,0,209.23,165.43,209.23,369.49h25.65C572.39,366.92,467.22,181.21,337.5,181.21z"/>
<path class="st6" d="M337.5,135.9C193.61,135.9,76.96,341.9,76.96,596h25.65c0-229.08,105.16-414.79,234.89-414.79
	c129.72,0,234.89,185.71,234.89,414.79h25.65C598.04,341.9,481.39,135.9,337.5,135.9z"/>
<path class="st7" d="M337.5,90.6C179.44,90.6,51.31,316.88,51.31,596h25.65c0-254.1,116.65-460.1,260.54-460.1
	S598.04,341.9,598.04,596h25.65C623.69,316.88,495.56,90.6,337.5,90.6z"/>
<path class="st8" d="M337.5,45.3C165.27,45.3,25.65,291.86,25.65,596h25.65c0-279.12,128.13-505.4,286.19-505.4
	S623.69,316.88,623.69,596h25.65C649.35,291.86,509.73,45.3,337.5,45.3z"/>
<path class="st9" d="M337.5,45.3c172.23,0,311.85,246.56,311.85,550.7H675C675,266.84,523.9,0,337.5,0S0,266.84,0,596h25.65
	C25.65,291.86,165.27,45.3,337.5,45.3z"/>
<g>
	<path class="st9" d="M1012.5,407.71c-58.89,0-106.62,84.3-106.62,188.29h44.66c0-60.43,27.74-109.42,61.96-109.42
		c34.22,0,61.96,48.99,61.96,109.42h44.66C1119.12,492.01,1071.39,407.71,1012.5,407.71z"/>
	<path class="st0" d="M1012.5,362.41c-73.05,0-132.27,104.58-132.27,233.59h25.65c0-103.99,47.74-188.29,106.62-188.29
		s106.62,84.3,106.62,188.29h25.65C1144.77,466.99,1085.55,362.41,1012.5,362.41z"/>
	<path class="st1" d="M1012.5,317.11c-87.22,0-157.93,124.86-157.93,278.89h25.65c0-129.01,59.22-233.59,132.27-233.59
		S1144.77,466.99,1144.77,596h25.65C1170.43,441.97,1099.72,317.11,1012.5,317.11z"/>
	<path class="st2" d="M1012.5,271.81c-101.39,0-183.58,145.15-183.58,324.19h25.65c0-154.03,70.71-278.89,157.93-278.89
		S1170.43,441.97,1170.43,596h25.65C1196.08,416.95,1113.89,271.81,1012.5,271.81z"/>
	<path class="st3" d="M1012.5,226.51c-115.56,0-209.23,165.43-209.23,369.49h25.65c0-179.04,82.19-324.19,183.58-324.19
		S1196.08,416.96,1196.08,596h25.65C1221.73,391.93,1128.06,226.51,1012.5,226.51z"/>
	<path class="st4" d="M1012.5,181.21c-129.72,0-234.89,185.71-234.89,414.79h25.65c0-204.07,93.68-369.49,209.23-369.49
		c115.56,0,209.23,165.43,209.23,369.49h25.65C1247.39,366.92,1142.22,181.21,1012.5,181.21z"/>
	<path class="st5" d="M1012.5,135.9c-143.89,0-260.54,205.99-260.54,460.1h25.65c0-229.08,105.16-414.79,234.89-414.79
		c129.72,0,234.89,185.71,234.89,414.79h25.65C1273.04,341.9,1156.39,135.9,1012.5,135.9z"/>
	<path class="st6" d="M1012.5,90.6c-158.06,0-286.19,226.27-286.19,505.4h25.65c0-254.1,116.65-460.1,260.54-460.1
		S1273.04,341.9,1273.04,596h25.65C1298.69,316.88,1170.56,90.6,1012.5,90.6z"/>
	<path class="st7" d="M1012.5,45.3c-172.23,0-311.85,246.56-311.85,550.7h25.65c0-279.12,128.13-505.4,286.19-505.4
		s286.19,226.27,286.19,505.4h25.65C1324.35,291.86,1184.73,45.3,1012.5,45.3z"/>
	<path class="st8" d="M1012.5,45.3c172.23,0,311.85,246.56,311.85,550.7H1350c0-329.16-151.1-596-337.5-596S675,266.84,675,596
		h25.65C700.65,291.86,840.27,45.3,1012.5,45.3z"/>
</g>
<g>
	<path class="st8" d="M1687.5,407.71c-58.89,0-106.62,84.3-106.62,188.29h44.66c0-60.43,27.74-109.42,61.96-109.42
		c34.22,0,61.96,48.99,61.96,109.42h44.66C1794.12,492.01,1746.39,407.71,1687.5,407.71z"/>
	<path class="st9" d="M1687.5,362.41c-73.05,0-132.27,104.58-132.27,233.59h25.65c0-103.99,47.74-188.29,106.62-188.29
		s106.62,84.3,106.62,188.29h25.65C1819.77,466.99,1760.55,362.41,1687.5,362.41z"/>
	<path class="st0" d="M1687.5,317.11c-87.22,0-157.93,124.86-157.93,278.89h25.65c0-129.01,59.22-233.59,132.27-233.59
		S1819.77,466.99,1819.77,596h25.65C1845.43,441.97,1774.72,317.11,1687.5,317.11z"/>
	<path class="st1" d="M1687.5,271.81c-101.39,0-183.58,145.15-183.58,324.19h25.65c0-154.03,70.71-278.89,157.93-278.89
		S1845.43,441.97,1845.43,596h25.65C1871.08,416.95,1788.89,271.81,1687.5,271.81z"/>
	<path class="st2" d="M1687.5,226.51c-115.56,0-209.23,165.43-209.23,369.49h25.65c0-179.04,82.19-324.19,183.58-324.19
		S1871.08,416.96,1871.08,596h25.65C1896.73,391.93,1803.06,226.51,1687.5,226.51z"/>
	<path class="st3" d="M1687.5,181.21c-129.72,0-234.89,185.71-234.89,414.79h25.65c0-204.07,93.68-369.49,209.23-369.49
		c115.56,0,209.23,165.43,209.23,369.49h25.65C1922.39,366.92,1817.22,181.21,1687.5,181.21z"/>
	<path class="st4" d="M1687.5,135.9c-143.89,0-260.54,205.99-260.54,460.1h25.65c0-229.08,105.16-414.79,234.89-414.79
		c129.72,0,234.89,185.71,234.89,414.79h25.65C1948.04,341.9,1831.39,135.9,1687.5,135.9z"/>
	<path class="st5" d="M1687.5,90.6c-158.06,0-286.19,226.27-286.19,505.4h25.65c0-254.1,116.65-460.1,260.54-460.1
		S1948.04,341.9,1948.04,596h25.65C1973.69,316.88,1845.56,90.6,1687.5,90.6z"/>
	<path class="st6" d="M1687.5,45.3c-172.23,0-311.85,246.56-311.85,550.7h25.65c0-279.12,128.13-505.4,286.19-505.4
		s286.19,226.27,286.19,505.4h25.65C1999.35,291.86,1859.73,45.3,1687.5,45.3z"/>
	<path class="st7" d="M1687.5,45.3c172.23,0,311.85,246.56,311.85,550.7H2025c0-329.16-151.1-596-337.5-596S1350,266.84,1350,596
		h25.65C1375.65,291.86,1515.27,45.3,1687.5,45.3z"/>
</g>
<g>
	<path class="st7" d="M2362.5,407.71c-58.89,0-106.62,84.3-106.62,188.29h44.66c0-60.43,27.74-109.42,61.96-109.42
		c34.22,0,61.96,48.99,61.96,109.42h44.66C2469.12,492.01,2421.39,407.71,2362.5,407.71z"/>
	<path class="st8" d="M2362.5,362.41c-73.05,0-132.27,104.58-132.27,233.59h25.65c0-103.99,47.74-188.29,106.62-188.29
		s106.62,84.3,106.62,188.29h25.65C2494.77,466.99,2435.55,362.41,2362.5,362.41z"/>
	<path class="st9" d="M2362.5,317.11c-87.22,0-157.93,124.86-157.93,278.89h25.65c0-129.01,59.22-233.59,132.27-233.59
		S2494.77,466.99,2494.77,596h25.65C2520.43,441.97,2449.72,317.11,2362.5,317.11z"/>
	<path class="st0" d="M2362.5,271.81c-101.39,0-183.58,145.15-183.58,324.19h25.65c0-154.03,70.71-278.89,157.93-278.89
		S2520.43,441.97,2520.43,596h25.65C2546.08,416.95,2463.89,271.81,2362.5,271.81z"/>
	<path class="st1" d="M2362.5,226.51c-115.56,0-209.23,165.43-209.23,369.49h25.65c0-179.04,82.19-324.19,183.58-324.19
		S2546.08,416.96,2546.08,596h25.65C2571.73,391.93,2478.06,226.51,2362.5,226.51z"/>
	<path class="st2" d="M2362.5,181.21c-129.73,0-234.89,185.71-234.89,414.79h25.65c0-204.07,93.68-369.49,209.23-369.49
		c115.56,0,209.23,165.43,209.23,369.49h25.65C2597.39,366.92,2492.22,181.21,2362.5,181.21z"/>
	<path class="st3" d="M2362.5,135.9c-143.89,0-260.54,205.99-260.54,460.1h25.65c0-229.08,105.16-414.79,234.89-414.79
		c129.72,0,234.89,185.71,234.89,414.79h25.65C2623.04,341.9,2506.39,135.9,2362.5,135.9z"/>
	<path class="st4" d="M2362.5,90.6c-158.06,0-286.19,226.27-286.19,505.4h25.65c0-254.1,116.65-460.1,260.54-460.1
		S2623.04,341.9,2623.04,596h25.65C2648.69,316.88,2520.56,90.6,2362.5,90.6z"/>
	<path class="st5" d="M2362.5,45.3c-172.23,0-311.85,246.56-311.85,550.7h25.65c0-279.12,128.13-505.4,286.19-505.4
		s286.19,226.27,286.19,505.4h25.65C2674.35,291.86,2534.73,45.3,2362.5,45.3z"/>
	<path class="st6" d="M2362.5,45.3c172.23,0,311.85,246.56,311.85,550.7H2700c0-329.16-151.1-596-337.5-596S2025,266.84,2025,596
		h25.65C2050.65,291.86,2190.27,45.3,2362.5,45.3z"/>
</g>
<g>
	<path class="st6" d="M3037.5,407.71c-58.89,0-106.62,84.3-106.62,188.29h44.66c0-60.43,27.74-109.42,61.96-109.42
		c34.22,0,61.96,48.99,61.96,109.42h44.66C3144.12,492.01,3096.39,407.71,3037.5,407.71z"/>
	<path class="st7" d="M3037.5,362.41c-73.05,0-132.27,104.58-132.27,233.59h25.65c0-103.99,47.74-188.29,106.62-188.29
		s106.62,84.3,106.62,188.29h25.65C3169.77,466.99,3110.55,362.41,3037.5,362.41z"/>
	<path class="st8" d="M3037.5,317.11c-87.22,0-157.93,124.86-157.93,278.89h25.65c0-129.01,59.22-233.59,132.27-233.59
		S3169.77,466.99,3169.77,596h25.65C3195.43,441.97,3124.72,317.11,3037.5,317.11z"/>
	<path class="st9" d="M3037.5,271.81c-101.39,0-183.58,145.15-183.58,324.19h25.65c0-154.03,70.71-278.89,157.93-278.89
		S3195.43,441.97,3195.43,596h25.65C3221.08,416.95,3138.89,271.81,3037.5,271.81z"/>
	<path class="st0" d="M3037.5,226.51c-115.56,0-209.23,165.43-209.23,369.49h25.65c0-179.04,82.19-324.19,183.58-324.19
		S3221.08,416.96,3221.08,596h25.65C3246.73,391.93,3153.06,226.51,3037.5,226.51z"/>
	<path class="st1" d="M3037.5,181.21c-129.73,0-234.89,185.71-234.89,414.79h25.65c0-204.07,93.68-369.49,209.23-369.49
		c115.56,0,209.23,165.43,209.23,369.49h25.65C3272.39,366.92,3167.22,181.21,3037.5,181.21z"/>
	<path class="st2" d="M3037.5,135.9c-143.89,0-260.54,205.99-260.54,460.1h25.65c0-229.08,105.16-414.79,234.89-414.79
		c129.72,0,234.89,185.71,234.89,414.79h25.65C3298.04,341.9,3181.39,135.9,3037.5,135.9z"/>
	<path class="st3" d="M3037.5,90.6c-158.06,0-286.19,226.27-286.19,505.4h25.65c0-254.1,116.65-460.1,260.54-460.1
		S3298.04,341.9,3298.04,596h25.65C3323.69,316.88,3195.56,90.6,3037.5,90.6z"/>
	<path class="st4" d="M3037.5,45.3c-172.23,0-311.85,246.56-311.85,550.7h25.65c0-279.12,128.13-505.4,286.19-505.4
		s286.19,226.27,286.19,505.4h25.65C3349.35,291.86,3209.73,45.3,3037.5,45.3z"/>
	<path class="st5" d="M3037.5,45.3c172.23,0,311.85,246.56,311.85,550.7H3375c0-329.16-151.1-596-337.5-596S2700,266.84,2700,596
		h25.65C2725.65,291.86,2865.27,45.3,3037.5,45.3z"/>
</g>
<g>
	<path class="st5" d="M3712.5,407.71c-58.89,0-106.62,84.3-106.62,188.29h44.66c0-60.43,27.74-109.42,61.96-109.42
		c34.22,0,61.96,48.99,61.96,109.42h44.66C3819.12,492.01,3771.39,407.71,3712.5,407.71z"/>
	<path class="st6" d="M3712.5,362.41c-73.05,0-132.27,104.58-132.27,233.59h25.65c0-103.99,47.74-188.29,106.62-188.29
		s106.62,84.3,106.62,188.29h25.65C3844.77,466.99,3785.55,362.41,3712.5,362.41z"/>
	<path class="st7" d="M3712.5,317.11c-87.22,0-157.93,124.86-157.93,278.89h25.65c0-129.01,59.22-233.59,132.27-233.59
		S3844.77,466.99,3844.77,596h25.65C3870.43,441.97,3799.72,317.11,3712.5,317.11z"/>
	<path class="st8" d="M3712.5,271.81c-101.39,0-183.58,145.15-183.58,324.19h25.65c0-154.03,70.71-278.89,157.93-278.89
		S3870.43,441.97,3870.43,596h25.65C3896.08,416.95,3813.89,271.81,3712.5,271.81z"/>
	<path class="st9" d="M3712.5,226.51c-115.56,0-209.23,165.43-209.23,369.49h25.65c0-179.04,82.19-324.19,183.58-324.19
		S3896.08,416.96,3896.08,596h25.65C3921.73,391.93,3828.06,226.51,3712.5,226.51z"/>
	<path class="st0" d="M3712.5,181.21c-129.73,0-234.89,185.71-234.89,414.79h25.65c0-204.07,93.68-369.49,209.23-369.49
		c115.56,0,209.23,165.43,209.23,369.49h25.65C3947.39,366.92,3842.22,181.21,3712.5,181.21z"/>
	<path class="st1" d="M3712.5,135.9c-143.89,0-260.54,205.99-260.54,460.1h25.65c0-229.08,105.16-414.79,234.89-414.79
		c129.72,0,234.89,185.71,234.89,414.79h25.65C3973.04,341.9,3856.39,135.9,3712.5,135.9z"/>
	<path class="st2" d="M3712.5,90.6c-158.06,0-286.19,226.27-286.19,505.4h25.65c0-254.1,116.65-460.1,260.54-460.1
		S3973.04,341.9,3973.04,596h25.65C3998.69,316.88,3870.56,90.6,3712.5,90.6z"/>
	<path class="st3" d="M3712.5,45.3c-172.23,0-311.85,246.56-311.85,550.7h25.65c0-279.12,128.13-505.4,286.19-505.4
		s286.19,226.27,286.19,505.4h25.65C4024.35,291.86,3884.73,45.3,3712.5,45.3z"/>
	<path class="st4" d="M3712.5,45.3c172.23,0,311.85,246.56,311.85,550.7H4050c0-329.16-151.1-596-337.5-596S3375,266.84,3375,596
		h25.65C3400.65,291.86,3540.27,45.3,3712.5,45.3z"/>
</g>
<g>
	<path class="st4" d="M4387.5,407.71c-58.88,0-106.62,84.3-106.62,188.29h44.66c0-60.43,27.74-109.42,61.96-109.42
		c34.22,0,61.96,48.99,61.96,109.42h44.66C4494.12,492.01,4446.38,407.71,4387.5,407.71z"/>
	<path class="st5" d="M4387.5,362.41c-73.05,0-132.27,104.58-132.27,233.59h25.65c0-103.99,47.74-188.29,106.62-188.29
		s106.62,84.3,106.62,188.29h25.65C4519.77,466.99,4460.55,362.41,4387.5,362.41z"/>
	<path class="st6" d="M4387.5,317.11c-87.22,0-157.93,124.86-157.93,278.89h25.65c0-129.01,59.22-233.59,132.27-233.59
		S4519.77,466.99,4519.77,596h25.65C4545.43,441.97,4474.72,317.11,4387.5,317.11z"/>
	<path class="st7" d="M4387.5,271.81c-101.39,0-183.58,145.15-183.58,324.19h25.65c0-154.03,70.71-278.89,157.93-278.89
		S4545.43,441.97,4545.43,596h25.65C4571.08,416.95,4488.89,271.81,4387.5,271.81z"/>
	<path class="st8" d="M4387.5,226.51c-115.56,0-209.23,165.43-209.23,369.49h25.65c0-179.04,82.19-324.19,183.58-324.19
		S4571.08,416.96,4571.08,596h25.65C4596.73,391.93,4503.06,226.51,4387.5,226.51z"/>
	<path class="st9" d="M4387.5,181.21c-129.73,0-234.89,185.71-234.89,414.79h25.65c0-204.07,93.68-369.49,209.23-369.49
		c115.56,0,209.23,165.43,209.23,369.49h25.65C4622.39,366.92,4517.22,181.21,4387.5,181.21z"/>
	<path class="st0" d="M4387.5,135.9c-143.89,0-260.54,205.99-260.54,460.1h25.65c0-229.08,105.16-414.79,234.89-414.79
		c129.72,0,234.89,185.71,234.89,414.79h25.65C4648.04,341.9,4531.39,135.9,4387.5,135.9z"/>
	<path class="st1" d="M4387.5,90.6c-158.06,0-286.19,226.27-286.19,505.4h25.65c0-254.1,116.65-460.1,260.54-460.1
		S4648.04,341.9,4648.04,596h25.65C4673.69,316.88,4545.56,90.6,4387.5,90.6z"/>
	<path class="st2" d="M4387.5,45.3c-172.23,0-311.85,246.56-311.85,550.7h25.65c0-279.12,128.13-505.4,286.19-505.4
		s286.19,226.27,286.19,505.4h25.65C4699.35,291.86,4559.73,45.3,4387.5,45.3z"/>
	<path class="st3" d="M4387.5,45.3c172.23,0,311.85,246.56,311.85,550.7H4725c0-329.16-151.1-596-337.5-596S4050,266.84,4050,596
		h25.65C4075.65,291.86,4215.27,45.3,4387.5,45.3z"/>
</g>
<g>
	<path class="st3" d="M5062.5,407.71c-58.88,0-106.62,84.3-106.62,188.29h44.66c0-60.43,27.74-109.42,61.96-109.42
		c34.22,0,61.96,48.99,61.96,109.42h44.66C5169.12,492.01,5121.38,407.71,5062.5,407.71z"/>
	<path class="st4" d="M5062.5,362.41c-73.05,0-132.27,104.58-132.27,233.59h25.65c0-103.99,47.74-188.29,106.62-188.29
		s106.62,84.3,106.62,188.29h25.65C5194.77,466.99,5135.55,362.41,5062.5,362.41z"/>
	<path class="st5" d="M5062.5,317.11c-87.22,0-157.93,124.86-157.93,278.89h25.65c0-129.01,59.22-233.59,132.27-233.59
		S5194.77,466.99,5194.77,596h25.65C5220.43,441.97,5149.72,317.11,5062.5,317.11z"/>
	<path class="st6" d="M5062.5,271.81c-101.39,0-183.58,145.15-183.58,324.19h25.65c0-154.03,70.71-278.89,157.93-278.89
		S5220.43,441.97,5220.43,596h25.65C5246.08,416.95,5163.89,271.81,5062.5,271.81z"/>
	<path class="st7" d="M5062.5,226.51c-115.56,0-209.23,165.43-209.23,369.49h25.65c0-179.04,82.19-324.19,183.58-324.19
		S5246.08,416.96,5246.08,596h25.65C5271.73,391.93,5178.06,226.51,5062.5,226.51z"/>
	<path class="st8" d="M5062.5,181.21c-129.73,0-234.89,185.71-234.89,414.79h25.65c0-204.07,93.68-369.49,209.23-369.49
		c115.56,0,209.23,165.43,209.23,369.49h25.65C5297.39,366.92,5192.22,181.21,5062.5,181.21z"/>
	<path class="st9" d="M5062.5,135.9c-143.89,0-260.54,205.99-260.54,460.1h25.65c0-229.08,105.16-414.79,234.89-414.79
		c129.72,0,234.89,185.71,234.89,414.79h25.65C5323.04,341.9,5206.39,135.9,5062.5,135.9z"/>
	<path class="st0" d="M5062.5,90.6c-158.06,0-286.19,226.27-286.19,505.4h25.65c0-254.1,116.65-460.1,260.54-460.1
		S5323.04,341.9,5323.04,596h25.65C5348.69,316.88,5220.56,90.6,5062.5,90.6z"/>
	<path class="st1" d="M5062.5,45.3c-172.23,0-311.85,246.56-311.85,550.7h25.65c0-279.12,128.13-505.4,286.19-505.4
		s286.19,226.27,286.19,505.4h25.65C5374.35,291.86,5234.73,45.3,5062.5,45.3z"/>
	<path class="st2" d="M5062.5,45.3c172.23,0,311.85,246.56,311.85,550.7H5400c0-329.16-151.1-596-337.5-596S4725,266.84,4725,596
		h25.65C4750.65,291.86,4890.27,45.3,5062.5,45.3z"/>
</g>
<g>
	<path class="st2" d="M5737.5,407.71c-58.88,0-106.62,84.3-106.62,188.29h44.66c0-60.43,27.74-109.42,61.96-109.42
		c34.22,0,61.96,48.99,61.96,109.42h44.66C5844.12,492.01,5796.38,407.71,5737.5,407.71z"/>
	<path class="st3" d="M5737.5,362.41c-73.05,0-132.27,104.58-132.27,233.59h25.65c0-103.99,47.74-188.29,106.62-188.29
		s106.62,84.3,106.62,188.29h25.65C5869.77,466.99,5810.55,362.41,5737.5,362.41z"/>
	<path class="st4" d="M5737.5,317.11c-87.22,0-157.93,124.86-157.93,278.89h25.65c0-129.01,59.22-233.59,132.27-233.59
		S5869.77,466.99,5869.77,596h25.65C5895.43,441.97,5824.72,317.11,5737.5,317.11z"/>
	<path class="st5" d="M5737.5,271.81c-101.39,0-183.58,145.15-183.58,324.19h25.65c0-154.03,70.71-278.89,157.93-278.89
		S5895.43,441.97,5895.43,596h25.65C5921.08,416.95,5838.89,271.81,5737.5,271.81z"/>
	<path class="st6" d="M5737.5,226.51c-115.56,0-209.23,165.43-209.23,369.49h25.65c0-179.04,82.19-324.19,183.58-324.19
		S5921.08,416.96,5921.08,596h25.65C5946.73,391.93,5853.06,226.51,5737.5,226.51z"/>
	<path class="st7" d="M5737.5,181.21c-129.73,0-234.89,185.71-234.89,414.79h25.65c0-204.07,93.68-369.49,209.23-369.49
		c115.56,0,209.23,165.43,209.23,369.49h25.65C5972.39,366.92,5867.22,181.21,5737.5,181.21z"/>
	<path class="st8" d="M5737.5,135.9c-143.89,0-260.54,205.99-260.54,460.1h25.65c0-229.08,105.16-414.79,234.89-414.79
		c129.72,0,234.89,185.71,234.89,414.79h25.65C5998.04,341.9,5881.39,135.9,5737.5,135.9z"/>
	<path class="st9" d="M5737.5,90.6c-158.06,0-286.19,226.27-286.19,505.4h25.65c0-254.1,116.65-460.1,260.54-460.1
		S5998.04,341.9,5998.04,596h25.65C6023.69,316.88,5895.56,90.6,5737.5,90.6z"/>
	<path class="st0" d="M5737.5,45.3c-172.23,0-311.85,246.56-311.85,550.7h25.65c0-279.12,128.13-505.4,286.19-505.4
		s286.19,226.27,286.19,505.4h25.65C6049.35,291.86,5909.73,45.3,5737.5,45.3z"/>
	<path class="st1" d="M5737.5,45.3c172.23,0,311.85,246.56,311.85,550.7H6075c0-329.16-151.1-596-337.5-596S5400,266.84,5400,596
		h25.65C5425.65,291.86,5565.27,45.3,5737.5,45.3z"/>
</g>
<g>
	<path class="st1" d="M6412.5,407.71c-58.88,0-106.62,84.3-106.62,188.29h44.66c0-60.43,27.74-109.42,61.96-109.42
		c34.22,0,61.96,48.99,61.96,109.42h44.66C6519.12,492.01,6471.38,407.71,6412.5,407.71z"/>
	<path class="st2" d="M6412.5,362.41c-73.05,0-132.27,104.58-132.27,233.59h25.65c0-103.99,47.74-188.29,106.62-188.29
		s106.62,84.3,106.62,188.29h25.65C6544.77,466.99,6485.55,362.41,6412.5,362.41z"/>
	<path class="st3" d="M6412.5,317.11c-87.22,0-157.93,124.86-157.93,278.89h25.65c0-129.01,59.22-233.59,132.27-233.59
		S6544.77,466.99,6544.77,596h25.65C6570.43,441.97,6499.72,317.11,6412.5,317.11z"/>
	<path class="st4" d="M6412.5,271.81c-101.39,0-183.58,145.15-183.58,324.19h25.65c0-154.03,70.71-278.89,157.93-278.89
		S6570.43,441.97,6570.43,596h25.65C6596.08,416.95,6513.89,271.81,6412.5,271.81z"/>
	<path class="st5" d="M6412.5,226.51c-115.56,0-209.23,165.43-209.23,369.49h25.65c0-179.04,82.19-324.19,183.58-324.19
		S6596.08,416.96,6596.08,596h25.65C6621.73,391.93,6528.06,226.51,6412.5,226.51z"/>
	<path class="st6" d="M6412.5,181.21c-129.73,0-234.89,185.71-234.89,414.79h25.65c0-204.07,93.68-369.49,209.23-369.49
		c115.56,0,209.23,165.43,209.23,369.49h25.65C6647.39,366.92,6542.22,181.21,6412.5,181.21z"/>
	<path class="st7" d="M6412.5,135.9c-143.89,0-260.54,205.99-260.54,460.1h25.65c0-229.08,105.16-414.79,234.89-414.79
		c129.72,0,234.89,185.71,234.89,414.79h25.65C6673.04,341.9,6556.39,135.9,6412.5,135.9z"/>
	<path class="st8" d="M6412.5,90.6c-158.06,0-286.19,226.27-286.19,505.4h25.65c0-254.1,116.65-460.1,260.54-460.1
		S6673.04,341.9,6673.04,596h25.65C6698.69,316.88,6570.56,90.6,6412.5,90.6z"/>
	<path class="st9" d="M6412.5,45.3c-172.23,0-311.85,246.56-311.85,550.7h25.65c0-279.12,128.13-505.4,286.19-505.4
		s286.19,226.27,286.19,505.4h25.65C6724.35,291.86,6584.73,45.3,6412.5,45.3z"/>
	<path class="st0" d="M6412.5,45.3c172.23,0,311.85,246.56,311.85,550.7H6750c0-329.16-151.1-596-337.5-596S6075,266.84,6075,596
		h25.65C6100.65,291.86,6240.27,45.3,6412.5,45.3z"/>
</g>
</svg>
