<?xml version="1.0" encoding="utf-8"?>
<!-- Generator: Adobe Illustrator 22.0.1, SVG Export Plug-In . SVG Version: 6.00 Build 0)  -->
<svg version="1.1" id="Ebene_1" xmlns="http://www.w3.org/2000/svg" xmlns:xlink="http://www.w3.org/1999/xlink" x="0px" y="0px"
	 width="166px" height="63px" viewBox="0 0 166 63" style="enable-background:new 0 0 166 63;" xml:space="preserve">
<style type="text/css">
	.st0{fill:#C7017F;}
	.st1{fill:#DB4893;}
	.st2{fill:#E7E237;}
	.st3{fill:#1D1D1B;}
</style>
<g>
	<path class="st0" d="M13.985,19.666c-2.154-1.006-4.698-0.445-6.953,0.312s-4.564,1.708-6.927,1.423
		c-0.249,0.476-0.027,1.09,0.379,1.443s0.95,0.5,1.479,0.604c2.002,0.395,4.095,0.328,6.067-0.192
		c-1.454,1.694-2.908,3.389-4.361,5.083c-0.437,0.51-0.897,1.223-0.542,1.792c0.324,0.52,1.084,0.502,1.685,0.369
		c2.161-0.477,4.165-1.63,5.655-3.256c-0.842,2.161-1.354,4.449-1.515,6.761c-0.052,0.74,0.063,1.68,0.774,1.907
		c0.447,0.143,0.924-0.086,1.315-0.343c1.994-1.307,3.329-3.561,3.512-5.928c-0.147,0.974-0.021,1.987,0.361,2.896
		c0.182,0.433,0.608,0.912,1.037,0.717c0.198-0.09,0.309-0.297,0.401-0.494c0.485-1.043,0.799-2.165,0.926-3.308
		c-0.165,1.493,4.084,2.579,5.043,2.616c0.682,0.027,2.531,0.026,2.767-0.781c0.236-0.812-1.814-2.283-2.293-2.723
		c-1.212-1.113-2.349-2.259-3.436-3.494C17.748,23.241,16.269,20.733,13.985,19.666z"/>
	<path class="st1" d="M19.595,8.77c4.561-4.51,12.498-5.092,17.677-1.297c5.178,3.795,6.964,11.504,3.976,17.167
		c4.535-0.505,9.272,1.56,11.97,5.218c2.698,3.658,3.254,8.769,1.406,12.915c2.917-3.364,5.915-6.797,9.805-8.983
		c3.89-2.186,8.914-2.918,12.792-0.711c-0.329,2.326-2.817,3.617-4.995,4.528c-5.24,2.191-10.48,4.381-15.72,6.572
		c5.68-1.93,11.824-2.495,17.763-1.632c1.692,0.246,3.436,0.636,4.773,1.695c1.337,1.059,2.139,2.959,1.45,4.514
		c-1.014,2.289-4.217,2.405-6.692,1.95c-6.273-1.154-12.292-3.658-17.523-7.289c3.011,2.046,6.08,4.147,8.25,7.061
		c2.17,2.914,3.31,6.843,2.009,10.229c-0.378,0.983-1.048,1.967-2.074,2.226c-0.929,0.234-1.891-0.186-2.721-0.662
		c-6.017-3.454-9.598-10.682-8.684-17.528c-5.668,3.612-12.13,6.312-18.862,6.426s-13.738-2.691-17.525-8.223
		c-4.25-6.21-1.384-10.593-0.395-16.931C17.263,19.68,14.116,14.187,19.595,8.77z"/>
	<path class="st2" d="M21.235,0c-0.796,2.73-1.157,5.585-1.067,8.426c-2.19-0.319-4.488,0.145-6.379,1.288
		c1.669-0.456,3.408,0.962,4.468,2.322c0.35,0.449,3.844-2.079,5.667-3.223C28.032,6.235,21.315,3.246,21.235,0z"/>
	<path class="st2" d="M29.732,12.633c0.788-1.989,3.049-2.966,5.049-2.183c2.001,0.783,2.984,3.03,2.196,5.019
		c-0.788,1.989-3.049,2.966-5.049,2.183C29.928,16.868,28.944,14.621,29.732,12.633z"/>
	<path class="st3" d="M35.225,17.303c-1.86-1.749-3.803-3.635-4.44-6.1c-0.242-0.936-0.281-1.911-0.266-2.877
		c0.013-0.847,0.073-1.716,0.432-2.484c0.078-0.167,0.179-0.337,0.344-0.421c0.3-0.153,0.683,0.059,0.831,0.36
		c0.148,0.301,0.123,0.654,0.088,0.987c-0.189,1.791-0.587,3.56-1.183,5.261c0.251-1.087,0.655-2.139,1.197-3.115
		c0.169-0.304,0.364-0.615,0.67-0.784c0.305-0.169,0.75-0.139,0.94,0.153c0.091,0.14,0.11,0.314,0.108,0.48
		c-0.025,1.743-2.035,2.866-2.386,4.574c0.343-1.003,1.222-1.808,2.256-2.067c0.19-0.047,0.415-0.069,0.558,0.064
		c0.09,0.084,0.125,0.213,0.129,0.336c0.017,0.529-0.439,0.954-0.909,1.203c-0.469,0.25-1.002,0.414-1.374,0.792
		c0.612-0.439,1.386-0.649,2.137-0.581c-0.002,0.536-0.421,1.041-0.95,1.146c0.795,1.742,1.997,3.299,3.483,4.514"/>
	<path class="st0" d="M48.487,21.501c0.834-0.642,1.693-1.31,2.715-1.571c1.923-0.492,3.861,0.55,5.655,1.395
		c3.702,1.744,7.744,2.775,11.834,3.019c1.032,0.062,2.293,0.22,2.681,1.173c0.293,0.72-0.132,1.576-0.781,2.008
		c-0.65,0.432-1.463,0.532-2.244,0.568c-3.508,0.161-7.058-0.75-10.049-2.579c1.736,2.24,3.819,4.214,6.153,5.831
		c0.665,0.46,1.373,0.915,1.789,1.606c0.417,0.691,0.431,1.701-0.204,2.201c-0.708,0.559-1.746,0.215-2.554-0.187
		c-3.265-1.623-6.21-3.878-8.623-6.601c0.315-0.323,0.754,0.256,0.824,0.7c0.497,3.172,0.691,6.391,0.577,9.599
		c-0.015,0.423-0.084,0.924-0.464,1.115c-0.209,0.105-0.46,0.081-0.689,0.028c-1.516-0.354-2.503-1.794-3.161-3.197
		c-1.084-2.312-1.691-4.844-1.772-7.393c-0.216,2.225-0.595,4.433-1.134,6.603c-0.126,0.506-0.272,1.031-0.629,1.412
		c-0.538,0.572-1.46,0.667-2.19,0.373s-1.285-0.91-1.688-1.583c-1.12-1.874-1.164-4.337-0.112-6.249
		c-2.98,2.415-7.721,2.326-10.607-0.2c-0.425-0.372-0.843-0.926-0.637-1.451c0.363-0.921,2.639-0.447,3.457-0.57
		c1.488-0.224,2.929-0.687,4.304-1.29C43.676,25.064,46.134,23.313,48.487,21.501z"/>
	<path class="st0" d="M14.147,34.693c0.028-1.31,0.19-2.617,0.481-3.895c0.247-1.082,0.599-2.167,1.271-3.053
		c0.672-0.886,1.713-1.552,2.83-1.548c1.644,0.006,2.967,1.423,3.581,2.938s0.733,3.183,1.226,4.741
		c0.422,1.333,1.112,2.567,1.868,3.746c1.768,2.756,3.962,5.296,6.72,7.076c2.758,1.78,6.123,2.753,9.377,2.274
		c0.6-0.088,1.385-0.133,1.631,0.418c0.087,0.194,0.074,0.417,0.031,0.625c-0.372,1.788-2.538,2.467-4.347,2.782
		c-5.281,0.92-11.041,1.507-15.717-1.099c-1.722-0.96-3.201-2.313-4.443-3.839c-2.251-2.765-3.748-6.13-4.292-9.646
		c-0.268-1.729-0.297-3.556,0.395-5.165"/>
</g>
<g>
	<path class="st0" d="M95.095,37.667c-2.332,0.471-4.036,2.431-5.39,4.376c-1.354,1.945-2.635,4.079-4.702,5.252
		c0.086,0.529,0.634,0.89,1.171,0.933c0.538,0.043,1.062-0.163,1.55-0.393c1.843-0.872,3.482-2.167,4.752-3.755
		c-0.148,2.222-0.296,4.444-0.445,6.666c-0.045,0.668,0.015,1.513,0.642,1.759c0.572,0.225,1.171-0.241,1.574-0.704
		c1.447-1.664,2.361-3.779,2.581-5.968c0.623,2.233,1.587,4.373,2.847,6.323c0.403,0.624,1.06,1.31,1.766,1.071
		c0.444-0.15,0.689-0.617,0.849-1.056c0.814-2.232,0.531-4.832-0.744-6.84c0.467,0.869,1.177,1.607,2.029,2.109
		c0.406,0.239,1.036,0.371,1.263-0.041c0.105-0.189,0.069-0.422,0.025-0.634c-0.238-1.125-0.66-2.211-1.245-3.203
		c0.764,1.295,4.825-0.355,5.617-0.894c0.564-0.383,2.046-1.481,1.75-2.269c-0.298-0.792-2.826-0.755-3.475-0.823
		c-1.641-0.174-3.242-0.418-4.856-0.764C100.261,38.301,97.568,37.167,95.095,37.667z"/>
	<path class="st1" d="M93.048,25.597c0.949-6.325,6.966-11.502,13.4-11.531c6.434-0.029,12.497,5.095,13.504,11.411
		c3.335-3.096,8.375-4.251,12.737-2.918s7.879,5.102,8.887,9.526c0.318-4.43,0.662-8.962,2.468-13.024s5.397-7.63,9.834-8.161
		c1.134,2.061-0.087,4.573-1.287,6.596c-2.887,4.867-5.774,9.734-8.661,14.601c3.396-4.919,7.985-9.018,13.268-11.851
		c1.505-0.807,3.138-1.529,4.847-1.473s3.493,1.104,3.875,2.761c0.562,2.438-1.938,4.432-4.196,5.535
		c-5.726,2.797-12.058,4.361-18.435,4.552c3.644-0.146,7.369-0.282,10.86,0.768s6.766,3.525,7.757,7.013
		c0.287,1.012,0.341,2.2-0.327,3.017c-0.604,0.739-1.628,0.973-2.58,1.083c-6.901,0.8-14.117-2.873-17.496-8.906
		c-2.377,6.261-5.938,12.262-11.269,16.348c-5.331,4.087-12.637,5.994-18.998,3.804c-7.14-2.459-7.475-7.676-10.489-13.348
		C97.733,35.732,91.908,33.195,93.048,25.597z"/>
	<path class="st2" d="M89.095,17.589c1.002,2.662,2.427,5.167,4.206,7.392c-1.949,1.044-3.513,2.779-4.343,4.819
		c1.065-1.356,3.312-1.251,4.979-0.789c0.551,0.153,1.834-3.949,2.609-5.949C98.293,18.557,91.109,20.145,89.095,17.589z"/>
	<path class="st2" d="M103.501,22.68c-0.563-2.063,0.664-4.188,2.739-4.748c2.075-0.559,4.214,0.659,4.777,2.722
		c0.563,2.063-0.664,4.188-2.739,4.748C106.202,25.961,104.063,24.742,103.501,22.68z"/>
	<path class="st3" d="M110.713,23.166c-2.543-0.3-5.234-0.659-7.226-2.258c-0.756-0.607-1.373-1.366-1.942-2.15
		c-0.498-0.687-0.973-1.42-1.146-2.249c-0.038-0.181-0.059-0.377,0.023-0.542c0.149-0.3,0.584-0.358,0.883-0.204
		c0.299,0.154,0.492,0.451,0.663,0.739c0.924,1.549,1.668,3.204,2.212,4.922c-0.452-1.021-0.759-2.104-0.912-3.209
		c-0.047-0.344-0.077-0.709,0.066-1.026c0.143-0.317,0.518-0.556,0.846-0.435c0.157,0.058,0.277,0.186,0.375,0.321
		c1.027,1.413,0.089,3.507,0.835,5.085c-0.328-1.008-0.106-2.175,0.568-2.996c0.124-0.151,0.292-0.302,0.486-0.28
		c0.123,0.014,0.228,0.097,0.305,0.193c0.332,0.414,0.221,1.026-0.006,1.505c-0.226,0.479-0.555,0.927-0.626,1.451
		c0.227-0.715,0.722-1.343,1.365-1.734c0.32,0.431,0.288,1.085-0.073,1.483c1.684,0.925,3.584,1.461,5.506,1.554"/>
	<path class="st0" d="M123.873,18.663c0.283-1.01,0.572-2.055,1.234-2.871c1.247-1.536,3.427-1.85,5.375-2.237
		c4.018-0.798,7.879-2.369,11.306-4.601c0.865-0.563,1.972-1.184,2.856-0.65c0.668,0.404,0.841,1.342,0.58,2.075
		c-0.261,0.732-0.854,1.295-1.459,1.787c-2.717,2.211-6.112,3.587-9.61,3.896c2.739,0.767,5.596,1.114,8.439,1.026
		c0.81-0.025,1.651-0.08,2.4,0.226c0.749,0.307,1.367,1.109,1.159,1.887c-0.232,0.868-1.271,1.209-2.161,1.366
		c-3.594,0.636-7.311,0.575-10.883-0.178c0.059-0.446,0.759-0.243,1.081,0.073c2.305,2.249,4.394,4.716,6.23,7.358
		c0.242,0.348,0.488,0.791,0.298,1.17c-0.105,0.209-0.32,0.338-0.536,0.431c-1.429,0.616-3.086,0.047-4.456-0.688
		c-2.258-1.211-4.266-2.882-5.863-4.879c1.163,1.913,2.186,3.91,3.057,5.97c0.203,0.48,0.402,0.989,0.343,1.506
		c-0.088,0.778-0.771,1.401-1.533,1.599c-0.762,0.197-1.578,0.033-2.305-0.269c-2.024-0.839-3.539-2.788-3.845-4.946
		c-0.94,3.706-4.796,6.447-8.628,6.135c-0.565-0.046-1.233-0.242-1.382-0.786c-0.262-0.954,1.848-1.924,2.431-2.509
		c1.059-1.063,1.937-2.29,2.677-3.588C122.155,24.376,123.074,21.513,123.873,18.663z"/>
	<path class="st0" d="M104.253,49.625c-0.765-1.067-1.42-2.212-1.954-3.41c-0.452-1.015-0.821-2.094-0.814-3.203
		c0.007-1.11,0.442-2.262,1.34-2.921c1.322-0.971,3.235-0.619,4.638,0.232c1.403,0.851,2.5,2.118,3.832,3.076
		c1.14,0.819,2.434,1.4,3.749,1.896c3.074,1.161,6.36,1.897,9.642,1.687c3.282-0.209,6.566-1.426,8.888-3.74
		c0.428-0.427,1.031-0.929,1.559-0.633c0.186,0.104,0.31,0.291,0.4,0.483c0.776,1.655-0.554,3.485-1.815,4.811
		c-3.683,3.872-7.951,7.762-13.268,8.446c-1.958,0.252-3.958,0.044-5.87-0.443c-3.467-0.883-6.69-2.693-9.238-5.19
		c-1.254-1.228-2.375-2.677-2.786-4.378"/>
</g>
</svg>
